<svg xmlns="http://www.w3.org/2000/svg" class="dibsvg-svg dibsvg-account-filled" viewBox="0 0 500 500">
    <path d="M278.089 500c-87.365 0-177.13-.211-266.694-.633H0l.8-11.814c.4-6.751 4.198-65.612 13.594-87.764 1.6-4.008 11.796-28.903 37.585-38.608l78.769-33.544 33.186-15.4c.6-.212 15.194-6.54 19.193-24.895.4-2.743.2-6.54-.2-7.595-1.8-3.587-1.8-3.587-6.198-8.86l-.2-.212c-1.4-1.688-32.587-40.717-39.784-97.046-.4-2.743-4.198-29.536-.6-61.182 4.999-44.936 22.192-78.059 49.98-95.78C187.326 15.823 213.716 0 251.1 0c21.79 0 42.982 5.485 62.974 16.034 7.197 3.375 67.773 35.02 51.18 159.282-.4 4.009-6.597 53.376-39.584 95.36-.8.843-1.6 1.898-2.6 3.164-1.599 1.898-3.798 4.22-4.997 6.329-.2 1.055-.6 3.797.4 6.962l.2.633.2.844c.2.422 3.398 15.611 22.59 24.472l42.983 20.464 63.375 26.794c1.4.632 39.184 16.455 47.181 68.987l.2 1.055L500 499.578h-11.395c-1-.21-80.768.422-210.516.422z"/>
</svg>
