<svg version="1.1" class="dibsvg-svg dibsvg-alert-bell" xmlns="http://www.w3.org/2000/svg" xmlns:xlink="http://www.w3.org/1999/xlink" viewBox="0 0 250 250">
    <path d="M246.3,194.1c-1.3-0.2-31-4.4-30.1-58.4V85.4c0-0.1,0-0.1,0-0.2c-0.1-2.3-2.7-55.9-47.1-74.6 c-3.4-1.8-43.1-21.2-82.5,0.1c-3.1,1.5-44.9,22.5-46,74.2v52.4c0,0,0,0.1,0,0.1c0,0.3,0.6,31.9-14.7,47.8 c-5.6,5.9-12.6,8.8-21.2,8.9c-2.5,0-4.5,2.1-4.4,4.5c0,2.5,2,4.5,4.5,4.5h77.8c0.3,3.8,1.4,12.9,5.7,22.1 c7.5,16.1,20.8,24.4,38.5,24.1c0.2,0,0.5,0,0.8,0c3.4,0,14.3-0.7,24-9.2c9.2-8,14.5-20.5,15.8-37h78.4c2.4,0,4.3-1.9,4.5-4.2 S248.6,194.4,246.3,194.1z M127.1,240.2c-0.1,0-0.3,0-0.4,0c-29.8,0.6-34.5-29-35.2-37.2h66.8C155,241.4,128.3,240.3,127.1,240.2z M29.6,194.1c1-0.8,1.9-1.7,2.8-2.6c17.7-18.4,17.2-52,17.2-54.2l0-52.3c1-46.8,39.3-65.5,40.9-66.2c0.1,0,0.2-0.1,0.2-0.1 c36.1-19.5,74-0.2,74.4,0c0.1,0.1,0.2,0.1,0.4,0.2C204,35,207.1,83.3,207.2,85.5l0,50.1c-0.5,25.9,5.6,45,18,57 c0.5,0.5,1.1,1,1.6,1.5H29.6z"/>
</svg>
