<svg version="1.1" class="dibsvg-svg dibsvg-alert-bell" viewBox="0 0 612 792" xmlns="http://www.w3.org/2000/svg" xmlns:xlink="http://www.w3.org/1999/xlink">
    <path d="M594.9,555.4c-0.7,0-68.5-8.3-66.1-136.6V297.8l-1-0.5c-0.2-5.6-7.1-135.9-115.3-181.6c-5.6-2.9-48.7-23.7-104.3-23.7 c-34.5,0-66.8,8.1-96.2,23.7c-8.3,4.2-109.2,55.6-111.6,180.7v126.1l-0.2,0.2c0,0.7,1.5,75.4-34.5,112.6c-13,13.5-29.1,19.6-49,19.8 v26.7h184.1c1,9.8,4.2,31.6,13.7,51.9c18.6,39.7,51.2,60.5,95,59.7c0.5,0,1.2,0.2,2,0.2c8.6,0,35.7-2.4,59.7-23.3 c22-19.3,35-47,38.7-88.6h185.3L594.9,555.4z M344.4,656.5c-17.1,10.5-34,10-34,10h-0.5h-0.5c-32.3,0.5-55.8-14.4-69.8-43.6 c-7.3-15.4-10.3-31.3-11.3-41.1h154C378.5,621.2,365.7,643.2,344.4,656.5z M83.7,555.1c0.5,0,1-0.5,1.5-1 c43.1-44.8,42.1-126.3,42.1-131.9V296.9c2.4-110.4,92.5-154.5,96.5-156.2l0.7-0.2c25.5-13.7,53.6-20.8,83.7-20.8 c51.7,0,91.6,20.6,92,20.8l1,0.5c90.6,37.9,98.4,151.8,98.4,157.4v120.2c-2.4,61.9,13.5,107.2,42.8,136.6L83.7,555.1L83.7,555.1z"/>
</svg>
