<!-- used for family leave on careers -->
<svg version="1.1" class="dibsvg-svg dibsvg-baby-bottle" viewBox="0 0 420 518" xmlns="http://www.w3.org/2000/svg" xmlns:xlink="http://www.w3.org/1999/xlink">
    <path d="M356.6,248.5c14.7,6.3,18.5,11.3,35.3-2.1c18.1-18.1,13-35.3,0-50.8c15.5-25.6,18.9-53.8,8.8-81.9
            c0,0,35.3-31.1,10.5-55.9c-24.8-24.8-54.6,11.8-54.6,11.8c-28.6-7.1-58-7.6-85.7,5.9c-15.5-13-30.2-13-46.2,0
            c-8.4,6.7-12.6,23.9-2.5,37.8c-13.9,1.3-35.7,6.3-46.2,17.2L16.8,288C5,299.7,0,303.1,0,319.9c0,16.4,7.6,33.6,18.9,45.4l86.1,86.9
            c23.9,23.9,54.2,22.3,78.1-1.7l156.2-156.7C349.9,282.5,355.3,262.8,356.6,248.5z M351.5,83.9c5.5,2.5,11.8,1.7,16-2.5l12.6-12.6
            c5.5-5.5,14.7-5.5,20.6,0s5.5,14.7,0,20.6l-12.6,12.6c-4.2,4.2-5.5,10.5-2.5,16c9.7,19.7,3.8,48.3-5.5,67.6l-96.2-96.6
            C303.2,80.1,331.8,74.2,351.5,83.9z M118.9,445.5l-95.8-95.8C16.8,343.4,13,335,13,325.8c0-8.8,3.4-17.6,10.1-23.9l162.5-162.5
            c13-13,42-20.6,55.4-7.6l95.8,95.8c13,13,5.5,42-7.6,55l-162.5,163C153.7,458.9,132.3,458.9,118.9,445.5z M363.3,234.2L231,101.9
            c-2.9-6.3-2.5-10.9,3.8-17.2c4.6-4.6,14.7-7.1,19.3-2.5l132.3,132.7c4.6,4.6,2.1,14.7-2.5,19.3C379.7,238.8,367.9,238.8,363.3,234.2
            z M189,179.2l17.2,17.2c5.5,5.5,10.1,9.7,15.5,4.2c5.5-5.5,1.3-10.1-4.2-15.5l-17.2-17.2c-5.5-5.5-10.1-9.7-15.5-4.2
            C179.3,169.1,183.5,173.7,189,179.2z M150.4,198.1c-5.5,5.5-1.7,10.5,3.4,16l37.8,37.8c5.5,5.5,10.5,8.8,16,3.4s1.7-10.5-3.8-16
            l-37.8-37.8C160.9,196.4,155.8,192.6,150.4,198.1z M131.9,235.9c-5.5-5.5-10.5-9.2-16-3.8c-5.5,5.5,0,14.3,5.5,19.7l17.2,17.2
            c5.5,5.5,8.8,5.5,14.3,0c5.5-5.5,1.7-10.5-3.8-16L131.9,235.9z"/>
</svg>