<svg xmlns="http://www.w3.org/2000/svg" class="dibsvg-svg dibsvg-baby-bottle" viewBox="0 0 100 100">
    <path d="M84.9 47.5c3.5 1.5 4.4 2.7 8.4-.5 4.3-4.3 3.1-8.4 0-12.1 3.7-6.1 4.5-12.8 2.1-19.5 0 0 8.4-7.4 2.5-13.3s-13 2.8-13 2.8c-6.8-1.7-13.8-1.8-20.4 1.4-3.7-3.1-7.2-3.1-11 0-2 1.6-3 5.7-.6 9-3.3.3-8.5 1.5-11 4.1L4 56.9c-2.8 2.8-4 3.6-4 7.6 0 3.9 1.8 8 4.5 10.8L25 96c5.7 5.7 12.9 5.3 18.6-.4l37.2-37.3c2.5-2.7 3.8-7.4 4.1-10.8zM83.7 8.3c1.3.6 2.8.4 3.8-.6l3-3c1.3-1.3 3.5-1.3 4.9 0s1.3 3.5 0 4.9l-3 3c-1 1-1.3 2.5-.6 3.8 2.3 4.7.9 11.5-1.3 16.1l-22.9-23C72.2 7.4 79 6 83.7 8.3zM28.3 94.4L5.5 71.6c-1.5-1.5-2.4-3.5-2.4-5.7 0-2.1.8-4.2 2.4-5.7l38.7-38.7c3.1-3.1 10-4.9 13.2-1.8l22.8 22.8c3.1 3.1 1.3 10-1.8 13.1L39.7 94.4c-3.1 3.2-8.2 3.2-11.4 0zm58.2-50.3L55 12.6c-.7-1.5-.6-2.6.9-4.1 1.1-1.1 3.5-1.7 4.6-.6L92 39.5c1.1 1.1.5 3.5-.6 4.6-1 1.1-3.8 1.1-4.9 0zM45 31l4.1 4.1c1.3 1.3 2.4 2.3 3.7 1 1.3-1.3.3-2.4-1-3.7l-4.1-4.1c-1.3-1.3-2.4-2.3-3.7-1-1.3 1.3-.3 2.4 1 3.7zm-9.2 4.5c-1.3 1.3-.4 2.5.8 3.8l9 9c1.3 1.3 2.5 2.1 3.8.8 1.3-1.3.4-2.5-.9-3.8l-9-9c-1.2-1.2-2.4-2.1-3.7-.8zm-4.4 9c-1.3-1.3-2.5-2.2-3.8-.9-1.3 1.3 0 3.4 1.3 4.7l4.1 4.1c1.3 1.3 2.1 1.3 3.4 0 1.3-1.3.4-2.5-.9-3.8l-4.1-4.1z"/>
</svg>
