<svg xmlns="http://www.w3.org/2000/svg" class="dibsvg-svg dibsvg-bell" viewBox="0 -8 45 45">
    <path d="M45 25.9v-.1c-.5-2.7-2.5-3.5-4-3.7-.7-.1-2.2-.6-2.4-1.4-.3-3.2-1.1-6-2.3-8.2-1-1.8-2.4-3.3-4-4.4-2.8-1.9-5.5-2-6-2H23V2.2h2.7V0H19v2.2h2.6V6h-3.1c-4.9.1-8.5 2.7-10.7 7.5-1.3 2.9-1.6 5.8-1.7 6.8H6c0 .1-.2 1.4-2.4 1.8-1.3.3-3.7 1.4-3.6 3.9 0 .3.2.6.5.7.1 0 7.8 2.7 17.3 3.2.7 0 2.5.1 4.3.1 1.7 0 3.5 0 4.8-.1 4.6-.3 11.4-1.1 17.6-3.2.4-.1.6-.5.5-.8zM9.2 14.1c1.9-4.3 5-6.6 9.3-6.7h7.7c.3 0 2.7 0 5.2 1.7 3.2 2.1 5.1 5.8 5.6 11-1.8.4-7.5 1.6-14.9 1.6-5.1 0-10-.6-14.6-1.6.2-1 .6-3.5 1.7-6zm17.6 14.4c-2.6.2-7.6.1-8.9 0-7.9-.4-14.5-2.4-16.3-3 .1-.5.5-1 1.1-1.4.6-.4 1.3-.6 1.4-.6 1.9-.4 2.7-1.3 3.2-2 4.8 1.1 9.8 1.7 15 1.7 7.7 0 13.5-1.2 15.3-1.7.9 1.3 3 1.8 3.3 1.8 1.9.2 2.5 1.4 2.7 2.1-6.4 2.2-13.3 2.8-16.8 3.1z"/>
</svg>
