<svg version="1.1" class="dibsvg-svg dibsvg-bookmarked" xmlns="http://www.w3.org/2000/svg" xmlns:xlink="http://www.w3.org/1999/xlink" x="0px" y="0px"
	 viewBox="0 0 250 250" xml:space="preserve">
<g>
	<polygon class="st0" points="52.3,5 195.4,5 195.4,246.5 123.8,167.2 52.3,246.5 	"/>
	<g>
		<path class="st1" d="M52.3,10c41.9,0,83.7,0,125.6,0c5.8,0,11.7,0,17.5,0c-1.7-1.7-3.3-3.3-5-5c0,27.3,0,54.6,0,82
			c0,43.2,0,86.4,0,129.5c0,10,0,20,0,30c2.8-1.2,5.7-2.4,8.5-3.5c-20.9-23.2-41.8-46.3-62.6-69.5c-3-3.3-5.9-6.6-8.9-9.9
			c-1.7-1.9-5.3-1.9-7.1,0c-20.9,23.2-41.8,46.3-62.6,69.5c-3,3.3-5.9,6.6-8.9,9.9c2.8,1.2,5.7,2.4,8.5,3.5c0-27.3,0-54.6,0-82
			c0-43.2,0-86.4,0-129.5c0-10,0-20,0-30c0-6.4-10-6.4-10,0c0,27.3,0,54.6,0,82c0,43.2,0,86.4,0,129.5c0,10,0,20,0,30
			c0,4.2,5.6,6.8,8.5,3.5c20.9-23.2,41.8-46.3,62.6-69.5c3-3.3,5.9-6.6,8.9-9.9c-2.4,0-4.7,0-7.1,0c20.9,23.2,41.8,46.3,62.6,69.5
			c3,3.3,5.9,6.6,8.9,9.9c3,3.3,8.5,0.6,8.5-3.5c0-27.3,0-54.6,0-82c0-43.2,0-86.4,0-129.5c0-10,0-20,0-30c0-2.7-2.3-5-5-5
			c-41.9,0-83.7,0-125.6,0C64,0,58.1,0,52.3,0C45.8,0,45.8,10,52.3,10z"/>
	</g>
</g>
</svg>
