<svg version="1.1" class="dibsvg-svg dibsvg-bookmark" viewBox="0 0 250 250" xmlns="http://www.w3.org/2000/svg" xmlns:xlink="http://www.w3.org/1999/xlink">
<path class="st0" d="M52.3,8c41.8,0,83.7,0,125.5,0c5.8,0,11.7,0,17.5,0c-1.7-1.7-3.3-3.3-5-5c0,27.3,0,54.6,0,81.8
	c0,43.5,0,87,0,130.4c0,10,0,20,0,30c2.8-1.2,5.7-2.4,8.5-3.5c-20.9-23.2-41.7-46.4-62.6-69.7c-3-3.3-5.9-6.6-8.9-9.9
	c-1.7-1.9-5.3-1.9-7.1,0c-20.9,23.2-41.7,46.4-62.6,69.7c-3,3.3-5.9,6.6-8.9,9.9c2.8,1.2,5.7,2.4,8.5,3.5c0-27.3,0-54.6,0-81.8
	c0-43.5,0-87,0-130.4c0-10,0-20,0-30c0-6.4-10-6.4-10,0c0,27.3,0,54.6,0,81.8c0,43.5,0,87,0,130.4c0,10,0,20,0,30
	c0,4.2,5.6,6.8,8.5,3.5c20.9-23.2,41.7-46.4,62.6-69.7c3-3.3,5.9-6.6,8.9-9.9c-2.4,0-4.7,0-7.1,0c20.9,23.2,41.7,46.4,62.6,69.7
	c3,3.3,5.9,6.6,8.9,9.9c3,3.3,8.5,0.6,8.5-3.5c0-27.3,0-54.6,0-81.8c0-43.5,0-87,0-130.4c0-10,0-20,0-30c0-2.7-2.3-5-5-5
	c-41.8,0-83.7,0-125.5,0C64-2,58.1-2,52.3-2C45.8-2,45.8,8,52.3,8z"/>
</svg>
