<svg xmlns="http://www.w3.org/2000/svg" class="dibsvg-svg dibsvg-bookmark" viewBox="0 0 250 250">
    <path d="M52.3 8h143l-5-5v242.2c2.8-1.2 5.7-2.4 8.5-3.5-20.9-23.2-41.7-46.4-62.6-69.7-3-3.3-5.9-6.6-8.9-9.9-1.7-1.9-5.3-1.9-7.1 0-20.9 23.2-41.7 46.4-62.6 69.7-3 3.3-5.9 6.6-8.9 9.9 2.8 1.2 5.7 2.4 8.5 3.5V3c0-6.4-10-6.4-10 0v242.2c0 4.2 5.6 6.8 8.5 3.5 20.9-23.2 41.7-46.4 62.6-69.7 3-3.3 5.9-6.6 8.9-9.9h-7.1c20.9 23.2 41.7 46.4 62.6 69.7 3 3.3 5.9 6.6 8.9 9.9 3 3.3 8.5.6 8.5-3.5V3c0-2.7-2.3-5-5-5H52.3c-6.5 0-6.5 10 0 10z"/>
</svg>
