<svg xmlns="http://www.w3.org/2000/svg" class="dibsvg-svg dibsvg-buyer-assurance" viewBox="0 0 250 250">
    <defs>
        <linearGradient gradientTransform="rotate(90)" id="dibsvg-buyer-assurance-buyer-gradient">
            <stop offset="0" stop-color="#DCCCA6"></stop>
            <stop offset="1" stop-color="#C2A661"></stop>
        </linearGradient>
    </defs>
    <path fill-opacity="0" d="M243.4 113l-9.6-13.3c-3.2-4.5-6-13-6-18.5V64.9c0-8.2-6.2-16.7-14-19.2l-15.6-5.1c-5.3-1.7-12.5-6.9-15.7-11.4L173 15.9c-3.6-4.9-10.3-8.1-17-8.1-2.1 0-3.9.3-5.7.9l-15.6 5c-2.4.8-6 1.3-9.6 1.3-3.6 0-7.1-.5-9.7-1.3l-15.7-5c-1.9-.6-3.7-.9-5.7-.9-6.6 0-13.4 3.2-17 8.2l-9.7 13.3c-3.2 4.4-10.3 9.6-15.7 11.4l-15.6 5c-7.7 2.5-14 10.9-14 19.1v16.4c0 5.5-2.7 14-6 18.5L6.6 113c-4.8 6.6-4.8 17.2 0 23.8l9.7 13.3c3.2 4.4 6 12.9 6 18.5V185c0 8.2 6.2 16.7 14 19.2l15.6 5c5.3 1.7 12.5 6.9 15.7 11.4l9.6 13.3c3.6 5 10.3 8.2 17 8.2 2.1 0 3.9-.3 5.7-.9l15.6-5c2.4-.8 6-1.3 9.6-1.3 3.7 0 7.1.5 9.7 1.3l15.6 5c1.9.6 3.7.9 5.7.9 6.6 0 13.4-3.2 17-8.2l9.6-13.3c3.2-4.4 10.3-9.6 15.7-11.4l15.6-5c7.8-2.5 14-10.9 14-19.2v-16.4c0-5.5 2.7-14 6-18.5l9.6-13.3c4.6-6.6 4.6-17.1-.2-23.8z" class="dibsvg-buyer-assurance-fill"/>
    <path d="M246.2 112.7l-9.8-13.6c-3.3-4.6-6.1-13.3-6.1-18.9V63.5c0-8.4-6.3-17.1-14.3-19.7l-16-5.2c-5.4-1.7-12.8-7.1-16.1-11.7l-9.8-13.6c-3.7-5-10.5-8.3-17.4-8.3-2.1 0-4 .3-5.8.9l-16 5.1c-2.5.8-6.1 1.3-9.8 1.3s-7.3-.5-9.9-1.3L99.1 5.9c-1.9-.6-3.8-.9-5.8-.9-6.8 0-13.7 3.3-17.4 8.4L66 27c-3.3 4.5-10.6 9.8-16.1 11.7l-16 5.1C26 46.4 19.6 55 19.6 63.4v16.8c0 5.6-2.8 14.3-6.1 18.9l-9.8 13.6c-4.9 6.8-4.9 17.6 0 24.4l9.9 13.6c3.3 4.5 6.1 13.2 6.1 18.9v16.8c0 8.4 6.3 17.1 14.3 19.7l16 5.1c5.4 1.7 12.8 7.1 16.1 11.7l9.8 13.6c3.7 5.1 10.5 8.4 17.4 8.4 2.1 0 4-.3 5.8-.9l16-5.1c2.5-.8 6.1-1.3 9.8-1.3 3.8 0 7.3.5 9.9 1.3l16 5.1c1.9.6 3.8.9 5.8.9 6.8 0 13.7-3.3 17.4-8.4l9.8-13.6c3.3-4.5 10.6-9.8 16.1-11.7l16-5.1c8-2.6 14.3-11.2 14.3-19.7v-16.8c0-5.6 2.8-14.3 6.1-18.9l9.8-13.6c5.1-6.8 5.1-17.5.1-24.4zm-89.4 123.4c-1.2 0-2.1-.2-3.1-.4l-16-5.1c-3.4-1.1-7.9-1.7-12.7-1.7s-9.3.6-12.6 1.8l-16 5.1c-.9.3-1.9.4-3.1.4-3.9 0-8.2-2-10.2-4.8l-9.8-13.6c-4.3-6-13.4-12.6-20.4-14.9l-16-5.1c-4.4-1.4-8.2-6.7-8.2-11.3v-16.8c0-7.4-3.4-18-7.8-24l-9.8-13.6c-2.7-3.7-2.7-10.3 0-14.1l9.8-13.6c4.4-6 7.8-16.6 7.8-24v-17c0-4.6 3.8-9.9 8.2-11.3l16-5.1c7-2.3 16-8.8 20.4-14.9L83 18.4c2-2.8 6.2-4.8 10.2-4.8 1.2 0 2.1.2 3.1.4l16 5.1c3.4 1.1 7.9 1.7 12.7 1.7s9.3-.6 12.7-1.7l16.1-5.2c.9-.3 1.9-.4 3.1-.4 3.9 0 8.2 2 10.2 4.8L177 32c4.3 6 13.4 12.6 20.4 14.9l16 5.1c4.4 1.4 8.2 6.7 8.2 11.3v16.8c0 7.4 3.4 18 7.8 24l9.8 13.6c2.7 3.7 2.7 10.3 0 14.1l-9.8 13.6c-4.4 6-7.8 16.6-7.8 24v16.8c0 4.6-3.8 9.9-8.2 11.3l-16 5.1c-7 2.3-16 8.8-20.4 14.9l-9.8 13.6c-2.1 3-6.3 5-10.4 5z" class="dibsvg-buyer-assurance-border"/>
    <polygon points="106.7,180.5 67.3,133.8 81.4,122 107.1,152.6 168.1,85.1 181.6,97.4" class="dibsvg-buyer-assurance-check"/>
</svg>
