<svg version="1.1" class="dibsvg-svg dibsvg-buyer-assurance" viewBox="0 0 518 518" xmlns="http://www.w3.org/2000/svg" xmlns:xlink="http://www.w3.org/1999/xlink">
    <g>
        <path d="M48.7-360.7C48.7-360.7,48.7-360.7,48.7-360.7l0,77.3c0,4.1,2.8,8,6.7,9.3l73.5,23.9c0,0,0,0,0,0l45.4,62.6
                c1.8,2.5,4.9,4,8,4c1,0,2-0.2,2.9-0.5l73.5-23.9c0,0,0,0,0,0l73.5,23.9c0.9,0.3,1.9,0.5,2.9,0.5c3.1,0,6.2-1.5,8-4l45.5-62.6
                c0,0,0,0,0,0l73.5-23.9c3.9-1.3,6.7-5.2,6.7-9.3v-77.3c0,0,0,0,0,0l45.5-62.6c2.4-3.3,2.4-8.1,0-11.5l-45.4-62.6c0,0,0,0,0,0v-77.3
                c0-4.1-2.8-8-6.7-9.3l-73.5-23.9c0,0,0,0,0,0l-45.5-62.6c-1.8-2.5-4.9-4-8-4c-1,0-2,0.2-2.9,0.5L258.9-650c0,0,0,0,0,0l-73.5-23.9
                c-0.9-0.3-1.9-0.5-2.9-0.5c-3.1,0-6.2,1.5-8,4L129-607.8c0,0,0,0,0,0l-73.5,23.9c-3.9,1.3-6.7,5.2-6.7,9.3v77.3c0,0,0,0,0,0
                L3.3-434.7c-2.4,3.3-2.4,8.1,0,11.5L48.7-360.7z M60.2-489.3c1.5-2.1,2.5-5.1,2.5-7.7v-74.5l70.9-23c2.5-0.8,5.1-2.7,6.6-4.8
                l43.8-60.3l70.9,23c1.5,0.5,3,0.6,4.1,0.6c1,0,2.5-0.1,4.1-0.6l70.9-23l43.8,60.3c1.5,2.1,4.1,4,6.6,4.8l70.9,23v74.5
                c0,2.6,1,5.6,2.5,7.7l43.8,60.3l-43.8,60.3c-1.5,2.1-2.5,5.1-2.5,7.7v74.5l-70.9,23c-2.5,0.8-5.1,2.7-6.6,4.8l-43.8,60.3l-70.9-23
                c-1.5-0.5-3-0.6-4.1-0.6c-1,0-2.5,0.1-4.1,0.6l-70.9,23l-43.8-60.3c-1.5-2.1-4.1-4-6.6-4.8l-70.9-23V-361c0-2.6-1-5.6-2.5-7.7
                L16.4-429L60.2-489.3z"/>
        <path d="M207.8-379.3c-7.2-0.4-11.6-0.9-13-1.4c-1.4-0.5-2.8-1.6-4-3.3c-1.2-1.7-1.9-3.4-1.9-5c0-1.6,0.9-5.4,2.6-11.4l34-114.1
                h-4.3l-51.5,12.3l0.9,3.8c5-0.5,8.3-0.8,10-0.8c3.4,0,6.1,0.9,7.9,2.6c1.8,1.8,2.8,4.1,2.8,7.1c0,1.5-0.2,3.2-0.6,4.9
                c-0.1,0.6-1.8,6.1-4.9,16.4l-20,67.8c-2.1,7.3-4.1,12.1-5.8,14.4c-1.7,2.3-3.9,3.9-6.6,4.9c-2.7,1-7.4,1.6-14.3,1.7l-1.1,3.6h68.7
                L207.8-379.3z"/>
        <path d="M253.2-377.6c-3.1,0-6.4-1-9.8-3.1c-3.4-2.1-6.1-4.8-8.2-8.3c-2-3.5-4.2-9.3-6.6-17.4h-3.3l-5,33.4h3.8
                c1.1-1.5,2.2-2.6,3.1-3c0.9-0.5,2.2-0.7,3.9-0.7c1.9,0,4.7,0.5,8.4,1.5c5.7,1.5,10.5,2.2,14.4,2.2c5.8,0,11.3-1.4,16.6-4.2
                c5.3-2.8,9.3-6.6,12-11.3c2.7-4.7,4-9.7,4-14.9c0-4.9-1.1-9.4-3.4-13.7c-2.3-4.3-8.7-12.1-19.3-23.4c-3-3.2-5-5.7-5.8-7.6
                c-0.9-1.9-1.3-3.9-1.3-6c0-2.5,1-4.7,3-6.5c2-1.8,4.5-2.7,7.6-2.7c5,0,9.7,2.3,14.1,6.9c4.4,4.6,6.8,10.9,7.4,18.8h3.8l4.5-31h-3.6
                c-1.6,2.3-3.7,3.4-6.3,3.4c-1.8,0-4.2-0.4-7.2-1.1c-6-1.5-11.1-2.3-15.3-2.3c-9.5,0-16.9,2.4-22.2,7.3c-5.3,4.8-7.9,10.9-7.9,18.1
                c0,4.3,0.9,8.1,2.6,11.5c2.5,4.6,7.6,11.2,15.5,19.7c5.7,6.2,9.3,10.8,10.9,13.7c1.6,2.9,2.4,6,2.4,9.1c0,3.2-1.2,6-3.6,8.3
                C259.9-378.7,256.9-377.6,253.2-377.6z"/>
        <path d="M318.9-372.9c5.4,0,10.8-1.9,16.4-5.6c5.6-3.8,10.7-9.6,15.3-17.7l-3.6-2.2c-4.1,5.8-7.6,9.9-10.7,12.3
                c-1.2,0.9-2.4,1.4-3.5,1.4c-0.7,0-1.4-0.2-2-0.7c-0.6-0.5-0.9-1-0.9-1.7c0-1.9,0.6-4.7,1.7-8.3l18.2-59h11.4l3.5-11.5h-11.2
                l8.4-27.2h-5.4c-8.5,9.3-15.7,16.1-21.8,20.3c-6,4.2-13.1,7.9-21.3,11l-1.9,7.4h12.9l-17.1,54.4c-1.9,6.1-2.8,11.1-2.8,15
                c0,3.5,1.3,6.4,3.8,8.7C310.8-374.1,314.3-372.9,318.9-372.9z"/>
        <polygon points="221.6,315.6 168.3,252.2 139.2,276.7 220.6,373.4 375.8,201.2 347.6,175.8    "/>
        <path d="M488,205.8c-7-9.7-13-28-13-40v-34.8c0-16.8-12.5-34.1-28.5-39.3l-33.1-10.7c-11.4-3.7-27-15-34-24.7l-20.4-28.1
                c-7.4-10.2-21-16.8-34.6-16.8c-4.1,0-7.9,0.6-11.5,1.8L279.7,24c-5.4,1.8-13.1,2.8-21,2.8c-8,0-15.6-1-21-2.8l-33.1-10.7
                c-3.6-1.2-7.5-1.8-11.5-1.8c-13.6,0-27.2,6.6-34.6,16.8l-20.4,28.1c-7,9.7-22.6,21-34,24.7L71,91.8c-16,5.2-28.5,22.4-28.5,39.3
                v34.8c0,12-5.9,30.3-13,40L9,233.9c-9.9,13.6-9.9,34.9,0,48.5l20.4,28.1c7,9.7,13,28,13,40v34.8c0,16.8,12.5,34.1,28.5,39.3
                l33.1,10.7c11.4,3.7,27,15,34,24.7l20.4,28.1c7.4,10.2,21,16.8,34.6,16.8c4.1,0,7.9-0.6,11.5-1.8l33.1-10.7
                c5.4-1.8,13.1-2.8,21-2.8c8,0,15.6,1,21,2.8l33.1,10.7c3.6,1.2,7.5,1.8,11.5,1.8c13.6,0,27.2-6.6,34.6-16.8l20.4-28.1
                c7-9.7,22.6-21,34-24.7l33.1-10.7c16-5.2,28.5-22.4,28.5-39.3v-34.8c0-12,6-30.3,13-40l20.4-28.1c9.9-13.6,9.9-34.9,0-48.5
                L488,205.8z M496.2,273.7l-20.4,28.1c-8.9,12.2-15.9,33.7-15.9,48.8v34.8c0,10.2-8.5,21.8-18.2,25l-33.1,10.7
                c-14.4,4.7-32.6,17.9-41.5,30.2l-20.4,28.1c-4.5,6.2-13.8,10.6-22.5,10.6c-2.5,0-4.8-0.3-6.9-1l-33.1-10.7
                c-6.9-2.3-16-3.5-25.7-3.5c-9.6,0-18.7,1.2-25.7,3.5L200,488.9c-2.1,0.7-4.4,1-6.9,1c-8.7,0-18-4.3-22.5-10.6l-20.4-28.1
                c-8.9-12.2-27.1-25.5-41.5-30.2l-33.1-10.7c-9.7-3.1-18.2-14.8-18.2-25v-34.8c0-15.1-7-36.6-15.9-48.8l-20.4-28.1
                c-6-8.2-6-22.7,0-30.9l20.4-28.1c8.9-12.2,15.9-33.7,15.9-48.8v-34.8c0-10.2,8.5-21.8,18.2-25l33.1-10.7
                c14.4-4.7,32.6-17.9,41.5-30.2l20.4-28.1c4.5-6.2,13.8-10.6,22.5-10.6c2.5,0,4.8,0.3,6.9,1l33.1,10.7c6.9,2.3,16,3.5,25.7,3.5
                c9.6,0,18.7-1.2,25.7-3.5l33.1-10.7c2.1-0.7,4.4-1,6.9-1c8.7,0,18,4.3,22.5,10.6l20.4,28.1c8.9,12.2,27.1,25.5,41.5,30.2l33.1,10.7
                c9.7,3.1,18.2,14.8,18.2,25v34.8c0,15.1,7,36.6,15.9,48.8l20.4,28.1C502.2,251,502.2,265.4,496.2,273.7z"/>
    </g>
</svg>