<svg version="1.1" class="dibsvg-svg dibsvg-camera" xmlns="http://www.w3.org/2000/svg" xmlns:xlink="http://www.w3.org/1999/xlink" viewBox="0 0 250 250">
	<path d="M245.5,45H69V31.3c0-2.5-2-4.5-4.5-4.5H38.2c-2.5,0-4.5,2-4.5,4.5V45H4.1c-2.5,0-4.5,2-4.5,4.5v169c0,2.5,2,4.5,4.5,4.5h241.4c2.5,0,4.5-2,4.5-4.5v-169C250,47,248,45,245.5,45z M42.7,35.8H60v7.5H42.7V35.8z M241,54v46h-72.4c-10.8-12.3-26.4-20-43.8-20c-17.4,0-33,7.7-43.8,20H8.6V54H241z M164.8,171.4c-9.1,12.6-23.7,20.7-40,20.7c-9.5,0-18.3-2.7-25.9-7.5c-0.7-0.4-1.4-0.9-2-1.3c-13.3-9.3-22.1-25-22.1-42.8c0-0.8,0-1.6,0.1-2.5c0-0.3,0-0.6,0.1-1c0-0.5,0.1-1,0.1-1.4c0-0.4,0.1-0.9,0.1-1.3c0-0.3,0.1-0.7,0.1-1c0.1-0.5,0.1-1,0.2-1.5c0-0.3,0.1-0.5,0.1-0.8c0.1-0.6,0.2-1.1,0.3-1.7c0-0.2,0.1-0.3,0.1-0.5c0.1-0.6,0.3-1.2,0.4-1.9c0,0,0,0,0,0c0.7-2.7,1.6-5.3,2.7-7.8c0.1-0.3,0.2-0.5,0.4-0.8c0.2-0.4,0.3-0.7,0.5-1.1c0.2-0.4,0.4-0.8,0.6-1.2c0.1-0.3,0.3-0.5,0.4-0.8c0.3-0.5,0.5-1,0.8-1.4c0.1-0.2,0.2-0.3,0.3-0.5c0.3-0.6,0.7-1.1,1.1-1.7c0.1-0.1,0.1-0.2,0.2-0.2C92.4,98,107.6,89,124.8,89c17.2,0,32.4,9,41.4,22.7c0.1,0.1,0.1,0.2,0.2,0.3c0.4,0.5,0.7,1.1,1,1.7c0.1,0.2,0.2,0.4,0.3,0.5c0.3,0.5,0.5,0.9,0.8,1.4c0.1,0.3,0.3,0.5,0.4,0.8c0.2,0.4,0.4,0.8,0.6,1.1c0.2,0.4,0.4,0.7,0.5,1.1c0.1,0.3,0.2,0.5,0.3,0.8c1.4,3.1,2.4,6.4,3.2,9.7c0,0.1,0.1,0.3,0.1,0.4c0.1,0.6,0.2,1.1,0.3,1.7c0,0.2,0.1,0.5,0.1,0.7c0.1,0.5,0.2,1,0.2,1.5c0,0.3,0.1,0.7,0.1,1c0.1,0.4,0.1,0.9,0.1,1.3c0,0.5,0.1,0.9,0.1,1.4c0,0.3,0.1,0.7,0.1,1c0,0.8,0.1,1.6,0.1,2.5C174.8,152.1,171.1,162.8,164.8,171.4z M8.6,214V109h65.8c-0.5,0.8-0.9,1.6-1.4,2.5c-0.1,0.2-0.2,0.3-0.3,0.5c-0.3,0.6-0.6,1.3-0.9,1.9c-0.1,0.2-0.2,0.4-0.3,0.6c-0.3,0.7-0.6,1.4-0.9,2.1c-0.2,0.4-0.3,0.8-0.5,1.3c-0.1,0.3-0.2,0.6-0.4,1c-0.6,1.6-1.2,3.3-1.6,5c-0.1,0.2-0.1,0.4-0.2,0.7c-0.1,0.6-0.3,1.1-0.4,1.7c0,0.1-0.1,0.3-0.1,0.5c-0.2,1-0.4,2-0.6,2.9c-0.1,0.4-0.1,0.7-0.2,1.1c-0.1,0.4-0.1,0.9-0.2,1.3c-0.1,0.6-0.2,1.3-0.2,1.9c0,0.3-0.1,0.7-0.1,1c-0.1,0.7-0.1,1.4-0.2,2.2c0,0.3,0,0.5,0,0.8c0,0.9-0.1,1.8-0.1,2.7c0,26.1,16.2,48.4,38.7,56.9c0.9,0.3,1.8,0.7,2.7,1c5.5,1.8,11.4,2.7,17.5,2.7c0,0,0,0,0,0s0,0,0,0c20.3,0,38.3-10.6,48.9-26.7c1.1-1.6,2-3.3,3-5c0.9-1.7,1.7-3.5,2.5-5.3c3-7.2,4.6-15.2,4.6-23.6c0-0.9,0-1.8-0.1-2.7c0-0.3,0-0.6,0-0.8c0-0.7-0.1-1.4-0.2-2.1c0-0.4-0.1-0.8-0.1-1.2c-0.1-0.6-0.1-1.2-0.2-1.8c-0.1-0.5-0.1-0.9-0.2-1.4c-0.1-0.4-0.1-0.7-0.2-1.1c-0.2-1.1-0.4-2.1-0.6-3.1c0-0.1,0-0.2-0.1-0.3c-0.1-0.6-0.3-1.1-0.4-1.7c-0.1-0.2-0.1-0.4-0.2-0.6c-0.5-1.7-1-3.4-1.7-5.1c-0.1-0.3-0.2-0.6-0.3-0.9c-0.2-0.4-0.3-0.9-0.5-1.3c-0.3-0.7-0.6-1.3-0.9-2c-0.1-0.2-0.2-0.5-0.4-0.7c-0.3-0.6-0.6-1.2-0.9-1.8c-0.1-0.2-0.2-0.4-0.3-0.6c-0.4-0.8-0.9-1.6-1.4-2.4H241v105H8.6z"/>
	<path d="M124.8,109.5c-16.7,0-30.3,13.9-30.3,31s13.6,31,30.3,31s30.3-13.9,30.3-31S141.5,109.5,124.8,109.5z M124.8,162.6c-11.7,0-21.3-9.9-21.3-22s9.5-22,21.3-22c11.7,0,21.3,9.9,21.3,22S136.5,162.6,124.8,162.6z"/>
</svg>
