<svg xmlns="http://www.w3.org/2000/svg" class="dibsvg-svg dibsvg-chair-check" viewBox="0 0 250 250">
    <path d="M217,105.6c-3.8-2.6-8.9-3.9-15.3-3.9c-10.7,0-21.7,3.5-22.1,3.6c-6.7,2-9.9,2.1-10,2.1h-0.4c-3.1,0-5.4-0.8-6.6-2.3c-1.8-2.2-1.6-5.8-1.3-7l0.1-0.5c0.3-2.9,0.8-5.9,1.5-9c-2.6-1.2-5.1-2.6-7.5-4.2c-1.1,4.2-1.9,8.3-2.2,12.4c-0.3,1.6-1.1,8.2,3,13.3c2.8,3.5,7.2,5.2,12.8,5.2c0.2,0,0.4,0,0.5,0c0.4,0,4.4-0.1,12.3-2.5c0.1,0,10.3-3.2,19.7-3.2c4.6,0,8.3,0.8,10.6,2.3c0.7,0.6,7.6,7.9-0.6,29.7c-11.2-0.6-43.3-1.8-78.8,0.1c-1.7-3-2.6-5-2.6-5.1c-6.1-14.2-12.1-23.3-12.3-23.6l-0.2-0.3c-9.3-11.3-22-7.6-27.3-4c-3.1,2-8.7,7.6-10,8.8c-0.9,0.7-1.5,0.7-1.9,0.6c-2-0.4-4.7-3.6-5.8-5.7c-6.1-12.5-5.6-25.5-5.6-25.6v-0.2c0-14.6,4.5-25.4,4.6-25.5c7.7-17.6,8.9-34.6,8.9-43.7c6.8,1.6,15.8,3,26.9,3c6.3,0.1,13-0.3,19.7-1.2l22.8-4.6l0.2-0.1c0,0,0.3-0.1,0.9-0.2c4.6-4.2,10.2-7.4,16.3-9.4c-1.2-0.1-2.5-0.2-3.8-0.2c-7.5,0-14,1.6-15,1.9l-22.2,4.5c-6.4,0.8-12.7,1.2-18.6,1.2c-26.5,0-39.4-8-39.6-8.1C64.6,2.1,61.3,1,58.2,1c-9.5,0-14.6,9.7-16.1,15.6c-7.2,22.1-4.6,56.6-4.4,58.8c3.2,58.1,16.8,78.9,18.4,81.2c23.4,38.3,63.9,44,70.9,44.7v27.6l-27-7.8l-2.3,7.7l17.3,5l-25.8,8.4l2.5,7.6l38.9-12.6l38.9,12.6l2.5-7.6l-25.8-8.4l17.3-5l-2.1-7.7l-26.3,7.7v-27c1,0,2.3,0.1,3.5,0.1c29.2,0,47.8-11.6,58.4-21.3c11.5-10.6,15.9-21.2,16.1-21.6l6.2-14l0.1-0.2C230,116,218.4,106.6,217,105.6z M138.2,194c-3.2,0-6.6-0.2-10-0.5c-0.4,0-42.6-3.4-65.6-41.1l-0.2-0.3c-0.1-0.2-13.7-18.9-16.8-77.1v-0.1c0-0.3-2.8-35,4.1-55.8l0.1-0.3c0-0.1,2.6-9.7,8.4-9.7c1.6,0,3.4,0.7,5.5,1.9c0.3,0.2,3.2,2,8.9,4.1c0.2,7.2-0.3,24.9-8.1,42.8c-0.2,0.5-5.2,12.3-5.2,28.5c-0.1,1.5-0.5,15.6,6.4,29.5l0.1,0.1c0.5,0.9,4.7,8.4,11.3,9.7c2.1,0.4,5.3,0.4,8.7-2.3l0.4-0.3c2.4-2.4,6.8-6.7,8.8-7.9c0.4-0.3,9.6-6.1,16.7,2.3c0.8,1.3,6.2,9.8,11.5,22.2c0.5,1.1,11.6,26.9,32.6,32.2c3.1,0.8,10.7,1.1,15.2,1.1c0.7,0,1.4,0,2,0c6.7-0.2,17.5-1.9,28-9.1C192.9,175.3,174.4,194,138.2,194z M172.4,165.1c-4.1,0.1-12.7-0.3-15-0.9c-8.3-2.1-14.9-8.5-19.5-14.7c28.2-1.3,53.6-0.7,67.1-0.1C193.9,162.4,180,164.9,172.4,165.1z"/>
    <path d="M143.8,46.4c0,21,17.1,38.1,38.1,38.1S220,67.4,220,46.4S202.9,8.2,181.9,8.2S143.8,25.3,143.8,46.4z M181.9,13.9c17.9,0,32.5,14.6,32.5,32.5s-14.6,32.5-32.5,32.5s-32.5-14.6-32.5-32.5S164,13.9,181.9,13.9z"/>
    <polygon points="202.6,36 198.5,31.6 176.3,51.9 167.3,43 163.1,47.3 176.2,60.2"/>
</svg>
