<svg xmlns="http://www.w3.org/2000/svg" class="dibsvg-svg dibsvg-zoom-in" viewBox="0 0 250 250">
    <path d="M199.2 105.6c-3.8-2.6-8.9-3.9-15.3-3.9-10.7 0-21.7 3.5-22.1 3.6-6.7 2-9.9 2.1-10 2.1h-.4c-3.1 0-5.4-.8-6.6-2.3-1.8-2.2-1.6-5.8-1.3-7l.1-.5c.3-2.9.8-5.9 1.5-9-2.6-1.2-5.1-2.6-7.5-4.2-1.1 4.2-1.9 8.3-2.2 12.4-.3 1.6-1.1 8.2 3 13.3 2.8 3.5 7.2 5.2 12.8 5.2h.5c.4 0 4.4-.1 12.3-2.5.1 0 10.3-3.2 19.7-3.2 4.6 0 8.3.8 10.6 2.3.7.6 7.6 7.9-.6 29.7-11.2-.6-43.3-1.8-78.8.1-1.7-3-2.6-5-2.6-5.1-6.1-14.2-12.1-23.3-12.3-23.6l-.2-.3c-9.3-11.3-22-7.6-27.3-4-3.1 2-8.7 7.6-10 8.8-.9.7-1.5.7-1.9.6-2-.4-4.7-3.6-5.8-5.7-6.1-12.5-5.6-25.5-5.6-25.6v-.2c0-14.6 4.5-25.4 4.6-25.5 7.7-17.6 8.9-34.6 8.9-43.7 6.8 1.6 15.8 3 26.9 3 6.3.1 13-.3 19.7-1.2l22.8-4.6.2-.1s.3-.1.9-.2c4.6-4.2 10.2-7.4 16.3-9.4-1.2-.1-2.5-.2-3.8-.2-7.5 0-14 1.6-15 1.9l-22.2 4.5c-6.4.8-12.7 1.2-18.6 1.2-26.5 0-39.4-8-39.6-8.1C46.9 2.1 43.5 1 40.4 1c-9.4 0-14.6 9.7-16 15.6-7.2 22.1-4.6 56.6-4.4 58.8 3.2 58.1 16.8 78.9 18.4 81.2 23.4 38.3 63.9 44 70.9 44.7v27.6l-27-7.8-2.3 7.7 17.3 5-25.8 8.4 2.5 7.6 38.9-12.6 38.9 12.6 2.5-7.6-25.8-8.4 17.3-5-2.1-7.7-26.3 7.7v-27c1 0 2.3.1 3.5.1 29.2 0 47.8-11.6 58.4-21.3 11.5-10.6 15.9-21.2 16.1-21.6l6.2-14 .1-.2c10.5-28.8-1.1-38.2-2.5-39.2zM120.5 194c-3.2 0-6.6-.2-10-.5-.4 0-42.6-3.4-65.6-41.1l-.2-.3c-.1-.2-13.7-18.9-16.8-77.1v-.1c0-.3-2.8-35 4.1-55.8l.1-.3c0-.1 2.6-9.7 8.4-9.7 1.6 0 3.4.7 5.5 1.9.3.2 3.2 2 8.9 4.1.2 7.2-.3 24.9-8.1 42.8-.2.5-5.2 12.3-5.2 28.5-.1 1.5-.5 15.6 6.4 29.5v.1c.5.9 4.7 8.4 11.3 9.7 2.1.4 5.3.4 8.7-2.3l.4-.3c2.4-2.4 6.8-6.7 8.8-7.9.4-.3 9.6-6.1 16.7 2.3.8 1.3 6.2 9.8 11.5 22.2.5 1.1 11.6 26.9 32.6 32.2 3.1.8 10.7 1.1 15.2 1.1h2c6.7-.2 17.5-1.9 28-9.1-8 11.4-26.5 30.1-62.7 30.1zm34.1-28.9c-4.1.1-12.7-.3-15-.9-8.3-2.1-14.9-8.5-19.5-14.7 28.2-1.3 53.6-.7 67.1-.1-11 13-24.9 15.5-32.6 15.7z"/>
    <path d="M233.5 104.6l-32.7-31.3a41.1 41.1 0 0 0 9.5-26.3c0-22.7-18.4-41.1-41.1-41.1S128.1 24.3 128.1 47s18.4 41 41.1 41c9.4 0 18.1-3.2 25.1-8.6l33 31.6c.9.8 2 1.3 3.1 1.3 1.2 0 2.4-.5 3.2-1.4 1.7-1.8 1.7-4.6-.1-6.3zM169.2 79c-17.7 0-32.1-14.4-32.1-32.1 0-17.7 14.4-32.1 32.1-32.1s32.1 14.4 32.1 32.1c0 17.7-14.4 32.1-32.1 32.1z"/>
</svg>
