<svg xmlns="http://www.w3.org/2000/svg" class="dibsvg-svg dibsvg-chair-outlined" viewBox="0 0 38 50">
    <path d="M20.246 38.646c-.64 0-1.323-.04-2.002-.098-.079 0-8.532-.68-13.137-8.23l-.04-.058c-.019-.04-2.744-3.785-3.364-15.438v-.02c0-.06-.562-7.008.82-11.174l.02-.06c0-.018.522-1.942 1.68-1.942.322 0 .68.14 1.1.38.058.04.64.4 1.782.82.04 1.442-.059 4.987-1.622 8.572-.039.098-1.04 2.462-1.04 5.705-.02.302-.102 3.125 1.28 5.909l.02.019c.098.18.942 1.68 2.261 1.944.42.078 1.06.078 1.743-.46l.08-.058c.478-.48 1.361-1.343 1.762-1.583.078-.058 1.924-1.221 3.345.46.161.259 1.241 1.963 2.305 4.444.098.22 2.324 5.387 6.53 6.447.62.16 2.143.22 3.042.22h.4a10.539 10.539 0 0 0 5.607-1.822c-1.618 2.277-5.32 6.023-12.572 6.023m6.847-5.787c-.82.019-2.544-.06-3.003-.181-1.66-.42-2.984-1.704-3.907-2.944 5.646-.26 10.734-.142 13.436-.02a8.815 8.815 0 0 1-6.526 3.145M18.024 3.644l4.566-.923.04-.02c.02 0 1.22-.321 2.622-.321 1.08 0 2.524.2 3.263 1.162l.04.059.077.059c.122.12.962 1.099-.502 3.663-.36.522-4.405 6.568-4.884 11.873-.059.322-.22 1.64.6 2.662.562.702 1.441 1.04 2.564 1.04h.098c.08 0 .88-.02 2.462-.503.02 0 2.061-.64 3.946-.64.923 0 1.661.16 2.124.46.141.122 1.523 1.582-.122 5.948-2.242-.122-8.669-.361-15.779.02-.342-.601-.522-1.002-.522-1.021-1.22-2.843-2.423-4.664-2.462-4.727l-.039-.06c-1.86-2.261-4.406-1.523-5.466-.8-.62.4-1.743 1.523-2.002 1.763-.18.14-.298.14-.38.12-.4-.077-.943-.721-1.163-1.141-1.22-2.505-1.123-5.104-1.123-5.128v-.04c0-2.924.903-5.083.923-5.107 1.543-3.526 1.782-6.93 1.782-8.751 1.363.32 3.165.6 5.387.6a27.373 27.373 0 0 0 3.95-.247m18.001 17.303c-.76-.523-1.782-.782-3.062-.782-2.144 0-4.346.699-4.425.723-1.343.4-1.983.42-2.002.42h-.079c-.62 0-1.079-.161-1.323-.46-.36-.44-.322-1.162-.259-1.401l.02-.098c.44-5.01 4.582-11.12 4.625-11.178l.04-.06c2.021-3.505.62-5.245.22-5.645-.924-1.123-2.463-1.724-4.485-1.724-1.5 0-2.803.322-3.003.38l-4.449.9c-1.28.16-2.544.24-3.726.24C8.813 2.262 6.23.66 6.187.64 5.506.22 4.842 0 4.222 0 2.323 0 1.298 1.944 1 3.126-.437 7.55.085 14.456.124 14.9c.64 11.634 3.365 15.799 3.683 16.259 4.684 7.668 12.795 8.81 14.197 8.95v5.53l-5.406-1.567-.46 1.543 3.463 1-5.167 1.682.503 1.523 7.79-2.525 7.79 2.525.502-1.523-5.167-1.681 3.463-1.001-.42-1.543-5.269 1.543v-5.406c.2 0 .46.019.702.019 5.847 0 9.573-2.324 11.693-4.264 2.3-2.124 3.184-4.244 3.223-4.326l1.241-2.804.02-.04c2.124-5.766-.2-7.647-.48-7.847z"/>
</svg>
