<svg version="1.1" class="dibsvg-svg dibsvg-checkmark-void" viewBox="0 0 250 250" xmlns="http://www.w3.org/2000/svg" xmlns:xlink="http://www.w3.org/1999/xlink">
<circle class="dibsvg-checkmark-void-background" cx="125.5" cy="124" r="112.5"/>
<polygon class="dibsvg-checkmark-void-check" points="111.5,199.4 58.5,123.6 78.9,109.2 112.9,157.8 190.3,61.9 209.7,77.5 "/>
<path class="dibsvg-checkmark-void-void" d="M214,212.7c22.3-22.6,36-53.6,36-87.7C250,56.1,193.9,0,125,0S0,56.1,0,125s56.1,125,125,125
    c34.1,0,65.1-13.8,87.7-36c0.2-0.2,0.4-0.4,0.7-0.6C213.6,213.2,213.8,212.9,214,212.7z M230,125c0,25.4-9,48.6-24.1,66.8L58.2,44.1
    C76.4,29,99.6,20,125,20C182.9,20,230,67.1,230,125z M20,125c0-25.4,9-48.6,24.1-66.8L191.9,206c-18.3,15-41.5,24-66.9,24
    C67.1,230,20,182.9,20,125z"/>
<rect x="58.4" y="-727.5" fill="none" width="986.1" height="925"/>
</svg>
