<svg xmlns="http://www.w3.org/2000/svg" class="dibsvg-svg dibsvg-checklist" viewBox="0 0 250 250">
    <path d="M123,0 C117.565413,0 113.118933,4.16355659 113.118933,9.55045283 L113.118933,15.1793382 L102.991804,15.1793382 C98.0512708,15.1793382 95.5790722,18.6083205 93.6028587,22.2812043 L92.6330863,23.9933044 L47.4108005,23.9933044 C43.2113469,23.9933044 40,27.1764704 40,31.339072 L40,242.654232 C40,246.816834 43.2113469,250 47.4108005,250 L198.589199,250 C202.788653,250 206,246.816834 206,242.654232 L206,31.339072 C206,27.1764704 202.788653,23.9933044 198.589199,23.9933044 L153.144975,23.9933044 L152.151078,22.2812043 C150.421891,18.8531794 147.702668,15.1793382 142.762135,15.1793382 L132.881067,15.1793382 L132.881067,9.55045283 C132.881067,4.40841551 128.434587,0 123,0 Z M123.246061,5.38498144 C125.963354,5.38498144 128.186594,7.3448102 128.186594,10.0382583 L128.186594,18.120515 C128.186594,19.5896686 129.174701,20.5691042 130.656861,20.5691042 L142.762135,20.5691042 C144.244295,20.5691042 145.726455,21.3008112 147.702668,24.9736951 L153.135326,34.5241503 C153.382353,35.7484449 153.13629,35.9913915 152.889263,36.2362504 C152.39521,36.9708272 150.668918,37.460545 148.445678,37.460545 L97.308259,37.460545 C95.0850188,37.460545 93.6057539,36.9708272 92.8646738,36.2362504 C92.8646738,36.2362504 92.3667619,35.7484449 92.6137886,34.5241503 L98.2973316,24.9736951 C100.026518,21.5456702 101.261652,20.5691042 103.237865,20.5691042 L115.83526,20.5691042 C117.31742,20.5691042 118.305527,19.5896686 118.305527,18.120515 L118.305527,10.0382583 C118.305527,7.58966912 120.528767,5.38498144 123.246061,5.38498144 Z M47.4108005,28.8904828 L89.8636874,28.8904828 L87.9241401,32.3194627 C87.9241401,32.5643216 87.6732549,32.8110953 87.6732549,33.0559542 C86.9321748,35.9942613 87.9202816,37.9531326 88.9083883,39.1774272 C90.6375751,41.3811575 93.6028587,42.3577234 97.308259,42.3577234 L148.691741,42.3577234 C152.397141,42.3577234 155.358566,41.3821124 156.840726,38.9335232 C157.828833,37.9540876 158.81694,35.9952162 158.07586,32.8120502 C158.07586,32.5671913 158.076823,32.3204201 157.829797,32.0755611 L155.981921,28.8904828 L198.589199,28.8904828 C199.824333,28.8904828 201.059466,29.8699185 201.059466,31.339072 L201.059466,242.654232 C201.059466,243.878527 200.07136,245.102822 198.589199,245.102822 L47.4108005,245.102822 C46.1756671,245.102822 44.9405337,244.123386 44.9405337,242.654232 L44.9405337,31.339072 C44.9405337,30.1147774 45.9286404,28.8904828 47.4108005,28.8904828 Z M180.062198,56.5614531 C179.074091,56.5614531 178.333011,56.8072695 177.591931,57.5418462 L174.537871,60.5691056 C174.421462,60.6281411 174.305172,60.6945493 174.204966,60.7938788 L171.23775,63.730271 C171.133214,63.8338904 171.061635,63.9534991 171.001338,64.0746039 L91.6295404,142.749881 C91.6295404,142.749881 91.3786552,142.753705 91.3786552,142.998564 C91.1486288,143.226572 91.0422814,143.507707 91.0264494,143.792443 L83.7217913,160.138689 C83.7217913,160.873265 83.7246865,161.361071 84.2187399,161.850789 C84.7127932,162.095648 84.9598199,162.338594 85.4538733,162.338594 L85.9459974,162.338594 L102.861535,154.916308 C103.085141,154.843776 103.237865,154.748923 103.237865,154.748923 L103.483926,154.505021 L183.275477,75.4136776 L186.237865,72.4772829 C186.400782,72.315796 186.491179,72.1244853 186.546649,71.9273078 L189.205081,69.2922046 C190.687241,67.8230511 190.687241,65.6202758 189.205081,64.1511223 L182.532465,57.5418462 C182.038412,57.0521284 181.050305,56.5614531 180.062198,56.5614531 Z M180.390282,58.909611 C180.680037,58.8863861 180.866001,59.0702997 181.051271,59.2539439 L187.719062,65.8680045 C188.213115,66.3577223 188.213115,67.0903867 187.719062,67.5801045 L184.51061,70.7651829 L181.543395,73.7015775 L102.369413,152.180774 L93.9743646,143.854616 L173.148346,65.3754169 C173.245751,65.2788665 173.306463,65.1668289 173.36546,65.0549969 L175.773005,62.6637978 C175.891402,62.6044782 176.008982,62.5398869 176.110737,62.4390246 L179.324013,59.2539439 C179.57104,59.0090849 179.815171,59.0100423 180.062198,59.0100423 C180.185712,58.9488276 180.293697,58.9173534 180.390282,58.909611 Z M57.0458046,61.21473 C56.3047246,61.21473 55.8106712,61.7044479 55.8106712,62.4390246 L55.8106712,82.0277382 C55.8106712,82.762315 56.3047246,83.2520328 57.0458046,83.2520328 L76.8079393,83.2520328 C77.5490194,83.2520328 78.0430728,82.762315 78.0430728,82.0277382 L78.0430728,62.4390246 C78.0430728,61.7044479 77.5490194,61.21473 76.8079393,61.21473 L57.0458046,61.21473 Z M58.280938,63.6633192 L75.5728059,63.6633192 L75.5728059,80.8034436 L58.280938,80.8034436 L58.280938,63.6633192 Z M73.2231573,66.9392622 C72.9761306,66.9698696 72.7291039,67.0913441 72.6055906,67.336203 L65.19479,76.8866559 L60.9972682,71.7407938 C60.7502415,71.251076 60.2561881,71.2520309 59.7621347,71.4968899 C59.2680814,71.7417488 59.2690448,72.2314666 59.5160715,72.7211845 L64.4566051,78.8426575 C64.7036318,78.8426575 64.9477634,79.0865614 65.19479,79.0865614 C65.4418167,79.0865614 65.6907752,78.8436149 65.9378018,78.5987559 L74.0867873,68.3165937 C74.3338139,68.0717347 74.3347773,67.337158 73.840724,67.0922991 C73.7172106,66.9698696 73.470184,66.9086549 73.2231573,66.9392622 Z M95.0840554,71.0090868 C94.3429754,71.0090868 93.848922,71.4988047 93.848922,72.2333814 C93.848922,72.9679582 94.3429754,73.457676 95.0840554,73.457676 L151.900193,73.457676 C152.394246,73.457676 153.135326,72.9679582 153.135326,72.2333814 C153.135326,71.4988047 152.641273,71.0090868 151.900193,71.0090868 L95.0840554,71.0090868 Z M57.0458046,95.4949788 C56.3047246,95.4949788 55.8106712,95.9846967 55.8106712,96.7192734 L55.8106712,116.307987 C55.8106712,117.042564 56.3047246,117.532282 57.0458046,117.532282 L76.8079393,117.532282 C77.5490194,117.532282 78.0430728,117.042564 78.0430728,116.307987 L78.0430728,96.7192734 C78.0430728,95.9846967 77.5490194,95.4949788 76.8079393,95.4949788 L57.0458046,95.4949788 Z M58.280938,97.943568 L75.5728059,97.943568 L75.5728059,115.083692 L58.280938,115.083692 L58.280938,97.943568 Z M73.2231573,101.219511 C72.9761306,101.250118 72.7291039,101.371593 72.6055906,101.616452 L65.19479,111.166905 L60.9972682,106.021043 C60.7502415,105.531325 60.2561881,105.53228 59.7621347,105.777139 C59.2680814,106.021998 59.2690448,106.511715 59.5160715,107.001433 L64.4566051,113.122906 C64.7036318,113.122906 64.9477634,113.36681 65.19479,113.36681 C65.4418167,113.36681 65.6907752,113.123864 65.9378018,112.879005 L74.0867873,102.596842 C74.3338139,102.351984 74.3347773,101.617407 73.840724,101.372548 C73.7172106,101.250118 73.470184,101.188904 73.2231573,101.219511 Z M95.0840554,105.289336 C94.3429754,105.289336 93.848922,105.779053 93.848922,106.51363 C93.848922,107.248207 94.3429754,107.737925 95.0840554,107.737925 L119.2946,107.737925 C120.03568,107.737925 120.529733,107.248207 120.529733,106.51363 C120.529733,105.779053 120.03568,105.289336 119.2946,105.289336 L95.0840554,105.289336 Z M161.289136,105.289336 C160.548056,105.289336 160.054003,105.779053 160.054003,106.51363 C160.054003,107.248207 160.548056,107.737925 161.289136,107.737925 L181.543395,107.737925 C182.037448,107.737925 182.778528,107.248207 182.778528,106.51363 C182.778528,105.779053 182.284475,105.289336 181.543395,105.289336 L161.289136,105.289336 Z M57.0458046,129.775228 C56.3047246,129.775228 55.8106712,130.264945 55.8106712,130.999522 L55.8106712,150.588236 C55.8106712,151.322813 56.3047246,151.81253 57.0458046,151.81253 L76.8079393,151.81253 C77.5490194,151.81253 78.0430728,151.322813 78.0430728,150.588236 L78.0430728,130.999522 C78.0430728,130.264945 77.5490194,129.775228 76.8079393,129.775228 L57.0458046,129.775228 Z M58.280938,132.223817 L75.5728059,132.223817 L75.5728059,149.363941 L58.280938,149.363941 L58.280938,132.223817 Z M73.2231573,135.49976 C72.9761306,135.530367 72.7291039,135.651842 72.6055906,135.896701 L65.19479,145.447153 L60.9972682,140.301291 C60.7502415,139.811574 60.2561881,139.812529 59.7621347,140.057387 C59.2680814,140.302246 59.2690448,140.791964 59.5160715,141.281682 L64.4566051,147.403155 C64.7036318,147.403155 64.9477634,147.647059 65.19479,147.647059 C65.4418167,147.647059 65.6907752,147.404112 65.9378018,147.159254 L74.0867873,136.877091 C74.3338139,136.632232 74.3347773,135.897656 73.840724,135.652797 C73.7172106,135.530367 73.470184,135.469152 73.2231573,135.49976 Z M73.2231573,169.780009 C72.9761306,169.810616 72.7291039,169.932091 72.6055906,170.176949 L65.19479,179.727402 L60.9972682,174.58154 C60.7502415,174.091822 60.2561881,174.092777 59.7621347,174.337636 C59.2680814,174.582495 59.2690448,175.072213 59.5160715,175.561931 L64.4566051,181.683404 C64.7036318,181.683404 64.9477634,181.927308 65.19479,181.927308 C65.4418167,181.927308 65.6907752,181.684361 65.9378018,181.439502 L74.0867873,171.15734 C74.3338139,170.912481 74.3347773,170.177904 73.840724,169.933045 C73.7172106,169.810616 73.470184,169.749401 73.2231573,169.780009 Z M73.2231573,204.060257 C72.9761306,204.090865 72.7291039,204.212339 72.6055906,204.457198 L65.19479,214.007651 L60.9972682,208.861789 C60.7502415,208.372071 60.2561881,208.373026 59.7621347,208.617885 C59.2680814,208.862744 59.2690448,209.352462 59.5160715,209.84218 L64.4566051,215.963653 C64.7036318,215.963653 64.9477634,216.207557 65.19479,216.207557 C65.4418167,216.207557 65.6907752,215.96461 65.9378018,215.719751 L74.0867873,205.437589 C74.3338139,205.19273 74.3347773,204.458153 73.840724,204.213294 C73.7172106,204.090865 73.470184,204.02965 73.2231573,204.060257 Z M129.667791,139.569584 C128.926711,139.569584 128.432658,140.059302 128.432658,140.793879 C128.432658,141.528456 128.926711,142.018174 129.667791,142.018174 L181.543395,142.018174 C182.037448,142.018174 182.778528,141.528456 182.778528,140.793879 C182.778528,140.059302 182.284475,139.569584 181.543395,139.569584 L129.667791,139.569584 Z M92.7681802,146.087996 L100.121083,153.371591 L90.756264,157.479675 C90.2061158,156.457553 89.3278273,155.82721 88.5706559,155.490196 L92.7681802,146.087996 Z M87.6153568,157.62793 C87.916255,157.7565 88.2167457,157.986636 88.4693354,158.483979 L86.93507,159.158298 L87.6153568,157.62793 Z M57.0458046,164.055476 C56.3047246,164.055476 55.8106712,164.545194 55.8106712,165.279771 L55.8106712,184.868485 C55.8106712,185.603061 56.3047246,186.092779 57.0458046,186.092779 L76.8079393,186.092779 C77.5490194,186.092779 78.0430728,185.603061 78.0430728,184.868485 L78.0430728,165.279771 C78.0430728,164.545194 77.5490194,164.055476 76.8079393,164.055476 L57.0458046,164.055476 Z M58.280938,166.504066 L75.5728059,166.504066 L75.5728059,183.64419 L58.280938,183.64419 L58.280938,166.504066 Z M95.0840554,173.849833 C94.3429754,173.849833 93.848922,174.339551 93.848922,175.074128 C93.848922,175.808705 94.3429754,176.298422 95.0840554,176.298422 L181.543395,176.298422 C182.037448,176.298422 182.778528,175.808705 182.778528,175.074128 C182.778528,174.339551 182.284475,173.849833 181.543395,173.849833 L95.0840554,173.849833 Z M57.0458046,198.335725 C56.3047246,198.335725 55.8106712,198.825443 55.8106712,199.56002 L55.8106712,219.148731 C55.8106712,219.883308 56.3047246,220.373026 57.0458046,220.373026 L76.8079393,220.373026 C77.5490194,220.373026 78.0430728,219.883308 78.0430728,219.148731 L78.0430728,199.56002 C78.0430728,198.825443 77.5490194,198.335725 76.8079393,198.335725 L57.0458046,198.335725 Z M58.280938,200.784314 L75.5728059,200.784314 L75.5728059,217.924436 L58.280938,217.924436 L58.280938,200.784314 Z M95.0840554,208.130082 C94.3429754,208.130082 93.848922,208.6198 93.848922,209.354377 C93.848922,210.088953 94.3429754,210.578671 95.0840554,210.578671 L181.543395,210.578671 C182.037448,210.578671 182.778528,210.088953 182.778528,209.354377 C182.778528,208.6198 182.284475,208.130082 181.543395,208.130082 L95.0840554,208.130082 Z"/>
</svg>
