<svg xmlns="http://www.w3.org/2000/svg" class="dibsvg-svg dibsvg-checklist" viewBox="0 0 250 250">
    <path d="M217.7,37.8c0-10.8-8.8-19.5-19.6-19.4l-23.8,0.1c-1.9-5.7-4.7-10.2-8.3-13.5c-6.3-5.6-12.9-5.6-14.5-5.5L97.4-0.4 c-7.5,0-13.7,2.6-18.4,7.7c-3.1,3.3-5.1,7.3-6.6,11.4l-23.2,0.1c-10.8,0-19.5,8.8-19.4,19.6l0.6,192.4c0,10.8,8.8,19.5,19.6,19.4 l149-0.4c10.8,0,19.5-8.8,19.4-19.6L217.7,37.8z M85.5,13.4c3-3.2,6.9-4.8,11.8-4.8l54.3-0.2c0.2,0,0.3,0,0.5,0c0,0,4-0.3,7.9,3.2 c3.4,3.1,7.4,9.6,8.2,23.8l-89.7,0.3C78.7,29.2,80.2,19.2,85.5,13.4z M198.9,240.7l-149,0.4c-5.8,0-10.5-4.7-10.5-10.5L38.8,38.3 c0-5.8,4.7-10.5,10.5-10.5l21-0.1c-1,6.8-0.7,12.3-0.7,12.8c0.2,2.4,2.1,4.2,4.5,4.2l98.8-0.3c2.5,0,4.5-2,4.5-4.5 c0-4.5-0.3-8.7-0.9-12.5l21.8-0.1c5.8,0,10.5,4.7,10.5,10.5l0.6,192.4C209.3,236,204.7,240.7,198.9,240.7z"/>
    <path d="M186.3,101.8L128,152.4l-20.7-27.9c-1.5-2-4.3-2.4-6.3-0.9c-2,1.5-2.4,4.3-0.9,6.3l23.6,31.8c0.7,1,1.9,1.7,3.1,1.8 c0.2,0,0.3,0,0.5,0c1.1,0,2.1-0.4,2.9-1.1l62-53.8c1.9-1.6,2.1-4.5,0.5-6.3C191,100.4,188.2,100.2,186.3,101.8z"/>
    <path d="M171.9,136c0.1,1.4,0.2,2.7,0.2,4.1c0.1,26.7-21.6,48.5-48.3,48.5s-48.5-21.6-48.5-48.3c-0.1-26.7,21.6-48.5,48.3-48.5 c16.7-0.1,30.4,7,39.2,19.8l6.7-6c-10.4-14.7-26.5-22.8-45.9-22.8c-31.7,0.1-57.3,25.9-57.2,57.6c0.1,31.7,25.9,57.3,57.6,57.2 c31.7-0.1,57.3-25.9,57.2-57.6c0-3.6-0.4-7.1-1-10.5L171.9,136z"/>
</svg>
