<svg xmlns="http://www.w3.org/2000/svg" class="dibsvg-svg dibsvg-checkmark-void" viewBox="0 0 250 250">
    <circle cx="124.6" cy="125.4" r="117.6" fill="#FFFFFF" class="dibsvg-checkmark-void-background"/>
    <polygon points="105.4,170.6 61.7,127.3 74.3,114.5 105.9,145.7 182.6,75.5 194.7,88.8" class="dibsvg-checkmark-void-check"/>
    <path d="M125,0C56.1,0,0,56.1,0,125s56.1,125,125,125s125-56.1,125-125S193.9,0,125,0z M9,125 c0-33,13.8-62.8,36-83.9l154.9,172.4C179.7,230.7,153.5,241,125,241C61,241,9,189,9,125z M206.5,207.4L51.7,35.1 C71.7,18.8,97.2,9,125,9c64,0,116,52,116,116C241,157.2,227.8,186.4,206.5,207.4z" class="dibsvg-checkmark-void-void"/>
</svg>
