<svg xmlns="http://www.w3.org/2000/svg" class="dibsvg-svg dibsvg-checklist" viewBox="0 0 188.1 250">
	<path d="M187.4,38.2c0-10.8-8.8-19.4-19.5-19.3L144.1,19c-1.9-5.7-4.7-10.2-8.3-13.5c-6.3-5.6-12.9-5.6-14.5-5.5L67.4,0.1 c-7.5,0-13.7,2.6-18.3,7.7c-3.1,3.3-5.1,7.3-6.6,11.4l-23.1,0.1C8.6,19.3-0.1,28,0,38.8l0.6,191.8c0,10.8,8.8,19.4,19.5,19.3 l148.6-0.4c10.8,0,19.4-8.8,19.3-19.5L187.4,38.2z M55.5,13.9c3-3.2,6.9-4.8,11.8-4.8l54.1-0.2c0.2,0,0.3,0,0.5,0 c0,0,4-0.3,7.9,3.2c3.4,3.1,7.4,9.6,8.2,23.7l-89.4,0.3C48.8,29.6,50.3,19.7,55.5,13.9z M168.6,240.5L20,240.9 c-5.8,0-10.5-4.7-10.5-10.5L9,38.7c0-5.8,4.7-10.5,10.5-10.5l20.9-0.1c-1,6.8-0.7,12.3-0.7,12.8c0.2,2.4,2.1,4.2,4.5,4.2l98.5-0.3 c2.5,0,4.5-2,4.5-4.5c0-4.5-0.3-8.7-0.9-12.5l21.7-0.1c5.8,0,10.5,4.7,10.5,10.5l0.6,191.8C179,235.8,174.4,240.5,168.6,240.5z"/>
	<path d="M156,102l-58.1,50.5l-20.6-27.8c-1.5-2-4.3-2.4-6.3-0.9c-2,1.5-2.4,4.3-0.9,6.3l23.5,31.7c0.7,1,1.9,1.7,3.1,1.8 c0.2,0,0.3,0,0.5,0c1.1,0,2.1-0.4,2.9-1.1l61.8-53.6c1.9-1.6,2.1-4.5,0.5-6.3C160.7,100.6,157.9,100.4,156,102z"/>
	<path d="M141.7,136.1c0.1,1.4,0.2,2.7,0.2,4.1c0.1,26.6-21.5,48.4-48.2,48.4S45.4,167,45.4,140.4c-0.1-26.6,21.5-48.4,48.2-48.4 c16.7-0.1,30.3,7,39.1,19.7l6.7-6c-10.4-14.7-26.4-22.7-45.8-22.7c-31.6,0.1-57.1,25.8-57,57.4c0.1,31.6,25.8,57.1,57.4,57 s57.1-25.8,57-57.4c0-3.6-0.4-7.1-1-10.5L141.7,136.1z"/>
</svg>
