<svg version="1.1" class="dibsvg-svg dibsvg-circle-question-mark-empty" viewBox="0 0 518 507" xmlns="http://www.w3.org/2000/svg" xmlns:xlink="http://www.w3.org/1999/xlink">
    <g fill="none" fill-rule="evenodd">
        <path d="M258.6,39.5 C137.6,39.5 39.8,135.4 39.8,253.7 C39.8,372 137.6,467.9 258.6,467.9 C379.6,467.9 477.4,372 477.4,253.7 C477.4,135.4 379.6,39.5 258.6,39.5 L258.6,39.5 L258.6,39.5 Z M269.2,384.1 C265.4,388.3 260.9,390.2 255.5,390.2 C250.2,390.2 245.6,388.3 241.8,384.1 C238,379.9 236.1,375.4 236.1,369.7 C236.1,364 238,359.5 241.8,355.3 C245.6,351.1 250.1,349.2 255.5,349.2 C260.8,349.2 265.4,351.1 269.2,355.3 C273,359.5 274.9,364 274.9,369.7 C274.9,375.4 273,380 269.2,384.1 L269.2,384.1 L269.2,384.1 Z M310.2,194.5 C306.4,202.1 301.9,209.3 296.5,216.1 C291.2,222.9 285.1,229.4 278.3,235.4 C271.9,241.5 265.8,247.5 260.1,254 C254.8,260.1 249.9,266.5 246.4,272.6 C242.6,279 240.7,285.5 240.7,292.3 C240.7,297.2 242.2,301.4 245.3,304.1 C248.3,307.1 251.4,308.3 254,308.3 C259.7,308.3 264.6,306.4 269.2,302.2 C273.8,298 277.9,293.5 281.7,288.5 L298.8,301 C293.1,308.2 287,313.5 279.8,317.7 C272.6,321.9 266.1,323.8 260.1,323.8 C253.3,323.8 247.2,322.7 242.3,320.4 C237.4,318.1 233.2,315.1 229.8,311.3 C226.4,307.5 224.1,303 222.2,297.6 C220.7,292.3 219.5,287 219.5,281.3 L219.5,277.5 C219.9,269.2 222.2,261.2 225.9,254.4 C229.6,247.6 234.2,241.1 239.6,235.1 C244.9,229 250.6,223.3 256.7,217.7 C262.8,212 268.1,206.3 273.4,200.6 C278.7,194.9 282.9,188.8 286.3,182.4 C289.7,176 291.6,168.7 291.6,161.2 C291.6,156.6 290.8,152.5 288.6,149.1 C286.7,145.3 284,142.3 281,139.6 C278,136.9 274.2,135 270.4,133.5 C266.6,132 262.4,131.2 258.6,131.2 C254.4,131.2 250.6,132 246.8,133.5 C243,135 239.6,137.3 236.6,139.9 C233.6,142.6 230.9,146 229.4,149.8 C227.5,153.6 226.7,157.8 226.7,162.3 L226.7,164.6 L201.7,164.6 C202.1,158.2 203.2,152.1 205.5,146 C207.8,140.3 211.2,135.4 215.7,130.8 C220.3,126.6 225.9,123.2 232.8,120.9 C239.6,118.6 247.6,117.5 256.7,117.5 C268.5,117.5 277.9,119 285.9,122.1 C293.5,125.1 299.6,129.3 304.1,134.2 C308.6,139.1 311.7,144.8 313.6,150.9 C315.5,157.3 316.3,163.4 316.3,169.9 C315.9,178.6 314,186.6 310.2,194.5 L310.2,194.5 L310.2,194.5 Z"></path>
        <g fill="#000000">
	        <path d="M258.6,0.4 C116,0.4 0,114.2 0,253.7 C0,393.2 116,507 258.6,507 C401.2,507 517.2,393.2 517.2,253.7 C517.2,114.2 401.2,0.4 258.6,0.4 L258.6,0.4 L258.6,0.4 Z M258.6,467.9 C137.6,467.9 39.8,372 39.8,253.7 C39.8,135.4 137.6,39.5 258.6,39.5 C379.6,39.5 477.4,135.4 477.4,253.7 C477.4,372 379.6,467.9 258.6,467.9 L258.6,467.9 L258.6,467.9 Z"></path>
	        <path d="M255.6,349.3 C250.3,349.3 245.7,351.2 241.9,355.4 C238.1,359.6 236.2,364.1 236.2,369.8 C236.2,375.5 238.1,380 241.9,384.2 C245.7,388.4 250.2,390.3 255.6,390.3 C260.9,390.3 265.5,388.4 269.3,384.2 C273.1,380 275,375.5 275,369.8 C275,364.1 273.1,359.6 269.3,355.4 C265.4,351.5 260.9,349.3 255.6,349.3 L255.6,349.3 Z"></path>
	        <path d="M303.7,134.3 C299.1,129.4 293.1,125.6 285.5,122.2 C277.9,119.2 268.1,117.6 256.3,117.6 C247.2,117.6 239.2,118.7 232.4,121 C225.6,123.3 219.9,126.7 215.3,130.9 C210.7,135.1 207.3,140.4 205.1,146.1 C202.8,151.8 201.7,157.9 201.3,164.7 L226.3,164.7 L226.3,162.4 C226.3,157.8 227.1,153.7 229,149.9 C230.9,146.1 233.2,142.7 236.2,140 C239.2,137.3 242.6,135.1 246.4,133.6 C250.2,132.1 254.4,131.3 258.2,131.3 C262,131.3 265.8,132.1 270,133.6 C273.8,135.1 277.6,137 280.6,139.7 C283.6,142.4 286.3,145.4 288.2,149.2 C290.1,153 291.2,156.8 291.2,161.3 C291.2,169.3 289.3,176.1 285.9,182.5 C282.5,188.9 277.9,195 273,200.7 C267.7,206.4 262.4,212.1 256.3,217.8 C250.2,223.5 244.5,229.2 239.2,235.2 C233.9,241.3 229.3,247.7 225.5,254.5 C221.7,261.3 219.8,268.9 219.1,277.6 L219.1,281.4 C219.1,287.1 219.9,292.8 221.8,297.7 C223.3,303 226,307.2 229.4,311.4 C232.8,315.2 237,318.2 241.9,320.5 C246.8,322.8 252.9,323.9 259.7,323.9 C265.8,323.9 272.2,322 279.4,317.8 C286.6,313.6 292.7,308.3 298.4,301.1 L281.3,288.6 C277.5,293.5 273.3,298.1 268.8,302.3 C264.2,306.5 259.3,308.4 253.6,308.4 C250.9,308.4 247.9,306.9 244.9,304.2 C241.9,301.2 240.3,297.4 240.3,292.4 C240.3,285.6 242.2,279.1 246,272.7 C249.8,266.3 254.3,260.2 259.7,254.1 C265.1,248 271.1,242 277.9,235.5 C284.3,229.4 290.4,223 296.1,216.2 C301.4,209.4 306.3,202.2 309.8,194.6 C313.6,187 315.5,178.7 315.5,170 C315.5,163.6 314.7,157.5 312.8,151 C311.3,144.5 308.3,139.2 303.7,134.3 L303.7,134.3 Z"></path>
        </g>
    </g>
</svg>