<svg version="1.1" class="dibsvg-svg dibsvg-circle-contact-info" viewBox="0 0 250 250" xmlns="http://www.w3.org/2000/svg" xmlns:xlink="http://www.w3.org/1999/xlink">
    <g>
        <path d="M124.7-0.3C55.8-0.3-0.2,55.8-0.2,124.6s56,124.9,124.9,124.9c68.9,0,124.9-56,124.9-124.8
		    C249.6,55.8,193.5-0.3,124.7-0.3z M124.7,240.5c-63.9,0-115.9-52-115.9-115.9S60.8,8.7,124.7,8.7c63.9,0,115.9,52,115.9,116
		    C240.6,188.6,188.6,240.5,124.7,240.5z"
        />
        <path d="M129.4,154.8c-1.3-8.2-6.9-12.4-10-13.6l-11.2-4.5l-7.6-3.4c-1.8-0.8-2.4-1.9-2.5-2.3l0-0.1l0,0
		    c0,0,0.1-0.1,0.1-0.1c0.2-0.2,0.4-0.4,0.6-0.6c6.2-7.5,7.5-16.4,7.6-17.4c3.1-22-8.4-28.5-10.5-29.5c-3.9-2-8.1-3-12.3-3
		    c-7.2,0-12.3,2.8-12.9,3.2c-13,7.9-10.2,27.4-10,29c1.4,10.2,7.4,17.4,7.7,17.7l0.1,0.1c0.2,0.2,0.4,0.4,0.5,0.5c0,0,0,0,0,0
		    c-0.4,1.4-1.5,2.1-1.8,2.2l-6,2.6l-13.9,5.6c-5.5,2-7.7,6.8-8.1,7.9c-1.8,4-2.4,12.9-2.6,15.6l-0.3,4.8l4.8,0
		    c15.9,0.1,31.9,0.1,47.4,0.1c23,0,37.2-0.1,37.4-0.1l4.8,0l-1.1-14.4L129.4,154.8z M88.3,160.8c-13.9,0-28.2,0-42.5-0.1
		    c0.4-3.4,0.9-6.7,1.4-7.8l0.1-0.3c0,0,0.9-2.1,2.9-2.8l14.2-5.7l5.9-2.6c1.1-0.4,5.9-2.7,7.3-8.8l0.1-0.3c0.1-0.9,0.3-3.2-0.6-5.1
		    c-0.7-1.3-1-1.7-2-2.9c-0.4-0.5-4.6-5.8-5.5-13l0-0.1c0-0.1-2.2-15.1,5.7-19.9c0.4-0.2,3.7-1.9,8.3-1.9c2.9,0,5.7,0.7,8.3,2
		    l0.4,0.2c0.1,0,7.5,3.7,5.2,20l0,0.1c0,0.1-0.9,7.1-5.6,12.7c-0.1,0.1-0.1,0.2-0.2,0.2c-0.5,0.6-1.4,1.5-2,2.7l-0.2,0.4
		    c-0.2,0.6-0.9,2.7-0.1,5.3c0.4,1.4,1.9,5.9,7.6,8.4l7.6,3.5l11.5,4.6c0,0,3.5,1.5,4.3,6.5l0.3,4.6
		    C114.8,160.7,103.5,160.8,88.3,160.8z"
        />
        <rect x="144.3" y="97.9" fill="#010101" width="66.7" height="9"/>
        <rect x="144.3" y="121.6" fill="#010101" width="66.7" height="9"/>
        <rect x="144.3" y="145.3" fill="#010101" width="66.7" height="9"/>
    </g>
</svg>
