<svg version="1.1" class="dibsvg-svg dibsvg-circle-inquries-thin" xmlns="http://www.w3.org/2000/svg" xmlns:xlink="http://www.w3.org/1999/xlink" viewBox="0 0 250 250">
	<path d="M125,0C56,0,0,56,0,125s56,125,125,125s125-56,125-125S194,0,125,0z M210.6,210.6C187.7,233.4,157.3,246,125,246
		s-62.7-12.6-85.6-35.4S4,157.3,4,125s12.6-62.7,35.4-85.6S92.7,4,125,4s62.7,12.6,85.6,35.4S246,92.7,246,125
		S233.4,187.7,210.6,210.6z"/>
	<path d="M73.4,165.5h103.1v-81H73.4V165.5z M163.7,88.2l-37.9,45.2L86.4,88.2H163.7z M77.2,88.2h4.3l44.3,51l42.7-51h4.3v73.6H77.2
		V88.2z"/>
</svg>
