<svg version="1.1" class="dibsvg-svg dibsvg-circle-eraser" viewBox="0 0 250 250" xmlns="http://www.w3.org/2000/svg" xmlns:xlink="http://www.w3.org/1999/xlink">
	<path d="M125.2-0.2C56.2-0.2,0,56,0,125s56.2,125.2,125.2,125.2c69.1,0,125.2-56.1,125.2-125.1S194.2-0.2,125.2-0.2z M123.1,119.8l45.8,17.4l-8.4,20.7c-5,9.7-15.6,6-16.8,5.6l-23.1-8.8c-9.3-6-6.7-12.9-6.4-13.6L123.1,119.8z M172.3,128.8l-45.6-17.3l1.5-3.7l45.7,16.9L172.3,128.8z M177.3,116.4l-45.6-16.8l35.2-83.1c15.2,5.8,28.9,14.8,40.3,26.1L177.3,116.4z M125.3,241.1C61.2,241.1,9.1,189,9.1,125S61.2,8.8,125.2,8.8c11.5,0,22.6,1.7,33.1,4.8l-52.4,123.8c-2.3,5.1-3.1,16.9,10.3,25.2l0.4,0.2l23.9,9.1c2.3,0.9,5.6,1.6,9.1,1.6c6.7,0,14.5-2.6,19.1-11.7l0.1-0.2l45.2-111.8c17.2,20.2,27.6,46.4,27.6,75.1C241.5,189,189.4,241.1,125.3,241.1z" />
	<path d="M63.3,150.2H92c2.5,0,4.5-2,4.5-4.5s-2-4.5-4.5-4.5H63.3c-2.5,0-4.5,2-4.5,4.5S60.8,150.2,63.3,150.2z" />
	<path d="M103,164.5H41.7c-2.5,0-4.5,2-4.5,4.5s2,4.5,4.5,4.5H103c2.5,0,4.5-2,4.5-4.5S105.5,164.5,103,164.5z" />
</svg>
