<svg xmlns="http://www.w3.org/2000/svg" class="dibsvg-svg dibsvg-circle-question-mark-empty" viewBox="0 0 518 507">
    <path d="M258.6.4C116 .4 0 114.2 0 253.7S116 507 258.6 507c142.6 0 258.6-113.8 258.6-253.3S401.2.4 258.6.4zm0 467.5c-121 0-218.8-95.9-218.8-214.2 0-118.3 97.8-214.2 218.8-214.2 121 0 218.8 95.9 218.8 214.2 0 118.3-97.8 214.2-218.8 214.2z"/>
    <path d="M255.6 349.3c-5.3 0-9.9 1.9-13.7 6.1-3.8 4.2-5.7 8.7-5.7 14.4 0 5.7 1.9 10.2 5.7 14.4 3.8 4.2 8.3 6.1 13.7 6.1 5.3 0 9.9-1.9 13.7-6.1 3.8-4.2 5.7-8.7 5.7-14.4 0-5.7-1.9-10.2-5.7-14.4-3.9-3.9-8.4-6.1-13.7-6.1z"/>
    <path d="M303.7 134.3c-4.6-4.9-10.6-8.7-18.2-12.1-7.6-3-17.4-4.6-29.2-4.6-9.1 0-17.1 1.1-23.9 3.4-6.8 2.3-12.5 5.7-17.1 9.9-4.6 4.2-8 9.5-10.2 15.2-2.3 5.7-3.4 11.8-3.8 18.6h25v-2.3c0-4.6.8-8.7 2.7-12.5 1.9-3.8 4.2-7.2 7.2-9.9s6.4-4.9 10.2-6.4c3.8-1.5 8-2.3 11.8-2.3 3.8 0 7.6.8 11.8 2.3 3.8 1.5 7.6 3.4 10.6 6.1 3 2.7 5.7 5.7 7.6 9.5 1.9 3.8 3 7.6 3 12.1 0 8-1.9 14.8-5.3 21.2-3.4 6.4-8 12.5-12.9 18.2-5.3 5.7-10.6 11.4-16.7 17.1-6.1 5.7-11.8 11.4-17.1 17.4-5.3 6.1-9.9 12.5-13.7 19.3-3.8 6.8-5.7 14.4-6.4 23.1v3.8c0 5.7.8 11.4 2.7 16.3 1.5 5.3 4.2 9.5 7.6 13.7 3.4 3.8 7.6 6.8 12.5 9.1s11 3.4 17.8 3.4c6.1 0 12.5-1.9 19.7-6.1 7.2-4.2 13.3-9.5 19-16.7l-17.1-12.5c-3.8 4.9-8 9.5-12.5 13.7-4.6 4.2-9.5 6.1-15.2 6.1-2.7 0-5.7-1.5-8.7-4.2-3-3-4.6-6.8-4.6-11.8 0-6.8 1.9-13.3 5.7-19.7 3.8-6.4 8.3-12.5 13.7-18.6 5.4-6.1 11.4-12.1 18.2-18.6 6.4-6.1 12.5-12.5 18.2-19.3 5.3-6.8 10.2-14 13.7-21.6 3.8-7.6 5.7-15.9 5.7-24.6 0-6.4-.8-12.5-2.7-19-1.5-6.5-4.5-11.8-9.1-16.7z"/>
</svg>
