<svg xmlns="http://www.w3.org/2000/svg" class="dibsvg-svg dibsvg-circle-percent" viewBox="0 0 250 250">
    <path d="M125-.5C55.9-.5-.4 55.8-.4 124.9-.4 194 55.8 250.3 125 250.3c69.1 0 125.4-56.2 125.4-125.3C250.4 55.8 194.1-.5 125-.5zm0 241.8c-64.2 0-116.4-52.2-116.4-116.4S60.8 8.5 125 8.5 241.4 60.7 241.4 125c0 64.1-52.2 116.3-116.4 116.3z"/>
    <path d="M156.9 127.3c-17.7 0-29.4 13-29.4 29.8 0 16.6 11.8 29.3 29.4 29.3 17.7 0 29.6-12.7 29.6-29.3 0-16.8-11.9-29.8-29.6-29.8zm0 47.3c-9.3 0-15.7-7.1-15.7-17.5 0-10.7 6.4-17.8 15.7-17.8 9.3 0 15.9 7.1 15.9 17.8 0 10.4-6.6 17.5-15.9 17.5z"/>
    <path d="M122.7 93.2c0-16.8-12-29.8-29.8-29.8-17.7 0-29.4 13-29.4 29.8 0 16.6 11.8 29.3 29.4 29.3 17.8 0 29.8-12.7 29.8-29.3zm-45.5 0c0-10.7 6.6-17.8 15.7-17.8 9.3 0 15.9 7.1 15.9 17.8 0 10.2-6.6 17.5-15.9 17.5-9.1 0-15.7-7.3-15.7-17.5z"/>
    <polygon points="157.5,65.2 81.5,184.2 93.2,184.2 169.4,65.2"/>
</svg>
