<svg version="1.1" class="dibsvg-svg dibsvg-circle-person" viewBox="0 0 250 250" xmlns="http://www.w3.org/2000/svg" xmlns:xlink="http://www.w3.org/1999/xlink">
 	<path d="M123.8,244.1c0,0,0.1,0,0.1,0c0,0,0.1,0,0.1,0C124,244.1,123.9,244.1,123.8,244.1z"/>
	<path d="M125.5-0.1c-68.9,0-125,56.1-125,125s56.1,125,125,125s125-56.1,125-125S194.4-0.1,125.5-0.1z M50,212.9 c7.5-5.5,23.2-15.4,43.9-21.4c37.6-10.8,74.3-4.1,109,19.7c-20.6,18.5-47.7,29.7-77.4,29.7C96.7,240.9,70.3,230.3,50,212.9z M209.5,204.8c-46.8-32.7-90.1-30-118.5-21.8c-23.4,6.8-40.3,18.1-47.8,23.7c-20.9-21-33.8-49.9-33.8-81.7c0-64,52-116,116-116 c64,0,116,52,116,116C241.5,155.8,229.3,184,209.5,204.8z"/>
	<path d="M123.4,49.5c-31.4,0-56.9,25.5-56.9,56.9c0,31.4,25.5,56.9,56.9,56.9s56.9-25.5,56.9-56.9C180.3,75,154.8,49.5,123.4,49.5z M123.4,154.2c-26.4,0-47.9-21.5-47.9-47.9S97,58.5,123.4,58.5s47.9,21.5,47.9,47.9S149.8,154.2,123.4,154.2z"/>
</svg>
