<svg xmlns="http://www.w3.org/2000/svg" class="dibsvg-svg dibsvg-circle-question-mark-filled" viewBox="0 0 518 507">
    <path d="M259 .33C116.55.33.549 114.025.549 253.512S116.55 506.696 259 506.696c142.45 0 258.451-113.696 258.451-253.183S401.45.329 259 .329zm10.645 383.56c-3.84 4.171-8.34 6.037-13.608 6.037-5.268 0-9.877-1.866-13.609-6.036-3.731-4.17-5.706-8.67-5.706-14.377 0-5.707 1.865-10.206 5.706-14.377 3.841-4.17 8.341-6.036 13.609-6.036 5.268 0 9.877 2.305 13.608 6.036 3.841 4.17 5.707 8.67 5.707 14.377 0 5.707-1.975 10.206-5.707 14.377zm40.497-189.53c-3.403 7.572-8.341 14.815-13.609 21.62-5.707 6.804-11.743 13.279-18.218 19.315-6.804 6.475-12.84 12.51-18.218 18.547-5.267 6.036-9.877 12.182-13.608 18.547-3.841 6.475-5.707 12.84-5.707 19.754 0 4.939 1.537 8.67 4.5 11.743 3.073 2.634 6.036 4.17 8.67 4.17 5.706 0 10.645-1.865 15.145-6.036 4.5-4.17 8.67-8.67 12.51-13.608l17.011 12.51c-5.707 7.244-11.743 12.512-18.986 16.682-7.243 4.17-13.608 6.036-19.754 6.036-6.804 0-12.84-1.097-17.779-3.402-4.938-2.305-9.109-5.268-12.51-9.109-3.403-4.17-6.037-8.34-7.573-13.608-1.866-4.939-2.634-10.646-2.634-16.243v-3.84c.768-8.67 2.634-16.243 6.475-23.157 3.84-6.804 8.34-13.28 13.608-19.315 5.268-6.036 10.975-11.743 17.01-17.45 6.037-5.707 11.414-11.413 16.682-17.01 4.939-5.707 9.438-11.743 12.84-18.218 3.403-6.475 5.268-13.28 5.268-21.181 0-4.5-1.097-8.34-3.073-12.182-1.865-3.841-4.5-6.804-7.572-9.438-3.073-2.634-6.804-4.5-10.645-6.036-4.17-1.537-8.012-2.305-11.743-2.305-3.841 0-8.012.768-11.743 2.305-3.841 1.536-7.243 3.84-10.206 6.475-3.073 2.634-5.268 6.036-7.244 9.877-1.865 3.841-2.633 8.011-2.633 12.511v2.305h-25.023c.33-6.805 1.537-12.84 3.842-18.547 2.304-5.707 5.706-10.975 10.206-15.145 4.5-4.17 10.206-7.573 17.01-9.877 6.805-2.305 14.816-3.403 23.925-3.403 11.743 0 21.62 1.537 29.192 4.5 7.573 3.402 13.609 7.243 18.218 12.182 4.5 4.938 7.573 10.206 9.11 16.681 1.865 6.475 2.633 12.511 2.633 18.986.33 8.45-1.536 16.791-5.377 24.364z"/>
</svg>
