<svg version="1.1" class="dibsvg-svg dibsvg-circle-lamp" viewBox="0 0 250 250" xmlns="http://www.w3.org/2000/svg" xmlns:xlink="http://www.w3.org/1999/xlink">
	<polygon points="156.4,48.8 97,48.8 84.8,95.4 168.7,95.4"/>
	<path d="M133.1,104.4h-12.5c2.7,7.2,5.7,20.5,2.2,38.6c-0.2,2.1-2.1,16.7-11.4,30.2c-0.2,0.3-0.6,0.8-1,1.4
		c-0.6,0.8-1.4,1.8-1.8,2.5c-2.8,4.2-6.7,12.6-1.2,21.5l3.4,4.9h33l3.2-5.1c0.3-0.5,6.2-10.2-3.1-22l-0.4-0.5
		c-0.9-1.1-2.5-3.1-3.5-4.8c-3.5-5.5-9.6-17.9-10.1-30C129.8,138.5,128.7,117.8,133.1,104.4z"/>
	<path d="M125.5-1C56-1-0.5,55.5-0.5,125s56.5,126,126,126c69.5,0,126-56.5,126-126S195-1,125.5-1z M138.9,140.7
		c0.5,10.2,5.9,21.2,8.7,25.6c0.8,1.2,2.3,3.1,3,4l0.4,0.5c13.3,17.1,3.9,31.8,3.5,32.4l-5.8,9.3H106l-6.2-9.1
		c-8.5-13.7-1.9-26.5,1.3-31.3c0.6-0.9,1.4-2,2.1-2.9c0.3-0.5,0.6-0.9,0.8-1.1c8.5-12.3,9.9-26,9.9-26.2l0.1-0.4
		c3.9-20-1.1-33-3.1-37.1H73.2l16.9-64.5h73.2l17.1,64.5h-37.6C138.4,113.3,138.5,133.3,138.9,140.7z"/>
</svg>
