<svg xmlns="http://www.w3.org/2000/svg" class="dibsvg-svg dibsvg-circle-question-mark-filled" viewBox="0 0 250 250">
<path d="M125,249.8c-68.9,0-125-56.1-125-125c0-68.9,56.1-125,125-125c68.9,0,125,56.1,125,125C250,193.8,193.9,249.8,125,249.8z
	 M151.4,79.6c-6.7-6.8-15.7-10.2-27.1-10.2c-10.8,0-19.5,3.4-26.1,10.1c-6.6,6.7-10.2,14.9-10.7,24.5l18.2,2.6
	c1.3-6.7,3.6-11.7,7-15c3.4-3.3,7.6-4.9,12.6-4.9c5.2,0,9.3,1.6,12.4,4.7c3.1,3.1,4.6,6.9,4.6,11.3c0,3.2-0.9,6.1-2.6,8.7
	c-1.1,1.7-4.6,5.2-10.3,10.6c-5.8,5.4-9.6,10.2-11.5,14.5c-1.9,4.3-2.9,9.8-2.9,16.5c0,0.6,0,2.4,0.1,5.4h17.9
	c-0.1-6.2,0.4-10.6,1.4-13c1-2.4,3.6-5.6,7.8-9.6c8.1-7.7,13.3-13.8,15.8-18.2c2.5-4.5,3.7-9.2,3.7-14.2
	C161.4,94.3,158.1,86.4,151.4,79.6z M124.3,167.8c-6.2,0-11.3,5.1-11.3,11.3s5.1,11.3,11.3,11.3c6.2,0,11.3-5.1,11.3-11.3
	S130.5,167.8,124.3,167.8z"/>
</svg>
