<svg xmlns="http://www.w3.org/2000/svg" class="dibsvg-svg dibsvg-circle-eraser" viewBox="0 0 250 250">
    <path d="M125.2-.2C56.2-.2 0 56 0 125s56.2 125.2 125.2 125.2c69.1 0 125.2-56.1 125.2-125.1S194.2-.2 125.2-.2zm-2.1 120l45.8 17.4-8.4 20.7c-5 9.7-15.6 6-16.8 5.6l-23.1-8.8c-9.3-6-6.7-12.9-6.4-13.6l8.9-21.3zm49.2 9l-45.6-17.3 1.5-3.7 45.7 16.9-1.6 4.1zm5-12.4l-45.6-16.8 35.2-83.1c15.2 5.8 28.9 14.8 40.3 26.1l-29.9 73.8zm-52 124.7C61.2 241.1 9.1 189 9.1 125S61.2 8.8 125.2 8.8c11.5 0 22.6 1.7 33.1 4.8l-52.4 123.8c-2.3 5.1-3.1 16.9 10.3 25.2l.4.2 23.9 9.1c2.3.9 5.6 1.6 9.1 1.6 6.7 0 14.5-2.6 19.1-11.7l.1-.2L214 49.8c17.2 20.2 27.6 46.4 27.6 75.1-.1 64.1-52.2 116.2-116.3 116.2z"/>
    <path d="M63.3 150.2H92c2.5 0 4.5-2 4.5-4.5s-2-4.5-4.5-4.5H63.3c-2.5 0-4.5 2-4.5 4.5s2 4.5 4.5 4.5z"/>
    <path d="M103 164.5H41.7c-2.5 0-4.5 2-4.5 4.5s2 4.5 4.5 4.5H103c2.5 0 4.5-2 4.5-4.5s-2-4.5-4.5-4.5z"/>
</svg>
