<svg xmlns="http://www.w3.org/2000/svg" class="dibsvg-svg dibsvg-circle-question-mark-empty" viewBox="0 0 250 250">
<g>
	<path d="M125-0.2C56.1-0.2,0,55.9,0,124.8s56.1,125,125,125s125-56,125-125C250,55.9,193.9-0.2,125-0.2z M125,240.9
		c-64,0-116-52.1-116-116c0-64,52.1-116,116-116s116,52,116,116S189,240.9,125,240.9z"/>
	<path d="M124.2,69.4c-10.8,0-19.5,3.4-26.1,10.1c-6.6,6.7-10.2,14.9-10.7,24.5l18.1,2.6c1.3-6.7,3.6-11.7,7-15
		c3.4-3.3,7.6-4.9,12.6-4.9c5.2,0,9.3,1.6,12.4,4.7c3.1,3.1,4.6,6.9,4.6,11.3c0,3.2-0.9,6.1-2.6,8.7c-1.1,1.7-4.5,5.2-10.3,10.6
		c-5.7,5.4-9.6,10.2-11.5,14.5s-2.9,9.8-2.9,16.5c0,0.6,0.1,2.4,0.1,5.4h17.9c-0.1-6.2,0.3-10.6,1.3-13c1-2.4,3.6-5.6,7.8-9.6
		c8.1-7.6,13.3-13.7,15.8-18.2s3.7-9.2,3.7-14.2c0-9.1-3.4-17-10.1-23.8C144.6,72.8,135.5,69.4,124.2,69.4z"/>
	<ellipse transform="matrix(0.9732 -0.2298 0.2298 0.9732 -37.8237 33.3495)" cx="124.3" cy="179.1" rx="11.3" ry="11.3"/>
</g>
</svg>
