<svg xmlns="http://www.w3.org/2000/svg" class="dibsvg-svg dibsvg-circle-strikethrough" viewBox="0 0 250 250">
    <path d="M249.1,78.5c-1.9-4.6-7.1-6.8-11.7-5l-11.8,4.8c-17.9-38-56.5-64.4-101.2-64.4C62.9,13.9,12.7,64,12.7,125.7 c0,12.7,2.1,24.8,6,36.2L6.1,167c-4.6,1.9-6.8,7.1-5,11.7c1.4,3.5,4.8,5.6,8.3,5.6c1.1,0,2.3-0.2,3.4-0.7l13.1-5.3 c18.9,35.1,55.9,59,98.5,59c61.6,0,111.7-50.1,111.7-111.7c0-10.6-1.5-20.8-4.2-30.5l12.2-4.9C248.8,88.4,251,83.1,249.1,78.5z M30.7,125.7c0-51.7,42.1-93.7,93.7-93.7c37.1,0,69.3,21.7,84.5,53.1L35.5,155.1C32.4,145.8,30.7,135.9,30.7,125.7z M218.2,125.7 c0,51.7-42.1,93.7-93.7,93.7c-35,0-65.6-19.3-81.7-47.8l172.4-69.6C217.2,109.5,218.2,117.5,218.2,125.7z"/>
</svg>
