<svg xmlns="http://www.w3.org/2000/svg" class="dibssvg-svg dibsvg-close-ups"  viewBox="0 0 250 250">
	<path fill="none" d="M9,200.7l45.6-33.5l11.2,11.2l51.2-43.2l71.9,54.5V130c-8.7,6.1-19.3,9.6-30.6,9.6c-29.6,0-53.7-24.1-53.7-53.7 c0-1.3,0.1-2.6,0.2-3.9H9V200.7z M46.7,98.6c13,0,23.5,10.5,23.5,23.5c0,13-10.5,23.5-23.5,23.5S23.2,135,23.2,122.1 C23.2,109.1,33.7,98.6,46.7,98.6z"/>
	<path fill="none" d="M46.7,136.5c8,0,14.5-6.5,14.5-14.5s-6.5-14.5-14.5-14.5c-8,0-14.5,6.5-14.5,14.5S38.7,136.5,46.7,136.5z"/>
	<polygon fill="none" points="65.4,190.7 53.8,179.1 13.3,208.8 189,208.8 189,201.1 117.4,146.8 "/>
	<path fill="none" d="M158.4,41.2c-20.1,0-37.2,13.4-42.8,31.7c-0.9,2.9-1.5,5.9-1.7,9c-0.1,1.3-0.2,2.6-0.2,3.9 c0,24.6,20.1,44.7,44.7,44.7c11.9,0,22.6-4.6,30.6-12.2c0.6-0.5,1.1-1.1,1.7-1.6c0.1-0.1,0.2-0.2,0.3-0.4c0.1-0.1,0.1-0.1,0.2-0.2 c2.7-2.9,5-6.2,6.9-9.8c3.2-6.2,5-13.1,5-20.6C203.1,61.2,183,41.2,158.4,41.2z"/>
	<path fill="none" d="M9,200.7l45.6-33.5l11.2,11.2l51.2-43.2l71.9,54.5V130c-8.7,6.1-19.3,9.6-30.6,9.6c-29.6,0-53.7-24.1-53.7-53.7 c0-1.3,0.1-2.6,0.2-3.9H9V200.7z"/>
	<polygon fill="none" points="65.4,190.7 53.8,179.1 13.3,208.8 189,208.8 189,201.1 117.4,146.8 "/>
	<path fill="none" d="M158.4,41.2c-20.1,0-37.2,13.4-42.8,31.7c-0.9,2.9-1.5,5.9-1.7,9c-0.1,1.3-0.2,2.6-0.2,3.9 c0,24.6,20.1,44.7,44.7,44.7c11.9,0,22.6-4.6,30.6-12.2c0.6-0.5,1.1-1.1,1.7-1.6c0.1-0.1,0.2-0.2,0.3-0.4c0.1-0.1,0.1-0.1,0.2-0.2 c2.7-2.9,5-6.2,6.9-9.8c3.2-6.2,5-13.1,5-20.6C203.1,61.2,183,41.2,158.4,41.2z"/>
	<g>
		<path d="M46.7,98.6c-13,0-23.5,10.5-23.5,23.5c0,13,10.5,23.5,23.5,23.5s23.5-10.5,23.5-23.5C70.2,109.1,59.6,98.6,46.7,98.6z  M46.7,136.5c-8,0-14.5-6.5-14.5-14.5s6.5-14.5,14.5-14.5c8,0,14.5,6.5,14.5,14.5S54.7,136.5,46.7,136.5z"/>
		<path d="M248.7,167.7l-48.3-48.3c7.3-9.2,11.8-20.8,11.8-33.5c0-29.6-24.1-53.7-53.7-53.7c-25.2,0-46.3,17.4-52.1,40.8H0v144.9h198 v-88l44.2,44.2c0.9,0.9,2,1.3,3.2,1.3s2.3-0.4,3.2-1.3C250.4,172.3,250.4,169.5,248.7,167.7z M189,208.8H13.3l40.5-29.7l11.6,11.6 l52-43.9l71.6,54.2V208.8z M189,189.7l-71.9-54.5l-51.2,43.2l-11.2-11.2L9,200.7V82h95.7c-0.1,1.3-0.2,2.6-0.2,3.9 c0,29.6,24.1,53.7,53.7,53.7c11.4,0,21.9-3.6,30.6-9.6V189.7z M191.2,116.2c-0.1,0.1-0.2,0.1-0.2,0.2c-0.1,0.1-0.2,0.2-0.3,0.4 c-0.5,0.6-1.1,1.1-1.7,1.6c-8,7.6-18.8,12.2-30.6,12.2c-24.6,0-44.7-20.1-44.7-44.7c0-1.3,0.1-2.6,0.2-3.9c0.3-3.1,0.9-6.1,1.7-9 c5.6-18.3,22.6-31.7,42.8-31.7c24.6,0,44.7,20.1,44.7,44.7c0,7.4-1.8,14.4-5,20.6C196.2,110,193.9,113.3,191.2,116.2z"/>
	</g>
</svg>
