<!-- commuter benefits on careers -->
<svg version="1.1" class="dibsvg-icon" id="commuter-train" viewBox="0 0 420 518" xmlns="http://www.w3.org/2000/svg" xmlns:xlink="http://www.w3.org/1999/xlink">
    <path d="M112.6,313.6c-2.5,2.5-3.8,5.9-3.8,9.2c0,3.4,1.3,6.7,3.8,9.2c2.5,2.5,5.9,3.8,9.2,3.8
            c3.4,0,6.7-1.3,9.2-3.8s3.8-5.9,3.8-9.2c0-3.4-1.3-6.7-3.8-9.2C126.4,308.6,117.6,308.6,112.6,313.6z"/>
    <path d="M290.6,313.6c-2.5,2.5-3.8,5.9-3.8,9.2c0,3.4,1.3,6.7,4.2,9.2c2.5,2.5,5.9,3.8,9.2,3.8
            c3.4,0,6.7-1.3,9.2-3.8s3.8-5.9,3.8-9.2c0-3.4-1.3-6.7-3.8-9.2C304.1,308.6,295.3,308.6,290.6,313.6z"/>
    <path d="M382.2,346.4V127.1c0-37.8-32.3-64.7-62.2-64.7h-83.2c-1.7-7.6-8.4-13.4-16-13.4h-25.2
            c-7.6,0-13.9,5.9-16,13.4h-78.1c-37.8,0-63.4,26.9-63.4,64.7v219.2c0,23.9,21,54.6,52.9,60.5l-52.1,51.7c-1.7,1.7-1.7,4.6,0,6.7
            l2.5,2.5c1.7,1.7,4.6,1.7,6.7,0l60.1-60.1h203.3l60.1,60.1c1.7,1.7,4.6,1.7,6.7,0l2.5-2.5c1.7-1.7,1.7-4.6,0-6.7l-52.5-51.2
            C358.3,403.1,382.2,377.9,382.2,346.4z M320,394.2h-4.6c-1.3-0.4-2.5-0.4-3.8,0H107.5c-1.3-0.4-2.5-0.4-3.8,0h-2.1
            c-23.1,0-50.4-25.2-50.4-48.3V127.1c0-32.3,22.7-51.7,50.4-51.7H181c2.5,5.9,8.4,10.1,14.7,10.1h25.2c6.3,0,12.2-4.2,14.7-10.1
            h84.8c23.1,0,49.1,28.6,49.1,51.7v219.2C369.2,369,343.1,394.2,320,394.2z"/>
    <path d="M285.6,109.1H136.5c-28.1,0-50.8,22.7-50.8,50.8v89.5c0,7.1,5.9,12.2,13,12.2H323c7.1,0,13-5,13-12.2v-89.5
            C336.4,131.7,313.3,109.1,285.6,109.1z M322.1,246.8H100v-86.9c0-13.4,16.8-35.3,30.2-35.3h160.9c13.4,0,31.1,21.8,31.1,35.3
            L322.1,246.8L322.1,246.8z"/>
</svg>