<svg xmlns="http://www.w3.org/2000/svg" xmlns:xlink="http://www.w3.org/1999/xlink" class="dibsvg-svg dibsvg-copy" viewBox="0 0 250 250">
	<path d="M185.5,49.1V0H17v200.9h47.5V250H233V49.1H185.5z M64.5,191.9H26V9h150.5v40.1h-112V191.9z M224,241H73.5v-31h0V58.1h135v0
		H224V241z"/>
	<path d="M199,103.5H98.5c-2.5,0-4.5,2-4.5,4.5s2,4.5,4.5,4.5H199c2.5,0,4.5-2,4.5-4.5S201.5,103.5,199,103.5z"/>
	<path d="M199,132H98.5c-2.5,0-4.5,2-4.5,4.5s2,4.5,4.5,4.5H199c2.5,0,4.5-2,4.5-4.5S201.5,132,199,132z"/>
	<path d="M199,160.4H98.5c-2.5,0-4.5,2-4.5,4.5s2,4.5,4.5,4.5H199c2.5,0,4.5-2,4.5-4.5S201.5,160.4,199,160.4z"/>
</svg>
