<svg version="1.1" class="dibsvg-svg dibsvg-credit-card" xmlns="http://www.w3.org/2000/svg" viewBox="0 0 250 250">
	<path d="M230.4,71.4h-14.9L211,38.9c-1.5-10.7-11.4-18.2-22.1-16.7l-172,24.1C11.7,47,7.1,49.7,4,53.9s-4.5,9.3-3.8,14.5
		l16.4,116.9c0.7,5.2,3.4,9.7,7.6,12.9c3.4,2.6,7.5,4,11.8,4c0.4,0,0.8,0,1.2,0v6.9c0,10.8,8.8,19.6,19.6,19.6h173.7
		c10.8,0,19.6-8.8,19.6-19.6V91C250,80.2,241.2,71.4,230.4,71.4z M241,91v26.8H46.2V91c0-5.8,4.7-10.5,10.5-10.5h173.7
		C236.2,80.4,241,85.2,241,91z M9.1,67.1c-0.4-2.8,0.3-5.5,2-7.8c1.7-2.3,4.2-3.7,6.9-4.1l172-24.1c0.5-0.1,1-0.1,1.5-0.1
		c5.2,0,9.7,3.8,10.4,9.1l3.7,26.6l-33.6,4.7H56.7c-10.6,0-19.2,8.4-19.5,18.9l-24.3,3.4L9.1,67.1z M29.6,191
		c-2.3-1.7-3.7-4.2-4.1-6.9l-11.4-81.4l23-3.2V193C34.5,193.3,31.8,192.6,29.6,191z M230.4,219.6H56.7c-5.8,0-10.5-4.7-10.5-10.5
		v-82.2H241V209C241,214.8,236.2,219.6,230.4,219.6z"/>
	<path d="M73,162.5h45.7c2.5,0,4.5-2,4.5-4.5c0-2.5-2-4.5-4.5-4.5H73c-2.5,0-4.5,2-4.5,4.5C68.5,160.5,70.5,162.5,73,162.5z"/>
	<path d="M158.9,183.1H73c-2.5,0-4.5,2-4.5,4.5c0,2.5,2,4.5,4.5,4.5h85.8c2.5,0,4.5-2,4.5-4.5C163.4,185.1,161.4,183.1,158.9,183.1z"/>
</svg>
