<svg class="dibsvg-svg dibsvg-days-on-1stdibs" version="1.1" xmlns="http://www.w3.org/2000/svg" xmlns:xlink="http://www.w3.org/1999/xlink" viewBox="0 0 250 250">
		<g>
			<path d="M88.6,161c-0.7-1.1-1.1-2-1.1-3c0-1,0.5-3.4,1.6-6.9l20.4-68.7H107l-31,7.5l0.5,2.3c3-0.4,5-0.4,6-0.4
				c2,0,3.6,0.5,4.8,1.6c1.1,1.1,1.7,2.5,1.7,4.3c0,0.9-0.1,1.9-0.4,2.9c-0.1,0.4-1.1,3.6-3,9.8l-12.1,40.8
				c-1.3,4.4-2.5,7.3-3.5,8.7c-1.1,1.3-2.3,2.4-4,3c-1.6,0.6-4.4,0.8-8.6,0.9l-0.6,2h41.3l0.6-2c-4.3-0.3-6.9-0.4-7.8-0.7
				C90.2,162.6,89.4,162.1,88.6,161z"/>
		</g>
		<g>
			<path d="M150.4,109.8c-1.1,1.9-2.3,2.2-3.8,2.2c-1.1,0-2.6-0.2-4.3-0.6c-3.6-0.9-6.7-1.3-9.2-1.3c-5.8,0-10.2,1.5-13.3,4.3
				s-4.8,6.6-4.8,10.9c0,2.6,0.5,4.9,1.6,6.9c1.5,2.8,4.6,6.7,9.3,11.9c3.5,3.7,5.6,6.5,6.6,8.2c1,1.8,1.4,3.5,1.4,5.5
				s-0.7,3.5-2.1,5c-1.4,1.4-3.3,2-5.5,2c-1.9,0-3.9-0.6-5.9-1.9c-2-1.2-3.7-2.7-5-4.8c-1.2-2-2.6-5.9-4-10.3h-2l-3,19.5h2.3
				c0.7-0.9,1.3-1.4,1.9-1.8c0.5-0.3,1.3-0.4,2.3-0.4c1.2,0,2.8,0.4,5.1,1c3.5,0.9,6.3,1.3,8.7,1.3c3.5,0,6.8-0.8,10-2.6
				c3.2-1.7,5.6-4,7.2-6.7c1.6-2.7,2.4-5.9,2.4-9c0-2.9-0.7-5.7-2-8.2c-1.3-2.6-5.2-7.3-11.6-14.1c-1.9-2-3-3.5-3.5-4.6
				s-0.8-2.3-0.8-3.6c0-1.5,0.6-2.8,1.9-3.9c1.2-1.1,2.7-1.6,4.6-1.6c3,0,5.9,1.2,8.4,4c2.7,2.7,4.1,6.7,4.4,11.2h2.3l2.7-18.6
				H150.4z"/>
		</g>
		<g>
			<path d="M184.2,118.6h6.8l2.1-7.1h-6.7l5.1-15.9h-3.3c-5.1,5.3-9.5,9.5-13,12.1c-3.6,2.6-7.9,4.7-12.8,6.6l-1.2,4.4h7.7
				l-10.3,32.6c-1.2,3.6-1.7,6.7-1.7,9c0,2.1,0.8,3.9,2.3,5.2c1.5,1.3,3.6,2,6.4,2c3.2,0,6.5-1.2,9.8-3.4c3.4-2.3,6.4-5.8,9.1-10.6
				l-2.1-1.3c-2.5,3.5-4.6,5.9-6.5,7.4c-0.7,0.5-1.4,0.9-2.1,0.9c-0.4,0-0.9-0.1-1.2-0.4c-0.4-0.4-0.5-0.6-0.5-1
				c0-1.2,0.4-2.7,1.1-5L184.2,118.6z"/>
		</g>
		<g>
			<path d="M125,0C56,0,0,55.9,0,125s56,125,125,125s125-56,125-125S194.1,0,125,0z M209.9,209.8C187.2,232.5,157.1,245,125,245
				c-32.1,0-62.2-12.5-84.9-35.2C17.5,187.2,5,157,5,125c0-32.1,12.5-62.2,35.2-84.9C62.8,17.4,93,4.9,125,4.9
				c32.1,0,62.2,12.5,84.9,35.2c22.7,22.7,35.2,52.8,35.2,84.9S232.6,187.2,209.9,209.8z"/>
		</g>
</svg>
