<svg xmlns="http://www.w3.org/2000/svg" class="dibsvg-svg dibsvg-dlos" viewBox="0 0 250 250">
    <path d="M0,148.4l3.7-4.3c4.3,4.9,11.2,9.6,20.6,9.6c13.6,0,17.4-7.5,17.4-13.2c0-19.4-39.6-9.3-39.6-32.4 c0-10.8,9.7-17.6,21.7-17.6c9.9,0,17.2,3.5,22.4,9.3l-3.8,4.2c-4.7-5.7-11.5-8.3-18.9-8.3c-8.8,0-15.4,5-15.4,12.2 c0,16.9,39.6,7.6,39.6,32.3c0,8.5-5.6,18.7-23.5,18.7C13.3,158.9,5,154.6,0,148.4z"/>
    <path d="M59.9,124.8c0-19.3,12.7-34.1,32.1-34.1c19.3,0,32.1,14.8,32.1,34.1s-12.8,34.1-32.1,34.1 C72.5,158.9,59.9,144.1,59.9,124.8z M118.1,124.8c0-16.8-10.3-29-26.1-29c-16,0-26.1,12.2-26.1,29c0,16.6,10.1,29,26.1,29 C107.8,153.8,118.1,141.4,118.1,124.8z"/>
    <path d="M141.3,157.7v-66h5.6v60.9h32v5.1H141.3z"/>
    <path d="M194.6,157.7v-66h21.1c20.5,0,33.4,14.9,33.4,33.1c0,18.3-12.9,33-33.4,33H194.6z M243.1,124.8c0-15.4-9.9-27.9-27.4-27.9 h-15.4v55.7h15.4C233.1,152.6,243.1,140.2,243.1,124.8z"/>
</svg>
