<svg version="1.1" class="dibsvg-svg dibsvg-dollars" xmlns="http://www.w3.org/2000/svg" xmlns:xlink="http://www.w3.org/1999/xlink" viewBox="0 0 250 250">
	<path d="M108.6,143.2l-2.4-21.2c5.6,0.3,10.8,2.3,15,5.9c0.1,0.1,0.2,0.1,0.3,0.1c0,0,0,0,0.1,0c0.1,0,0.3-0.1,0.3-0.2l4.4-6.8
		c0.1-0.2,0.1-0.5-0.1-0.7c-5.7-4.7-12.7-7.2-20.8-7.2l-0.2,0l-1-9c0-0.1-0.1-0.3-0.2-0.3c-0.1-0.1-0.2-0.1-0.3-0.1c0,0,0,0-0.1,0
		l-6.2,0.7c-0.3,0-0.5,0.3-0.4,0.6l1,8.9c-12.4,2.3-20.2,11.1-19,21.6c1.5,13.2,14,15.4,23.3,16.9l2.7,23.9
		c-9.2-0.2-15.5-4.7-18.5-7.4c-0.1-0.1-0.2-0.1-0.3-0.1c0,0,0,0-0.1,0c-0.1,0-0.3,0.1-0.4,0.2l-4.3,7c-0.1,0.2-0.1,0.5,0.1,0.6
		c4.1,3.8,11.4,8.3,22.7,8.3c0.6,0,1.2,0,1.7,0l1,8.6c0,0.3,0.2,0.4,0.5,0.4c0,0,0,0,0.1,0l6.2-0.7c0.3,0,0.5-0.3,0.4-0.6l-1-8.6
		c19.8-4,19.8-18.4,19.3-22.7C131,148.1,120,145.1,108.6,143.2z M88.7,133.9c-0.6-5.5,3.5-10,10.3-11.4l2.2,19.6
		C93.7,140.7,89.3,138.9,88.7,133.9z M112.2,175.5l-2.4-21.9c7.4,1.4,12.4,3.6,13.1,9.5C123.4,167.8,120.8,173.4,112.2,175.5z"/>
	<path d="M248,43c-1.6-2-3.8-3.3-6.4-3.6L58.9,17.9c-5.2-0.6-10,3.1-10.6,8.3l-6.4,54.4L8.5,84.3c-2.5,0.3-4.8,1.5-6.4,3.5
		c-1.6,2-2.3,4.5-2,7l14.4,128.9c0.5,4.9,4.7,8.5,9.5,8.5c0.4,0,0.7,0,1.1-0.1l182.8-20.4h0c2.5-0.3,4.8-1.5,6.4-3.5
		c1.6-2,2.3-4.5,2-7l-2-17.7l10.2,1.2c0,0,0,0,0,0c0.4,0,0.8,0.1,1.1,0.1c2.1,0,4.2-0.7,5.9-2.1c2-1.6,3.3-3.8,3.6-6.4L249.9,50
		C250.2,47.5,249.5,45,248,43z M206.8,202.8L23.9,223.2c-0.2,0-0.3,0-0.4-0.1c-0.1-0.1-0.2-0.2-0.2-0.3L9,93.8
		c0-0.2,0.1-0.3,0.1-0.4c0.1-0.1,0.2-0.2,0.3-0.2l182.8-20.4c0,0,0,0,0.1,0c0.2,0,0.5,0.2,0.5,0.4l14.4,128.9
		C207.2,202.5,207,202.8,206.8,202.8z M226,175.3c0,0.2-0.1,0.3-0.2,0.3c-0.1,0.1-0.2,0.1-0.4,0.1l-12.3-1.5l-11.4-102
		c-0.6-5.2-5.3-9-10.5-8.4L51.1,79.5l6.2-52.3c0-0.2,0.3-0.4,0.5-0.4c0,0,0,0,0.1,0l182.7,21.6c0.2,0,0.3,0.1,0.3,0.2
		c0.1,0.1,0.1,0.2,0.1,0.4L226,175.3z"/>
</svg>
