<svg version="1.1" class="dibsvg-svg dibsvg-exclamation-circle" viewBox="0 0 250 250" xmlns="http://www.w3.org/2000/svg" xmlns:xlink="http://www.w3.org/1999/xlink">
	<path d="M125.2-0.2C56.2-0.2,0,56,0,125s56.2,125.2,125.2,125.2c69.1,0,125.2-56.1,125.2-125.1S194.2-0.2,125.2-0.2z M125.3,241.1
		C61.2,241.1,9.1,189,9.1,125S61.2,8.8,125.2,8.8c64.1,0,116.3,52,116.3,116.1S189.4,241.1,125.3,241.1z"/>
	<path d="M125.1,171c-8.6,0-15.6,7.1-15.6,15.8c0,8.7,6.9,15.6,15.6,15.6c8.7,0,15.8-7,15.8-15.6C140.9,178.1,133.8,171,125.1,171z"/>
	<path d="M119.3,156.9l0.2,3l11.1,0.2l0.2-3c1.3-21.5,4.4-47.7,6.6-66c1.5-12.1,2.5-20.1,2.5-23.1c0-9.2-6.4-16.3-14.6-16.3
		c-8.2,0-14.6,7.4-14.6,16.6c0,2.8,0.9,10.2,2.2,20.9C115.1,106.9,118.4,134.5,119.3,156.9z"/>
</svg>
