<svg version="1.1" class="dibsvg-svg dibsvg-exclamation-triangle" viewBox="0 0 250 250" xmlns="http://www.w3.org/2000/svg" xmlns:xlink="http://www.w3.org/1999/xlink">
    <path d="M247.1,218.8c0,0-113.7-199.6-116.2-203c-4.3-5.7-11.3-6.3-16.3,0C108.4,23.6,2.1,218.4,2.1,218.4c-5,12.8,3.2,20.3,10.9,20.3h226C246.8,238.6,252.9,228.2,247.1,218.8z M122.9,77c7.2,0,12.9,6.3,12.9,14.4c0,2.6-0.9,9.7-2.2,20.4c-2,16.1-4.6,39.3-5.8,58.3l-0.2,2.7l-9.8-0.1l-0.1-2.6c-0.8-19.8-3.8-44.2-5.7-59.9c-1.2-9.4-1.9-15.9-1.9-18.4C110,83.5,115.7,77,122.9,77z M122.7,213.2c-7.7,0-13.8-6.1-13.8-13.8c0-7.7,6.2-14,13.8-14c7.7,0,14,6.3,14,14C136.7,207,130.4,213.2,122.7,213.2z"></path>
</svg>