<svg xmlns="http://www.w3.org/2000/svg" class="dibsvg-svg dibsvg-exclamation-triangle" viewBox="0 0 250 250">
    <path d="M247.1 218.8S133.4 19.2 130.9 15.8c-4.3-5.7-11.3-6.3-16.3 0C108.4 23.6 2.1 218.4 2.1 218.4c-5 12.8 3.2 20.3 10.9 20.3h226c7.8-.1 13.9-10.5 8.1-19.9zM122.9 77c7.2 0 12.9 6.3 12.9 14.4 0 2.6-.9 9.7-2.2 20.4-2 16.1-4.6 39.3-5.8 58.3l-.2 2.7-9.8-.1-.1-2.6c-.8-19.8-3.8-44.2-5.7-59.9-1.2-9.4-1.9-15.9-1.9-18.4-.1-8.3 5.6-14.8 12.8-14.8zm-.2 136.2c-7.7 0-13.8-6.1-13.8-13.8 0-7.7 6.2-14 13.8-14 7.7 0 14 6.3 14 14 0 7.6-6.3 13.8-14 13.8z"/>
</svg>
