<svg version="1.1" class="dibsvg-svg dibsvg-eye" viewBox="0 -65 350 350" xmlns="http://www.w3.org/2000/svg" xmlns:xlink="http://www.w3.org/1999/xlink">
	<path d="M175,220 C78.3501688,220 0,110 0,110 C0,110 78.3501688,0 175,0 C271.649831,0 350,110 350,110
		     C350,110 271.649831,220 175,220 Z M174.5,203.685714 C256.514285,203.685714 323,110.342857
		     323,110.342857 C323,110.342857 256.514285,17 174.5,17 C92.4857147,17 26,110.342857 26,110.342857
		     C26,110.342857 92.4857147,203.685714 174.5,203.685714 Z M175,160 C147.385763,160 125,137.614237
		     125,110 C125,82.3857625 147.385763,60 175,60 C202.614237,60 225,82.3857625 225,110 C225,137.614237
		     202.614237,160 175,160 Z"
	/>
</svg>
