<svg xmlns="http://www.w3.org/2000/svg" viewBox="0 0 1001 650">
    <rect width="866.7" height="650" x="-1" y="-1"/>
    <rect width="1001" height="50" y="-1" fill="#BD3D44"/>
    <rect width="1001" height="50" y="99" fill="#BD3D44"/>
    <rect width="1001" height="50.1" y="199" fill="#BD3D44"/>
    <rect width="1001" height="50" y="299" fill="#BD3D44"/>
    <rect width="1001" height="50" y="399" fill="#BD3D44"/>
    <rect width="1001" height="50" y="498.9" fill="#BD3D44"/>
    <rect width="1001" height="50" y="599" fill="#BD3D44"/>
    <path fill="#FFFFFF" d="M0 49h1001v50H0V49zm0 100.1h1001V199H0v-49.9zM0 249h1001v50H0v-50zm0 100h1001v50H0v-50zm0 100h1001v50H0v-50zm0 100h1001v50H0v-50z"/>
    <path fill="#192F5D" d="M-1-1h494v350H-1V-1z"/>
    <path fill="#FFFFFF" d="M40.1 14l4.6 13.8h14.5l-11.7 8.5 4.4 14-11.8-8.6-11.7 8.5 4.4-13.8L21 27.9h14.7L40.1 14zm82.4 0l4.4 13.8h14.6l-11.8 8.5 4.4 14-11.7-8.6-11.8 8.5 4.4-13.8-11.7-8.5H118l4.5-13.9zm82.3 0l4.6 13.8h14.3L212 36.3l4.4 14-11.8-8.6-11.6 8.5 4.4-13.8-11.8-8.5h14.6l4.6-13.9zm82.4 0l4.4 13.8h14.6l-11.8 8.5 4.6 14-11.8-8.6-11.8 8.5 4.6-13.8-11.8-8.5h14.5l4.5-13.9zm82.2 0l4.6 13.8h14.5l-11.7 8.5 4.4 14-11.8-8.6-11.7 8.5 4.4-13.8-11.7-8.5H365l4.4-13.9zm82.4 0l4.4 13.8h14.6L459 36.3l4.6 14-11.8-8.6-11.8 8.5 4.6-13.8-11.8-8.5h14.6l4.4-13.9zM81.4 49l4.4 13.8h14.6l-11.8 8.5 4.3 13.8-11.4-8.5-11.8 8.5 4.2-13.8-11.4-8.5H77L81.4 49zm82.3 0l4.6 13.8h14.5L171 71.3l4.6 13.8-11.8-8.5-11.8 8.5 4.6-13.8-11.8-8.5h14.6l4.3-13.8zm82.4 0l4.4 13.8h14.6l-11.8 8.5 4.4 13.8-11.7-8.5-11.8 8.5 4.4-13.8-11.6-8.4h14.5l4.6-13.9zm82.2 0l4.6 13.8h14.5l-11.8 8.5 4.6 13.8-11.8-8.5-11.7 8.5 4.4-13.8-11.8-8.5H324l4.3-13.8zm82.4 0l4.4 13.8h14.6l-11.8 8.5 4.4 13.8-11.7-8.5-11.8 8.5 4.4-13.8-11.7-8.5H406l4.7-13.8zM40.1 83.9L44.7 98h14.5l-11.7 8.5 4.4 13.8-11.8-8.6-11.7 8.6 4.4-14L21 97.8h14.7l4.4-13.9zm82.4 0l4.4 14h14.6l-11.8 8.5 4.4 13.8-11.7-8.6-11.8 8.6 4.4-14-11.7-8.5H118l4.5-13.8zm82.3 0l4.6 14h14.3l-11.7 8.5 4.4 13.8-11.8-8.6-11.7 8.6 4.4-14-11.8-8.5h14.6l4.7-13.8zm82.4 0l4.4 14h14.6l-11.8 8.5 4.6 13.8-11.8-8.6-11.8 8.6 4.6-14-11.8-8.5h14.5l4.5-13.8zm82.2 0l4.6 14h14.5l-11.7 8.5 4.4 13.8-11.8-8.6-11.7 8.6 4.4-14-11.7-8.5H365l4.4-13.8zm82.4 0l4.4 14h14.6l-11.8 8.5 4.6 13.8-11.8-8.6-11.8 8.6 4.6-14-11.8-8.5h14.6l4.4-13.8zM81.4 119l4.4 13.8h14.6l-11.8 8.5 4.4 14-11.7-8.6-11.8 8.5 4.4-13.8-11.7-8.5h14.5l4.7-13.9zm82.3 0l4.6 13.8h14.5l-11.8 8.5 4.6 14-11.8-8.6-11.8 8.5 4.6-13.8-11.8-8.5h14.6l4.3-13.9zm82.4 0l4.4 13.8h14.6l-11.8 8.5 4.4 14-11.7-8.6-11.8 8.5 4.4-13.8-11.7-8.5h14.5l4.7-13.9zm82.2 0l4.6 13.8h14.5l-11.7 8.5 4.4 14-11.8-8.6-11.7 8.5 4.4-13.8-11.8-8.5H324l4.3-13.9zm82.4 0l4.4 13.8h14.6l-11.8 8.5 4.4 14-11.7-8.6-11.8 8.5 4.4-13.8-11.7-8.5H406l4.7-13.9zM40.1 154l4.6 13.8h14.5l-11.7 8.5 4.4 14-11.8-8.6-11.7 8.5 4.4-13.8-11.8-8.5h14.7l4.4-13.9zm82.4 0l4.4 13.8h14.6l-11.8 8.5 4.4 13.8-11.7-8.5-11.8 8.5 4.4-13.8-11.7-8.5H118l4.5-13.8zm82.3 0l4.6 13.8h14.3l-11.7 8.5 4.4 14-11.8-8.6-11.7 8.5 4.4-13.8-11.8-8.5h14.6l4.7-13.9zm82.4 0l4.4 13.8h14.6l-11.8 8.5 4.6 14-11.8-8.6-11.8 8.5 4.6-13.8-11.8-8.5h14.5l4.5-13.9zm82.2 0l4.6 13.8h14.5l-11.7 8.5 4.4 14-11.8-8.6-11.7 8.5 4.4-13.8-11.7-8.5H365l4.4-13.9zm82.4 0l4.4 13.8h14.6l-11.8 8.5 4.6 14-11.8-8.6-11.8 8.5 4.6-13.8-11.8-8.5h14.6l4.4-13.9zM81.4 189l4.4 13.8h14.6l-11.8 8.5 4.4 13.8-11.7-8.6-11.8 8.6 4.4-14-11.7-8.5h14.5l4.7-13.6zm82.3 0l4.6 13.8h14.5l-11.8 8.5 4.6 13.8-11.8-8.6-11.8 8.6 4.6-14-11.8-8.5h14.6l4.3-13.6zm82.4 0l4.4 13.8h14.6l-11.8 8.5 4.4 13.8-11.7-8.6-11.8 8.6 4.4-14-11.7-8.5h14.5l4.7-13.6zm82.2 0l4.6 13.8h14.5l-11.7 8.5 4.4 13.8-11.8-8.6-11.7 8.6 4.4-14-11.8-8.5H324l4.3-13.6zm82.4 0l4.4 13.8h14.6l-11.8 8.5 4.4 13.8-11.7-8.6-11.8 8.6 4.4-14-11.7-8.5H406l4.7-13.6zM40.1 224l4.6 14h14.5l-11.7 8.5 4.4 13.7-11.8-8.5-11.7 8.5 4.4-13.8-11.8-8.5h14.7l4.4-13.9zm82.4 0l4.4 14h14.6l-11.8 8.5 4.6 13.7-11.8-8.5-11.8 8.5 4.6-13.8-11.8-8.5H118l4.5-13.9zm82.3 0l4.6 14h14.3l-11.7 8.5 4.4 13.7-11.8-8.5-11.7 8.5 4.4-13.8-11.8-8.5h14.6l4.7-13.9zm82.4 0l4.4 14h14.6l-11.8 8.5 4.6 13.7-11.8-8.5-11.8 8.5 4.6-13.8-11.8-8.5h14.5l4.5-13.9zm82.2 0l4.6 14h14.5l-11.7 8.5 4.4 13.7-11.8-8.5-11.7 8.5 4.4-13.8-11.7-8.5H365l4.4-13.9zm82.4 0l4.4 14h14.6l-11.8 8.5 4.6 13.7-11.8-8.5-11.8 8.5 4.6-13.8-11.8-8.5h14.6l4.4-13.9zM81.4 259l4.4 13.8h14.6l-11.8 8.5 4.4 14-11.7-8.6-11.8 8.5 4.4-13.8-11.7-8.5h14.5l4.7-13.9zm82.3 0l4.6 13.8h14.5l-11.8 8.5 4.6 14-11.8-8.6-11.8 8.5 4.6-13.8-11.8-8.5h14.6l4.3-13.9zm82.4 0l4.4 13.8h14.6l-11.8 8.5 4.4 14-11.7-8.6-11.8 8.5 4.4-13.8-11.7-8.5h14.5l4.7-13.9zm82.2 0l4.6 13.8h14.5l-11.7 8.5 4.4 14-11.8-8.6-11.7 8.5 4.4-13.8-11.8-8.5H324l4.3-13.9zm82.4 0l4.4 13.8h14.6l-11.8 8.5 4.4 14-11.7-8.6-11.8 8.5 4.4-13.8-11.7-8.5H406l4.7-13.9zM40.1 294l4.6 13.8h14.5l-11.7 8.5 4.4 13.8-11.8-8.5-11.7 8.5 4.4-14-11.8-8.5h14.7l4.4-13.6zm82.4 0l4.4 13.8h14.6l-11.8 8.5 4.6 13.8-11.8-8.5-11.8 8.5 4.6-14-11.8-8.5H118l4.5-13.6zm82.3 0l4.6 13.8h14.3l-11.4 8.5 4.4 13.8-11.8-8.5-11.7 8.5 4.4-14-11.8-8.5h14.6l4.4-13.6zm82.4 0l4.4 13.8h14.6l-11.8 8.5 4.6 13.8-11.8-8.5-11.8 8.5 4.6-14-11.8-8.5h14.5l4.5-13.6zm82.2 0l4.6 13.8h14.5l-11.7 8.5 4.4 13.8-11.8-8.5-11.7 8.5 4.4-14-11.7-8.5H365l4.4-13.6zm82.4 0l4.4 13.8h14.6l-11.8 8.5 4.6 13.8-11.8-8.5-11.8 8.5 4.6-14-11.8-8.5h14.6l4.4-13.6z"/>
</svg>
