<svg version="1.1" xmlns="http://www.w3.org/2000/svg" xmlns:xlink="http://www.w3.org/1999/xlink" viewBox="0 0 1001 650">
<rect x="-1" y="-1" width="866.7" height="650"/>
<rect y="-1" fill="#BD3D44" width="1001" height="50"/>
<rect y="99" fill="#BD3D44" width="1001" height="50"/>
<rect y="199" fill="#BD3D44" width="1001" height="50.1"/>
<rect y="299" fill="#BD3D44" width="1001" height="50"/>
<rect y="399" fill="#BD3D44" width="1001" height="50"/>
<rect y="498.9" fill="#BD3D44" width="1001" height="50"/>
<rect y="599" fill="#BD3D44" width="1001" height="50"/>
<path fill="#FFFFFF" d="M0,49h1001v50H0V49z M0,149.1h1001V199H0V149.1z M0,249h1001v50H0V249z M0,349h1001v50H0V349z M0,449h1001v50H0
	V449z M0,549h1001v50H0V549z"/>
<path fill="#192F5D" d="M-1-1h494v350H-1V-1z"/>
<path fill="#FFFFFF" d="M40.1,14l4.6,13.8h14.5l-11.7,8.5l4.4,14l-11.8-8.6l-11.7,8.5l4.4-13.8l-11.8-8.5h14.7L40.1,14z M122.5,14
	l4.4,13.8h14.6l-11.8,8.5l4.4,14l-11.7-8.6l-11.8,8.5l4.4-13.8l-11.7-8.5H118L122.5,14z M204.8,14l4.6,13.8h14.3L212,36.3l4.4,14
	l-11.8-8.6L193,50.2l4.4-13.8l-11.8-8.5h14.6L204.8,14z M287.2,14l4.4,13.8h14.6l-11.8,8.5l4.6,14l-11.8-8.6l-11.8,8.5l4.6-13.8
	l-11.8-8.5h14.5L287.2,14z M369.4,14l4.6,13.8h14.5l-11.7,8.5l4.4,14l-11.8-8.6l-11.7,8.5l4.4-13.8l-11.7-8.5H365L369.4,14z
	 M451.8,14l4.4,13.8h14.6l-11.8,8.5l4.6,14l-11.8-8.6L440,50.2l4.6-13.8l-11.8-8.5h14.6L451.8,14z M81.4,49l4.4,13.8h14.6
	l-11.8,8.5l4.3,13.8l-11.4-8.5l-11.8,8.5l4.2-13.8l-11.4-8.5h14.5L81.4,49z M163.7,49l4.6,13.8h14.5l-11.8,8.5l4.6,13.8l-11.8-8.5
	l-11.8,8.5l4.6-13.8l-11.8-8.5h14.6L163.7,49z M246.1,49l4.4,13.8h14.6l-11.8,8.5l4.4,13.8l-11.7-8.5l-11.8,8.5l4.4-13.8L227,62.9
	h14.5L246.1,49z M328.3,49l4.6,13.8h14.5l-11.8,8.5l4.6,13.8l-11.8-8.5l-11.7,8.5l4.4-13.8l-11.8-8.5H324L328.3,49z M410.7,49
	l4.4,13.8h14.6l-11.8,8.5l4.4,13.8l-11.7-8.5l-11.8,8.5l4.4-13.8l-11.7-8.5h14.5L410.7,49z M40.1,83.9L44.7,98h14.5l-11.7,8.5
	l4.4,13.8l-11.8-8.6l-11.7,8.6l4.4-14l-11.8-8.5h14.7L40.1,83.9z M122.5,83.9l4.4,14h14.6l-11.8,8.5l4.4,13.8l-11.7-8.6l-11.8,8.6
	l4.4-14l-11.7-8.5H118L122.5,83.9z M204.8,83.9l4.6,14h14.3l-11.7,8.5l4.4,13.8l-11.8-8.6l-11.7,8.6l4.4-14l-11.8-8.5h14.6
	L204.8,83.9z M287.2,83.9l4.4,14h14.6l-11.8,8.5l4.6,13.8l-11.8-8.6l-11.8,8.6l4.6-14l-11.8-8.5h14.5L287.2,83.9z M369.4,83.9
	l4.6,14h14.5l-11.7,8.5l4.4,13.8l-11.8-8.6l-11.7,8.6l4.4-14l-11.7-8.5H365L369.4,83.9z M451.8,83.9l4.4,14h14.6l-11.8,8.5
	l4.6,13.8l-11.8-8.6l-11.8,8.6l4.6-14l-11.8-8.5h14.6L451.8,83.9z M81.4,119l4.4,13.8h14.6l-11.8,8.5l4.4,14l-11.7-8.6l-11.8,8.5
	l4.4-13.8l-11.7-8.5h14.5L81.4,119z M163.7,119l4.6,13.8h14.5l-11.8,8.5l4.6,14l-11.8-8.6l-11.8,8.5l4.6-13.8l-11.8-8.5h14.6
	L163.7,119z M246.1,119l4.4,13.8h14.6l-11.8,8.5l4.4,14l-11.7-8.6l-11.8,8.5l4.4-13.8l-11.7-8.5h14.5L246.1,119z M328.3,119
	l4.6,13.8h14.5l-11.7,8.5l4.4,14l-11.8-8.6l-11.7,8.5l4.4-13.8l-11.8-8.5H324L328.3,119z M410.7,119l4.4,13.8h14.6l-11.8,8.5
	l4.4,14l-11.7-8.6l-11.8,8.5l4.4-13.8l-11.7-8.5h14.5L410.7,119z M40.1,154l4.6,13.8h14.5l-11.7,8.5l4.4,14l-11.8-8.6l-11.7,8.5
	l4.4-13.8l-11.8-8.5h14.7L40.1,154z M122.5,154l4.4,13.8h14.6l-11.8,8.5l4.4,13.8l-11.7-8.5l-11.8,8.5l4.4-13.8l-11.7-8.5H118
	L122.5,154z M204.8,154l4.6,13.8h14.3l-11.7,8.5l4.4,14l-11.8-8.6l-11.7,8.5l4.4-13.8l-11.8-8.5h14.6L204.8,154z M287.2,154
	l4.4,13.8h14.6l-11.8,8.5l4.6,14l-11.8-8.6l-11.8,8.5l4.6-13.8l-11.8-8.5h14.5L287.2,154z M369.4,154l4.6,13.8h14.5l-11.7,8.5
	l4.4,14l-11.8-8.6l-11.7,8.5l4.4-13.8l-11.7-8.5H365L369.4,154z M451.8,154l4.4,13.8h14.6l-11.8,8.5l4.6,14l-11.8-8.6l-11.8,8.5
	l4.6-13.8l-11.8-8.5h14.6L451.8,154z M81.4,189l4.4,13.8h14.6l-11.8,8.5l4.4,13.8l-11.7-8.6l-11.8,8.6l4.4-14l-11.7-8.5h14.5
	L81.4,189z M163.7,189l4.6,13.8h14.5l-11.8,8.5l4.6,13.8l-11.8-8.6l-11.8,8.6l4.6-14l-11.8-8.5h14.6L163.7,189z M246.1,189
	l4.4,13.8h14.6l-11.8,8.5l4.4,13.8l-11.7-8.6l-11.8,8.6l4.4-14l-11.7-8.5h14.5L246.1,189z M328.3,189l4.6,13.8h14.5l-11.7,8.5
	l4.4,13.8l-11.8-8.6l-11.7,8.6l4.4-14l-11.8-8.5H324L328.3,189z M410.7,189l4.4,13.8h14.6l-11.8,8.5l4.4,13.8l-11.7-8.6l-11.8,8.6
	l4.4-14l-11.7-8.5h14.5L410.7,189z M40.1,224l4.6,14h14.5l-11.7,8.5l4.4,13.7l-11.8-8.5l-11.7,8.5l4.4-13.8l-11.8-8.5h14.7
	L40.1,224z M122.5,224l4.4,14h14.6l-11.8,8.5l4.6,13.7l-11.8-8.5l-11.8,8.5l4.6-13.8l-11.8-8.5H118L122.5,224z M204.8,224l4.6,14
	h14.3l-11.7,8.5l4.4,13.7l-11.8-8.5l-11.7,8.5l4.4-13.8l-11.8-8.5h14.6L204.8,224z M287.2,224l4.4,14h14.6l-11.8,8.5l4.6,13.7
	l-11.8-8.5l-11.8,8.5l4.6-13.8l-11.8-8.5h14.5L287.2,224z M369.4,224l4.6,14h14.5l-11.7,8.5l4.4,13.7l-11.8-8.5l-11.7,8.5l4.4-13.8
	l-11.7-8.5H365L369.4,224z M451.8,224l4.4,14h14.6l-11.8,8.5l4.6,13.7l-11.8-8.5l-11.8,8.5l4.6-13.8l-11.8-8.5h14.6L451.8,224z
	 M81.4,259l4.4,13.8h14.6l-11.8,8.5l4.4,14l-11.7-8.6l-11.8,8.5l4.4-13.8l-11.7-8.5h14.5L81.4,259z M163.7,259l4.6,13.8h14.5
	l-11.8,8.5l4.6,14l-11.8-8.6l-11.8,8.5l4.6-13.8l-11.8-8.5h14.6L163.7,259z M246.1,259l4.4,13.8h14.6l-11.8,8.5l4.4,14l-11.7-8.6
	l-11.8,8.5l4.4-13.8l-11.7-8.5h14.5L246.1,259z M328.3,259l4.6,13.8h14.5l-11.7,8.5l4.4,14l-11.8-8.6l-11.7,8.5l4.4-13.8l-11.8-8.5
	H324L328.3,259z M410.7,259l4.4,13.8h14.6l-11.8,8.5l4.4,14l-11.7-8.6l-11.8,8.5l4.4-13.8l-11.7-8.5h14.5L410.7,259z M40.1,294
	l4.6,13.8h14.5l-11.7,8.5l4.4,13.8l-11.8-8.5l-11.7,8.5l4.4-14l-11.8-8.5h14.7L40.1,294z M122.5,294l4.4,13.8h14.6l-11.8,8.5
	l4.6,13.8l-11.8-8.5l-11.8,8.5l4.6-14l-11.8-8.5H118L122.5,294z M204.8,294l4.6,13.8h14.3l-11.4,8.5l4.4,13.8l-11.8-8.5l-11.7,8.5
	l4.4-14l-11.8-8.5h14.6L204.8,294z M287.2,294l4.4,13.8h14.6l-11.8,8.5l4.6,13.8l-11.8-8.5l-11.8,8.5l4.6-14l-11.8-8.5h14.5
	L287.2,294z M369.4,294l4.6,13.8h14.5l-11.7,8.5l4.4,13.8l-11.8-8.5l-11.7,8.5l4.4-14l-11.7-8.5H365L369.4,294z M451.8,294
	l4.4,13.8h14.6l-11.8,8.5l4.6,13.8l-11.8-8.5l-11.8,8.5l4.6-14l-11.8-8.5h14.6L451.8,294z"/>
</svg>
