<svg class="dibs-vg dibs-vg-folder" version="1.1" xmlns="http://www.w3.org/2000/svg" viewBox="0 0 250 250">
    <path d="M232.7,61.3c-8.3-4.1-16.5-4.1-16.9-4.1H136c-10.2,0-19.5-6.7-19.7-6.8l-35-24.5c-1.4-1-8.3-6-11-7.3
	c-8.3-4.1-15.4-4.1-15.7-4.1H35.8c-10.8,0-19.4,3.3-25.6,9.8C-0.1,35,0.1,50.5,0.2,52.2l-0.3,149.9c0,24.1,20.5,32.6,31.4,33.6
	l188.4,0l0.2,0c24-1.6,30.4-23.1,30.3-34.3V91.1C250.2,73.6,240.7,65.2,232.7,61.3z M240.2,201.5c0,0.1-0.1,6.2-2.9,12.3
	c-3.5,7.5-9.4,11.5-18,12.1H32c-2.5-0.3-22.2-3.5-22.2-23.7l0.3-150l0-0.2c0-0.1-0.4-12.8,7.3-20.8c4.3-4.4,10.4-6.7,18.4-6.7h18.8
	c0.1,0,5.2,0.1,11.3,3.1c1.4,0.7,6.4,4.2,9.6,6.5l35,24.5c0.5,0.4,12,8.6,25.5,8.6h79.8c0.1,0,6.5,0.1,12.7,3.2
	c7.7,3.9,11.6,10.9,11.6,20.8V201.5z"/>
</svg>
