<svg xmlns="http://www.w3.org/2000/svg" class="dibssvg-svg dibsvg-framed"  viewBox="0 0 250 250">
<g>
	<polygon points="217.1,77.7 217.1,196.5 143.1,125.6 92.4,171.8 77.3,156.7 32.9,197 32.9,77.7 0,44.8 0,242.1 32.9,209.2 32.9,209.2 77,169.1 92.1,184.2 142.9,138 217.1,209 217.1,209.2 250,242.1 250,44.8 	"/>
	<path d="M39.2,74.4h171.5L244,41.8h-85.8l0.3-0.2l-18.4-29l-0.1-0.1c-3.3-4.8-8.6-7.7-14.5-7.7c-5.8,0-11.2,2.9-14.5,7.7L91.6,41.5 l0.4,0.3H6L39.2,74.4z M118.5,17.6c1.6-2.4,4.2-3.7,7-3.7c0,0,0,0,0,0c2.8,0,5.4,1.3,7,3.7l15.4,24.2h-45.7L118.5,17.6z"/>
	<polygon points="39.2,212.5 6,245.1 244,245.1 210.8,212.5"/>
	<circle cx="125" cy="23.6" r="5"/>
	<path d="M47.3,117.6c0,12.5,10.2,22.7,22.7,22.7s22.7-10.2,22.7-22.7S82.5,95,70,95S47.3,105.1,47.3,117.6z M83.7,117.6 c0,7.5-6.1,13.7-13.7,13.7c-7.5,0-13.7-6.1-13.7-13.7S62.5,104,70,104C77.5,104,83.7,110.1,83.7,117.6z"/>
</g>
</svg>
