<svg xmlns="http://www.w3.org/2000/svg" class="dibssvg-svg dibsvg-framed" viewBox="0 0 250 250">
    <polygon points="217.1,77.7 217.1,196.5 143.1,125.6 92.4,171.8 77.3,156.7 32.9,197 32.9,77.7 0,44.8 0,242.1 32.9,209.2 32.9,209.2 77,169.1 92.1,184.2 142.9,138 217.1,209 217.1,209.2 250,242.1 250,44.8"/>
    <path d="M39.2 74.4h171.5L244 41.8h-85.8l.3-.2-18.4-29-.1-.1c-3.3-4.8-8.6-7.7-14.5-7.7-5.8 0-11.2 2.9-14.5 7.7l-19.4 29 .4.3H6l33.2 32.6zm79.3-56.8c1.6-2.4 4.2-3.7 7-3.7s5.4 1.3 7 3.7l15.4 24.2h-45.7l16.3-24.2z"/>
    <polygon points="39.2,212.5 6,245.1 244,245.1 210.8,212.5"/>
    <circle cx="125" cy="23.6" r="5"/>
    <path d="M47.3 117.6c0 12.5 10.2 22.7 22.7 22.7s22.7-10.2 22.7-22.7S82.5 95 70 95s-22.7 10.1-22.7 22.6zm36.4 0c0 7.5-6.1 13.7-13.7 13.7-7.5 0-13.7-6.1-13.7-13.7S62.5 104 70 104c7.5 0 13.7 6.1 13.7 13.6z"/>
</svg>
