<svg version="1.1" xmlns="http://www.w3.org/2000/svg" xmlns:xlink="http://www.w3.org/1999/xlink"
	 viewBox="75 -75 250 250">
<path d="M173.1,158.7h0.2H173.1l23.9,4.5c0.5,0,2.1,0,2.5-1.2v-0.5l0.1-0.1l3.5-10.5c2.3-12.9,12.9-18.5,14.3-19.2
	c4.1-2.1,8.3-3.2,12.4-3.2c7.5,0,12.2,3.6,12.7,4l13.8,11.3c1,0.7,1.9,1.1,2.7,1.1s1.4-0.3,1.6-0.5l0.1-0.1v0.1l18-13.7
	c0-1-1-3.4-2.1-5l-0.2-0.3l-4.4-7.8c-7.3-11.6-2-22.4-0.3-25.3c1.5-4.2,5.5-8.5,11.8-12.6c2.5-1.6,6.4-2.6,7.1-2.8l0.5-0.1l15.6-0.7
	c3.3,0,3.5-1.3,3.5-1.3v-0.4l3.3-20.5c0.4-1.7,0.6-3.7-0.9-4.4h-0.2h0.1l-6-2c-18-5.6-22.9-11.8-24.1-15.2
	c-9.8-16.2,2.6-31.4,3.1-32.1l0.5-0.5l8.9-8c1.8-1.4,0.4-3.3-0.1-4l-14-16.8c-0.5-0.6-1-0.8-1.8-0.8c-1.9,0-4.2,1.4-4.7,1.7
	l-0.5,0.3l-8.1,4.6c-3.5,1.4-7.2,2.2-10.8,2.2c-11.7,0-19.7-7.6-21.5-9.4c-9.4-7.6-7.1-25.3-6.8-27.3c0.2-1.1,0.1-1.7-0.1-1.9
	c-0.2-0.3-0.9-0.5-0.9-0.5h-0.2L199.5-64c-0.8,0.2-1.1,1.2-1.1,1.9v0.3l-0.6,3.5c-3.2,12.7-10.3,27.8-25.7,27.8
	c-14.2,0-27.7-13.9-29.1-15.5c-0.6-0.5-1.1-0.8-1.9-0.8c-2.1,0-4.7,1.6-5.3,2.1l-14.7,12.3c-0.3,0.5,0,3.2,1.9,6.7
	c1.4,2.5,3.5,6.9,3.6,7.1l0.2,0.5l3.6,10.2l0.1,0.4c3.4,18.9-13.9,27.6-23.5,29.6l-0.4,0.1L92.5,23h-0.3c-0.2,0-0.5,0-0.7,0
	c-1.2,0-2.7,0.2-3,1.7V25l0,0l-2.8,20c-0.5,4.7,2.5,5.7,2.8,5.8l6.8,1.7c18.4,4.4,22.7,17.3,23.3,19.4c6.2,20.1-8.7,30.8-14.3,34.8
	c-0.2,0.2-0.5,0.4-0.6,0.5c-1,1.1-0.6,2.4-0.3,3.1l14.6,18c0.5,0.3,0.8,0.4,1.2,0.4c1.6,0,3.6-1.4,4.2-2l0.4-0.4l0.5-0.3
	c9.4-5.5,18-6.6,23.6-6.6c4,0,6.6,0.6,6.9,0.7l0.3,0.1l0.3,0.1c18.3,7.4,19,25.5,16.7,34c-0.4,1.6-0.4,2.9-0.1,3.6
	C172.3,158.4,172.9,158.6,173.1,158.7z M198.8,101L198.8,101c-22.2,0-41.6-14.2-48.2-35.4c-4-12.9-2.8-26.5,3.4-38.5
	s16.8-20.8,29.6-24.8c4.9-1.5,10-2.3,15.1-2.3C221,0,240.4,14.2,247,35.4c8.3,26.5-6.5,54.9-33.1,63.3C209,100.2,204,101,198.8,101z
	"/>
</svg>
