<svg xmlns="http://www.w3.org/2000/svg" class="dibsvg-svg dibsvg-gear" viewBox="0 0 500 500">
    <path d="M464.8,195.9H459c-6.9,0-13.1-4.6-15.4-11.3c-2.8-8.2-6.2-16.4-10.1-24.3c-3.2-6.5-2.1-14.1,2.8-19l4.2-4.2 c14.1-14.1,14.1-37.1,0-51.2l-25.3-25.4c-14.1-14.1-37.1-14.1-51.2,0l-4.5,4.5c-4.8,4.8-12.6,6-19,2.9c-7.9-3.8-15.9-7.2-24-9.9 c-6.8-2.3-11.4-8.5-11.4-15.4v-6.3c0-20-16.2-36.2-36.2-36.2h-35.9c-20,0-36.2,16.2-36.2,36.2v7c0,6.9-4.5,13.1-11.3,15.4 c-8,2.8-15.8,6.1-23.4,9.8c-6.4,3.2-14.3,2-19.1-2.8l-5-5c-14.1-14.1-37.1-14.1-51.2,0L61.5,85.9c-14.1,14.1-14.1,37.1,0,51.2 l5.3,5.3c4.9,4.9,6,12.5,2.9,19c-3.7,7.5-6.9,15.3-9.6,23.1c-2.3,6.8-8.5,11.4-15.5,11.4h-7.5c-20,0-36.2,16.2-36.2,36.2v35.8 c0,20,16.2,36.2,36.2,36.2h7.5c6.9,0,13.1,4.6,15.4,11.4c2.7,7.8,5.9,15.6,9.6,23.1c3.2,6.5,2,14.1-2.9,19l-5.3,5.3 c-14.1,14.1-14.1,37.1,0,51.2l25.4,25.3c6.5,6.5,15.9,10.3,25.6,10.3c0,0,0,0,0,0c9.7,0,19-3.8,25.6-10.3l5-5 c4.9-4.8,12.7-6,19.1-2.8c7.6,3.7,15.4,7,23.4,9.8c6.8,2.3,11.3,8.5,11.3,15.4v7c0,20,16.2,36.2,36.2,36.2h35.9 c20,0,36.2-16.2,36.2-36.2v-6.3c0-6.9,4.6-13.1,11.4-15.4c8.1-2.7,16.1-6.1,23.9-9.9c6.4-3.1,14.2-1.9,19,2.9l4.5,4.5 c13.6,13.6,37.5,13.6,51.2,0l25.3-25.3c14.1-14.1,14.1-37.1,0-51.2l-4.2-4.2c-4.9-4.9-6-12.6-2.8-19.1c3.9-7.9,7.3-16.1,10.1-24.3 c2.3-6.8,8.5-11.3,15.4-11.3h5.8c20,0,36.2-16.2,36.2-36.2v-35.8C501,212.1,484.8,195.9,464.8,195.9z M415.1,305.7 c-2.4,7-5.3,13.9-8.6,20.6c-9,18.1-5.6,39.7,8.5,53.8l4.2,4.2c1.1,1.1,1.8,2.6,1.8,4.2c0,1.6-0.6,3.1-1.8,4.3l-25.3,25.3 c-1.1,1.1-2.6,1.7-4.3,1.7c0,0,0,0,0,0c-1.6,0-3.2-0.6-4.2-1.7l-4.5-4.5c-13.8-13.8-35.8-17.3-53.6-8.6c-6.7,3.3-13.6,6.1-20.4,8.4 c-19.1,6.5-31.9,24.1-31.9,44v6.3c0,3.3-2.7,6-6,6h-35.9c-3.3,0-6-2.7-6-6v-7c0-19.7-12.7-37.4-31.6-43.9 c-6.8-2.3-13.5-5.1-19.9-8.3c-6.6-3.2-13.9-5-21.1-5c-12.4,0-24,4.8-32.7,13.5l-5,5c-2.2,2.2-6.3,2.2-8.5,0l-25.4-25.3 c-2.3-2.3-2.3-6.2,0-8.5l5.3-5.3c14-14,17.5-35.5,8.6-53.6c-3.1-6.3-5.8-12.9-8.2-19.6c-6.5-19-24.2-31.7-44-31.7h-7.5 c-3.3,0-6-2.7-6-6v-35.8c0-3.3,2.7-6,6-6h7.5c19.8,0,37.5-12.8,44-31.7c2.3-6.7,5.1-13.3,8.2-19.7c8.8-18.1,5.4-39.6-8.6-53.6 l-5.3-5.3c-2.3-2.3-2.3-6.2,0-8.5l25.4-25.3c2.2-2.2,6.3-2.2,8.5,0l5,5c13.9,13.8,36,17.4,53.8,8.5c6.4-3.2,13.1-6,19.9-8.3 c18.9-6.6,31.6-24.2,31.6-43.9v-7c0-3.3,2.7-6,6-6h35.9c3.3,0,6,2.7,6,6v6.3c0,19.9,12.8,37.6,31.9,44c6.8,2.3,13.7,5.1,20.4,8.4 c17.8,8.7,39.8,5.2,53.6-8.6l4.5-4.5c2.2-2.2,6.3-2.2,8.5,0l25.3,25.3c1.1,1.1,1.8,2.7,1.8,4.3c0,1.6-0.6,3.1-1.8,4.3l-4.2,4.2 c-14.1,14.1-17.5,35.7-8.5,53.8c3.3,6.7,6.2,13.7,8.6,20.6c6.5,19,24.1,31.7,43.9,31.7h5.8c3.3,0,6,2.7,6,6v35.8c0,3.3-2.7,6-6,6 H459C439.2,273.9,421.5,286.7,415.1,305.7z"/>
    <path d="M296.8,121.3c-24.3-8.4-50.6-9.9-76-4.3c-50.7,11.2-90.7,51.3-102,102c-9.2,41.5,0.5,83.9,26.5,116.4 c26.1,32.5,64.9,51.1,106.5,51.1c10.3,0,20.7-1.2,31-3.4c50.7-11.3,90.7-51.3,102-102c9.2-41.5-0.5-83.9-26.6-116.4 C342.3,144.7,321,129.8,296.8,121.3z M355.4,274.5c-8.6,38.7-40.3,70.5-79,79c-40.7,9-81.8-5.2-107.4-37.1 c-20.3-25.3-27.8-58.5-20.6-91c8.6-38.7,40.3-70.5,79-79c8.1-1.8,16.4-2.7,24.5-2.7c32.4,0,62.6,14.5,82.9,39.8 C355.1,208.8,362.6,242,355.4,274.5z"/>
</svg>
