<svg xmlns="http://www.w3.org/2000/svg" class="dibsvg-svg dibsvg-headshot" viewBox="0 0 100 100">
    <path d="M91.898 88.476c-.163.055-.315.264-.406.631-.063.251.06.54.325.72l8.183 6.8v.561l-.12.146-1.782 2.168c-.024.024-.024.024-.089.077-.042.03-.042.03-.11.068a.56.56 0 0 1-.738-.2l-8.173-6.712a.831.831 0 0 0-.503-.222c-.39 0-.662.214-.743.617l-1.237 4.465a.633.633 0 0 1-.346.486.643.643 0 0 1-.297.071.643.643 0 0 1-.297-.071.632.632 0 0 1-.33-.41l-8.89-16.958v-.473l.501-.502 18.485 5.59a.649.649 0 0 1 .547.644c0 .361-.177.587-.495.64l-3.485 1.864zM73.233 71.2c.125.25 0 .626-.25.752h-.25c-.25 0-.5-.126-.624-.376l-1.624-4.26c-.125-.251 0-.627.375-.753.25-.125.624 0 .75.376l1.623 4.26zm3.95-.298c-.375-.125-.5-.376-.5-.752l.75-4.386c.124-.376.374-.5.749-.5.374.124.5.375.5.751l-.75 4.386c-.125.25-.375.501-.75.501zm3.882 1.64c-.125 0-.374 0-.374-.125-.25-.25-.375-.626-.125-.877l2.872-3.509c.25-.25.625-.376.874-.125.25.25.375.627.125.877l-2.872 3.509c-.125.125-.375.25-.5.25zm1.907 3.921c-.124-.376 0-.752.5-.752l4.246-1.629c.25-.125.625 0 .75.376.125.25 0 .627-.375.752l-4.246 1.629h-.25c-.25 0-.5-.125-.625-.376zm-8.537 10.103c.375.126.624.376.5.752l-.75 4.512c0 .25-.375.5-.624.5h-.125c-.375-.124-.5-.375-.5-.751l.75-4.511c.124-.376.374-.502.749-.502zM69.7 85.521c.25-.25.625-.25.875-.125.25.25.374.626.124.877l-2.872 3.509c-.125.125-.375.25-.5.25s-.25 0-.374-.125c-.25-.25-.375-.627-.125-.877l2.872-3.51zm-1.463-3.544c.125.376 0 .752-.25.752l-4.121 1.629h-.25c-.25 0-.5-.126-.624-.376-.125-.25 0-.627.374-.752l4.122-1.63c.25-.124.624 0 .75.377zm.877-7.68l-3.372-2.882c-.25-.126-.375-.627-.25-.877.25-.251.624-.376.874-.126l3.497 2.883c.25.25.375.626.125.877-.125.125-.375.25-.5.25s-.25 0-.374-.125zm-1.049 4.25c-.124 0-.124 0 0 0l-4.62-.753c-.375-.125-.5-.375-.5-.751.125-.376.375-.502.75-.502l4.495.752c.375.126.5.376.5.752 0 .25-.375.501-.625.501zM85.75 96.392l.972-3.507c.173-.866.882-1.425 1.763-1.425.418 0 .916.2 1.206.494l7.913 6.496 1.195-1.456-7.608-6.325c-.578-.386-.891-1.12-.717-1.818.17-.684.536-1.189 1.01-1.34l2.678-1.438-16.425-4.967 8.013 15.286z" class="dibsvg-headshot-head"/>
    <path d="M81.085 87.812l.5.95A49.793 49.793 0 0 1 50 100C22.386 100 0 77.614 0 50S22.386 0 50 0s50 22.386 50 50c0 12.763-4.782 24.409-12.652 33.244l-1.114-.336C94.134 74.216 98.947 62.67 98.947 50 98.947 22.967 77.033 1.053 50 1.053S1.053 22.967 1.053 50 22.967 98.947 50 98.947a48.746 48.746 0 0 0 31.085-11.135zM58.037 54.755c.158.317.386.633.7.932.346.328.776.615 1.31.848l4.668 2.116 6.927 2.784a7.561 7.561 0 0 1 .947.494 9.28 9.28 0 0 1 1.883 1.539c1.33 1.409 2.267 3.237 2.632 5.516l.027.166.566 7.746h-1.808a41.046 41.046 0 0 0-.566-.005c-.336 0-.827.001-1.566.004l-5.92.02c-4.89.016-9.673.025-14.923.025v-1.053c5.25 0 10.032-.008 14.92-.024l5.92-.02c1.516-.006 1.967-.007 2.135 0h.68l-.477-6.56c-.355-2.195-1.192-3.832-2.381-5.091a8.236 8.236 0 0 0-1.67-1.366 6.632 6.632 0 0 0-.563-.31 3.92 3.92 0 0 0-.235-.108l-6.939-2.79-4.684-2.12a5.525 5.525 0 0 1-1.604-1.047 4.413 4.413 0 0 1-.917-1.224c-.13-.259-.253-.61-.202-.51l-.057-.174a1.96 1.96 0 0 1-.076-1.048l.063-.164a2.35 2.35 0 0 1 .2-.282c.056-.068.115-.137.19-.22l.201-.221a4.01 4.01 0 0 1 .3-.347c1.532-1.86 2.638-3.996 3.385-6.238.47-1.413.73-2.664.804-3.377.783-5.572.05-9.702-1.746-12.619-.645-1.047-1.391-1.874-2.188-2.507a6.447 6.447 0 0 0-1.367-.859c-2.123-1.065-4.357-1.608-6.638-1.608-2.983 0-5.724.926-6.821 1.653-2.876 1.745-4.676 5.03-5.205 9.552a24.868 24.868 0 0 0-.048 5.283c.038.398.073.672.112.934.335 2.495 1.178 4.844 2.348 6.977.72 1.311 1.45 2.336 1.858 2.803.396.449.467.533.564.678.104.17.133.222.238.429.089.223.107.713.046 1.102a4.235 4.235 0 0 1-1.352 2.275c-.405.355-.843.605-1.043.671l-3.636 1.604-8.618 3.49c-1.146.409-2.073 1.128-2.806 2.055a6.942 6.942 0 0 0-.992 1.67c-.425.95-.786 2.73-1.07 5.003a67.583 67.583 0 0 0-.37 3.927l-.047.662h.682c9.808.044 19.604.066 29.106.066v1.053c-9.503 0-19.3-.023-29.108-.067H22l.04-.563.086-1.221a68.625 68.625 0 0 1 .377-3.987c.296-2.377.671-4.226 1.147-5.291a7.933 7.933 0 0 1 1.133-1.906c.848-1.072 1.931-1.912 3.256-2.386l8.583-3.474 3.663-1.615c.114-.039.432-.22.732-.483a3.169 3.169 0 0 0 1.014-1.681c.027-.182.015-.497.032-.464a4.922 4.922 0 0 0-.124-.228c-.094-.143-.159-.22-.471-.577-.5-.57-1.275-1.656-2.033-3.037-1.229-2.24-2.115-4.71-2.468-7.337a25.9 25.9 0 0 1-.067-6.489c.564-4.821 2.526-8.4 5.686-10.318.308-.204 1.188-.619 2.187-.957A16.207 16.207 0 0 1 49.968 24c2.446 0 4.84.582 7.085 1.71.44.195.975.51 1.572.985.89.707 1.718 1.625 2.428 2.779 1.932 3.137 2.708 7.513 1.895 13.3a13.14 13.14 0 0 1-.195 1.162 21.585 21.585 0 0 1-.655 2.42c-.788 2.366-1.958 4.623-3.623 6.634a3.858 3.858 0 0 0-.26.301c-.048.056-.236.262-.22.245a4.503 4.503 0 0 0-.154.178.604.604 0 0 0-.018.455l.049.176c.039.117.109.299.165.41z" class="dibsvg-headshot-click"/>
</svg>
