<svg xmlns="http://www.w3.org/2000/svg" class="dibsvg-svg dibsvg-hyperwallet" viewBox="0 0 200 250">
    <path d="M124.579 52.254c0-13.067-10.962-23.738-24.578-23.738-13.617 0-24.58 10.67-24.58 23.738 0 13.067 10.963 23.738 24.58 23.738 13.616 0 24.578-10.671 24.578-23.738zm7 0c0 16.976-14.138 30.738-31.578 30.738-17.441 0-31.58-13.762-31.58-30.738s14.139-30.738 31.58-30.738c17.44 0 31.578 13.762 31.578 30.738zm-13.737 45.413l6.998.16h-7c0 .09.003.168.054.508l-.058-.38v-.02l.006-.268zm42.943 38.171c-.421-2.594-1.058-6.044-1.91-10.338h-12.377c.393 6.725-.23 12.103-1.897 16.265-2.552 6.372-7.662 9.939-13.863 9.939-5.481 0-9.762-2.546-11.955-7.132-1.407-2.943-1.79-6.02-1.79-10.62l.497-20.715.093-4.667.165-6.802.088-3.833c-.15-3.778-3.162-6.618-6.856-6.618-3.697 0-6.708 2.828-6.867 6.298-.012.196-.017 19.747-.017 58.652 0 2.532-.833 4.985-2.38 7.027-7.059 9.25-11.008 21.934-11.008 35.726 0 12.64.83 20.82 2.566 26.4.373 1.273.54 2.508.506 3.73V243h42.953v-14.133c0-1.183.177-2.363.548-3.504l23.533-83.577c-.002.006.196-.804.292-1.184.1-.395.16-.63.216-.839-.079-.89-.257-2.2-.537-3.925zm7.47 5.178c-.117.233-.61 2.32-.678 2.576l-23.605 83.837a4.285 4.285 0 0 0-.24 1.438V250H86.78v-20.971a4.78 4.78 0 0 0-.19-1.53c-1.983-6.373-2.882-15.156-2.882-28.479 0-15.27 4.414-29.452 12.445-39.973.613-.81.943-1.782.943-2.78v-58.35c0-.209 0-.415.024-.624.332-7.208 6.423-12.976 13.86-12.976 7.462 0 13.553 5.816 13.836 12.976.024.16.024.347.024.534l-.094 4.101-.165 6.812-.093 4.637-.495 20.575c0 5.932.7 10.752 6.745 10.752 6.023 0 10.957-6.044 7.983-26.204H164.6c2.907 14.116 4.126 21.622 3.656 22.516zM193 107.886V7H7v100.885h78.378v-5.106H40.457c-4.994 0-9.128-3.923-9.353-8.893-1.225-.071-2.525-.086-6.008-.086-5.135 0-9.361-4.147-9.361-9.316V33.496c0-5.167 4.224-9.32 9.36-9.32.54 0 .996.002 1.827.005 2.161.01 3.284.003 4.086-.035a35.15 35.15 0 0 0 .087-2.725c0-2.472.983-4.785 2.656-6.513 1.975-1.866 4.301-2.805 6.706-2.805h119.07c5.135 0 9.362 4.147 9.362 9.302.003 1.138.037 2.044.096 2.74.807.039 1.933.045 4.132.036.828-.003 1.28-.005 1.818-.005 5.135 0 9.363 4.151 9.363 9.32v50.988c0 5.17-4.23 9.316-9.363 9.316-.966 0-1.797-.006-3.129-.022a198.45 198.45 0 0 0-2.921-.02c-.16 5.031-4.321 9.02-9.359 9.02h-24.168l-.044 5.107H193zm7 7h-71.746l.164-19.107h31.108c1.3 0 2.363-1.044 2.363-2.319 0-7.657 2.374-6.66 13.046-6.66 1.298 0 2.363-1.043 2.363-2.316V33.496c0-1.274-1.065-2.32-2.363-2.32-10.649 0-13.021.694-13.046-9.755 0-1.274-1.063-2.318-2.363-2.318H40.456c-.612 0-1.229.254-1.675.673a2.368 2.368 0 0 0-.686 1.645c0 10.453-2.35 9.755-13 9.755-1.297 0-2.36 1.046-2.36 2.32v50.988c0 1.273 1.063 2.316 2.36 2.316 10.65 0 13 0 13 6.66 0 1.275 1.063 2.319 2.362 2.319h51.92v19.106H0V0h200v114.885zm-140.262 9.942c-3.083 0-5.705 2.678-5.705 5.99v2.565c0 3.288 2.623 5.965 5.705 5.965h25.496v-14.52H59.738zm32.496-7v28.52H59.738c-6.982 0-12.705-5.845-12.705-12.965v-2.564c0-7.15 5.727-12.991 12.705-12.991h32.496zm-23.127 39.11c-3.082 0-5.706 2.677-5.706 5.964v2.564c0 3.288 2.623 5.965 5.706 5.965h7.172l5.262-14.493H69.107zm0-7H91.53l-10.345 28.493H69.107c-6.982 0-12.706-5.843-12.706-12.965v-2.564c0-7.123 5.728-12.964 12.706-12.964z"/>
</svg>
