<svg viewBox="0 0 250 250" version="1.1" xmlns="http://www.w3.org/2000/svg" xmlns:xlink="http://www.w3.org/1999/xlink">
    <g class="dibs-vg-svg svg-icon-help-button-question-mark" transform="translate(49.000000, 0.000000)">
        <polygon points="57.9838969 250 91.6537842 250 91.6537842 214.955556 57.9838969 214.955556"></polygon>
        <path d="M131.51095,21.3444444 C118.040741,8.98888889 100.275845,2.72222222 77.8217391,2.72222222 C53.6880837,2.72222222 34.6043478,10.0888889 20.7621578,24.4777778 C6.91996779,38.8666667 -0.00112721417,58.2222222 -0.00112721417,82.2 L29.926409,82.2 C30.4900161,67.4444444 32.9247987,56.7555556 37.0391304,49.1888889 C44.3434783,35.5444444 57.610789,28.5333333 76.7057971,28.5333333 C92.2275362,28.5333333 103.262963,32.4111111 109.812077,40.5222222 C116.552818,48.4444444 119.911916,57.8555556 119.911916,68.7444444 C119.911916,76.4777778 117.657488,83.8555556 112.990821,91.0444444 C110.375684,95.1111111 107.005314,98.9777778 102.890982,102.855556 L89.2291465,115.944444 C76.14219,128.488889 67.5302738,139.544444 63.7879227,149.133333 C60.0455717,158.722222 57.9940419,170.7 57.9940419,187.311111 L87.9215781,187.311111 C87.9215781,172.544444 89.6011272,162.777778 92.9714976,155.777778 C96.341868,148.577778 103.454589,139.911111 114.490016,129.588889 C129.639775,115.388889 139.559259,104.688889 144.428824,97.5 C149.287118,90.3111111 151.710628,80.7222222 151.710628,68.9222222 C151.710628,49.7444444 144.981159,33.8888889 131.51095,21.3444444"></path>
    </g>
</svg>
