<svg version="1.1" xmlns="http://www.w3.org/2000/svg" xmlns:xlink="http://www.w3.org/1999/xlink"
	 viewBox="0 0 250 250" class="dibsvg-svg dibsvg-img-upload-multiple">
<g>
	<polygon points="410.7,42.1 410.7,335.4 432.7,335.4 432.7,40.6 546.8,143.9 561.5,127.5 421.5,0.7 291.2,127.8 306.6,143.7 	"/>
	<path d="M469.4,230.1v22h159.1v237.9L472.1,368.4l-114.8,95l-29.9-25.9L217.3,519V252.1H374v-22H195.3v83.2h-51.4V612h406.4v-51.4
		h100.4V230.1H469.4z M528.2,590H165.9V335.4h29.4v225.2h332.9V590z M628.6,538.6H227.8l98.7-73l30.6,26.7l115.5-95.5L628.6,518
		V538.6z"/>
	<path d="M251.1,339.5c0,28.2,22.8,50.9,50.9,50.9c28.2,0,50.9-22.8,50.9-50.9c0-28.2-22.8-50.9-50.9-50.9
		C273.8,288.6,251.1,311.4,251.1,339.5z M330.9,339.5c0,15.9-13,28.9-28.9,28.9c-15.9,0-28.9-13-28.9-28.9c0-15.9,13-28.9,28.9-28.9
		C317.9,310.7,330.9,323.6,330.9,339.5z"/></g>
</svg>
