<svg version="1.1" xmlns="http://www.w3.org/2000/svg" xmlns:xlink="http://www.w3.org/1999/xlink"
	 viewBox="0 0 250 250" class="dibsvg-svg dibsvg-img-upload">
<g>
	<polygon points="381.3,42.1 381.3,335.4 403.3,335.4 403.3,40.6 517.4,143.9 532.1,127.5 392.1,0.7 261.8,127.8 277.3,143.7 	"/>
	<path d="M449.9,230.1v22h186v283.2L451.6,392.2L317.7,502.8l-35-30.6l-129,95.7V252.1h183.6v-22H131.6v354l-0.2,0.2l0.2,0.5V612
		h526.3V230.1H449.9z M635.9,590H160.7l120.9-89.6l35.7,31.1l134.6-111.4l183.8,143V590z"/>
	<path d="M195.8,353.2c0,31.8,25.7,57.5,57.5,57.5s57.5-25.7,57.5-57.5s-25.7-57.5-57.5-57.5S195.8,321.7,195.8,353.2z M288.8,353.2
		c0,19.6-15.9,35.5-35.5,35.5s-35.5-15.9-35.5-35.5c0-19.6,15.9-35.5,35.5-35.5S288.8,333.7,288.8,353.2z"/>
</g>
</svg>
