<svg version="1.1" xmlns="http://www.w3.org/2000/svg" xmlns:xlink="http://www.w3.org/1999/xlink"
	 viewBox="0 0 250 250" class="dibsvg dibsvg-img-upload">
<g>
	<path d="M52.2,144.3c0,8,6.5,14.5,14.5,14.5s14.5-6.5,14.5-14.5s-6.5-14.5-14.5-14.5S52.2,136.3,52.2,144.3z"/>
	<polygon points="92.9,217.2 78.3,204.4 28.9,241 223,241 223,230.1 147.9,171.7 	"/>
	<polygon points="119,17.2 119,137 128,137 128,16.6 174.6,58.8 180.6,52.1 123.4,0.3 70.2,52.2 76.5,58.7 	"/>
	<path d="M147,94v9h76v115.7l-75.3-58.5L93,205.4l-14.3-12.5L26,232V103h75v-9H17v144.6l-0.1,0.1l0.1,0.2V250h215V94H147z M223,241
		H28.9l49.4-36.6l14.6,12.7l55-45.5l75.1,58.4V241z"/>
	<path d="M43.2,144.3c0,13,10.5,23.5,23.5,23.5s23.5-10.5,23.5-23.5s-10.5-23.5-23.5-23.5S43.2,131.4,43.2,144.3z M81.2,144.3
		c0,8-6.5,14.5-14.5,14.5s-14.5-6.5-14.5-14.5s6.5-14.5,14.5-14.5S81.2,136.3,81.2,144.3z"/>
</g>
</svg>
