<svg class="dibs-vg dibs-vg-image" width="28px" height="21px" viewBox="0 0 28 21" version="1.1" xmlns="http://www.w3.org/2000/svg">
    <g id="Rearrange" stroke="none" stroke-width="1" fill="none" fill-rule="evenodd">
        <g id="Favorites-Likes-Rearrange-On" transform="translate(-644.000000, -394.000000)">
            <g id="Group-2" transform="translate(644.000000, 390.000000)">
                <g id="Group-5">
                    <g id="Group-13" transform="translate(0.000000, 4.000000)">
                        <g id="Page-1">
                            <polygon id="Stroke-1" stroke="#CCCCCC" stroke-linejoin="round" points="0.710526316 19.5276789 26.6362105 19.5276789 26.6362105 0.7101 0.710526316 0.7101"></polygon>
                            <path d="M1.07701579,16.6722158 C1.07701579,16.4505316 1.20064737,16.1350579 1.35127895,15.9716368 L7.72612105,9.06532105 C7.87675263,8.9019 8.11833158,8.90616316 8.26327895,9.07526842 L14.1975947,15.9631105 C14.3425421,16.1307947 14.6054368,16.1577947 14.7816474,16.0242158 L20.1958579,11.8974789 C20.3734895,11.7639 20.6577,11.7695842 20.8282263,11.9116895 L25.9184368,16.1265316 C26.0889632,16.2672158 26.2282263,16.5656368 26.2282263,16.7873211 L26.2282263,18.6915316 C26.2282263,18.9132158 26.0477526,19.0951105 25.8246474,19.0951105 L1.48059474,19.0951105 C1.25891053,19.0951105 1.07701579,18.9132158 1.07701579,18.6915316 L1.07701579,16.6722158 Z" id="Fill-3" fill="#CCCCCC"></path>
                            <path d="M19.0178053,6.41463158 C19.0178053,7.371 18.2433316,8.14547368 17.2869632,8.14547368 C16.3320158,8.14547368 15.5561211,7.371 15.5561211,6.41463158 C15.5561211,5.45826316 16.3320158,4.68378947 17.2869632,4.68378947 C18.2433316,4.68378947 19.0178053,5.45826316 19.0178053,6.41463158" id="Fill-4" fill="#CCCCCC"></path>
                        </g>
                    </g>
                </g>
            </g>
        </g>
    </g>
</svg>
