<svg xmlns="http://www.w3.org/2000/svg" class="dibsvg-svg dibsvg-image-upload-drag" viewBox="0 0 100 100">
    <path d="M99.371 84.83l-9.47-7.828v-.148l4.143-2.215c.592-.296.888-.887.888-1.625 0-.739-.444-1.182-1.183-1.477l-21.751-6.5c-.74-.147-1.48.148-1.776.74a1.34 1.34 0 0 0 0 1.476l10.506 19.94c.295.591.887.887 1.48.887.739 0 1.33-.443 1.627-1.182l1.627-5.317h.296l9.766 7.976c.296.295.592.443 1.036.443.444 0 .888-.148 1.184-.59l2.071-2.512c.296-.59.296-1.477-.444-2.068zm-.888 1.33l-2.071 2.51s-.148.148-.148 0l-9.766-7.975a1.6 1.6 0 0 0-1.036-.444c-.74 0-1.331.444-1.48 1.182l-1.479 5.317c0 .148-.148.148-.148.148s-.148 0-.148-.148L71.702 66.81v-.148l.148-.147 21.603 6.499c.148 0 .148.147.148.147 0 .148 0 .148-.148.148l-4.143 2.216c-.444.147-.74.59-.888 1.181-.148.591.148 1.182.592 1.477l9.47 7.829v.148z"/>
    <path d="M64.705 59.849l-4.322-3.475c-.32-.152-.48-.756-.32-1.058.32-.302.8-.453 1.12-.151l4.482 3.475c.32.302.48.756.16 1.058-.16.15-.48.302-.64.302-.16 0-.32 0-.48-.151zM62.239 65c-.152 0-.152 0 0 0l-5.63-.75c-.457-.125-.609-.375-.609-.75.152-.375.457-.5.913-.5l5.478.75c.457.125.609.375.609.75 0 .25-.457.5-.76.5zm-.294 4.603c.14.537 0 1.073-.28 1.073L57.034 73h-.28c-.282 0-.562-.179-.702-.536-.14-.358 0-.894.42-1.073l4.63-2.324c.28-.179.702 0 .842.536zm2.685 2.661c.302-.319.754-.319 1.055-.16.301.32.452.797.15 1.116l-3.465 4.461c-.15.16-.452.319-.603.319-.15 0-.301 0-.452-.16-.301-.318-.452-.796-.15-1.115l3.465-4.461zM69.476 75c.369.152.615.457.492.913l-.738 5.478c0 .305-.369.609-.615.609h-.123c-.369-.152-.492-.457-.492-.913l.738-5.478c.123-.457.369-.609.738-.609zm9.572-11.536c-.134-.537 0-1.073.537-1.073l4.56-2.324c.268-.179.67 0 .805.536.134.358 0 .894-.403 1.073L79.987 64h-.268c-.268 0-.537-.179-.67-.536zM76.767 59c-.15 0-.452 0-.452-.158-.301-.315-.452-.787-.15-1.102l3.465-4.41c.302-.316.754-.473 1.055-.158.301.315.452.787.15 1.102l-3.465 4.411c-.15.157-.452.315-.603.315zM72.5 57c-.375-.133-.5-.4-.5-.8l.75-4.667c.125-.4.375-.533.75-.533.375.133.5.4.5.8l-.75 4.667c-.125.266-.375.533-.75.533zm-3.569-.83c.176.277 0 .692-.351.83h-.352c-.351 0-.702-.138-.878-.415l-2.284-4.703c-.176-.277 0-.692.527-.83.351-.138.878 0 1.054.415l2.284 4.703z"/>
    <path d="M23.002 36C27.462 36 31 32.308 31 28c0-4.462-3.691-8-7.998-8-4.46 0-7.997 3.692-7.997 8-.154 4.308 3.537 8 7.997 8zm0-14.5c3.559 0 6.498 2.94 6.498 6.5s-2.94 6.5-6.497 6.5c-3.558 0-6.497-2.94-6.497-6.5-.155-3.56 2.784-6.5 6.497-6.5z"/>
    <path d="M0 9v66h75.4l-.725-1.467H1.45v-7.04l18.995-19.066L31.03 58.133l1.015 1.027 1.015-1.027 29.145-29.48L85.55 52.267v17.746l1.45.44V9H0zm85.55 41.067L62.205 26.6l-30.16 30.507-11.6-11.734L1.45 64.44V10.467h84.1v39.6z"/>
</svg>
