<svg xmlns="http://www.w3.org/2000/svg" class="dibssvg-svg dibsvg-imperfections"  viewBox="0 0 250 250">
	<g>
		<path fill="none" d="M91.1,10.5c-45.2,0-82,36.8-82,82c0,45.2,36.8,82,82,82c45.2,0,82-36.8,82-82C173.1,47.3,136.3,10.5,91.1,10.5 z M84.3,34.3c1.9-2.2,4.3-3.3,7-3.3c2.7,0,5,1.1,6.9,3.3c1.9,2.2,2.8,5.5,2.8,9.8c0,1.4-0.1,3.3-0.3,5.8l-7.8,70.4h-3.3l-7.7-70.4 c-0.3-3.1-0.5-5.4-0.5-6.9C81.4,39.4,82.4,36.5,84.3,34.3z M100.8,149c-2.7,2.7-5.9,4-9.6,4c-3.8,0-7-1.3-9.6-4 c-2.7-2.7-4-5.9-4-9.6c0-3.7,1.3-6.9,4-9.5c2.7-2.7,5.9-4,9.6-4c3.8,0,7,1.3,9.6,4c2.7,2.7,4,5.8,4,9.5 C104.8,143.2,103.4,146.4,100.8,149z"/>
		<path d="M91.1,125.9c-3.8,0-7,1.3-9.6,4c-2.7,2.7-4,5.8-4,9.5c0,3.8,1.3,7,4,9.6c2.7,2.7,5.9,4,9.6,4c3.8,0,7-1.3,9.6-4 c2.7-2.7,4-5.9,4-9.6c0-3.7-1.3-6.9-4-9.5C98.1,127.2,94.9,125.9,91.1,125.9z"/>
		<path d="M89.6,120.4h3.3l7.8-70.4c0.2-2.5,0.3-4.4,0.3-5.8c0-4.3-0.9-7.6-2.8-9.8C96.3,32.1,94,31,91.3,31c-2.7,0-5.1,1.1-7,3.3 c-1.9,2.2-2.9,5.1-2.9,8.8c0,1.5,0.2,3.8,0.5,6.9L89.6,120.4z"/>
		<path d="M248.7,240.8L160,152.2c13.9-16,22.3-36.9,22.3-59.7c0-50.3-40.9-91.1-91.1-91.1C40.9,1.4,0,42.2,0,92.5 c0,50.3,40.9,91.1,91.1,91.1c24.2,0,46.2-9.5,62.5-24.9l88.5,88.5c0.9,0.9,2.1,1.3,3.2,1.3c1.2,0,2.3-0.4,3.2-1.3 C250.4,245.5,250.4,242.6,248.7,240.8z M91.1,174.5c-45.2,0-82-36.8-82-82c0-45.2,36.8-82,82-82c45.2,0,82,36.8,82,82 C173.1,137.7,136.3,174.5,91.1,174.5z"/>
	</g>
</svg>
