<svg xmlns="http://www.w3.org/2000/svg" class="dibssvg-svg dibsvg-imperfections" viewBox="0 0 250 250">
    <path fill="none" d="M91.1 10.5c-45.2 0-82 36.8-82 82s36.8 82 82 82 82-36.8 82-82-36.8-82-82-82zm-6.8 23.8c1.9-2.2 4.3-3.3 7-3.3s5 1.1 6.9 3.3c1.9 2.2 2.8 5.5 2.8 9.8 0 1.4-.1 3.3-.3 5.8l-7.8 70.4h-3.3l-7.7-70.4c-.3-3.1-.5-5.4-.5-6.9 0-3.6 1-6.5 2.9-8.7zM100.8 149c-2.7 2.7-5.9 4-9.6 4-3.8 0-7-1.3-9.6-4-2.7-2.7-4-5.9-4-9.6 0-3.7 1.3-6.9 4-9.5 2.7-2.7 5.9-4 9.6-4 3.8 0 7 1.3 9.6 4 2.7 2.7 4 5.8 4 9.5 0 3.8-1.4 7-4 9.6z"/>
    <path d="M91.1 125.9c-3.8 0-7 1.3-9.6 4-2.7 2.7-4 5.8-4 9.5 0 3.8 1.3 7 4 9.6 2.7 2.7 5.9 4 9.6 4 3.8 0 7-1.3 9.6-4 2.7-2.7 4-5.9 4-9.6 0-3.7-1.3-6.9-4-9.5-2.6-2.7-5.8-4-9.6-4z"/>
    <path d="M89.6 120.4h3.3l7.8-70.4c.2-2.5.3-4.4.3-5.8 0-4.3-.9-7.6-2.8-9.8-1.9-2.3-4.2-3.4-6.9-3.4s-5.1 1.1-7 3.3c-1.9 2.2-2.9 5.1-2.9 8.8 0 1.5.2 3.8.5 6.9l7.7 70.4z"/>
    <path d="M248.7 240.8L160 152.2c13.9-16 22.3-36.9 22.3-59.7 0-50.3-40.9-91.1-91.1-91.1C40.9 1.4 0 42.2 0 92.5s40.9 91.1 91.1 91.1c24.2 0 46.2-9.5 62.5-24.9l88.5 88.5c.9.9 2.1 1.3 3.2 1.3 1.2 0 2.3-.4 3.2-1.3 1.9-1.7 1.9-4.6.2-6.4zM91.1 174.5c-45.2 0-82-36.8-82-82s36.8-82 82-82 82 36.8 82 82-36.8 82-82 82z"/>
</svg>
