<svg class="dibsvg-svg dibsvg-inquiries-thin-outline" version="1.1" xmlns="http://www.w3.org/2000/svg" xmlns:xlink="http://www.w3.org/1999/xlink" viewBox="0 0 250 250">
	<path d="M125,0C56,0,0,56,0,125s56,125,125,125c69,0,125-56,125-125S194,0,125,0z M209.9,209.9C187.2,232.5,157.1,245,125,245
		c-32.1,0-62.2-12.5-84.9-35.2S5,157.1,5,125c0-32.1,12.5-62.2,35.2-84.9S92.9,5,125,5c32.1,0,62.2,12.5,84.9,35.2
		C232.5,62.8,245,92.9,245,125C245,157.1,232.5,187.2,209.9,209.9z"/>
	<path d="M171.1,89.2c-0.8-1-2-1.3-3.2-1.1H81.4c-1.8,0-3.3,1.5-3.3,3.3v67.4c0,1.8,1.5,3.3,3.3,3.3h87.3c1.8,0,3.3-1.5,3.3-3.3
		V91.4c0,0,0,0,0-0.1C171.9,90.6,171.7,89.8,171.1,89.2z M159.5,94.6l-33.9,28.3L90.1,94.6H159.5z M165.4,155.4H84.6V98.7l39,31.1
		c1.2,1,2.9,0.9,4.1-0.1l37.5-31.4V155.4z"/>
</svg>
