<svg version="1.1" class="dibsvg-svg dibsvg-invoice" xmlns="http://www.w3.org/2000/svg" xmlns:xlink="http://www.w3.org/1999/xlink" viewBox="0 0 250 250">
	<path d="M30.4,0v250h188.7V0H30.4z M210.2,241H39.3V9h170.8V241z"/>
	<path d="M94.8,121.8l-6.9,8.8c7,8,17.8,13.9,32.1,14.7v12.5h8.5v-12.5c21.6-1.7,29.7-14.6,29.7-27.3 c0-18.2-15.3-23.7-29.7-27.7V59.9c7.8,1.1,15,4.6,20.6,10.6l7-8.5c-6.9-7.1-16-11.6-27.6-12.7v-13H120v12.9 c-16.9,1-29.1,11.2-29.1,25.8c0,17.2,14.8,22,29.1,25.9V135C108.8,133.7,100.3,128,94.8,121.8z M128.6,103.2 c9.8,2.9,17.6,6.7,17.6,15.8c0,6.6-4.3,14.6-17.6,16V103.2z M103,74.2c0-8.3,7-14,17.1-14.7v28.6C110.5,85.3,103,82,103,74.2z"/>
	<path d="M73.2,185.3H171c2.5,0,4.5-2,4.5-4.5c0-2.5-2-4.5-4.5-4.5H73.2c-2.5,0-4.5,2-4.5,4.5 C68.8,183.3,70.8,185.3,73.2,185.3z"/>
	<path d="M73.2,212.6H171c2.5,0,4.5-2,4.5-4.5c0-2.5-2-4.5-4.5-4.5H73.2c-2.5,0-4.5,2-4.5,4.5 C68.8,210.6,70.8,212.6,73.2,212.6z"/>
</svg>
