<svg version="1.1" class="svg-icon" id="iphone" viewBox="0 0 241.7 500" xmlns="http://www.w3.org/2000/svg" xmlns:xlink="http://www.w3.org/1999/xlink">
    <path d="M210.2,0H31.8C14.2,0,0,13.6,0,30.2v439.6C0,486.4,14.2,500,31.6,500H210c17.5,0,31.6-13.6,31.6-30.2V30.2 C241.8,13.6,227.6,0,210.2,0z M120.7,21.8c3.9,0,7,3.1,7,7s-3.1,7-7,7c-3.9,0-7-3.1-7-7S116.9,21.8,120.7,21.8z M95.9,49.7h49.7 c2.3,0,4.2,2.3,4.2,5s-1.9,5-4.2,5H95.9c-2.3,0-4.2-2.3-4.2-5S93.6,49.7,95.9,49.7z M119.5,476.2c-13.4,0-24.4-10.9-24.4-24.4 c0-13.4,10.9-24.4,24.4-24.4s24.4,10.9,24.4,24.4C143.9,465.3,133.1,476.2,119.5,476.2z M214.9,404H26.3V81.7h188.6L214.9,404 L214.9,404z" />
</svg>
