<svg class="dibsvg-svg dibsvg-listing-views-thin-outline" version="1.1" xmlns="http://www.w3.org/2000/svg" xmlns:xlink="http://www.w3.org/1999/xlink" viewBox="0 0 250 250">
	<path d="M125,0C56,0,0,56,0,125s56,125,125,125s125-56,125-125S194,0,125,0z M209.9,209.9C187.2,232.5,157.1,245,125,245
		c-32.1,0-62.2-12.5-84.9-35.2C17.5,187.2,5,157.1,5,125s12.5-62.2,35.2-84.9C62.8,17.5,92.9,5,125,5c32.1,0,62.2,12.5,84.9,35.2
		S245,92.9,245,125S232.5,187.2,209.9,209.9z"/>
	<path d="M126.4,91.8c-22.8,0-47.3,12.7-59.6,35l-1.5,2.7l2,2.2c0.8,0.9,2.3,2.4,4.5,4.2c3.5,3.1,7.6,6.2,12.1,9
		c13,8.2,27.3,13.2,42.5,13.2c15.2,0,29.1-5,41.3-13.3c4.3-2.9,8-6,11.2-9.1c2-1.9,3.3-3.4,4.1-4.3l1.7-2.1l-1.2-2.4
		C173.1,106.4,147.6,91.8,126.4,91.8z M104.9,104.2c7-2.7,14.3-4.1,21.5-4.1c6,0,12.5,1.4,18.8,3.9c1.5,3.1,2.3,6.5,2.3,10.1
		c0,12.6-10,22.9-22.3,22.9c-12.3,0-22.3-10.2-22.3-22.9C102.8,110.6,103.5,107.2,104.9,104.2z M173.4,129.8
		c-2.9,2.8-6.3,5.6-10.2,8.2c-11,7.5-23.4,11.9-36.9,11.9c-13.5,0-26.4-4.5-38.2-12c-4.2-2.6-7.9-5.5-11.1-8.3
		c-0.6-0.5-1.1-1-1.7-1.5c5-8,11.9-14.5,19.8-19.2c-0.3,1.6-0.4,3.3-0.4,5c0,17.2,13.6,31.1,30.4,31.1c16.8,0,30.4-13.9,30.4-31.1
		c0-1.8-0.1-3.5-0.4-5.2c8.2,4.9,15.4,11.7,20,19.4C174.5,128.7,174,129.3,173.4,129.8z"/>
</svg>
