<svg id="Layer_1" xmlns="http://www.w3.org/2000/svg" class="dibsvg-svg dibsvg-lock-open-filled" viewBox="0 0 250 250">
    <path d="M227.9 116H89.1c-.1 0-.1 0-.1-.1V88.7s.4-8.4 1.4-12.1c1-3.6 2.6-8.4 4.9-13.1 6.4-12.7 15.3-18.4 29.7-18.4h4.1c.5 0 8.2 0 14.9 4.7l9.7 7.3c1.3 1.2 10.1 8.8 20 8.8 1 0 2-.1 3-.2 6.1-.7 17.4-5.9 17.4-20.4.2-2.3-.4-11.8-12.1-22.8-.7-.6-1.3-1.3-2-1.9-10.7-9.8-24-16.3-39.4-19.4-2.6-.5-8.8-1-15-1-5 0-9.4.3-12.9 1-15 3.1-42.6 12.9-58.2 44.3-7.8 15.8-7.9 37.6-7.9 40 .1 5.7 0 8.9 0 12.5v5.5c0 3-.1 6.5-.1 12.4 0 .1 0 .1-.1.1H20.1c-.1 0-.1 0-.1.1v133.7l207.9.2c.1 0 .1 0 .1-.1l-.1-133.9z"/>
</svg>
