<svg xmlns="http://www.w3.org/2000/svg" class="dibsvg-svg dibsvg-logo-trade" viewBox="0 0 124 44">
    <polygon points="79.4003136 43.0832419 79.4003136 35.8335867 84.3411082 35.8335867 84.3411082 36.9539315 80.6644532 36.9539315 80.6644532 38.8346212 84.2654759 38.8346212 84.2654759 39.9534143 80.6644532 39.9534143 80.6644532 41.962897 84.3411082 41.962897 84.3411082 43.0832419" class="dibsvg-logo-trade-fill"/>
    <path d="M72.293 39.465c0-1.402-.866-2.511-2.476-2.511h-1.415v5.009h1.415c1.569 0 2.476-1.13 2.476-2.498zm-5.157 3.618v-7.25h2.681c2.25 0 3.774 1.501 3.774 3.632 0 2.129-1.523 3.618-3.774 3.618h-2.68z" class="dibsvg-logo-trade-fill"/>
    <path d="M58.14 37.117l-1.299 3.456h2.595l-1.297-3.456zm2.182 5.967l-.53-1.392h-3.307l-.53 1.392h-1.438l2.832-7.25h1.579l2.832 7.25h-1.438z" class="dibsvg-logo-trade-fill"/>
    <path d="M48.124 38.105c0-.695-.519-1.151-1.232-1.151h-1.73v2.303h1.73c.713 0 1.232-.457 1.232-1.152zm-.108 4.978l-1.6-2.706h-1.254v2.706h-1.266v-7.25h3.167c1.428 0 2.357.936 2.357 2.272 0 1.294-.842 1.99-1.707 2.13l1.761 2.848h-1.458z" class="dibsvg-logo-trade-fill"/>
    <polygon points="32.605077 35.8337414 32.605077 36.9540862 34.789152 36.9540862 34.789152 43.0833966 36.0548351 43.0833966 36.0548351 36.9540862 38.2389102 36.9540862 38.2389102 35.8337414" class="dibsvg-logo-trade-fill"/>
    <path d="M119.349 26.88h1.485c.537 0 .886.135 1.099.35.18.18.276.412.276.73v.016c0 .436-.229.746-.6.921l.71 1.04h-1.154l-.583-.874h-.215v.874h-1.018V26.88zm1.454 1.453c.245 0 .395-.104.395-.294v-.015c0-.191-.16-.287-.388-.287h-.443v.596h.436zm-2.98.175v-.017c0-1.564 1.265-2.899 2.869-2.899 1.603 0 2.852 1.32 2.852 2.883v.016c0 1.566-1.264 2.898-2.868 2.898-1.604 0-2.852-1.317-2.852-2.881zm5.39-.017v-.016c0-1.406-1.083-2.565-2.521-2.565-1.445 0-2.536 1.177-2.536 2.58v.018c0 1.406 1.083 2.565 2.52 2.565 1.446 0 2.536-1.176 2.536-2.582z" class="dibsvg-logo-trade-fill"/>
    <path d="M117.05 10.255l-.932 6.53h-.79c-.112-1.678-.626-3-1.541-3.965-.917-.964-1.899-1.446-2.947-1.446-.643 0-1.174.19-1.593.57-.42.38-.63.837-.63 1.371 0 .452.092.874.274 1.266.182.396.588.93 1.218 1.606 2.213 2.393 3.558 4.038 4.036 4.935.477.898.716 1.859.716 2.881 0 1.108-.28 2.157-.843 3.146-.561.988-1.4 1.781-2.515 2.377-1.116.596-2.279.894-3.486.894-.813 0-1.816-.157-3.01-.467-.785-.218-1.375-.325-1.768-.325-.35 0-.626.05-.822.152-.197.101-.415.314-.653.64h-.788l1.04-7.034h.68c.492 1.714.952 2.937 1.38 3.668a4.89 4.89 0 0 0 1.712 1.743c.715.432 1.402.648 2.061.648.772 0 1.41-.242 1.914-.728.505-.485.756-1.066.756-1.742 0-.661-.165-1.302-.494-1.921-.33-.62-1.09-1.583-2.28-2.893-1.642-1.787-2.722-3.168-3.242-4.144-.368-.706-.55-1.513-.55-2.418 0-1.527.551-2.8 1.653-3.817 1.102-1.018 2.65-1.527 4.645-1.527.87 0 1.938.161 3.203.483.63.16 1.137.24 1.515.24.548 0 .99-.24 1.328-.723h.753z" class="dibsvg-logo-trade-fill"/>
    <path d="M93.652.552l-3.724 12.692c1.057-1.198 1.94-1.996 2.65-2.393a4.643 4.643 0 0 1 2.307-.596c1.607 0 2.808.609 3.605 1.827.796 1.218 1.194 2.62 1.194 4.211 0 3.802-1.344 7.194-4.031 10.178-2.387 2.632-5.102 3.947-8.146 3.947-2.262 0-4.655-.678-7.177-2.034l6.51-22.273c.303-1.06.475-1.8.516-2.222a.996.996 0 0 0-.454-.86c-.424-.3-1.066-.427-1.929-.385l.18-.83L92.358.552h1.293zm-8.227 28.042c.63.423 1.2.634 1.707.634.71 0 1.306-.147 1.79-.444.762-.48 1.563-1.346 2.4-2.603.838-1.256 1.537-2.773 2.1-4.55.562-1.778.843-3.549.843-5.313 0-1.001-.21-1.764-.627-2.286-.418-.521-.903-.783-1.452-.783-.915 0-1.713.493-2.393 1.477-.458.638-.955 1.992-1.49 4.062l-2.878 9.806z" class="dibsvg-logo-trade-fill"/>
    <path d="M78.995 10.255l-4.681 14.893c-.258.852-.388 1.41-.388 1.676 0 .162.062.31.187.45.125.138.258.208.397.208.236 0 .472-.11.708-.329.625-.541 1.376-1.52 2.25-2.939l.718.44c-2.131 3.843-4.397 5.766-6.797 5.766-.919 0-1.649-.256-2.192-.768-.545-.511-.816-1.16-.816-1.945 0-.521.13-1.185.395-1.99l3.223-10.113c.308-.973.463-1.707.463-2.2 0-.31-.142-.586-.425-.826-.284-.24-.671-.36-1.164-.36-.223 0-.492.006-.805.022l.287-.83 7.34-1.155h1.3zM77.287.552c.876 0 1.614.304 2.215.912.598.609.9 1.344.9 2.209a3.01 3.01 0 0 1-.911 2.206 2.997 2.997 0 0 1-2.204.913 2.965 2.965 0 0 1-2.181-.913 3.006 3.006 0 0 1-.913-2.206c0-.865.301-1.6.902-2.209a2.96 2.96 0 0 1 2.192-.912z" class="dibsvg-logo-trade-fill"/>
    <path d="M69.809.551l-7.125 23.6c-.454 1.478-.68 2.37-.68 2.679 0 .157.055.292.167.405.111.113.23.169.355.169.238 0 .51-.121.817-.362.515-.395 1.142-1.145 1.881-2.25l.754.404c-1.976 3.482-4.146 5.223-6.514 5.223-.84 0-1.488-.222-1.943-.664-.456-.442-.683-1.007-.683-1.696 0-.661.183-1.602.547-2.824l.664-2.157c-1.759 3.11-3.284 5.178-4.577 6.204-.983.758-1.94 1.137-2.866 1.137-1.056 0-1.945-.43-2.669-1.288-.722-.858-1.085-2.11-1.085-3.758 0-2.097.468-4.167 1.401-6.207.936-2.042 2.015-3.744 3.24-5.11 1.224-1.365 2.393-2.34 3.506-2.925 1.11-.583 2.204-.877 3.281-.877a3.11 3.11 0 0 1 1.476.346c.432.232.923.663 1.475 1.296l1.646-5.235c.42-1.318.63-2.263.63-2.835 0-.345-.144-.638-.43-.88-.287-.244-.668-.365-1.145-.365-.224 0-.502.022-.835.062l.179-.828L68.492.55h1.317zm-9.44 13.367c0-.86-.172-1.487-.515-1.88-.342-.395-.742-.592-1.197-.592-.457 0-.95.233-1.477.697-1.015.901-2.073 2.715-3.18 5.442-1.105 2.726-1.658 5.02-1.658 6.88 0 .677.12 1.176.364 1.5.243.325.513.486.814.486.498 0 .999-.225 1.497-.676 1.213-1.071 2.408-2.913 3.586-5.528 1.177-2.613 1.765-4.723 1.765-6.329z" class="dibsvg-logo-trade-fill"/>
    <path d="M46.87 5.097l-1.762 5.735h2.354l-.736 2.417h-2.388l-3.816 12.419c-.244.771-.366 1.356-.366 1.756 0 .135.062.252.189.351a.67.67 0 0 0 .42.148c.237 0 .483-.1.734-.297.644-.493 1.393-1.354 2.245-2.582l.754.466c-.969 1.693-2.036 2.934-3.2 3.724-1.165.79-2.308 1.185-3.43 1.185-.956 0-1.695-.242-2.222-.724-.526-.484-.788-1.097-.788-1.84 0-.818.196-1.869.588-3.154l3.576-11.452h-2.698l.398-1.559c1.706-.66 3.189-1.432 4.45-2.317 1.261-.884 2.78-2.31 4.558-4.276h1.14z" class="dibsvg-logo-trade-fill"/>
    <path d="M33.311 10.255l-.932 6.53h-.79c-.112-1.678-.626-3-1.54-3.965-.918-.964-1.9-1.446-2.947-1.446-.644 0-1.175.19-1.593.57-.42.38-.63.837-.63 1.371 0 .452.09.874.273 1.266.182.396.588.93 1.218 1.606 2.213 2.393 3.558 4.038 4.036 4.935.477.898.716 1.859.716 2.881a6.27 6.27 0 0 1-.842 3.146c-.562.988-1.4 1.781-2.516 2.377-1.116.596-2.279.894-3.486.894-.813 0-1.816-.157-3.01-.467-.785-.218-1.375-.325-1.768-.325-.35 0-.625.05-.821.152-.198.101-.416.314-.653.64h-.79l1.041-7.034h.68c.492 1.714.952 2.937 1.38 3.668a4.89 4.89 0 0 0 1.713 1.743c.714.432 1.401.648 2.06.648.772 0 1.41-.242 1.914-.728.505-.485.756-1.066.756-1.742 0-.661-.165-1.302-.493-1.921-.33-.62-1.09-1.583-2.282-2.893-1.64-1.787-2.721-3.168-3.241-4.144-.368-.706-.55-1.513-.55-2.418 0-1.527.551-2.8 1.653-3.817 1.103-1.018 2.65-1.527 4.645-1.527.87 0 1.939.161 3.203.483.631.16 1.137.24 1.515.24.548 0 .99-.24 1.328-.723h.753z" class="dibsvg-logo-trade-fill"/>
    <path d="M18.337.624l-7.123 24.025c-.365 1.259-.547 2.06-.547 2.398 0 .34.13.69.39 1.05.259.362.538.596.84.702.301.105 1.209.201 2.722.285l-.23.759H0l.232-.759c1.429-.028 2.424-.147 2.985-.36a3.007 3.007 0 0 0 1.377-1.04c.358-.48.76-1.492 1.208-3.035l4.19-14.27c.66-2.167 1.004-3.315 1.033-3.443.088-.366.133-.71.133-1.035 0-.628-.194-1.128-.58-1.499-.388-.37-.94-.557-1.658-.557-.352 0-1.048.058-2.088.17L6.65 3.22 17.446.624h.891z" class="dibsvg-logo-trade-fill"/>
    <polygon points="90.7078029 40.6222074 116.947574 40.6222074 116.947574 38.2946212 90.7078029 38.2946212" class="dibsvg-logo-trade-bar-fill"/>
    <polygon points="0 40.6222074 26.2397715 40.6222074 26.2397715 38.2946212 0 38.2946212" class="dibsvg-logo-trade-bar-fill"/>
</svg>
