<svg version="1.1" xmlns="http://www.w3.org/2000/svg" xmlns:xlink="http://www.w3.org/1999/xlink" class="dibsvg-svg dibsvg-logo-vip" viewBox="0 0 250 250">
    <path d="M22.8,132.9c-0.5-0.7-0.8-1.4-0.8-2.1c0-0.7,0.4-2.3,1.1-4.8l14.4-48.4h-1.8L14,82.7l0.4,1.6c2.1-0.2,3.5-0.3,4.2-0.3c1.4,0,2.6,0.4,3.3,1.1c0.8,0.7,1.2,1.8,1.2,3c0,0.7-0.1,1.3-0.3,2.1c-0.1,0.3-0.8,2.6-2.1,6.9l-8.4,28.8c-0.9,3.1-1.7,5.1-2.4,6.1c-0.7,1-1.6,1.7-2.8,2.1s-3.1,0.7-6,0.7l-0.5,1.5h29l0.5-1.5c-3-0.2-4.9-0.4-5.5-0.6C23.9,134.1,23.4,133.6,22.8,132.9z" />
    <path d="M63.5,98.4c-0.8,0-1.8-0.2-3.1-0.5c-2.5-0.6-4.7-1-6.5-1c-4,0-7.1,1-9.4,3.1c-2.2,2.1-3.3,4.6-3.3,7.7c0,1.8,0.4,3.5,1.1,4.9c1,2,3.2,4.8,6.5,8.4c2.4,2.6,3.9,4.6,4.6,5.8c0.7,1.2,1,2.5,1,3.9c0,1.4-0.5,2.5-1.5,3.5s-2.3,1.5-3.9,1.5c-1.3,0-2.7-0.4-4.2-1.3c-1.4-0.9-2.6-2-3.5-3.5c-0.9-1.5-1.8-3.9-2.8-7.4h-1.4l-2.1,14.2h1.6c0.5-0.7,0.9-1.1,1.3-1.3c0.4-0.2,0.9-0.3,1.7-0.3c0.8,0,2,0.2,3.6,0.7c2.4,0.6,4.4,0.9,6.1,0.9c2.4,0,4.8-0.6,7-1.8c2.3-1.2,3.9-2.8,5.1-4.8c1.1-2,1.7-4.1,1.7-6.3c0-2.1-0.5-4-1.4-5.8c-1-1.8-3.7-5.1-8.1-9.9c-1.3-1.4-2.1-2.4-2.5-3.2c-0.4-0.8-0.6-1.6-0.6-2.6c0-1.1,0.4-2,1.3-2.8c0.8-0.8,1.9-1.1,3.2-1.1c2.1,0,4.1,1,5.9,2.9c1.8,1.9,2.9,4.6,3.1,8h1.6l1.9-13.2h-1.5C65.5,97.9,64.6,98.4,63.5,98.4z" />
    <path d="M89.9,103h4.8l1.5-4.9h-4.7l3.6-11.6h-2.3c-3.6,4-6.6,6.8-9.2,8.6c-2.5,1.8-5.5,3.3-9,4.7l-0.8,3.1h5.4L72,126.1c-0.8,2.6-1.2,4.7-1.2,6.4c0,1.5,0.5,2.7,1.6,3.7c1.1,1,2.6,1.5,4.5,1.5c2.3,0,4.6-0.8,6.9-2.4c2.3-1.6,4.5-4.1,6.5-7.5l-1.5-0.9c-1.7,2.5-3.2,4.2-4.5,5.2c-0.5,0.4-1,0.6-1.5,0.6c-0.3,0-0.6-0.1-0.8-0.3c-0.3-0.2-0.4-0.4-0.4-0.7c0-0.8,0.2-2,0.7-3.5L89.9,103z" />
    <path d="M128.3,130.8c-0.6,0.5-1.2,0.7-1.6,0.7c-0.3,0-0.5-0.1-0.7-0.3c-0.2-0.2-0.3-0.5-0.3-0.8c0-0.6,0.5-2.4,1.4-5.4l14.4-47.6h-2.7l-14.5,2.5l-0.4,1.7c0.7-0.1,1.2-0.1,1.7-0.1c1,0,1.7,0.2,2.3,0.7c0.6,0.5,0.9,1.1,0.9,1.8c0,1.2-0.4,3.1-1.3,5.7l-3.3,10.6c-1.1-1.3-2.1-2.1-3-2.6c-0.9-0.5-1.9-0.7-3-0.7c-2.2,0-4.4,0.6-6.6,1.8c-2.2,1.2-4.6,3.1-7.1,5.9c-2.5,2.8-4.6,6.2-6.5,10.3C96,119,95,123.2,95,127.4c0,3.3,0.7,5.8,2.2,7.6c1.5,1.7,3.3,2.6,5.4,2.6c1.9,0,3.8-0.8,5.8-2.3c2.6-2.1,5.7-6.2,9.2-12.5l-1.3,4.3c-0.7,2.5-1.1,4.4-1.1,5.7c0,1.4,0.5,2.5,1.4,3.4c0.9,0.9,2.2,1.3,3.9,1.3c4.8,0,9.2-3.5,13.1-10.5l-1.5-0.8C130.6,128.5,129.3,130,128.3,130.8z M118.7,117.1c-2.4,5.3-4.8,9-7.2,11.1c-1,0.9-2,1.4-3,1.4c-0.6,0-1.2-0.3-1.6-1c-0.5-0.7-0.7-1.7-0.7-3c0-3.8,1.1-8.4,3.3-13.9c2.2-5.5,4.4-9.2,6.4-11c1.1-0.9,2.1-1.4,3-1.4c0.9,0,1.7,0.4,2.4,1.2s1,2.1,1,3.8C122.3,107.5,121.1,111.8,118.7,117.1z" />
    <path d="M159.8,96.9h-2.6l-14.8,2.3l-0.6,1.7c0.6,0,1.2,0,1.6,0c1,0,1.8,0.2,2.3,0.7c0.6,0.5,0.9,1,0.9,1.7c0,1-0.3,2.5-0.9,4.4l-6.5,20.4c-0.5,1.6-0.8,3-0.8,4c0,1.6,0.5,2.9,1.6,3.9c1.1,1,2.6,1.5,4.4,1.5c4.8,0,9.4-3.9,13.7-11.6l-1.4-0.9c-1.8,2.9-3.3,4.8-4.5,5.9c-0.5,0.4-1,0.7-1.4,0.7c-0.3,0-0.5-0.1-0.8-0.4c-0.3-0.3-0.4-0.6-0.4-0.9c0-0.5,0.3-1.7,0.8-3.4L159.8,96.9z" />
    <path d="M160.8,79.2c-1.2-1.2-2.7-1.8-4.5-1.8c-1.7,0-3.2,0.6-4.4,1.8c-1.2,1.2-1.8,2.7-1.8,4.5c0,1.7,0.6,3.2,1.8,4.4c1.2,1.2,2.7,1.8,4.4,1.8c1.7,0,3.2-0.6,4.4-1.8c1.2-1.2,1.8-2.7,1.8-4.4C162.7,81.9,162.1,80.4,160.8,79.2z" />
    <path d="M191.9,96.9c-1.7,0-3.2,0.4-4.7,1.2c-1.4,0.8-3.2,2.4-5.3,4.8l7.5-25.6h-2.6l-14.5,2.5l-0.4,1.7c1.7-0.1,3,0.2,3.9,0.8c0.6,0.4,0.9,1,0.9,1.7c-0.1,0.9-0.4,2.3-1,4.5l-13.1,44.9c5.1,2.7,9.9,4.1,14.5,4.1c6.1,0,11.6-2.7,16.4-8c5.4-6,8.1-12.9,8.1-20.5c0-3.2-0.8-6-2.4-8.5C197.5,98.2,195.1,96.9,191.9,96.9z M188.9,119.9c-1.1,3.6-2.5,6.6-4.2,9.2c-1.7,2.5-3.3,4.3-4.8,5.3c-1,0.6-2.2,0.9-3.6,0.9c-1,0-2.2-0.4-3.4-1.3l5.8-19.8c1.1-4.2,2.1-6.9,3-8.2c1.4-2,3-3,4.8-3c1.1,0,2.1,0.5,2.9,1.6c0.8,1.1,1.3,2.6,1.3,4.6C190.6,112.7,190.1,116.3,188.9,119.9z" />
    <path d="M232.4,98.4c-0.8,0-1.8-0.2-3.1-0.5c-2.5-0.6-4.7-1-6.5-1c-4,0-7.1,1-9.4,3.1c-2.2,2.1-3.3,4.6-3.3,7.7c0,1.8,0.4,3.5,1.1,4.9c1,2,3.2,4.8,6.5,8.4c2.4,2.6,3.9,4.6,4.6,5.8c0.7,1.2,1,2.5,1,3.9c0,1.4-0.5,2.5-1.5,3.5s-2.3,1.5-3.9,1.5c-1.3,0-2.7-0.4-4.2-1.3c-1.4-0.9-2.6-2-3.5-3.5c-0.9-1.5-1.8-3.9-2.8-7.4h-1.4l-2.1,14.2h1.6c0.5-0.7,0.9-1.1,1.3-1.3c0.4-0.2,0.9-0.3,1.7-0.3c0.8,0,2,0.2,3.6,0.7c2.4,0.6,4.4,0.9,6.1,0.9c2.4,0,4.8-0.6,7-1.8c2.3-1.2,3.9-2.8,5.1-4.8s1.7-4.1,1.7-6.3c0-2.1-0.5-4-1.4-5.8c-1-1.8-3.7-5.1-8.1-9.9c-1.3-1.4-2.1-2.4-2.5-3.2c-0.4-0.8-0.6-1.6-0.6-2.6c0-1.1,0.4-2,1.3-2.8c0.8-0.8,1.9-1.1,3.2-1.1c2.1,0,4.1,1,5.9,2.9c1.8,1.9,2.9,4.6,3.1,8h1.6l1.9-13.2H235C234.4,97.9,233.5,98.4,232.4,98.4z" />
    <path d="M243.9,127.9c-3.2,0-5.8,2.7-5.8,5.8v0c0,3.2,2.5,5.8,5.8,5.8c3.2,0,5.8-2.7,5.8-5.8v0C249.7,130.5,247.1,127.9,243.9,127.9z M249,133.7c0,2.8-2.2,5.2-5.1,5.2c-2.9,0-5.1-2.3-5.1-5.2v0c0-2.8,2.2-5.2,5.1-5.2C246.8,128.5,249,130.8,249,133.7L249,133.7z" />
    <path d="M247,132.7L247,132.7c0-0.7-0.2-1.1-0.6-1.5c-0.4-0.4-1.1-0.7-2.2-0.7h-3v6.2h2.1v-1.8h0.4h0l1.2,1.8h2.3l-1.4-2.1C246.5,134.2,247,133.5,247,132.7z M244.9,132.8c0,0.4-0.3,0.6-0.8,0.6h-0.9v-1.2h0.9C244.6,132.2,244.9,132.4,244.9,132.8L244.9,132.8z" />
    <g class="dibsvg-logo-vip-text-fill">
        <path d="M6.5,149.3H0v14.8h2.6v-5.5h3.9c3.1,0,4.8-2.1,4.8-4.6C11.3,151.5,9.6,149.3,6.5,149.3z M6.1,156.3H2.6v-4.7h3.5c1.5,0,2.5,0.9,2.5,2.4C8.7,155.4,7.6,156.3,6.1,156.3z" />
        <path d="M30.4,154c0-2.7-1.9-4.6-4.8-4.6h-6.5v14.8h2.6v-5.5h2.6l3.3,5.5h3l-3.6-5.8C28.7,158,30.4,156.6,30.4,154zM21.7,156.3v-4.7h3.5c1.5,0,2.5,0.9,2.5,2.4c0,1.4-1.1,2.4-2.5,2.4H21.7z" />
        <rect x="38.6" y="149.3" width="2.6" height="14.8" />
        <polygon points="55.8,161.3 51.3,149.3 48.4,149.3 54.2,164.1 57.4,164.1 63.2,149.3 60.3,149.3" />
        <path d="M73.6,149.3l-5.8,14.8h2.9l1.1-2.8h6.8l1.1,2.8h2.9l-5.8-14.8H73.6z M72.5,159l2.7-7.1l2.7,7.1H72.5z" />
        <polygon points="87.5,151.6 91.9,151.6 91.9,164.1 94.5,164.1 94.5,151.6 99,151.6 99,149.3 87.5,149.3" />
        <polygon points="106.8,164.1 116.9,164.1 116.9,161.8 109.4,161.8 109.4,157.7 116.8,157.7 116.8,155.5 109.4,155.5 109.4,151.6 116.9,151.6 116.9,149.3 106.8,149.3" />
        <path d="M143.6,151.4c1.6,0,3,0.9,3.7,2.2l2.2-1.1c-1.1-1.8-2.9-3.3-5.9-3.3c-4.4,0-7.8,3.1-7.8,7.7c0,4.5,3.4,7.7,7.8,7.7c3,0,4.8-1.6,5.9-3.3l-2.2-1.1c-0.7,1.2-2.1,2.2-3.7,2.2c-2.9,0-5.1-2.2-5.1-5.3C138.5,153.6,140.6,151.4,143.6,151.4z" />
        <polygon points="159.8,149.3 157.2,149.3 157.2,164.1 166.3,164.1 166.3,161.8 159.8,161.8" />
        <rect x="174.2" y="149.3" width="2.6" height="14.8" />
        <polygon points="185.6,164.1 195.7,164.1 195.7,161.8 188.2,161.8 188.2,157.7 195.6,157.7 195.6,155.5 188.2,155.5 188.2,151.6 195.7,151.6 195.7,149.3 185.6,149.3" />
        <polygon points="214.2,159.6 206.6,149.3 204,149.3 204,164.1 206.6,164.1 206.6,153.6 214.3,164.1 216.8,164.1 216.8,149.3 214.2,149.3" />
        <polygon points="224.6,149.3 224.6,151.6 229,151.6 229,164.1 231.6,164.1 231.6,151.6 236.1,151.6 236.1,149.3" />
    </g>
</svg>
