<svg xmlns="http://www.w3.org/2000/svg" class="dibsvg-svg dibsvg-logo-introspective" viewBox="0 0 2612 208">
    <polygon points="19.5 203.7 0 203.7 0 3.9 19.5 3.9"/>
    <polygon points="185.8 206.9 62.8 40.5 62.8 203.9 56.8 203.9 56.8 0.7 179.7 165.5 179.7 3.9 185.7 3.9 185.7 206.9"/>
    <polygon points="336.5 9.9 284.1 9.9 284.1 203.9 264.6 203.9 264.6 9.9 211.6 9.9 211.6 3.8 336.5 3.8"/>
    <path d="M476.8 204h-21.2l-64-111.2c3.1.2 6.1.3 9 .3 28.5 0 42.7-13.4 42.7-40.1 0-29.5-17.9-44-53.7-43.5h-13V204h-19.3V4.1c3-.2 14.7-.3 35-.3 46.9-.4 70.4 15.7 70.4 48.5 0 12.9-4.2 23.4-12.5 31.6-8.4 8.2-19.7 13.2-34.1 14.9L476.8 204z"/>
    <path d="M685.2 103.8c0 28.8-9.2 52.8-27.7 72.1-18.8 20-42.8 29.9-72 29.9-29.2 0-53.3-10-72.2-29.9-18.4-19.3-27.5-43.4-27.5-72.1 0-28.7 9.2-52.7 27.5-72.1 18.9-20 43-29.9 72.2-29.9 29.2 0 53.2 10 72 29.9 18.4 19.4 27.7 43.4 27.7 72.1zm-21.5 0c0-27.6-7-50.5-21.1-68.7-14.7-19-33.8-28.5-57.2-28.5-23.5 0-42.6 9.5-57.4 28.5-14 18.2-21 41.1-21 68.7s7 50.5 21.1 68.7c14.7 19 33.8 28.5 57.4 28.5 23.4 0 42.5-9.5 57.2-28.5 14-18.3 21-41.2 21-68.7z"/>
    <path d="M806.8 154.7c0 15.8-6 28.5-17.9 38.1-10.7 8.7-23.4 13-37.9 13-18.6 0-35-5.5-49.3-16.5l6.1-9.1c12.9 12.2 27.3 18.4 43.2 18.4 11.8 0 21.5-3.5 28.9-10.5 7.5-7 11.2-16.7 11.2-29 0-21-13.6-39.1-40.9-54.2-30.6-17-45.3-37.7-44-62.1.6-12.3 5.9-22.2 15.6-29.8 9.5-7.2 21.1-10.8 35-10.8 6 .3 11.6 1.2 16.8 2.6 12.5 3.2 21.6 8.9 27.5 17l-7.2 7.4c-3.2-4.7-7.6-8.8-13.2-12.5C773.1 11.6 765 9 756.5 9c-9.7 0-17.9 2.7-24.7 8.1-6.8 5.4-10.5 12.4-11.1 20.8-1.2 16.6 10.5 32.2 35 46.6 20 11.7 33.9 23.6 41.7 35.9 6.3 9.8 9.4 21.2 9.4 34.3z"/>
    <path d="M955.5 58.1c0 15.3-6.5 28.2-19.4 38.8-12.9 10.6-28.3 15.8-46.2 15.5-4 0-7.3-.1-10-.2v-6h5.8c16 0 28.6-4.8 37.7-14.5 8.5-8.8 12.7-20.1 12.7-34 0-32.5-18.6-48.6-55.9-48.2h-19.8v194.3h-19.2V4.1c9.6-.2 24.5-.3 44.8-.3 46.4-.3 69.5 17.8 69.5 54.3z"/>
    <polygon points="1076.3 203.9 983.2 203.9 983.2 3.8 1072.9 3.8 1072.9 9.9 1002.7 9.9 1002.7 90.8 1066 90.8 1066 96.9 1002.7 96.9 1002.7 197.8 1076.3 197.8 1076.3 203.9"/>
    <path d="M1246.2 176.1c-15 19.8-35.4 29.7-61.1 29.7-24.4 0-45.7-10.2-64-30.6-18.3-20.4-27.5-44.2-27.5-71.5 0-27.7 8.3-51.5 24.8-71.5 16.9-20.4 37.3-30.6 61.4-30.6 23.5 0 43 6.7 58.5 20l-7.6 9c-14.1-15.2-31-22.9-50.9-22.9-19.4 0-35.1 9.4-46.9 28.2-11.3 17.8-16.9 40.4-16.9 67.7 0 26.8 6.5 49.3 19.7 67.7 13.2 18.8 29.7 28.2 49.5 28.2 22.9 0 40.4-10 52.7-30.1l8.3 6.7z"/>
    <polygon points="1384.7 9.9 1332.3 9.9 1332.3 203.9 1312.8 203.9 1312.8 9.9 1259.8 9.9 1259.8 3.8 1384.7 3.8"/>
    <polygon points="1425 203.7 1405.5 203.7 1405.5 3.9 1425 3.9"/>
    <polygon points="1609.1 4.1 1530.2 207.3 1450.8 4.1 1473.5 4.1 1538 170.4 1602.3 4.1"/>
    <polygon points="1726.4 203.9 1633.3 203.9 1633.3 3.8 1723 3.8 1723 9.9 1652.8 9.9 1652.8 90.8 1716.1 90.8 1716.1 96.9 1652.8 96.9 1652.8 197.8 1726.4 197.8"/>
    <g transform="translate(1865.000000, 67.000000)">
        <path d="M.8.7l21.3 27.6c7 9.2 14.1 18.4 21.3 27.6l21.3-27.6C71.8 19.1 78.8 9.9 86 .7v85h-7.2V25.1c0-.8 0-1.5.1-2.1 0-.7.1-1.3.2-2-5.6 8-11.4 15.8-17.5 23.5-6.1 7.7-12.1 15.4-18.1 23.2C38.2 60.8 33 54 27.8 47.2c-5.2-6.8-10.4-13.6-15.7-20.5l-2.4-3.1c-.3-.4-.6-.8-.9-1.3-.3-.5-.6-.9-.9-1.3.1.7.1 1.4.2 2 0 .7.1 1.4.1 2.1v60.6H1V.7H.8z"/>
        <path d="M195.7 85.8h-7.3c-2.4-5.6-4.8-11.2-7.1-16.8-2.3-5.6-4.7-11.2-7.1-16.8H145c-2.3 5.6-4.7 11.2-7 16.8-2.4 5.6-4.7 11.2-7.1 16.8h-7.2c6-14.3 12-28.4 18-42.5 6-14.1 12-28.3 18-42.5 6 14.3 12 28.4 18 42.5 6 14.1 12 28.2 18 42.5zm-34.9-65.4c-.2-.6-.3-1.2-.5-1.8-.2-.6-.4-1.2-.5-1.8-1.5 4.9-3.4 9.7-5.5 14.4-2.1 4.7-4.1 9.5-6.2 14.2h23.1c-1.8-4.2-3.5-8.3-5.2-12.5-1.7-4.2-3.4-8.4-5.2-12.5z"/>
        <path d="M269.4 57.9v-7h15.7c2.2 0 3.8.5 4.6 1.4.8 1 1.3 2.7 1.3 5.1v23.5c-3.1 1.8-6.4 3.2-9.9 4.2s-7.3 1.6-11.2 1.6c-5.7 0-11.1-1.1-16.2-3.3-5-2.2-9.4-5.1-13.2-8.9-3.8-3.8-6.7-8.2-8.9-13.2s-3.3-10.4-3.3-16.2c0-5.7 1.1-11.1 3.3-16.2 2.2-5.1 5.1-9.5 8.9-13.2 3.8-3.8 8.2-6.7 13.2-8.9s10.4-3.3 16.2-3.3c3.9 0 7.7.5 11.2 1.5 3.5 1 6.9 2.4 10.1 4.3-.6 1-1.3 2-2 3l-2.1 3c-5.2-3.2-10.9-4.8-17.2-4.8-4.7 0-9.2.9-13.3 2.7-4.1 1.8-7.8 4.3-10.9 7.5-3.1 3.2-5.6 6.9-7.4 11.1-1.8 4.2-2.7 8.7-2.7 13.4 0 4.8.9 9.3 2.7 13.5 1.8 4.2 4.2 7.8 7.3 11 3.1 3.1 6.7 5.6 10.9 7.4 4.1 1.8 8.6 2.7 13.3 2.7 5 0 9.7-1 14.1-3.1V61c0-1.1-.2-1.9-.5-2.4s-1.1-.8-2.4-.8h-11.6v.1z"/>
        <path d="M398.7 85.8h-7.3c-2.4-5.6-4.8-11.2-7.1-16.8-2.3-5.6-4.7-11.2-7.1-16.8H348c-2.3 5.6-4.7 11.2-7 16.8-2.4 5.6-4.7 11.2-7.1 16.8h-7.2c6-14.3 12-28.4 18-42.5 6-14.1 12-28.3 18-42.5 6 14.3 12 28.4 18 42.5 6 14.1 12 28.2 18 42.5zm-34.9-65.4c-.2-.6-.3-1.2-.5-1.8-.2-.6-.4-1.2-.5-1.8-1.5 4.9-3.4 9.7-5.5 14.4-2.1 4.7-4.1 9.5-6.2 14.2h23.1c-1.8-4.2-3.5-8.3-5.2-12.5-1.7-4.2-3.5-8.4-5.2-12.5z"/>
        <path d="M433.6 4.4h61.6v7c-8.8 11.3-17.6 22.5-26.3 33.7-8.7 11.2-17.5 22.4-26.3 33.7h56v7h-64.9v-7c8.8-11.3 17.6-22.5 26.3-33.7 8.7-11.2 17.5-22.4 26.4-33.7h-52.6"/>
        <polygon points="535.8 4.4 543.1 4.4 543.1 85.7 535.8 85.7"/>
        <path d="M655.8 4.4v85c-10.4-11.5-20.7-23-31-34.3-10.3-11.3-20.6-22.8-31-34.3-.4-.5-.8-1-1.1-1.5-.3-.5-.7-1-1.1-1.5.1.6.1 1.2.2 1.9 0 .6.1 1.2.2 1.9v64.3h-7.2V.9c10.4 11.7 20.7 23.3 31 34.9 10.3 11.5 20.6 23.2 31 34.9.4.5.8 1 1.1 1.5.3.5.7 1 1.1 1.5-.1-.6-.1-1.2-.2-1.9 0-.6-.1-1.2-.2-1.9V4.6h7.2v-.2z"/>
        <polygon points="695.2 85.8 695.2 4.5 744.4 4.5 744.4 11.5 702.5 11.5 702.5 41.5 739.9 41.5 739.9 48.4 702.5 48.4 702.5 79.1 746.1 79.1 746.1 86 695.2 86"/>
    </g>
</svg>
