<svg xmlns="http://www.w3.org/2000/svg" class="dibsvg-svg dibsvg-logo-trade-mobile" viewBox="0 0 116 20">
    <polygon points="112.109 19.4225 112.109 14.7505 115.31 14.7505 115.31 15.4725 112.928 15.4725 112.928 16.6845 115.261 16.6845 115.261 17.4055 112.928 17.4055 112.928 18.7005 115.31 18.7005 115.31 19.4225"/>
    <path d="M107.504 17.09c0-.903-.56-1.618-1.604-1.618h-.916V18.7h.916c1.016 0 1.604-.728 1.604-1.61zm-3.34 2.332V14.75h1.736c1.459 0 2.445.967 2.445 2.34 0 1.372-.986 2.332-2.445 2.332h-1.737z"/>
    <path d="M98.335 15.578l-.841 2.227h1.68l-.84-2.227zm1.414 3.845l-.343-.897h-2.143l-.343.897h-.932l1.835-4.672h1.023l1.835 4.672h-.932z"/>
    <path d="M91.846 16.215c0-.448-.336-.742-.798-.742h-1.121v1.483h1.12c.463 0 .799-.293.799-.741zm-.07 3.207l-1.037-1.744h-.812v1.744h-.82v-4.671h2.052c.925 0 1.527.603 1.527 1.464 0 .834-.546 1.282-1.106 1.372l1.14 1.835h-.944z"/>
    <polygon points="81.792 14.7509 81.792 15.4729 83.207 15.4729 83.207 19.4229 84.026 19.4229 84.026 15.4729 85.441 15.4729 85.441 14.7509"/>
    <path d="M78.265 17.903c.159 0 .256-.066.256-.189v-.01c0-.123-.103-.185-.251-.185h-.287v.384h.282zm-.942-.936h.962c.348 0 .574.087.712.225a.626.626 0 0 1 .179.471v.01c0 .281-.148.481-.39.594l.462.67H78.5l-.378-.563h-.139v.563h-.66v-1.97zm2.503 1.038v-.01c0-.906-.701-1.653-1.633-1.653-.936 0-1.643.758-1.643 1.663v.011c0 .906.702 1.653 1.633 1.653.937 0 1.643-.758 1.643-1.664zm-3.491.011v-.01c0-1.009.819-1.869 1.858-1.869 1.039 0 1.848.85 1.848 1.858v.01a1.87 1.87 0 0 1-1.858 1.868 1.852 1.852 0 0 1-1.848-1.857z"/>
    <path d="M75.833 6.253l-.604 4.208h-.512c-.072-1.08-.405-1.933-.998-2.555-.594-.62-1.23-.932-1.909-.932-.417 0-.76.122-1.032.367a1.15 1.15 0 0 0-.408.884c0 .291.06.563.177.816.118.255.381.6.79 1.035 1.433 1.542 2.304 2.602 2.614 3.18.31.58.464 1.198.464 1.857 0 .714-.182 1.39-.546 2.027-.364.637-.907 1.148-1.63 1.532a4.753 4.753 0 0 1-2.258.576c-.527 0-1.177-.1-1.95-.3-.509-.14-.89-.21-1.146-.21-.227 0-.405.032-.532.098-.128.065-.269.202-.423.412h-.51l.673-4.533h.441c.318 1.105.616 1.893.893 2.364.277.47.647.845 1.11 1.123.463.28.908.418 1.335.418.5 0 .913-.156 1.24-.469a1.5 1.5 0 0 0 .49-1.123c0-.426-.107-.839-.32-1.238-.214-.399-.706-1.02-1.478-1.864-1.063-1.152-1.763-2.042-2.1-2.67-.238-.456-.356-.976-.356-1.559 0-.984.357-1.804 1.071-2.46.714-.656 1.717-.984 3.01-.984.563 0 1.255.104 2.074.311.41.104.737.155.982.155.355 0 .641-.155.86-.466h.488z"/>
    <path d="M30.365 2.929l-1.14 3.696h1.524l-.477 1.558h-1.547l-2.472 8.003c-.158.497-.237.874-.237 1.132 0 .087.04.162.122.226a.435.435 0 0 0 .272.095c.154 0 .313-.064.476-.191.417-.318.902-.873 1.454-1.664l.49.3c-.629 1.091-1.32 1.891-2.074 2.4-.755.509-1.496.764-2.223.764-.619 0-1.098-.156-1.439-.467a1.536 1.536 0 0 1-.51-1.185c0-.528.126-1.205.38-2.033l2.317-7.38h-1.748l.258-1.005c1.105-.425 2.066-.923 2.883-1.493.817-.57 1.801-1.489 2.953-2.756h.738z"/>
    <path d="M55.345 18.072c.408.273.777.409 1.106.409.46 0 .846-.096 1.159-.287.494-.308 1.013-.867 1.555-1.677.543-.81.996-1.787 1.36-2.932a11.24 11.24 0 0 0 .547-3.425c0-.645-.136-1.136-.406-1.473-.271-.335-.585-.505-.941-.505-.593 0-1.11.319-1.55.952-.297.412-.62 1.284-.966 2.618l-1.864 6.32zM60.675 0l-2.413 8.18c.685-.772 1.257-1.286 1.717-1.542a3.02 3.02 0 0 1 1.495-.385c1.04 0 1.819.393 2.335 1.178.516.785.774 1.689.774 2.714 0 2.45-.871 4.636-2.612 6.558-1.546 1.697-3.305 2.544-5.277 2.544-1.466 0-3.016-.436-4.65-1.31l4.218-14.355c.196-.682.307-1.16.334-1.431a.64.64 0 0 0-.294-.554c-.275-.194-.691-.276-1.25-.248l.116-.535L59.837 0h.838z"/>
    <path d="M51.179 6.253l-3.033 9.598c-.167.55-.251.91-.251 1.08 0 .104.04.2.12.29.082.09.168.134.258.134.153 0 .306-.07.459-.212.405-.349.89-.98 1.458-1.894l.465.283c-1.381 2.477-2.85 3.716-4.404 3.716-.595 0-1.068-.165-1.42-.495-.353-.329-.53-.747-.53-1.253 0-.336.086-.764.257-1.282L46.646 9.7c.2-.627.3-1.1.3-1.418 0-.2-.092-.377-.275-.532-.184-.155-.435-.232-.754-.232-.145 0-.32.004-.522.014l.186-.535 4.756-.744h.842zM50.072 0c.568 0 1.046.196 1.435.588.388.392.583.866.583 1.423 0 .556-.197 1.03-.59 1.422-.394.393-.87.588-1.428.588-.55 0-1.02-.195-1.413-.588a1.932 1.932 0 0 1-.591-1.422c0-.557.195-1.03.584-1.423A1.923 1.923 0 0 1 50.072 0z"/>
    <path d="M39.111 8.614c0-.554-.111-.958-.333-1.212-.222-.254-.481-.381-.776-.381-.296 0-.615.15-.957.449-.657.58-1.343 1.75-2.06 3.507-.716 1.757-1.074 3.235-1.074 4.434 0 .436.078.758.236.967.157.209.332.313.527.313.323 0 .647-.145.97-.436.786-.69 1.56-1.877 2.323-3.562.763-1.684 1.144-3.044 1.144-4.08zM45.227 0l-4.616 15.209c-.294.952-.44 1.527-.44 1.726 0 .1.035.188.108.26a.321.321 0 0 0 .23.11c.154 0 .33-.078.529-.233.334-.255.74-.738 1.219-1.45l.488.26c-1.28 2.244-2.686 3.366-4.22 3.366-.544 0-.964-.143-1.259-.428-.295-.285-.442-.65-.442-1.093 0-.426.118-1.032.354-1.82l.43-1.39c-1.139 2.004-2.127 3.337-2.965 3.998-.637.489-1.257.733-1.857.733-.684 0-1.26-.277-1.729-.83-.468-.553-.703-1.36-.703-2.422 0-1.351.303-2.685.908-4 .606-1.316 1.305-2.413 2.099-3.293.793-.88 1.55-1.508 2.271-1.885.719-.376 1.428-.565 2.126-.565.357 0 .676.075.956.223.28.149.598.427.956.835l1.066-3.374c.272-.85.408-1.458.408-1.827a.717.717 0 0 0-.278-.567c-.186-.157-.433-.235-.742-.235-.145 0-.325.014-.541.04l.116-.534L44.374 0h.853z"/>
    <path d="M21.581 6.253l-.604 4.208h-.512c-.072-1.08-.405-1.933-.998-2.555-.594-.62-1.23-.932-1.909-.932-.417 0-.76.122-1.032.367a1.15 1.15 0 0 0-.408.884c0 .291.06.563.177.816.118.255.381.6.79 1.035 1.433 1.542 2.304 2.602 2.614 3.18.31.58.464 1.198.464 1.857 0 .714-.182 1.39-.546 2.027-.364.637-.907 1.148-1.63 1.532a4.753 4.753 0 0 1-2.258.576c-.527 0-1.177-.1-1.95-.3-.509-.14-.89-.21-1.146-.21-.227 0-.405.032-.532.098-.128.065-.269.202-.423.412h-.51l.673-4.533h.441c.318 1.105.616 1.893.893 2.364.277.47.647.845 1.11 1.123.463.28.908.418 1.335.418.5 0 .913-.156 1.24-.469a1.5 1.5 0 0 0 .49-1.123c0-.426-.107-.839-.32-1.238-.214-.399-.706-1.02-1.478-1.864-1.063-1.152-1.763-2.042-2.1-2.67-.238-.456-.356-.976-.356-1.559 0-.984.357-1.804 1.071-2.46.714-.656 1.717-.984 3.01-.984.563 0 1.255.104 2.074.311.41.104.737.155.982.155.355 0 .641-.155.86-.466h.488z"/>
    <path d="M11.88.046L7.265 15.53c-.236.81-.354 1.327-.354 1.545 0 .219.084.445.252.677.168.233.349.384.545.451.195.069.783.13 1.763.184l-.149.49H0l.15-.49c.926-.018 1.571-.095 1.934-.232s.661-.36.892-.67c.232-.31.493-.962.783-1.955l2.714-9.197c.428-1.397.651-2.136.67-2.219.057-.236.086-.458.086-.667 0-.405-.126-.727-.376-.966-.251-.238-.609-.358-1.074-.358-.228 0-.679.036-1.353.108l-.117-.51L11.303.045h.577z"/>
</svg>
