<svg version="1.1" class="svg-icon" id="logo" title="1stdibs.com" viewBox="543 138 2021.4 500" xmlns="http://www.w3.org/2000/svg" xmlns:xlink="http://www.w3.org/1999/xlink">
    <g>
        <path d="M843.7,139.2L726.9,531c-6,20.5-9,33.6-9,39.1c0,5.5,2.1,11.3,6.4,17.1c4.2,5.9,8.8,9.7,13.8,11.4 c4.9,1.7,19.8,3.3,44.6,4.7l-3.8,12.4H543l3.8-12.4c23.4-0.5,39.8-2.4,48.9-5.9c9.2-3.5,16.7-9.1,22.6-17 c5.9-7.9,12.5-24.4,19.8-49.5l68.7-232.7c10.8-35.4,16.5-54.1,17-56.2c1.4-6,2.2-11.6,2.2-16.9c0-10.3-3.2-18.4-9.5-24.5 c-6.3-6-15.4-9.1-27.2-9.1c-5.8,0-17.2,0.9-34.3,2.8l-2.9-12.9l177-42.4H843.7z" />
        <path d="M1089.2,296.3l-15.3,106.5h-12.9c-1.8-27.4-10.3-48.9-25.3-64.6c-15-15.7-31.1-23.6-48.3-23.6 c-10.5,0-19.2,3.1-26.1,9.3c-6.9,6.2-10.3,13.7-10.3,22.4c0,7.3,1.5,14.2,4.5,20.7c3,6.4,9.6,15.2,20,26.2 c36.3,39,58.3,65.9,66.2,80.5c7.8,14.6,11.7,30.3,11.7,47c0,18.1-4.6,35.2-13.8,51.3c-9.2,16.1-23,29-41.3,38.8 c-18.3,9.7-37.3,14.6-57.1,14.6c-13.3,0-29.8-2.5-49.4-7.6c-12.9-3.5-22.6-5.3-29-5.3c-5.8,0-10.2,0.8-13.5,2.5 c-3.2,1.7-6.8,5.1-10.7,10.4h-12.9l17.1-114.7h11.2c8,28,15.6,47.9,22.6,59.8c7,11.9,16.4,21.4,28.1,28.4 c11.7,7.1,23,10.6,33.8,10.6c12.6,0,23.1-4,31.4-11.9c8.3-7.9,12.4-17.4,12.4-28.4c0-10.8-2.7-21.2-8.1-31.3 c-5.4-10.1-17.9-25.8-37.4-47.2c-26.9-29.1-44.6-51.7-53.1-67.6c-6-11.5-9-24.7-9-39.4c0-24.9,9-45.7,27.1-62.3 c18.1-16.6,43.5-24.9,76.1-24.9c14.3,0,31.8,2.6,52.5,7.9c10.4,2.6,18.7,3.9,24.9,3.9c9,0,16.2-3.9,21.8-11.8H1089.2z" />
        <path d="M1311.5,212.1l-28.9,93.5h38.6l-12.1,39.4H1270l-62.6,202.6c-4,12.6-6,22.1-6,28.6c0,2.2,1,4.1,3.1,5.7 c2.1,1.6,4.4,2.4,6.9,2.4c3.9,0,7.9-1.6,12-4.8c10.6-8.1,22.8-22.1,36.8-42.1l12.4,7.6c-15.9,27.6-33.4,47.9-52.5,60.7 c-19.1,12.9-37.9,19.3-56.3,19.3c-15.6,0-27.8-3.9-36.4-11.8c-8.6-7.9-12.9-17.9-12.9-30c0-13.3,3.2-30.5,9.7-51.4l58.6-186.8 h-44.2l6.5-25.4c28-10.8,52.3-23.4,73-37.8c20.7-14.4,45.6-37.7,74.7-69.7H1311.5z" />
        <path d="M1687.6,138l-116.8,384.9c-7.4,24.1-11.1,38.6-11.1,43.7c0,2.5,0.9,4.7,2.7,6.6c1.8,1.8,3.8,2.8,5.8,2.8 c3.9,0,8.3-2,13.4-5.9c8.5-6.5,18.7-18.7,30.9-36.7l12.4,6.6c-32.4,56.8-68,85.2-106.8,85.2c-13.8,0-24.4-3.6-31.9-10.8 c-7.5-7.2-11.2-16.4-11.2-27.7c0-10.8,3-26.1,9-46.1l10.9-35.2c-28.8,50.7-53.8,84.4-75,101.2c-16.1,12.4-31.8,18.6-47,18.6 c-17.3,0-31.9-7-43.7-21c-11.9-14-17.8-34.4-17.8-61.3c0-34.2,7.7-67.9,23-101.2c15.3-33.3,33-61.1,53.1-83.3 c20.1-22.3,39.2-38.2,57.5-47.7c18.2-9.5,36.2-14.3,53.8-14.3c9.1,0,17.1,1.9,24.2,5.6c7.1,3.8,15.1,10.8,24.2,21.1l27-85.4 c6.9-21.5,10.3-36.9,10.3-46.2c0-5.6-2.4-10.4-7-14.3c-4.7-4-11-5.9-18.8-5.9c-3.7,0-8.2,0.3-13.7,1l2.9-13.5L1666,138H1687.6z M1532.8,356c0-14-2.8-24.2-8.4-30.7c-5.6-6.4-12.2-9.7-19.7-9.7c-7.5,0-15.6,3.8-24.2,11.4c-16.6,14.7-34,44.3-52.1,88.8 c-18.1,44.5-27.2,81.9-27.2,112.2c0,11,2,19.2,6,24.5c4,5.3,8.4,7.9,13.3,7.9c8.2,0,16.4-3.7,24.6-11 c19.9-17.5,39.5-47.5,58.8-90.1C1523.1,416.6,1532.8,382.2,1532.8,356z" />
        <path d="M1810.2,138c14.4,0,26.5,5,36.3,14.9c9.8,9.9,14.8,21.9,14.8,36c0,14.1-5,26.1-14.9,36 c-10,9.9-22,14.9-36.1,14.9c-13.9,0-25.8-5-35.8-14.9c-10-9.9-14.9-21.9-14.9-36c0-14.1,4.9-26.1,14.8-36 C1784.1,143,1796.1,138,1810.2,138z M1838.2,296.3l-76.7,242.9c-4.2,13.9-6.4,23-6.4,27.3c0,2.6,1,5.1,3.1,7.3 c2.1,2.3,4.2,3.4,6.5,3.4c3.9,0,7.7-1.8,11.6-5.4c10.2-8.8,22.5-24.8,36.9-47.9l11.8,7.2c-35,62.7-72.1,94-111.5,94 c-15,0-27-4.2-35.9-12.5c-8.9-8.3-13.4-18.9-13.4-31.7c0-8.5,2.2-19.3,6.5-32.4l52.8-165c5.1-15.9,7.6-27.8,7.6-35.9 c0-5.1-2.3-9.5-7-13.5c-4.7-3.9-11-5.9-19.1-5.9c-3.7,0-8.1,0.1-13.2,0.3l4.7-13.5l120.4-18.8H1838.2z" />
        <path d="M2078.5,138l-61.1,207c17.3-19.5,31.8-32.5,43.4-39c11.6-6.5,24.2-9.7,37.9-9.7c26.3,0,46,9.9,59.1,29.8 c13.1,19.9,19.6,42.8,19.6,68.7c0,62-22,117.3-66.1,166c-39.1,42.9-83.6,64.4-133.5,64.4c-37.1,0-76.3-11.1-117.7-33.2l106.8-363.3 c5-17.3,7.8-29.3,8.5-36.2c0-5.9-2.5-10.6-7.4-14c-6.9-4.9-17.5-7-31.6-6.3l2.9-13.5l118.2-20.6H2078.5z M1943.6,595.3 c10.3,6.9,19.7,10.4,28,10.4c11.6,0,21.4-2.4,29.3-7.3c12.5-7.8,25.6-22,39.4-42.5c13.7-20.5,25.2-45.2,34.4-74.2 c9.2-29,13.8-57.9,13.8-86.6c0-16.3-3.4-28.8-10.3-37.3c-6.9-8.5-14.8-12.8-23.8-12.8c-15,0-28.1,8-39.2,24.1 c-7.5,10.4-15.7,32.5-24.4,66.3L1943.6,595.3z" />
        <path d="M2462.1,296.3l-15.3,106.5h-12.9c-1.8-27.4-10.3-48.9-25.3-64.6c-15-15.7-31.1-23.6-48.3-23.6 c-10.5,0-19.2,3.1-26.1,9.3c-6.9,6.2-10.3,13.7-10.3,22.4c0,7.3,1.5,14.2,4.5,20.7c3,6.4,9.6,15.2,20,26.2 c36.3,39,58.3,65.9,66.2,80.5c7.8,14.6,11.7,30.3,11.7,47c0,18.1-4.6,35.2-13.8,51.3c-9.2,16.1-23,29-41.3,38.8 c-18.3,9.7-37.3,14.6-57.1,14.6c-13.3,0-29.8-2.5-49.4-7.6c-12.9-3.5-22.6-5.3-29-5.3c-5.8,0-10.2,0.8-13.5,2.5 c-3.2,1.7-6.8,5.1-10.7,10.4h-12.9l17.1-114.7h11.2c8,28,15.6,47.9,22.6,59.8c7,11.9,16.4,21.4,28.1,28.4 c11.7,7.1,23,10.6,33.8,10.6c12.6,0,23.1-4,31.4-11.9c8.3-7.9,12.4-17.4,12.4-28.4c0-10.8-2.7-21.2-8.1-31.3 c-5.4-10.1-17.9-25.8-37.4-47.2c-26.9-29.1-44.6-51.7-53.1-67.6c-6-11.5-9-24.7-9-39.4c0-24.9,9-45.7,27.1-62.3 c18.1-16.6,43.5-24.9,76.1-24.9c14.3,0,31.8,2.6,52.5,7.9c10.4,2.6,18.7,3.9,24.9,3.9c9,0,16.2-3.9,21.8-11.8H2462.1z" />
    </g>
    <g>
        <path d="M2471.2,591.3V591c0-25.4,20.6-47,46.7-47c26.1,0,46.5,21.4,46.5,46.7v0.3c0,25.4-20.6,47-46.7,47 C2491.5,638,2471.2,616.6,2471.2,591.3z M2559,591v-0.3c0-22.8-17.6-41.6-41.1-41.6c-23.6,0-41.3,19.1-41.3,41.8v0.3 c0,22.8,17.6,41.6,41.1,41.6C2541.2,632.9,2559,613.8,2559,591z M2496,564.9h24.2c8.8,0,14.4,2.2,17.9,5.7c3,3,4.5,6.7,4.5,11.8 v0.3c0,7.1-3.7,12.1-9.8,14.9l11.6,16.9h-18.8l-9.5-14.2h-0.3h-3.2v14.2H2496V564.9z M2519.7,588.4c4,0,6.4-1.7,6.4-4.8v-0.3 c0-3.1-2.6-4.6-6.3-4.6h-7.2v9.7H2519.7z" />
    </g>
</svg>