<svg version="1.1" class="dibsvg-svg dibsvg-logo-no-reg" viewBox="0 0 100 25" xmlns="http://www.w3.org/2000/svg" xmlns:xlink="http://www.w3.org/1999/xlink">
    <g>
        <path class="st0" d="M15.7,0L9.6,20.2c-0.3,1.1-0.5,1.7-0.5,2c0,0.3,0.1,0.6,0.3,0.9c0.2,0.3,0.5,0.5,0.7,0.6
                c0.3,0.1,1,0.2,2.3,0.2l-0.2,0.6H0l0.2-0.6c1.2,0,2.1-0.1,2.6-0.3c0.5-0.2,0.9-0.5,1.2-0.9c0.3-0.4,0.6-1.2,1-2.5L8.5,8.2
                c0.6-1.8,0.9-2.8,0.9-2.9C9.5,5,9.5,4.7,9.5,4.5C9.5,4,9.4,3.5,9,3.2C8.7,2.9,8.2,2.8,7.6,2.8c-0.3,0-0.9,0-1.8,0.1L5.7,2.2
                L14.9,0H15.7z"/>
        <path class="st0" d="M28.5,8.1l-0.8,5.5H27c-0.1-1.4-0.5-2.5-1.3-3.3c-0.8-0.8-1.6-1.2-2.5-1.2c-0.5,0-1,0.2-1.4,0.5
                c-0.4,0.3-0.5,0.7-0.5,1.1c0,0.4,0.1,0.7,0.2,1.1c0.2,0.3,0.5,0.8,1,1.3c1.9,2,3,3.4,3.4,4.1c0.4,0.8,0.6,1.6,0.6,2.4
                c0,0.9-0.2,1.8-0.7,2.6c-0.5,0.8-1.2,1.5-2.1,2c-1,0.5-1.9,0.7-3,0.7c-0.7,0-1.6-0.1-2.6-0.4c-0.7-0.2-1.2-0.3-1.5-0.3
                c-0.3,0-0.5,0-0.7,0.1c-0.2,0.1-0.4,0.3-0.6,0.5h-0.7l0.9-5.9h0.6c0.4,1.4,0.8,2.5,1.2,3.1c0.4,0.6,0.9,1.1,1.5,1.5
                c0.6,0.4,1.2,0.5,1.8,0.5c0.7,0,1.2-0.2,1.6-0.6c0.4-0.4,0.6-0.9,0.6-1.5c0-0.6-0.1-1.1-0.4-1.6c-0.3-0.5-0.9-1.3-1.9-2.4
                c-1.4-1.5-2.3-2.7-2.8-3.5c-0.3-0.6-0.5-1.3-0.5-2c0-1.3,0.5-2.3,1.4-3.2c0.9-0.9,2.3-1.3,4-1.3c0.7,0,1.7,0.1,2.7,0.4
                c0.5,0.1,1,0.2,1.3,0.2c0.5,0,0.8-0.2,1.1-0.6H28.5z"/>
        <path class="st0" d="M40,3.8l-1.5,4.8h2l-0.6,2h-2L34.6,21c-0.2,0.6-0.3,1.1-0.3,1.5c0,0.1,0.1,0.2,0.2,0.3
                c0.1,0.1,0.2,0.1,0.4,0.1c0.2,0,0.4-0.1,0.6-0.2c0.5-0.4,1.2-1.1,1.9-2.2l0.6,0.4c-0.8,1.4-1.7,2.5-2.7,3.1c-1,0.7-2,1-2.9,1
                c-0.8,0-1.4-0.2-1.9-0.6c-0.4-0.4-0.7-0.9-0.7-1.5c0-0.7,0.2-1.6,0.5-2.6l3.1-9.6H31l0.3-1.3c1.5-0.6,2.7-1.2,3.8-1.9
                c1.1-0.7,2.4-1.9,3.9-3.6H40z"/>
        <path class="st0" d="M59.6,0l-6.1,19.8C53.2,21,53,21.7,53,22c0,0.1,0,0.2,0.1,0.3c0.1,0.1,0.2,0.1,0.3,0.1c0.2,0,0.4-0.1,0.7-0.3
                c0.4-0.3,1-1,1.6-1.9l0.6,0.3c-1.7,2.9-3.5,4.4-5.6,4.4c-0.7,0-1.3-0.2-1.7-0.6c-0.4-0.4-0.6-0.8-0.6-1.4c0-0.6,0.2-1.3,0.5-2.4
                l0.6-1.8c-1.5,2.6-2.8,4.3-3.9,5.2c-0.8,0.6-1.7,1-2.4,1c-0.9,0-1.7-0.4-2.3-1.1S40,22.2,40,20.8c0-1.8,0.4-3.5,1.2-5.2
                c0.8-1.7,1.7-3.1,2.8-4.3c1-1.1,2-2,3-2.4c0.9-0.5,1.9-0.7,2.8-0.7c0.5,0,0.9,0.1,1.3,0.3c0.4,0.2,0.8,0.6,1.3,1.1l1.4-4.4
                c0.4-1.1,0.5-1.9,0.5-2.4c0-0.3-0.1-0.5-0.4-0.7c-0.2-0.2-0.6-0.3-1-0.3c-0.2,0-0.4,0-0.7,0.1l0.2-0.7L58.5,0H59.6z M51.6,11.2
                c0-0.7-0.1-1.2-0.4-1.6c-0.3-0.3-0.6-0.5-1-0.5c-0.4,0-0.8,0.2-1.3,0.6c-0.9,0.8-1.8,2.3-2.7,4.6c-0.9,2.3-1.4,4.2-1.4,5.8
                c0,0.6,0.1,1,0.3,1.3c0.2,0.3,0.4,0.4,0.7,0.4c0.4,0,0.9-0.2,1.3-0.6c1-0.9,2.1-2.4,3.1-4.6C51.1,14.3,51.6,12.5,51.6,11.2z"/>
        <path class="st0" d="M66,0c0.7,0,1.4,0.3,1.9,0.8c0.5,0.5,0.8,1.1,0.8,1.8c0,0.7-0.3,1.3-0.8,1.8C67.4,5,66.8,5.2,66,5.2
                c-0.7,0-1.3-0.3-1.9-0.8c-0.5-0.5-0.8-1.1-0.8-1.8c0-0.7,0.3-1.3,0.8-1.8C64.7,0.3,65.3,0,66,0z M67.5,8.1l-4,12.5
                c-0.2,0.7-0.3,1.2-0.3,1.4c0,0.1,0.1,0.3,0.2,0.4c0.1,0.1,0.2,0.2,0.3,0.2c0.2,0,0.4-0.1,0.6-0.3c0.5-0.5,1.2-1.3,1.9-2.5l0.6,0.4
                C65,23.4,63,25,61,25c-0.8,0-1.4-0.2-1.9-0.6c-0.5-0.4-0.7-1-0.7-1.6c0-0.4,0.1-1,0.3-1.7l2.8-8.5c0.3-0.8,0.4-1.4,0.4-1.8
                c0-0.3-0.1-0.5-0.4-0.7c-0.2-0.2-0.6-0.3-1-0.3c-0.2,0-0.4,0-0.7,0l0.2-0.7l6.3-1H67.5z"/>
        <path class="st0" d="M80,0l-3.2,10.6c0.9-1,1.7-1.7,2.3-2c0.6-0.3,1.3-0.5,2-0.5c1.4,0,2.4,0.5,3.1,1.5c0.7,1,1,2.2,1,3.5
                c0,3.2-1.1,6-3.4,8.5c-2,2.2-4.4,3.3-7,3.3c-1.9,0-4-0.6-6.1-1.7l5.6-18.6c0.3-0.9,0.4-1.5,0.4-1.9c0-0.3-0.1-0.5-0.4-0.7
                c-0.4-0.3-0.9-0.4-1.6-0.3l0.2-0.7L78.9,0H80z M73,23.5c0.5,0.4,1,0.5,1.5,0.5c0.6,0,1.1-0.1,1.5-0.4c0.7-0.4,1.3-1.1,2.1-2.2
                c0.7-1.1,1.3-2.3,1.8-3.8c0.5-1.5,0.7-3,0.7-4.4c0-0.8-0.2-1.5-0.5-1.9c-0.4-0.4-0.8-0.7-1.2-0.7c-0.8,0-1.5,0.4-2,1.2
                c-0.4,0.5-0.8,1.7-1.3,3.4L73,23.5z"/>
        <path class="st0" d="M100,8.1l-0.8,5.5h-0.7c-0.1-1.4-0.5-2.5-1.3-3.3c-0.8-0.8-1.6-1.2-2.5-1.2c-0.5,0-1,0.2-1.4,0.5
                c-0.4,0.3-0.5,0.7-0.5,1.1c0,0.4,0.1,0.7,0.2,1.1c0.2,0.3,0.5,0.8,1,1.3c1.9,2,3,3.4,3.4,4.1c0.4,0.8,0.6,1.6,0.6,2.4
                c0,0.9-0.2,1.8-0.7,2.6c-0.5,0.8-1.2,1.5-2.1,2c-1,0.5-1.9,0.7-3,0.7c-0.7,0-1.6-0.1-2.6-0.4c-0.7-0.2-1.2-0.3-1.5-0.3
                c-0.3,0-0.5,0-0.7,0.1c-0.2,0.1-0.4,0.3-0.6,0.5h-0.7l0.9-5.9h0.6c0.4,1.4,0.8,2.5,1.2,3.1c0.4,0.6,0.9,1.1,1.5,1.5
                c0.6,0.4,1.2,0.5,1.8,0.5c0.7,0,1.2-0.2,1.6-0.6c0.4-0.4,0.6-0.9,0.6-1.5c0-0.6-0.1-1.1-0.4-1.6c-0.3-0.5-0.9-1.3-1.9-2.4
                c-1.4-1.5-2.3-2.7-2.8-3.5c-0.3-0.6-0.5-1.3-0.5-2c0-1.3,0.5-2.3,1.4-3.2c0.9-0.9,2.3-1.3,4-1.3c0.7,0,1.7,0.1,2.7,0.4
                c0.5,0.1,1,0.2,1.3,0.2c0.5,0,0.8-0.2,1.1-0.6H100z"/>
    </g>
</svg>
