<svg xmlns="http://www.w3.org/2000/svg" class="dibsvg-svg dibsvg-logo" viewBox="543 138 2021.4 500">
    <path d="M843.7 139.2L726.9 531c-6 20.5-9 33.6-9 39.1s2.1 11.3 6.4 17.1c4.2 5.9 8.8 9.7 13.8 11.4 4.9 1.7 19.8 3.3 44.6 4.7l-3.8 12.4H543l3.8-12.4c23.4-.5 39.8-2.4 48.9-5.9 9.2-3.5 16.7-9.1 22.6-17 5.9-7.9 12.5-24.4 19.8-49.5l68.7-232.7c10.8-35.4 16.5-54.1 17-56.2 1.4-6 2.2-11.6 2.2-16.9 0-10.3-3.2-18.4-9.5-24.5-6.3-6-15.4-9.1-27.2-9.1-5.8 0-17.2.9-34.3 2.8l-2.9-12.9 177-42.4h14.6z"/>
    <path d="M1089.2 296.3l-15.3 106.5H1061c-1.8-27.4-10.3-48.9-25.3-64.6-15-15.7-31.1-23.6-48.3-23.6-10.5 0-19.2 3.1-26.1 9.3-6.9 6.2-10.3 13.7-10.3 22.4 0 7.3 1.5 14.2 4.5 20.7 3 6.4 9.6 15.2 20 26.2 36.3 39 58.3 65.9 66.2 80.5 7.8 14.6 11.7 30.3 11.7 47 0 18.1-4.6 35.2-13.8 51.3-9.2 16.1-23 29-41.3 38.8-18.3 9.7-37.3 14.6-57.1 14.6-13.3 0-29.8-2.5-49.4-7.6-12.9-3.5-22.6-5.3-29-5.3-5.8 0-10.2.8-13.5 2.5-3.2 1.7-6.8 5.1-10.7 10.4h-12.9l17.1-114.7H854c8 28 15.6 47.9 22.6 59.8 7 11.9 16.4 21.4 28.1 28.4 11.7 7.1 23 10.6 33.8 10.6 12.6 0 23.1-4 31.4-11.9 8.3-7.9 12.4-17.4 12.4-28.4 0-10.8-2.7-21.2-8.1-31.3-5.4-10.1-17.9-25.8-37.4-47.2-26.9-29.1-44.6-51.7-53.1-67.6-6-11.5-9-24.7-9-39.4 0-24.9 9-45.7 27.1-62.3 18.1-16.6 43.5-24.9 76.1-24.9 14.3 0 31.8 2.6 52.5 7.9 10.4 2.6 18.7 3.9 24.9 3.9 9 0 16.2-3.9 21.8-11.8h12.1z"/>
    <path d="M1311.5 212.1l-28.9 93.5h38.6l-12.1 39.4H1270l-62.6 202.6c-4 12.6-6 22.1-6 28.6 0 2.2 1 4.1 3.1 5.7 2.1 1.6 4.4 2.4 6.9 2.4 3.9 0 7.9-1.6 12-4.8 10.6-8.1 22.8-22.1 36.8-42.1l12.4 7.6c-15.9 27.6-33.4 47.9-52.5 60.7-19.1 12.9-37.9 19.3-56.3 19.3-15.6 0-27.8-3.9-36.4-11.8-8.6-7.9-12.9-17.9-12.9-30 0-13.3 3.2-30.5 9.7-51.4l58.6-186.8h-44.2l6.5-25.4c28-10.8 52.3-23.4 73-37.8 20.7-14.4 45.6-37.7 74.7-69.7h18.7z"/>
    <path d="M1687.6 138l-116.8 384.9c-7.4 24.1-11.1 38.6-11.1 43.7 0 2.5.9 4.7 2.7 6.6 1.8 1.8 3.8 2.8 5.8 2.8 3.9 0 8.3-2 13.4-5.9 8.5-6.5 18.7-18.7 30.9-36.7l12.4 6.6c-32.4 56.8-68 85.2-106.8 85.2-13.8 0-24.4-3.6-31.9-10.8-7.5-7.2-11.2-16.4-11.2-27.7 0-10.8 3-26.1 9-46.1l10.9-35.2c-28.8 50.7-53.8 84.4-75 101.2-16.1 12.4-31.8 18.6-47 18.6-17.3 0-31.9-7-43.7-21-11.9-14-17.8-34.4-17.8-61.3 0-34.2 7.7-67.9 23-101.2s33-61.1 53.1-83.3c20.1-22.3 39.2-38.2 57.5-47.7 18.2-9.5 36.2-14.3 53.8-14.3 9.1 0 17.1 1.9 24.2 5.6 7.1 3.8 15.1 10.8 24.2 21.1l27-85.4c6.9-21.5 10.3-36.9 10.3-46.2 0-5.6-2.4-10.4-7-14.3-4.7-4-11-5.9-18.8-5.9-3.7 0-8.2.3-13.7 1l2.9-13.5L1666 138h21.6zm-154.8 218c0-14-2.8-24.2-8.4-30.7-5.6-6.4-12.2-9.7-19.7-9.7s-15.6 3.8-24.2 11.4c-16.6 14.7-34 44.3-52.1 88.8s-27.2 81.9-27.2 112.2c0 11 2 19.2 6 24.5 4 5.3 8.4 7.9 13.3 7.9 8.2 0 16.4-3.7 24.6-11 19.9-17.5 39.5-47.5 58.8-90.1 19.2-42.7 28.9-77.1 28.9-103.3z"/>
    <path d="M1810.2 138c14.4 0 26.5 5 36.3 14.9 9.8 9.9 14.8 21.9 14.8 36 0 14.1-5 26.1-14.9 36-10 9.9-22 14.9-36.1 14.9-13.9 0-25.8-5-35.8-14.9-10-9.9-14.9-21.9-14.9-36 0-14.1 4.9-26.1 14.8-36 9.7-9.9 21.7-14.9 35.8-14.9zm28 158.3l-76.7 242.9c-4.2 13.9-6.4 23-6.4 27.3 0 2.6 1 5.1 3.1 7.3 2.1 2.3 4.2 3.4 6.5 3.4 3.9 0 7.7-1.8 11.6-5.4 10.2-8.8 22.5-24.8 36.9-47.9l11.8 7.2c-35 62.7-72.1 94-111.5 94-15 0-27-4.2-35.9-12.5-8.9-8.3-13.4-18.9-13.4-31.7 0-8.5 2.2-19.3 6.5-32.4l52.8-165c5.1-15.9 7.6-27.8 7.6-35.9 0-5.1-2.3-9.5-7-13.5-4.7-3.9-11-5.9-19.1-5.9-3.7 0-8.1.1-13.2.3l4.7-13.5 120.4-18.8h21.3z"/>
    <path d="M2078.5 138l-61.1 207c17.3-19.5 31.8-32.5 43.4-39 11.6-6.5 24.2-9.7 37.9-9.7 26.3 0 46 9.9 59.1 29.8 13.1 19.9 19.6 42.8 19.6 68.7 0 62-22 117.3-66.1 166-39.1 42.9-83.6 64.4-133.5 64.4-37.1 0-76.3-11.1-117.7-33.2l106.8-363.3c5-17.3 7.8-29.3 8.5-36.2 0-5.9-2.5-10.6-7.4-14-6.9-4.9-17.5-7-31.6-6.3l2.9-13.5 118.2-20.6h21zm-134.9 457.3c10.3 6.9 19.7 10.4 28 10.4 11.6 0 21.4-2.4 29.3-7.3 12.5-7.8 25.6-22 39.4-42.5 13.7-20.5 25.2-45.2 34.4-74.2s13.8-57.9 13.8-86.6c0-16.3-3.4-28.8-10.3-37.3-6.9-8.5-14.8-12.8-23.8-12.8-15 0-28.1 8-39.2 24.1-7.5 10.4-15.7 32.5-24.4 66.3l-47.2 159.9z"/>
    <path d="M2462.1 296.3l-15.3 106.5h-12.9c-1.8-27.4-10.3-48.9-25.3-64.6-15-15.7-31.1-23.6-48.3-23.6-10.5 0-19.2 3.1-26.1 9.3-6.9 6.2-10.3 13.7-10.3 22.4 0 7.3 1.5 14.2 4.5 20.7 3 6.4 9.6 15.2 20 26.2 36.3 39 58.3 65.9 66.2 80.5 7.8 14.6 11.7 30.3 11.7 47 0 18.1-4.6 35.2-13.8 51.3-9.2 16.1-23 29-41.3 38.8-18.3 9.7-37.3 14.6-57.1 14.6-13.3 0-29.8-2.5-49.4-7.6-12.9-3.5-22.6-5.3-29-5.3-5.8 0-10.2.8-13.5 2.5-3.2 1.7-6.8 5.1-10.7 10.4h-12.9l17.1-114.7h11.2c8 28 15.6 47.9 22.6 59.8 7 11.9 16.4 21.4 28.1 28.4 11.7 7.1 23 10.6 33.8 10.6 12.6 0 23.1-4 31.4-11.9 8.3-7.9 12.4-17.4 12.4-28.4 0-10.8-2.7-21.2-8.1-31.3-5.4-10.1-17.9-25.8-37.4-47.2-26.9-29.1-44.6-51.7-53.1-67.6-6-11.5-9-24.7-9-39.4 0-24.9 9-45.7 27.1-62.3 18.1-16.6 43.5-24.9 76.1-24.9 14.3 0 31.8 2.6 52.5 7.9 10.4 2.6 18.7 3.9 24.9 3.9 9 0 16.2-3.9 21.8-11.8h12.1z"/>
    <path d="M2471.2 591.3v-.3c0-25.4 20.6-47 46.7-47s46.5 21.4 46.5 46.7v.3c0 25.4-20.6 47-46.7 47-26.2 0-46.5-21.4-46.5-46.7zm87.8-.3v-.3c0-22.8-17.6-41.6-41.1-41.6-23.6 0-41.3 19.1-41.3 41.8v.3c0 22.8 17.6 41.6 41.1 41.6 23.5.1 41.3-19 41.3-41.8zm-63-26.1h24.2c8.8 0 14.4 2.2 17.9 5.7 3 3 4.5 6.7 4.5 11.8v.3c0 7.1-3.7 12.1-9.8 14.9l11.6 16.9h-18.8l-9.5-14.2h-3.5v14.2H2496v-49.6zm23.7 23.5c4 0 6.4-1.7 6.4-4.8v-.3c0-3.1-2.6-4.6-6.3-4.6h-7.2v9.7h7.1z"/>
</svg>
