<!-- unlimited vacation on careers -->
<svg version="1.1" class="dibsvg-svg" id="luggage" viewBox="0 0 420 518" xmlns="http://www.w3.org/2000/svg" xmlns:xlink="http://www.w3.org/1999/xlink">
    <path d="M379.7,139.7H258.3v-20.2c0-11.3-8.8-20.2-20.2-20.2h-56.3c-11.3,0-20.2,8.8-20.2,20.2v20.2H40.3
            C17.6,139.7,0,157.4,0,180v194c0,22.7,17.6,40.3,40.3,40.3h339.4c22.7,0,40.3-17.6,40.3-40.3V180C420,157.4,402.4,139.7,379.7,139.7
            z M177.7,119.6c0-2.5,1.7-4.2,4.2-4.2h56.7c2.5,0,4.2,1.7,4.2,4.2v20.2h-65.1V119.6z M40.3,398.4c-13.9,0-24.4-10.5-24.4-24.4V180
            c0-13.9,10.5-24.4,24.4-24.4h48.3v89h-16v56.7h16v97L40.3,398.4L40.3,398.4z M89,285v-24.4h16V285H89z M105,398.4v-97h16v-56.7h-16
            v-88.6h56.7h16h64.7h16H315v89h-16v56.7h16v97H105V398.4z M315,285v-24.4h16V285H315z M404,374.1c0,13.9-10.5,24.4-24.4,24.4H331
            v-97h16v-56.7h-16v-88.6h48.3c13.9,0,24.4,10.5,24.4,24.4v193.6H404z"/>
</svg>