<svg version="1.1" class="svg-icon" id="mask" viewBox="0 0 1060 518" xmlns="http://www.w3.org/2000/svg" xmlns:xlink="http://www.w3.org/1999/xlink">
    <g>
        <path d="M1044.6,5c-47,44.5-253.2,94.9-330,115.2C637.2,140.8,572,176.4,530,216.9c-42-40.5-107.2-76.1-184.6-96.6 C268.5,99.9,62.3,49.6,15.3,5c-40-37.8,9.4,148.4,21.3,186.3C98.8,388.4,142.1,389.4,268.5,411c70.6,12.1,146.6,12.3,206-1.6 c26.6-15.4,23.3-89.8,55.5-89.8c32.3,0,28.9,74.4,55.5,89.8c59.4,13.9,135.4,13.7,206,1.6c126.3-21.7,169.7-22.6,231.8-219.7 C1035.3,153.5,1084.6-32.8,1044.6,5z M441.6,306.6c-11.7,44.2-89,62.1-172.8,39.7c-83.5-22.1-142-75.9-130.3-120.2 c11.7-44.1,89.2-61.9,172.8-39.7C395.1,208.6,453.3,262.4,441.6,306.6z M793,346.3c-83.7,22.5-161,4.5-172.7-39.7 c-11.7-44.2,46.6-98,130.3-120.2c83.6-22.2,161-4.4,172.7,39.7C935,270.3,876.5,324.2,793,346.3z"/>
    </g>
</svg>