<svg xmlns="http://www.w3.org/2000/svg" class="dibsvg-svg dibsvg-megaphone" viewBox="0 0 250 250">
    <path d="M250.1,120.6c0-21.1-16-38.5-36.5-40.8V23.3c0-1.7-0.9-3.2-2.5-4c-1.5-0.8-3.3-0.6-4.7,0.4c-11.3,8.2-21,15.8-29.5,22.4 c-35.3,27.6-53,41.4-109,41.4H40.5c-10.7,0-20.8,4.2-28.5,11.8C4.4,103,0.2,113.1,0.2,123.9c0,16.4,9.9,31,24.8,37.1l8.3,55.2 c0,0.1,0,0.1,0,0.2c1.7,8.7,9.4,14.8,17.9,14.8c1.2,0,2.3-0.1,3.5-0.3c0,0,0,0,0,0c9.8-2,16.3-11.5,14.4-21.3l-6.5-45.3h5.1 c6.2,0,11.8,0.2,17.2,0.5c22.9,1.4,39.8,6,56.3,15.5c11.4,6.5,22,14.9,35.5,25.4c8.5,6.7,18.1,14.2,29.5,22.5 c0.8,0.6,1.7,0.9,2.6,0.9c0.7,0,1.4-0.2,2-0.5c1.5-0.8,2.5-2.3,2.5-4v-63C234,159.1,250.1,141.7,250.1,120.6z M60.3,210.8 c0,0.1,0,0.1,0,0.2c1,5-2.3,9.9-7.3,10.9c-5,1-9.9-2.3-10.9-7.2l-7.6-51.1c0.2,0,0.4,0.1,0.6,0.1c0.2,0,0.4,0.1,0.7,0.1 c0.3,0,0.6,0.1,0.9,0.1c0.2,0,0.4,0,0.6,0.1c0.3,0,0.7,0,1.1,0.1c0.2,0,0.4,0,0.5,0c0.5,0,1.1,0,1.6,0h13.1L60.3,210.8z M57.5,155.1 h-17c-3.5,0-6.8-0.6-10.1-1.7c-12.7-4.3-21.3-16.1-21.3-29.6c0-8.3,3.3-16.2,9.2-22.1c5.9-5.9,13.8-9.2,22.1-9.2h27.3 c4.5,0,8.8-0.1,13-0.3v63.1c-4.1-0.2-8.4-0.3-13-0.3H57.5z M182.4,198.5c-13.2-10.4-24.7-19.3-36.6-26.1 c-16.8-9.6-33.7-14.5-56-16.3V91.7c42.8-3.6,61.7-18.3,92.6-42.5c6.6-5.2,13.9-10.8,22.1-17v51.6c0,0.1,0,0.1,0,0.2s0,0.1,0,0.2 v72.7c0,0.1,0,0.1,0,0.2s0,0.1,0,0.2v58.1C196.3,209.3,189,203.6,182.4,198.5z M213.5,152.3V88.8c15.5,2.2,27.5,15.6,27.5,31.7 C241.1,136.7,229.1,150.1,213.5,152.3z"/>
</svg>
