<svg class="dibsvg-svg dibsvg-message-archive" version="1.1" id="Layer_1" xmlns="http://www.w3.org/2000/svg" xmlns:xlink="http://www.w3.org/1999/xlink" viewBox="0 0 250 250">
	<path d="M231.5,105.8V63h-12.1V30.6h-70.5c-2.5,0-4.5,2-4.5,4.5s2,4.5,4.5,4.5h61.5V63h-37.2c-2.5,0-4.5,2-4.5,4.5s2,4.5,4.5,4.5 h49.4v33.8h-58.8l-12.1,13.9H95.3l-10.4-13.9H26.5V72h47.3c2.5,0,4.5-2,4.5-4.5s-2-4.5-4.5-4.5H36.9V39.6h60.4c2.5,0,4.5-2,4.5-4.5 s-2-4.5-4.5-4.5H27.8V63H17.4v42.8H4.5l24,144.2h195.7l21.3-144.2H231.5z M216.5,241H36.2l-21-126.2h65.2l10.4,13.9h65l12.1-13.9 h67.2L216.5,241z"/>
	<path d="M100.5,71c-1.7-1.8-4.6-1.9-6.4-0.2c-1.8,1.7-1.9,4.6-0.2,6.4l25.4,26.9c0.9,0.9,2,1.4,3.3,1.4c0,0,0,0,0,0 c1.3,0,2.5-0.5,3.3-1.5l25.5-28c1.7-1.8,1.5-4.7-0.3-6.4c-1.8-1.7-4.7-1.5-6.4,0.3l-17.6,19.3V4.5c0-2.5-2-4.5-4.5-4.5 c-2.5,0-4.5,2-4.5,4.5v85.3L100.5,71z"/>
</svg>
