<svg version="1.1" class="dibsvg-svg dibsvg-message-bubble-dots" xmlns="http://www.w3.org/2000/svg" xmlns:xlink="http://www.w3.org/1999/xlink" viewBox="0 0 250 250">
	<path d="M236,8.3H14.6c-8,0-14.5,6.5-14.5,14.5v151.8c0,8,6.5,14.5,14.5,14.5h112l60.4,51.1c0.8,0.7,1.9,1.1,2.9,1.1 c0.6,0,1.3-0.1,1.9-0.4c1.6-0.7,2.6-2.3,2.6-4.1l0-47.7H236c8,0,14.5-6.5,14.5-14.5V22.8C250.5,14.8,244,8.3,236,8.3z M241.5,174.6 c0,3-2.5,5.5-5.5,5.5h-50.6v9h0l0,38l-55.6-47l-0.1,0.2l-0.1-0.1H14.6c-3,0-5.5-2.5-5.5-5.5V22.8c0-3,2.5-5.5,5.5-5.5H236 c3,0,5.5,2.5,5.5,5.5V174.6z"/>
	<circle cx="56.8" cy="100" r="19.8"/>
	<circle cx="124.8" cy="100" r="19.8"/>
	<circle cx="192.1" cy="100" r="19.8"/>
</svg>
