<svg class="dibsvg-svg dibsvg-message-unread" version="1.1" xmlns="http://www.w3.org/2000/svg" xmlns:xlink="http://www.w3.org/1999/xlink" viewBox="0 0 250 250">
    <path d="M204.1,19.2c-21.4,0-39.5,14.8-44.5,34.7c0,0,0,0,0,0H0v175.3h223V107c15.9-7.2,27-23.3,27-41.8 C250,39.8,229.4,19.2,204.1,19.2z M158.2,62.9c0,0.7-0.1,1.5-0.1,2.3c0,10.7,3.7,20.6,9.8,28.4L113.1,159L29.4,62.9H158.2z M214,220.3H9V62.9h8.5l95.7,110l61-72.9c0,0,0,0,0,0c8,6.9,18.4,11,29.8,11c3.4,0,6.7-0.4,9.9-1.1V220.3z M204.1,102.1 c-20.4,0-36.9-16.6-36.9-36.9s16.6-36.9,36.9-36.9c20.4,0,36.9,16.6,36.9,36.9S224.4,102.1,204.1,102.1z"/>
</svg>
