<svg version="1.1" class="dibsvg-svg dibsvg-more-dots" xmlns="http://www.w3.org/2000/svg" xmlns:xlink="http://www.w3.org/1999/xlink" viewBox="0 0 250 250">
    <path d="M33,158.2c-17.9,0-32.5-14.6-32.5-32.5c0-17.9,14.6-32.5,32.5-32.5s32.5,14.6,32.5,32.5C65.5,143.6,50.9,158.2,33,158.2z M33,102.2c-13,0-23.5,10.5-23.5,23.5S20,149.2,33,149.2s23.5-10.5,23.5-23.5S46,102.2,33,102.2z" />
    <path d="M125,158.2c-17.9,0-32.5-14.6-32.5-32.5c0-17.9,14.6-32.5,32.5-32.5c17.9,0,32.5,14.6,32.5,32.5 C157.5,143.6,142.9,158.2,125,158.2z M125,102.2c-13,0-23.5,10.5-23.5,23.5s10.5,23.5,23.5,23.5s23.5-10.5,23.5-23.5 S138,102.2,125,102.2z" />
    <path d="M217,158.2c-17.9,0-32.5-14.6-32.5-32.5c0-17.9,14.6-32.5,32.5-32.5s32.5,14.6,32.5,32.5 C249.5,143.6,234.9,158.2,217,158.2z M217,102.2c-13,0-23.5,10.5-23.5,23.5s10.5,23.5,23.5,23.5s23.5-10.5,23.5-23.5 S230,102.2,217,102.2z" />
</svg>
