<svg xmlns="http://www.w3.org/2000/svg" class="dibsvg-svg dibsvg-negotiable" viewBox="0 0 250 250">
    <path d="M202,70.5c-3.1-13.9-17.1-23-31.1-19.8c-14.1,3.1-23,17.1-19.8,31.1c3.1,14.1,17.1,23,31.1,19.8 C196.3,98.5,205.2,84.6,202,70.5z M180.8,94.8c-10.3,2.3-20.4-4.3-22.8-14.5c-2.3-10.3,4.3-20.4,14.5-22.8 c10.3-2.3,20.4,4.3,22.8,14.5C197.5,82.4,191,92.5,180.8,94.8z"/>
    <path d="M239.5,140.1c3.1-2.7,4.8-6.6,4.9-10.8l0.2-98.2c0-7.2-5.4-13.4-12.6-14.3l-97.3-12c-4.2-0.5-8.3,0.8-11.3,3.5L5.9,111.9 c-6,5.3-6.6,14.3-1.3,20.3l97.1,110.1c5.3,6,14.3,6.6,20.3,1.3L239.5,140.1z M112.7,239.3c-1.8,0-3.6-0.8-4.9-2.2L10.7,127 c-1.1-1.3-1.8-2.9-1.6-4.7c0-1.8,0.9-3.3,2.1-4.5L128.7,14c1.2-1.1,2.8-1.7,4.3-1.6c0.3,0,0.5,0,0.8,0l97.3,12 c3.2,0.3,5.7,3.1,5.7,6.4l-0.1,98c-0.1,2.1-0.8,3.8-2.2,5L117.1,237.5C115.9,238.7,114.3,239.4,112.7,239.3z"/>
</svg>
