<svg xmlns="http://www.w3.org/2000/svg" class="dibsvg-svg dibsvg-negotiable" viewBox="0 0 250 250">
    <path d="M83 146.623l-39.599 33.64a3.034 3.034 0 0 1-1.936.737c-.401 0-.868-.067-1.27-.268-1.067-.47-1.735-1.543-1.735-2.75v-31.924H10.682c-5.342 0-9.682-4.36-9.682-9.725V34.658C1.067 29.359 5.407 25 10.749 25h147.569c5.342 0 9.682 4.36 9.682 9.658V79h72.251c5.342 0 9.682 4.36 9.749 9.658v101.675c0 5.365-4.34 9.725-9.682 9.725H212.54v31.924c0 1.207-.668 2.28-1.736 2.75-.4.2-.868.268-1.269.268a3.034 3.034 0 0 1-1.936-.738l-40.264-34.204H92.682c-5.342 0-9.682-4.36-9.682-9.725v-43.71zm161 43.36V88.675c0-2.004-1.67-3.675-3.675-3.675H92.675C90.67 85 89 86.67 89 88.675v101.308c0 2.005 1.67 3.676 3.675 3.676h76.698l.067.067.066-.134L206.586 225v-31.341h33.74c2.004 0 3.674-1.67 3.674-3.676zm-237-54c0 2.005 1.67 3.676 3.675 3.676h33.739V171l37.08-31.408.066.134.067-.067c-.595-23.997-.595-42.073 0-54.23-.133-1.316 2.877-6.05 6.296-6.05H162V34.675c0-2.004-1.67-3.675-3.675-3.675H10.675C8.67 31 7 32.67 7 34.675v101.308z"/>
</svg>
