<svg version="1.1" class="dibsvg-icon" id="net-price" viewBox="0 0 250 250" xmlns="http://www.w3.org/2000/svg" xmlns:xlink="http://www.w3.org/1999/xlink">
    <g>
        <path d="M0,0v250h250V0H0z M241,241H9V9h232V241z"/>
        <polygon points="53,111 53,111 70.4,161 87,161 87,90 74,90 74,138 73.4,138 56.1,90 40,90 40,161 53,161  "/>
        <polygon points="147,149 121,149 121,130 145,130 145,118 121,118 121,102 146,102 146,90 107,90 107,161 147,161  "/>
        <polygon points="180,161 195,161 195,102 210,102 210,90 165,90 165,102 180,102  "/>
    </g>
</svg>