<svg xmlns="http://www.w3.org/2000/svg" class="dibsvg-svg dibsvg-note-messages" viewBox="0 0 250 250">
    <path d="M46.5 133.3h124.2c2.5 0 4.5-2 4.5-4.5s-2-4.5-4.5-4.5H46.5c-2.5 0-4.5 2-4.5 4.5s2 4.5 4.5 4.5z"/>
    <path d="M46.5 104.7h124.2c2.5 0 4.5-2 4.5-4.5s-2-4.5-4.5-4.5H46.5c-2.5 0-4.5 2-4.5 4.5s2 4.5 4.5 4.5z"/>
    <path d="M46.5 161.9h124.2c2.5 0 4.5-2 4.5-4.5s-2-4.5-4.5-4.5H46.5c-2.5 0-4.5 2-4.5 4.5s2 4.5 4.5 4.5z"/>
    <path d="M46.5 190.5h124.2c2.5 0 4.5-2 4.5-4.5s-2-4.5-4.5-4.5H46.5c-2.5 0-4.5 2-4.5 4.5s2 4.5 4.5 4.5z"/>
    <path d="M.5 36.5v213.3h216.2V36.5H.5zm207.2 204.3H9.5V45.5h198.2v195.3z"/>
</svg>
