<svg xmlns="http://www.w3.org/2000/svg" class="dibsvg-svg dibsvg-note-messages-unread" viewBox="0 0 250 250">
    <path d="M46.5,133.3h124.2c2.5,0,4.5-2,4.5-4.5s-2-4.5-4.5-4.5H46.5c-2.5,0-4.5,2-4.5,4.5S44,133.3,46.5,133.3z"/>
    <path d="M46.5,104.7h124.2c2.5,0,4.5-2,4.5-4.5s-2-4.5-4.5-4.5H46.5c-2.5,0-4.5,2-4.5,4.5S44,104.7,46.5,104.7z"/>
    <path d="M46.5,161.9h124.2c2.5,0,4.5-2,4.5-4.5s-2-4.5-4.5-4.5H46.5c-2.5,0-4.5,2-4.5,4.5S44,161.9,46.5,161.9z"/>
    <path d="M46.5,190.5h124.2c2.5,0,4.5-2,4.5-4.5s-2-4.5-4.5-4.5H46.5c-2.5,0-4.5,2-4.5,4.5S44,190.5,46.5,190.5z"/>
    <path d="M0.5,36.5v213.3h216.2V36.5H0.5z M207.7,240.8H9.5V45.5h198.2V240.8z"/>
    <circle cx="203.8" cy="65.1" r="46.3" class="dibsvg-note-message-unread-circle"/>
</svg>
