<svg class="dibsvg-svg dibsvg-offers" version="1.1" xmlns="http://www.w3.org/2000/svg" xmlns:xlink="http://www.w3.org/1999/xlink" viewBox="0 0 250 250">
<g>
	<path d="M125,0C56,0,0,56,0,125s56,125,125,125s125-56,125-125S194,0,125,0z M209.8,209.8C187.1,232.5,157,245,124.9,245
		S62.7,232.5,40,209.8S5,157,5,125s12.5-62.2,35.2-84.9S92.9,5,125,5s62.2,12.5,84.9,35.2c22.7,22.7,35.2,52.8,35.2,84.9
		S232.5,187.2,209.8,209.8z"/>
	<path d="M124.5,73.7l-58.3,58.2l51.8,51.8l58.3-58.3l7.5-30l-29.3-29.3L124.5,73.7z M168.7,121.2L117.9,172l-40-40l50.8-50.8
		l23.2-5.8L174.5,98L168.7,121.2z"/>
	<circle cx="147" cy="100.8" r="8.8"/>
</g>
</svg>
