<svg version="1.1" class="dibsvg-svg dibsvg-on-hold" xmlns="http://www.w3.org/2000/svg" xmlns:xlink="http://www.w3.org/1999/xlink" x="0px" y="0px" viewBox="0 0 250 250">
    <path d="M124.6,0.9C55.8,0.9-0.1,56.8-0.1,125.6c0,68.8,55.9,124.7,124.7,124.7c68.8,0,124.7-55.9,124.7-124.7 C249.3,56.8,193.4,0.9,124.6,0.9z M124.6,241.3c-63.8,0-115.7-51.9-115.7-115.7S60.8,9.9,124.6,9.9s115.7,51.9,115.7,115.7 S188.4,241.3,124.6,241.3z" />
    <polygon points="64,123 39,123 39,103 30,103 30,152 39,152 39,131 64,131 64,152 73,152 73,103 64,103" />
    <path d="M106.5,102.3c-14.7,0-25,10.7-25,25.3c0,14.6,10.3,25.3,25,25.3c14.7,0,25-10.7,25-25.3C131.5,113,121.2,102.3,106.5,102.3 z M106.5,145.3c-9.9,0-16.2-7.6-16.2-17.7c0-10.1,6.3-17.7,16.2-17.7c9.8,0,16.2,7.5,16.2,17.7 C122.7,137.7,116.3,145.3,106.5,145.3z" />
    <polygon points="149,103 140,103 140,152 170,152 170,144 149,144"/>
    <path d="M197.3,103H179v49h18.3c15.2,0,25.6-10.1,25.6-24.5C222.9,113.2,212.5,103,197.3,103z M197.3,144H188v-33h9.3 c10.9,0,16.8,7.1,16.8,16.5C214.1,136.8,207.9,144,197.3,144z" />
</svg>
