<svg version="1.1" class="dibsvg-svg dibsvg-on-hold-lock" xmlns="http://www.w3.org/2000/svg" xmlns:xlink="http://www.w3.org/1999/xlink" viewBox="0 0 250 250">
    <path d="M53.3,59.4c-2.4,0-4.4-2-4.4-4.4V12.3c0-2.4,2-4.4,4.4-4.4c2.4,0,4.4,2,4.4,4.4V55C57.7,57.4,55.7,59.4,53.3,59.4z"/><path d="M148.7,59.4c-2.4,0-4.4-2-4.4-4.4V12.3c0-2.4,2-4.4,4.4-4.4s4.4,2,4.4,4.4V55C153.1,57.4,151.2,59.4,148.7,59.4z"/><path d="M53.3,84.1c-8.7,0-15.8-7.1-15.8-15.8s7.1-15.8,15.8-15.8s15.8,7.1,15.8,15.8S62,84.1,53.3,84.1z M53.3,61.4c-3.8,0-7,3.1-7,7c0,3.8,3.1,7,7,7s7-3.1,7-7C60.2,64.5,57.1,61.4,53.3,61.4z"/><path d="M148.7,84.1c-8.7,0-15.8-7.1-15.8-15.8s7.1-15.8,15.8-15.8s15.8,7.1,15.8,15.8S157.4,84.1,148.7,84.1z M148.7,61.4c-3.8,0-7,3.1-7,7c0,3.8,3.1,7,7,7s7-3.1,7-7C155.7,64.5,152.6,61.4,148.7,61.4z"/><rect x="6.5" y="93.1" width="190.8" height="8.8"/><path d="M249.6,170.8h-9.6l0-14.2c0-0.5-0.5-11.6-3.9-17.7c-2.1-3.9-5.2-8.9-10.1-13.3c-5.4-4.9-12.1-8.2-19.9-9.7c-1.3-0.3-4.4-0.5-7.6-0.5c-2.7,0-4.8,0.2-6.6,0.5c-7.6,1.6-21.4,6.5-29.3,22.3c-3.8,7.7-4,18.1-4,20.1c0,1.8,0,3.1,0,4.3c0,0.6,0,1.1,0,1.6v2.6c0,0.6,0,1.2,0,2c0,0.6,0,1.3,0,2.1H148l-2,0v68l101.7,0.1l2,0v-66.1L249.6,170.8z M167.2,158L167.2,158c0-2.7,0.4-10.8,3.1-16.2c6.3-12.6,17.4-16.6,23.4-17.8c1.2-0.3,2.9-0.4,4.9-0.4c2.8,0,5.1,0.2,5.9,0.4c14,2.8,19.9,9.5,24.4,18.8c1.6,3.2,2.3,8.5,2.5,12.1c0,1,0.1,5.8,0.1,5.8l0.1,10.1l-8.9,0.1l-0.1-14l0-0.2c-0.9-9.4-4.7-16.2-11.6-21c-3.8-2.5-8.9-3.1-10.3-3.1h-1.5c-9.5,0-16.6,4.3-20.6,12.4c-1.7,3.4-2.6,5.7-3.1,8.1c-0.3,1.2-0.5,4.4-0.5,4.7l0,12.9h-7.7c0-0.9,0-1.9,0-3C167.2,164.3,167.2,160.3,167.2,158z M183.6,154.4c0.4-1.5,1.1-3.7,2.2-5.9c2.8-5.5,6.4-7.7,12.5-7.7h2c0.3,0,3.5,0.1,6.1,1.9c3.1,2.3,6.9,6,7.8,14.5l0.1,13.6l-31.3,0l0-11C183.1,158.7,183.3,155.7,183.6,154.4z M154.3,179h87l0,51.5l-86.9,0.1L154.3,179z"/><path d="M19.8,43.3h164.4c5.7,0,10.3,4.6,10.3,10.3v65.9h8.8V53.5c0-10.5-8.6-19.1-19.1-19.1H19.8C9.2,34.4,0.7,43,0.7,53.5V190c0,10.5,8.6,19.1,19.1,19.1h132v-8.8h-132c-5.7,0-10.3-4.6-10.3-10.3V53.5C9.5,47.9,14.1,43.3,19.8,43.3z"/>
</svg>
