<svg version="1.1" class="dibsvg-svg dibsvg-orange" viewBox="0 0 100 100" xmlns="http://www.w3.org/2000/svg" xmlns:xlink="http://www.w3.org/1999/xlink">
    <path d="M99.9,7.3L99.9,7.3c-0.1-0.2-0.1-0.4-0.2-0.5c-0.2-0.3-0.4-0.5-0.7-0.6c0,0-0.1,0-0.1-0.1c-1.1-0.5-28.2-11.2-42.1-3c-4,2.4-6.6,6.1-7.6,11.1c-4.2,2.1-7.1,4.2-9,5.7c-1.7-8.6-8.5-11.1-8.6-11.1c-0.9-0.3-1.9,0.2-2.2,1.1c-0.1,0.5-0.1,0.9,0.1,1.4c0.2,0.4,0.6,0.7,1,0.9c0.1,0,8.8,3.3,6,17.1C16,30,0,45.5,0,64.6C0,84.1,17,100,37.9,100s37.9-15.9,37.9-35.4c0-18.8-15.7-34.2-35.8-35.3c0.3-1.8,0.5-3.5,0.5-5.1c1.2-1.1,4.3-3.8,9.9-6.6c4.7,3.7,21.1,13.4,48.8-8.4c0.2-0.2,0.4-0.3,0.5-0.6c0.1-0.1,0.1-0.3,0.2-0.4C100,7.9,100,7.6,99.9,7.3z M53.4,12.3c1-2.6,2.7-4.6,5.2-6.1c2.9-1.7,6.9-2.6,11.8-2.6c4.5,0,9.8,0.8,15.6,2.2C73.7,6.1,62.8,8.3,53.4,12.3z M93.2,9.3c-20.8,14.6-33.8,9.8-39,6.6C65.2,11.1,78.3,8.9,93.2,9.3z M72.4,64.6c0,17.5-15.5,31.8-34.5,31.8c-19,0-34.5-14.3-34.5-31.8c0-17.5,15.5-31.8,34.5-31.8C56.9,32.8,72.4,47.1,72.4,64.6z"/>
</svg>
