<svg xmlns="http://www.w3.org/2000/svg" class="dibsvg-svg dibsvg-orange" viewBox="0 0 100 100">
    <path d="M99.9 7.3c-.1-.2-.1-.4-.2-.5-.2-.3-.4-.5-.7-.6 0 0-.1 0-.1-.1-1.1-.5-28.2-11.2-42.1-3-4 2.4-6.6 6.1-7.6 11.1-4.2 2.1-7.1 4.2-9 5.7-1.7-8.6-8.5-11.1-8.6-11.1-.9-.3-1.9.2-2.2 1.1-.1.5-.1.9.1 1.4.2.4.6.7 1 .9.1 0 8.8 3.3 6 17.1C16 30 0 45.5 0 64.6 0 84.1 17 100 37.9 100s37.9-15.9 37.9-35.4c0-18.8-15.7-34.2-35.8-35.3.3-1.8.5-3.5.5-5.1 1.2-1.1 4.3-3.8 9.9-6.6 4.7 3.7 21.1 13.4 48.8-8.4.2-.2.4-.3.5-.6.1-.1.1-.3.2-.4.1-.3.1-.6 0-.9zm-46.5 5c1-2.6 2.7-4.6 5.2-6.1 2.9-1.7 6.9-2.6 11.8-2.6 4.5 0 9.8.8 15.6 2.2-12.3.3-23.2 2.5-32.6 6.5zm39.8-3c-20.8 14.6-33.8 9.8-39 6.6 11-4.8 24.1-7 39-6.6zM72.4 64.6c0 17.5-15.5 31.8-34.5 31.8S3.4 82.1 3.4 64.6s15.5-31.8 34.5-31.8 34.5 14.3 34.5 31.8z"/>
</svg>
