<!-- snacks on careers -->
<svg version="1.1" class="dibsvg-svg" id="orange" viewBox="0 0 420 518" xmlns="http://www.w3.org/2000/svg" xmlns:xlink="http://www.w3.org/1999/xlink">
    <path d="M419.6,79.7L419.6,79.7c-0.4-0.8-0.4-1.7-0.8-2.1c-0.8-1.3-1.7-2.1-2.9-2.5c0,0-0.4,0-0.4-0.4
            c-4.6-2.1-118.4-47-176.8-12.6c-16.8,10.1-27.7,25.6-31.9,46.6c-17.6,8.8-29.8,17.6-37.8,23.9C161.7,96.5,133.1,86,132.7,86
            c-3.8-1.3-8,0.8-9.2,4.6c-0.4,2.1-0.4,3.8,0.4,5.9c0.8,1.7,2.5,2.9,4.2,3.8c0.4,0,37,13.9,25.2,71.8C67.2,175,0,240.1,0,320.3
            C0,402.2,71.4,469,159.2,469s159.2-66.8,159.2-148.7c0-79-65.9-143.6-150.4-148.3c1.3-7.6,2.1-14.7,2.1-21.4
            c5-4.6,18.1-16,41.6-27.7c19.7,15.5,88.6,56.3,205-35.3c0.8-0.8,1.7-1.3,2.1-2.5c0.4-0.4,0.4-1.3,0.8-1.7
            C420,82.2,420,80.9,419.6,79.7z M224.3,100.7c4.2-10.9,11.3-19.3,21.8-25.6c12.2-7.1,29-10.9,49.6-10.9c18.9,0,41.2,3.4,65.5,9.2
            C309.5,74.6,263.8,83.9,224.3,100.7z M391.4,88.1c-87.4,61.3-142,41.2-163.8,27.7C273.8,95.6,328.9,86.4,391.4,88.1z M304.1,320.3
            c0,73.5-65.1,133.6-144.9,133.6S14.3,393.8,14.3,320.3s65.1-133.6,144.9-133.6C239,186.8,304.1,246.8,304.1,320.3z"/>
</svg>