<svg version="1.1" class="dibsvg-svg dibsvg-affirm" xmlns="http://www.w3.org/2000/svg" viewBox="0 0 14.9 9.2">
    <path class="dibsvg-color-holder" fill="#F8F8F8" d="M0 0h14.9v9.3H0z"/>
    <g class="dibsvg-color-letters" fill="#00C8E5">
        <path d="M7.6 2.8c-.2 0-.4.2-.4.4s.2.4.4.4.4-.2.4-.4-.2-.4-.4-.4zM7.3 3.8H8v2.6h-.7zM9.9 3.8c-.3 0-.7.2-.8.5v-.5h-.6v2.6h.7V5.2c0-.5.2-.8.6-.8l.4-.6h-.3zM12.6 3.8c-.3 0-.5.1-.7.3-.2-.2-.4-.3-.7-.3-.6 0-1 .4-1 1v1.6h.6V4.8c0-.3.2-.4.4-.4s.4.2.4.4v1.6h.6V4.8c0-.3.2-.4.4-.4s.4.1.4.4v1.6h.6V4.8c0-.6-.4-1-1-1zM6.5 3.6c0-.1 0-.2.1-.2.1-.1.2-.1.3 0l.1-.6h-.1c-.3 0-.6 0-.8.1-.2.2-.3.4-.3.6v.3h-.7v-.2c0-.1 0-.2.1-.2.1-.1.2-.1.3 0l.1-.5h-.1c-.3 0-.6 0-.8.1-.2.1-.3.3-.3.6v.3h-.3v.5h.3v2.1h.7V4.3h.8v2.1h.7V4.3H7v-.5h-.5v-.2zM3.8 6.4V4.1c0-.2-.1-.4-.3-.4-.1 0-.3 0-.3.1l-2 2.5h.5c.2 0 .4-.1.5-.3l1.1-1.4v1.7h.5v.1z"/>
    </g>
</svg>
