<svg xmlns="http://www.w3.org/2000/svg" class="dibsvg-svg dibsvg-paypal" viewBox="0 0 500 312">
    <rect width="500" height="312" fill="#F8F8F8" class="dibsvg-color-holder"/>
    <g fill="#1C3664" class="dibsvg-color-left" transform="translate(0 33)">
        <path d="M240.53 20c-2.716 0-6.279 2.189-7.965 4.834 0 0-18.17 31.012-19.954 34.11-.97 1.667-1.953.608-2.117-.012-.132-.754-5.63-33.895-5.63-33.895-.619-2.668-3.418-4.958-6.919-4.947l-11.33.017c-2.73 0-4.434 2.177-3.826 4.81 0 0 8.66 48.871 10.349 60.366.842 6.357-.088 7.484-.088 7.484l-11.227 19.49c-1.644 2.643-.744 4.808 1.974 4.808l13.13-.01c2.717 0 6.318-2.155 7.937-4.802l50.507-85.048s4.83-7.266.375-7.205c-3.038.043-15.216 0-15.216 0"/>
        <path d="M145.314 71.438a33.356 33.356 0 0 1-4.976 2.55c-2.341.936-4.571 1.432-6.618 1.432-3.143 0-5.571-.445-7.21-1.39-1.638-.902-2.501-2.466-2.474-4.708 0-2.579.606-4.591 1.845-6.162 1.251-1.516 3.1-2.736 5.402-3.642 2.296-.777 5.121-1.406 8.362-1.862 2.89-.363 8.613-1.017 9.342-1.027.725-.002 1.213-.408.887 1.532-.14.843-1.793 7.593-2.55 10.658-.228.923-1.456 2.263-2.01 2.62zm22.433-47.413C162.933 21.35 155.405 20 145.1 20c-5.098 0-10.217.403-15.357 1.2-3.778.57-4.158.668-6.503 1.175-4.822 1.049-5.564 5.85-5.564 5.85l-1.548 6.343c-.876 4.052 1.445 3.884 2.475 3.57 2.1-.632 3.247-1.259 7.54-2.23 4.099-.924 8.442-1.616 11.898-1.593 5.078 0 8.933.552 11.497 1.618 2.57 1.114 3.834 3.016 3.834 5.729.017.645.03 1.256-.199 1.785-.215.5-.624.979-1.837 1.14-7.234.435-12.43 1.09-18.7 2-6.177.865-11.579 2.35-16.099 4.402-4.816 2.127-8.415 4.977-10.894 8.582-2.427 3.62-3.64 8.008-3.644 13.18 0 4.881 1.765 8.868 5.172 11.958 3.454 3.053 7.94 4.566 13.372 4.566 3.396-.023 6.05-.272 7.961-.74a40.284 40.284 0 0 0 6.102-2.083c1.629-.675 3.375-1.656 5.225-2.878 1.847-1.227 3.134-2.1 4.785-3.172l.05.1-.462 2.03c-.004.018-.03.031-.03.055l.02.031c-.53 2.454.944 4.488 3.38 4.723l.03.047h.214l.006.015c1.62 0 7.17-.009 9.756-.015h1.813c.121 0 .138-.04.176-.066 2.493-.312 4.868-2.324 5.435-4.735l9.26-39.794a22.9 22.9 0 0 0 .473-3.256c.123-1.263.258-2.292.221-3.037.022-5.636-2.413-9.799-7.212-12.475z"/>
        <path d="M107.44 12.653c-1.575-3.061-3.937-5.547-6.952-7.423-3.127-1.921-6.764-3.246-11.005-4.044C85.217.424 80.234.051 74.52 0L48.052.019c-2.75.032-5.445 2.18-6.08 4.812L24.123 82.076c-.614 2.643 1.105 4.827 3.844 4.827h12.68c2.741 0 5.457-2.127 6.073-4.827l4.369-18.745c.584-2.622 3.294-4.79 6.042-4.79h3.624c15.507-.016 27.533-3.174 36.176-9.495 8.63-6.309 12.948-14.672 12.927-25.014.02-4.542-.77-8.344-2.418-11.38m-27.376 25.24c-3.823 2.783-9.12 4.177-15.999 4.177h-3.108c-2.74 0-4.469-2.163-3.865-4.82l3.816-16.374c.582-2.639 3.315-4.827 6.055-4.802l4.149-.025c4.846 0 8.53.826 11.016 2.468 2.45 1.599 3.694 4.123 3.652 7.517.072 5.111-1.874 9.068-5.716 11.859"/>
        <path d="M0 151h231.997a5.998 5.998 0 0 1 6.003 5.995v81.01a5.994 5.994 0 0 1-6.003 5.995H0v-93z"/>
    </g>
    <g fill="#336699" class="dibsvg-color-right" transform="translate(255 33)">
        <path d="M83.458 12.64c-1.58-3.06-3.966-5.525-6.983-7.444-3.093-1.914-6.769-3.25-11.024-4.028C61.242.433 56.238.013 50.537 0L24.011.013C21.28.06 18.6 2.195 17.969 4.825L.135 82.094c-.65 2.625 1.123 4.814 3.805 4.799l12.728-.023c2.7.023 5.45-2.15 6.087-4.776l4.303-18.752c.603-2.628 3.347-4.829 6.09-4.79h3.619c15.525 0 27.562-3.176 36.182-9.497 8.598-6.354 12.926-14.687 12.926-25.052-.027-4.525-.801-8.338-2.417-11.363M56.09 37.913c-3.799 2.75-9.131 4.13-15.992 4.13h-3.155c-2.73.032-4.492-2.165-3.844-4.799l3.803-16.4c.567-2.593 3.337-4.8 6.027-4.78l4.168-.02c4.866.02 8.505.831 11.019 2.442 2.47 1.63 3.669 4.159 3.688 7.527.01 5.135-1.897 9.085-5.714 11.9"/>
        <path d="M186.517 1h-11.345l-.017.002L175.15 1c-2.597 0-5.232 1.98-5.968 4.5-.03.102-.08.2-.104.306 0 0-.27 1.229-.74 3.354l-15.583 70.323a137.77 137.77 0 0 1-.673 2.895l.03.039c-.54 2.458.944 4.491 3.38 4.718l.033.047H167.3c2.58 0 5.198-1.961 5.957-4.45.036-.12.094-.233.121-.354l16.999-76.576-.026-.009c.578-2.62-1.117-4.793-3.833-4.793"/>
        <path d="M122.314 70.838a33.19 33.19 0 0 1-4.978 2.552c-2.341.94-4.56 1.433-6.614 1.433-3.151 0-5.573-.444-7.21-1.393-1.64-.9-2.5-2.464-2.471-4.704 0-2.585.599-4.591 1.84-6.164 1.249-1.513 3.106-2.732 5.408-3.64 2.29-.773 5.107-1.41 8.358-1.866 2.89-.363 8.607-1.019 9.338-1.023.731-.006 1.217-.408.891 1.532-.145.843-1.795 7.589-2.552 10.656-.22.92-1.447 2.259-2.01 2.617zm22.433-47.411c-4.814-2.675-12.345-4.027-22.649-4.027-5.095 0-10.216.408-15.354 1.202-3.772.575-4.16.67-6.503 1.178-4.82 1.044-5.564 5.85-5.564 5.85l-1.548 6.338c-.879 4.054 1.441 3.887 2.475 3.572 2.104-.632 3.245-1.26 7.539-2.228 4.104-.928 8.44-1.622 11.9-1.595 5.075 0 8.934.554 11.499 1.62 2.566 1.114 3.837 3.012 3.837 5.727.009.645.026 1.254-.209 1.787-.21.497-.616.977-1.83 1.14-7.241.429-12.44 1.087-18.699 1.995-6.176.866-11.58 2.35-16.099 4.405-4.816 2.127-8.419 4.973-10.903 8.58-2.417 3.623-3.633 8.01-3.639 13.18 0 4.883 1.763 8.868 5.174 11.96 3.452 3.053 7.942 4.564 13.374 4.564 3.395-.023 6.051-.267 7.955-.74a40.134 40.134 0 0 0 6.11-2.083c1.623-.675 3.373-1.652 5.222-2.876 1.85-1.23 3.131-2.102 4.775-3.174l.06.102-.463 2.032c-.002.019-.03.03-.03.048l.015.039c-.528 2.447.95 4.483 3.384 4.723l.03.042h.215l.009.01c1.616 0 7.163-.002 9.756-.01h1.81c.119 0 .132-.036.179-.064 2.486-.303 4.87-2.32 5.43-4.74l9.26-39.789c.212-.936.38-2.016.481-3.26.115-1.257.252-2.29.211-3.038.021-5.631-2.409-9.793-7.21-12.47z"/>
        <path d="M208.494 16.66c-.46.064-.874.1-1.23.1-1.266 0-2.222-.34-2.876-1.013-.657-.675-.983-1.757-.983-3.245V5.971H202V4.23h1.405V.7h2.074v3.53h4.286v1.74h-4.286v5.598c0 .643.02 1.148.045 1.511.032.365.135.703.311 1.017.16.295.382.507.668.643.285.138.718.206 1.3.206.337 0 .691-.05 1.062-.15a7.5 7.5 0 0 0 .793-.247h.107v1.86c-.386.102-.808.186-1.27.252z"/>
        <path d="M230.011 16.528h-2.074V9.532c0-.527-.026-1.038-.075-1.529-.049-.492-.153-.883-.305-1.178a1.663 1.663 0 0 0-.729-.713c-.318-.161-.772-.242-1.369-.242-.584 0-1.162.145-1.746.435a10.57 10.57 0 0 0-1.744 1.104c.022.17.039.365.054.59.017.223.023.444.023.665v7.864h-2.074V9.532c0-.544-.028-1.057-.075-1.546-.047-.488-.151-.876-.303-1.17a1.668 1.668 0 0 0-.733-.71c-.316-.157-.772-.236-1.369-.236-.567 0-1.132.14-1.706.418-.57.278-1.138.633-1.707 1.066v9.174H212V4.242h2.079v1.363a9.257 9.257 0 0 1 1.94-1.255 4.866 4.866 0 0 1 2.06-.45c.837 0 1.551.177 2.138.527.584.354 1.021.84 1.309 1.464.838-.704 1.605-1.214 2.298-1.524.69-.31 1.43-.467 2.22-.467 1.355 0 2.355.41 3 1.225.643.82.967 1.961.967 3.428v7.975"/>
        <rect width="188" height="93" x="2" y="151" rx="6"/>
    </g>
</svg>
