<svg xmlns="http://www.w3.org/2000/svg" class="dibsvg-svg dibsvg-mastercard" viewBox="0 0 500 312">
    <rect width="500" height="312" fill="#F8F8F8" class="dibsvg-color-holder"/>
    <path fill="#000000" d="M139.706 289.433v-17.79c0-6.819-4.151-11.266-10.97-11.266-3.558 0-7.412 1.186-10.08 5.04-2.076-3.26-5.041-5.04-9.489-5.04-2.964 0-6.226.89-8.598 4.151v-3.558h-5.633v28.463h5.633v-16.307c0-5.04 2.965-7.412 7.116-7.412 4.15 0 6.523 2.668 6.523 7.412v16.307h5.633v-16.307c0-5.04 2.965-7.412 7.116-7.412 4.15 0 6.523 2.668 6.523 7.412v16.307h6.226zm92.505-28.166h-10.378v-8.599H216.2v8.599h-5.93v5.04h5.93v13.342c0 6.523 2.372 10.377 9.488 10.377 2.668 0 5.633-.89 7.709-2.075l-1.78-5.04c-1.778 1.185-3.854 1.482-5.336 1.482-2.965 0-4.448-1.78-4.448-4.744V266.01h10.378v-4.743zm52.775-.89c-3.558 0-6.227 1.78-7.709 4.151v-3.558h-5.633v28.463h5.633v-16.01c0-4.744 2.372-7.71 6.226-7.71 1.186 0 2.669.297 3.855.594l1.779-5.337c-1.186-.296-2.965-.593-4.151-.593zm-79.756 2.965c-2.965-2.075-7.116-2.965-11.563-2.965-7.116 0-11.563 3.262-11.563 8.895 0 4.744 3.261 7.412 9.488 8.302l2.964.296c3.262.593 5.337 1.779 5.337 3.261 0 2.076-2.372 3.558-6.819 3.558s-7.412-1.482-9.488-2.965l-2.965 4.448c4.151 2.965 9.192 3.558 12.157 3.558 8.301 0 12.749-3.855 12.749-9.192 0-5.04-3.558-7.412-9.785-8.301l-2.964-.297c-2.669-.296-5.04-1.186-5.04-2.965 0-2.075 2.371-3.558 5.632-3.558 3.558 0 7.116 1.483 8.895 2.372l2.965-4.447zm85.982 11.86c0 8.598 5.633 14.824 14.825 14.824 4.15 0 7.115-.89 10.08-3.261l-2.965-4.448c-2.372 1.78-4.744 2.669-7.412 2.669-5.04 0-8.895-3.855-8.895-9.488 0-5.633 3.855-9.488 8.895-9.488 2.668 0 5.04.89 7.412 2.669l2.965-4.448c-2.965-2.371-5.93-3.26-10.08-3.26-8.895-.594-14.825 5.632-14.825 14.23zm-39.73-14.825c-8.301 0-13.935 5.93-13.935 14.825 0 8.894 5.93 14.824 14.528 14.824 4.151 0 8.302-1.186 11.564-3.854l-2.965-4.151c-2.372 1.779-5.337 2.965-8.302 2.965-3.854 0-8.005-2.372-8.598-7.412h21.05v-2.372c0-8.895-5.336-14.825-13.342-14.825zm-.296 5.337c4.15 0 7.116 2.668 7.412 7.116h-15.417c.89-4.151 3.558-7.116 8.005-7.116zm-76.79 9.488V260.97h-5.634v3.558c-2.076-2.668-5.04-4.15-9.191-4.15-8.006 0-13.935 6.225-13.935 14.824 0 8.598 5.93 14.824 13.935 14.824 4.15 0 7.115-1.482 9.19-4.15v3.557h5.634v-14.231zm-22.83 0c0-5.337 3.26-9.488 8.894-9.488 5.337 0 8.598 4.15 8.598 9.488 0 5.633-3.558 9.487-8.598 9.487-5.633.297-8.895-4.15-8.895-9.487zm219.105-14.825c-3.558 0-6.226 1.78-7.708 4.151v-3.558h-5.634v28.463h5.634v-16.01c0-4.744 2.371-7.71 6.226-7.71 1.186 0 2.668.297 3.854.594l1.78-5.337c-1.187-.296-2.966-.593-4.152-.593zm-21.94 14.825V260.97h-5.633v3.558c-2.076-2.668-5.04-4.15-9.191-4.15-8.006 0-13.935 6.225-13.935 14.824 0 8.598 5.93 14.824 13.935 14.824 4.15 0 7.115-1.482 9.19-4.15v3.557h5.634v-14.231zm-22.83 0c0-5.337 3.262-9.488 8.895-9.488 5.337 0 8.598 4.15 8.598 9.488 0 5.633-3.558 9.487-8.598 9.487-5.633.297-8.895-4.15-8.895-9.487zm80.053 0v-25.498h-5.634v14.824c-2.075-2.668-5.04-4.15-9.191-4.15-8.005 0-13.935 6.225-13.935 14.824 0 8.598 5.93 14.824 13.935 14.824 4.15 0 7.116-1.482 9.191-4.15v3.557h5.634v-14.231zm-22.83 0c0-5.337 3.261-9.488 8.895-9.488 5.336 0 8.598 4.15 8.598 9.488 0 5.633-3.558 9.487-8.598 9.487-5.634.297-8.895-4.15-8.895-9.487z" class="dibsvg-color-letter"/>
    <rect width="102.882" height="167.813" x="198.707" y="45.126" fill="#FF5F00" class="dibsvg-color-middle"/>
    <path fill="#EB001B" d="M209.084 129.032c0-34.096 16.01-64.338 40.62-83.906-18.086-14.232-40.916-22.83-65.821-22.83-59.002 0-106.736 47.735-106.736 106.736 0 59.002 47.734 106.737 106.736 106.737 24.905 0 47.735-8.599 65.82-22.83-24.608-19.569-40.619-49.81-40.619-83.907z" class="dibsvg-color-left"/>
    <path fill="#F79E1B" d="M422.557 129.032c0 59.002-47.735 106.737-106.736 106.737-24.905 0-47.735-8.599-65.821-22.83 24.905-19.569 40.62-49.81 40.62-83.907 0-34.096-16.011-64.338-40.62-83.906 18.086-14.232 40.916-22.83 65.82-22.83 59.002 0 106.737 47.735 106.737 106.736z" class="dibsvg-color-right"/>
</svg>
