<svg version="1.1" xmlns="http://www.w3.org/2000/svg" xmlns:xlink="http://www.w3.org/1999/xlink" viewBox="0 0 73 44">
    <circle cx="35.7" cy="16.5" r="1.4"/>
    <rect x="34.5" y="18.1" width="2.4" height="9.4"/>
    <path d="M43.9,17.9c-1.2,0-2.5,0.9-3,1.9v-1.7h-2.2v9.4h2.4v-4.4c0-1.8,0.7-2.9,2.3-2.9l1.3-2.3 C44.4,17.9,44.2,17.9,43.9,17.9z"/>
    <path d="M53.4,17.9c-1,0-1.9,0.4-2.6,1.1l0,0l0,0c-0.6-0.7-1.5-1.1-2.5-1.1c-2.2,0-3.7,1.6-3.7,3.8v5.9h2.3v-5.9 c0-0.9,0.6-1.5,1.4-1.5c0.9,0,1.4,0.6,1.4,1.5v5.9H52v-5.9c0-0.9,0.6-1.5,1.4-1.5s1.4,0.6,1.4,1.5v5.9h2.3v-5.9 C57.2,19.5,55.6,17.9,53.4,17.9z"/>
    <path d="M31.9,16.4c0.3-0.2,0.7-0.2,1.1-0.2l0.5-1.7h-0.2c-1-0.1-2-0.1-2.9,0.4c-0.7,0.5-1.1,1.3-1.1,2.2v1h-2.8 v-0.9c0-0.3,0-0.7,0.3-0.9c0.3-0.2,0.7-0.2,1.1-0.2l0.5-1.7h-0.2c-1-0.1-2-0.1-2.9,0.5c-0.7,0.5-1,1.3-1,2.2v1H23v1.7h1.1v7.7h2.4 v-7.7h2.8v7.7h2.4v-7.7h1.6v-1.7h-1.6v-0.9C31.7,16.9,31.7,16.6,31.9,16.4z"/>
    <path d="M20.6,17.9c-0.5,0-0.9,0.1-1.2,0.5l-7.2,9.1H14c0.7,0,1.3-0.4,1.7-0.9l4-5.1v6h2.2v-8.3 C21.8,18.6,21.3,18,20.6,17.9z"/>
</svg>
