<svg xmlns="http://www.w3.org/2000/svg" class="dibsvg-svg dibsvg-american-express" viewBox="0 0 500 312">
    <rect width="500" height="312" fill="#F8F8F8" class="dibsvg-color-holder"/>
    <g fill="#2E77BC" class="dibsvg-color-letters" transform="translate(7.028 73.293)">
        <path d="M430.18 123.41c3.137 3.138 4.182 6.275 4.182 11.505 0 12.55-7.32 17.78-20.917 17.78H387.3V141.19h26.146c2.092 0 4.184 0 5.23-1.046 1.046-1.046 2.091-2.092 2.091-3.138 0-2.091-1.045-3.137-2.091-4.183-1.046-1.046-2.092-1.046-5.23-1.046-12.55 0-28.238 0-28.238-17.78 0-8.366 5.23-16.733 19.872-16.733h27.192v11.504h-25.1c-2.092 0-4.184 0-5.23 1.046-2.092 1.046-2.092 3.138-2.092 4.184 0 2.091 1.046 3.137 3.138 4.183 1.046 0 3.137 1.046 5.23 1.046h7.32c7.321 0 11.504 1.046 14.642 4.183zm52.292 0c3.137 3.138 4.183 6.275 4.183 11.505 0 12.55-7.321 17.78-20.917 17.78h-26.146V141.19h26.146c2.092 0 4.183 0 5.23-1.046 1.045-1.046 2.09-2.092 2.09-3.138 0-2.091-1.045-3.137-2.09-4.183-1.047-1.046-2.092-1.046-5.23-1.046-12.55 0-28.238 0-28.238-17.78 0-8.366 5.23-16.733 19.871-16.733h26.146v11.504h-25.1c-2.092 0-4.183 0-5.23 1.046-1.045 1.046-2.09 2.092-2.09 4.184 0 2.091 1.045 3.137 3.137 4.183 1.045 0 3.137 1.046 5.229 1.046h7.32c7.322 0 12.551 1.046 15.689 4.183z"/>
        <polygon points="332.915 97.264 378.932 97.264 378.932 108.768 346.511 108.768 346.511 119.227 377.887 119.227 377.887 130.731 346.511 130.731 346.511 141.19 378.932 141.19 378.932 153.74 332.915 153.74"/>
        <path d="M316.181 127.594c3.138-1.046 9.413-6.275 9.413-14.642 0-6.275-3.138-9.413-7.32-12.55-4.184-2.092-9.414-3.138-16.735-3.138h-31.375v56.476h14.642v-20.917h14.642c5.229 0 8.367 0 10.458 2.092 2.092 2.091 2.092 7.32 2.092 10.458v7.321h13.596V141.19c0-5.23 0-7.321-2.092-10.459-2.091 0-4.183-2.091-7.32-3.137zm-8.366-7.321c-2.092 1.046-4.184 1.046-6.276 1.046h-16.733v-12.55h16.733c2.092 0 5.23 0 6.276 1.045 2.091 1.046 3.137 3.138 3.137 5.23 0 2.091-1.046 4.183-3.137 5.229zm-65.889-23.009H198l-17.78 18.825-16.733-18.825h-54.384v56.476h54.384l17.78-18.825L198 153.74h26.147v-18.825h16.733c11.505 0 24.055-3.138 24.055-18.826 0-15.687-12.55-18.825-23.009-18.825zm-85.76 43.926H122.7v-11.505h30.33v-11.504H122.7v-10.458h34.513l14.642 16.733-15.688 16.734zm54.385 7.32l-20.917-23.008 20.917-21.963v44.972zm31.375-25.1h-17.78v-14.642h17.78c5.23 0 8.367 2.092 8.367 7.321 0 4.184-3.138 7.321-8.367 7.321zM450.05 56.476h-18.825l-26.146-41.834v41.834h-27.192l-5.23-12.55H344.42l-5.229 12.55h-15.688c-6.275 0-14.642-1.046-19.87-6.275-5.23-4.184-8.368-10.459-8.368-20.917 0-8.367 1.046-15.688 7.321-21.963 4.184-4.183 11.505-6.275 20.917-6.275h13.596V12.55h-12.55c-5.23 0-7.32 1.046-10.458 3.138-3.138 3.137-4.184 7.32-4.184 13.596 0 6.275 1.046 10.458 4.184 13.596 2.091 2.092 6.275 3.137 9.412 3.137h6.275l17.78-44.971h20.917l23.009 53.338V1.046H412.4l24.054 38.696V1.046h13.596v55.43zM366.382 32.42l-9.412-21.96-9.413 21.962h18.825z"/>
        <polygon points="275.393 1.046 288.989 1.046 288.989 56.476 275.393 56.476"/>
        <path d="M257.614 30.33c3.137-1.046 9.412-6.275 9.412-14.642 0-6.275-2.091-9.413-7.32-12.55C255.521 1.046 250.292 0 242.971 0h-31.376v56.476h13.596V35.559h14.642c5.23 0 8.367 0 9.413 2.092 2.092 3.137 2.092 7.32 2.092 10.458v7.321h13.596V43.926c0-5.23 0-7.321-2.092-10.459 0 0-2.092-1.046-5.23-3.137zm-8.367-6.275c-2.092 1.045-4.183 1.045-6.275 1.045h-16.734V12.55h16.734c2.092 0 5.23 0 6.275 1.046 2.092 1.046 3.138 2.092 3.138 5.23 0 2.091-1.046 4.183-3.138 5.229z"/>
        <polygon points="203.23 56.476 157.212 56.476 157.212 1.046 203.23 1.046 203.23 12.55 170.808 12.55 170.808 23.009 202.184 23.009 202.184 34.513 170.808 34.513 170.808 44.972 203.23 44.972"/>
        <path d="M147.8 56.476h-13.597V12.55l-19.87 43.926h-11.505L81.911 12.55v43.926H54.719l-5.23-12.55H21.253l-5.23 12.55H.335L24.389 0H44.26l23.01 53.338V1.046h21.962l17.78 37.65 16.733-37.65h23.009l1.046 55.43zM44.26 32.42l-9.412-21.96-9.413 21.96H44.26z"/>
    </g>
</svg>
