<svg xmlns="http://www.w3.org/2000/svg" class="dibsvg-svg dibsvg-pineapple" viewBox="0 0 250 250">
    <path d="M188.5 105.1c-5-12.8-15.7-29.2-38-37.2l30.6-35.6-26.8 8.3 16-29.6-25.9 16 9-26L125 29.8 95.2-.4l8.9 25.6L79.3 8.1l17 33.5-27.6-8.4 29.1 34.6c-4.2 1.6-12.4 5.3-20.7 12.4-10.7 9.3-23.6 26.3-24.1 55.1v46.8c0 1.4.4 13.4 2 18.7 4.2 14.4 19.1 47.9 67.2 48 .5 0 2 .1 4.2.1 7.2 0 21.4-1 35-7.6 17.3-8.4 28-22.7 31.7-42.6.4-2.2.8-11.2 1-13.9V133c-.1-1.1 0-13.7-5.6-27.9zm-8.7 86.7l5.1-5.1c-.2 3.9-.4 7.9-.6 9.7l-4.5-4.6zm-56.3 47.6l-21.1-21.1 21.2-21.2 21 21.2-21.1 21.1zm-8.3.1c-10.8-.9-19.4-3.7-26.3-7.7l9.3-9.3 17 17zM63 195.4c-.4-2.6-.7-5.9-.9-9l4.9 4.9-4 4.1zm-1-60.5l4.5 4.5-4.5 4.5v-9zm109.9 5.6l-21.6 21.6-22.9-23 21.7-21.9 22.8 23.3zM153.3 113l18.8-19c9.4 12.1 12 26.2 12.7 33.7l-8.6 8.6-22.9-23.3zm-7.3 53.4l-22.3 22.2-22.8-22.9 22.1-22.3 23 23zm-22.9-31.6l-21.6-21.7 22.1-21.9 21.3 21.7-21.8 21.9zm-4.3 4.3l-22.1 22.3L75 139.5l22.3-22.1 21.5 21.7zm-48-3.9l-8.2-8.2c1.7-13.9 6.7-24.2 12.6-31.8L93 113.1l-22.2 22.1zM62 177.8v-25.4l8.7-8.7 21.8 21.9L71.3 187l-9.3-9.2zm34.7-7.9l22.7 22.9L98.2 214l-22.7-22.8 21.2-21.3zm31.2 22.9l22.3-22.2 21.1 21.2L149 214l-21.1-21.2zm26.6-26.4l21.6-21.6 8.9 9.1v24.2l-9.5 9.4-21-21.1zm30.5-21.1l-4.7-4.8 4.7-4.7v9.5zm-16.9-55.9L149 108.6 127.8 87l12.9-12.8c1.3.4 2.1.6 2.1.6l.3.1c11 3.2 19.1 8.4 25 14.5zm-44.5-6.7l-9.7-9.9c3.2-.5 6.5-.8 9.8-.8 3.7 0 7.1.3 9.9.7l-10 10zM104.8 15L125 35.5l18.9-19.2-4.8 13.9-14.7 9L109.6 29l-4.8-14zm-9.4 11.5l28.9 19.9 30.1-18.6-8.4 15.4-22 6.8-19.7-6-8.9-17.5zM124 57.3l25-7.8.3.2.2-.3 10.4-3.2-16.7 19.4c-3.6-1-10.7-2.6-19.5-2.6-6.4 0-12.7.8-18.7 2.5L89.3 46.8 124 57.3zm-20.9 18.2l.3-.1c1.2-.4 2.4-.8 3.6-1.1L119.4 87l-22.1 21.9-18.2-18.2c10.9-11.4 23.1-14.9 24-15.2zM64.8 202.1l6.5-6.5L94 218.3l-10.2 10.2c-10.4-7.7-16-18-19-26.4zm66.8 37.7l17.3-17.3 10 10c-.5.3-1 .5-1.5.8-9.3 4.5-18.9 6-25.8 6.5zm32.6-10.4l-11-11.1 22.3-22.3 7.2 7.3c-3.2 11.2-9.4 19.9-18.5 26.1z"/>
</svg>
