<svg version="1.1" class="dibsvg-svg dibsvg-placeholder-furniture" xmlns="http://www.w3.org/2000/svg" viewBox="0 0 250 250" xmlns:xlink="http://www.w3.org/1999/xlink">
    <path d="M124,237.1l-39,12.7l-2.8-8.5l24.6-8l-16.1-4.7l2.6-8.6l26.7,7.7v-26.4c-8.7-1-47.6-7.3-70.5-44.7
	C46.9,153,34.1,131.9,31,75.6c0-0.3-3.1-35.8,4.4-58.7C36.9,11,42,1,51.9,1c3.2,0,6.5,1.1,10,3.3c2.4,1.4,15.2,8,39.2,8
	c6,0,12.2-0.4,18.5-1.2l22.1-4.5c0,0,6.8-1.9,15-1.9c10.1,0,18,3,22.7,8.7c2.3,2.3,9,11.2-1,28.6l-0.2,0.3
	c-0.2,0.3-20.7,30.4-22.9,55.3l-0.1,0.5c-0.3,1.1-0.5,4.5,1.2,6.6c1.1,1.4,3.3,2.1,6.2,2.1h0.4c0,0,3.2-0.1,9.8-2.1
	c2-0.6,12.2-3.6,22.1-3.6c6.4,0,11.7,1.3,15.5,4c1.4,1,13.3,10.6,2.6,39.6l-0.1,0.2l-6.2,14c-1.2,2.7-5.9,12.1-16.1,21.6
	c-10.6,9.7-29.4,21.3-58.5,21.3c-0.6,0-1.3,0-1.9-0.1c-0.4,0-0.7,0-1.1,0v25.7l26-7.6l2.3,8.6l-16.1,4.7l24.6,8l-2.8,8.5L124,237.1z
	 M51.9,10.1c-5.3,0-7.8,9.2-7.9,9.3l-0.1,0.4c-6.2,18.7-4.5,49.2-4.1,55.1c0,0.2,0,0.3,0,0.3c2.9,54.6,15.2,74.4,16.6,76.5l0.1,0.1
	l0.2,0.2c22.8,37.3,64.5,40.7,64.9,40.7c3.8,0.3,7,0.5,9.9,0.5c33.4,0,51.8-16.4,60.5-27.6c-10.3,6.3-20.5,7.5-25.8,7.7h-2
	c-3.8,0-11.9-0.2-15.2-1.1c-8.7-2.2-16.7-8.1-23.9-17.4c-5.1-6.6-8.1-13-8.9-14.8c-3.3-7.7-7.3-15.5-11.4-21.9l-0.1-0.2
	c-2.4-2.8-5.3-4.3-8.7-4.3c-4,0-7.2,2.1-7.2,2.1c-1.5,0.9-4.5,3.6-8.7,7.8l-0.4,0.3c-2.2,1.7-4.5,2.6-7,2.6c-0.7,0-1.4-0.1-2.1-0.2
	c-6.5-1.3-10.7-8.3-11.6-9.8l-0.1-0.1l0-0.1c-7.3-14.7-6.4-29.5-6.4-29.6c0-15,4.3-26.3,5.2-28.5c7.7-17.7,8.2-35.1,8.1-42.1
	c-5.9-2.2-8.6-4-8.6-4C54.9,10.6,53.3,10.1,51.9,10.1z M132.2,149.7c4.1,5.3,10.4,11.6,18.6,13.7c1.9,0.5,8.8,0.9,13.4,0.9
	c0.5,0,1,0,1.4,0c7.1-0.2,20.4-2.4,31.4-14.7c-5.9-0.3-17-0.6-31.1-0.6C154.3,149,143,149.3,132.2,149.7z M123.9,136.4
	c0.1,0.4,0.9,2.1,2.4,4.6c12.6-0.7,26-1,39.8-1c19.2,0,33.6,0.7,38.1,0.9c8.1-21.9,0.7-28.6,0.6-28.7c-2.2-1.4-5.7-2.2-10.2-2.2
	c-7.3,0-15.2,1.9-19.2,3.1c-0.2,0-0.2,0.1-0.3,0.1c-8.1,2.5-12.2,2.5-12.4,2.5h-0.5c-5.9,0-10.3-1.8-13.1-5.4
	c-4.3-5.4-3.3-12.3-3.1-13.6c2.5-27.3,23.5-57.9,24.4-59.2c7.1-12.5,3-17.1,2.6-17.6l-0.4-0.3l-0.2-0.4c-3.5-4.6-10.5-5.6-15.8-5.6
	c-4,0-8.5,0.5-12.7,1.5c-0.1,0-0.1,0-0.2,0l-0.2,0.1l-22.8,4.6c-6.2,0.8-12.3,1.2-18.2,1.2c0,0,0,0,0,0c-0.5,0-1,0-1.5,0
	c-9.2,0-18-1-26.3-2.9c-0.1,8.9-1.3,25.8-8.9,43.1l0,0.1l0,0.1c0,0-4.5,10.6-4.5,25.1v0.2c0,1.4-0.2,13.5,5.5,25.3
	c1.1,2,3.6,5.1,5.4,5.4c0.1,0,0.2,0,0.3,0c0.3,0,0.8-0.2,1.2-0.5c0.2-0.2,0.6-0.5,1-1c2.2-2.1,6.4-6.1,8.9-7.8
	c1.2-0.9,5.9-3.7,12.2-3.7c4.2,0,10.4,1.3,15.6,7.7l0.3,0.4c1.5,2.3,6.8,10.9,12.2,23.5L123.9,136.4L123.9,136.4z"/>
</svg>
