<svg xmlns="http://www.w3.org/2000/svg" class="dibsvg-svg dibsvg-placeholder-fashion" viewBox="0 0 250 250">
    <path d="M214.4,90.6c5.1-13.9,5.4-25.2,5.5-26.8c0.2-3.3-0.6-6-2.4-7.9c-1.7-1.8-3.9-2.5-5.5-2.5h-28c-18.4-33.5-38-50-58.3-49.2 C96.4,5.5,76.5,42.8,71.5,53.4H38.3c-6.5,0-9.2,4.9-9.5,8.1l0,0.2l0,0.2c0,0.6,0.3,12.5,5.8,27.2c-5.4,9.3-26.7,50.5-34.4,132 l-0.1,1.3l0.6,1.2c0.4,0.8,2.3,3.8,8.1,7.4c7.3,4.6,17.8,8.3,31,10.9l0.2,0c0.6,0.1,40.4,5.6,89,5.6c24.4,0,51.1-1.4,76.1-5.6 c3-0.2,25.2-1.9,42.3-15.3l1.7-1.3l0.1-2.1C249.2,221,250.5,163,214.4,90.6z M126.1,13.3c15.8-0.7,31.7,12.8,47.6,40.2H81.6 C88.1,41,104.7,14.2,126.1,13.3z M38.3,62.4h172.5c0,0.2,0,0.5,0,0.8l0,0.3c0,0.2-0.1,15.2-8.2,31.6c-10.7,21.5-29.5,34.8-56.1,39.6 v-12.3c0-4.7-3.8-8.5-8.5-8.5h-18.3c-4.7,0-8.5,3.8-8.5,8.5V135c-29.8-3.2-51.2-16.3-63.5-38.9c-8.4-15.4-9.6-30.4-9.8-33.6 C38,62.5,38.1,62.4,38.3,62.4z M120.2,149.1v-26h17.3v26H120.2z M124.8,158.1h7.3v7.7l-3.7,4.5l-3.6-3.6V158.1z M204.5,233.1 l-0.6,0.1c-72.2,12.2-158.9,0.5-162.5,0c-21.9-4.3-29.8-10.6-32.1-12.9c6.5-66.4,22.5-105.3,30-120.6c0.1,0.1,0.1,0.3,0.2,0.4 c9.6,17.8,29.7,39.9,71.6,44.1v5.5c0,3.3,1.9,6.2,4.7,7.6v13.3l13.4,13.1l12-14.5v-11.6c3.1-1.3,5.3-4.3,5.3-7.9V144 c36.3-6.1,54.3-26.1,63.1-42.7C237.8,161,240,210.4,240.2,221C224.7,232.1,204.7,233.1,204.5,233.1z"/>
</svg>
