<svg version="1.1" class="dibsvg-svg dibsvg-placeholder-jewelry" xmlns="http://www.w3.org/2000/svg" viewBox="0 0 250 250" xmlns:xlink="http://www.w3.org/1999/xlink">
    <path d="M157.8,70.1l32.1-36L156.1-0.2H95.4L60,34.7l32.1,35.5C57,83.5,32,117.4,32,157.2c0,51.3,41.7,93,93,93
		s93-41.7,93-93C218,117.4,192.9,83.4,157.8,70.1z M148.7,66.8c-2.2-0.5-4.5-0.9-6.8-1.3L158,38.9h15.6L148.7,66.8z M132.7,64.5
		c-2.5-0.2-5.1-0.3-7.7-0.3c-2.8,0-5.6,0.1-8.3,0.4c-0.1-0.1-0.1,0-0.1,0l0.4-0.3l-14.2-25.4h44.7l-15.3,25.3L132.7,64.5z M99.1,8.8
		h53.3l20.7,21.1H77.7L99.1,8.8z M76,38.9h16.4l15,26.7c-2.5,0.4-4.6,0.8-6.1,1.2L76,38.9z M125,241.2c-46.3,0-84-37.7-84-84
		c0-44.3,34.4-80.6,77.9-83.8c2-0.1,4-0.2,6.2-0.2c1.9,0,3.7,0.1,5.5,0.2c43.7,2.9,78.3,39.4,78.3,83.8
		C209,203.5,171.3,241.2,125,241.2z"/>
    <path d="M125.2,81.5c-42.1,0-76.4,34.3-76.4,76.4c0,42.1,34.3,76.4,76.4,76.4s76.4-34.3,76.4-76.4
		C201.6,115.8,167.3,81.5,125.2,81.5z M125.2,225.3c-37.2,0-67.4-30.3-67.4-67.4c0-37.2,30.3-67.4,67.4-67.4
		c37.2,0,67.4,30.3,67.4,67.4C192.6,195.1,162.3,225.3,125.2,225.3z"/>
</svg>
