<svg version="1.1" class="dibsvg-svg dibsvg-price-match" viewBox="0 0 250 250" xmlns="http://www.w3.org/2000/svg" xmlns:xlink="http://www.w3.org/1999/xlink">
	<path d="M113.9,38.2c-8.3,0-15.1,6.8-15.1,15.1c0,8.3,6.8,15.1,15.1,15.1c8.3,0,15.1-6.8,15.1-15.1C128.9,45,122.2,38.2,113.9,38.2z M113.9,59.3c-3.3,0-6.1-2.7-6.1-6.1s2.7-6.1,6.1-6.1s6.1,2.7,6.1,6.1S117.2,59.3,113.9,59.3z"/>
	<path d="M72.5,154l-0.4,0.4c-2.2,2.9-4.4,4.2-6.7,4.2h0c-3,0-5.9-2.2-6.7-3L9.8,105.2c-2.4-4.6,1.9-8.7,2.4-9.2l0.1-0.1l73.4-74l49.5,1.9c5.5,0.6,6.2,5,6.3,6.3l5.3,47.4l-7.5,7.7c3.1,1,6,2.3,8.7,4l8.2-8.4l-5.7-51.2c-0.3-4.8-3.6-13.8-14.6-14.8l-53.8-2.1L6.2,89.4c-3.8,3.4-9.3,11.9-3.9,20.9l0.3,0.4L52.3,162c0.6,0.6,5.9,5.7,13.1,5.7c0,0,0,0,0,0c3.6,0,8.9-1.3,13.7-7.6l13.2-13.6c-1.7-2.7-3.1-5.5-4.2-8.6L72.5,154z"/>
	<path d="M206.8,138.5c8.3,0,15.1-6.8,15.1-15.1c0-8.3-6.8-15.1-15.1-15.1c-8.3,0-15.1,6.8-15.1,15.1C191.8,131.8,198.5,138.5,206.8,138.5z M206.8,117.4c3.3,0,6.1,2.7,6.1,6.1s-2.7,6.1-6.1,6.1s-6.1-2.7-6.1-6.1S203.5,117.4,206.8,117.4z"/>
	<path d="M243.4,99.8c-0.3-4.8-3.6-13.8-14.6-14.8L175,83l-15.9,16.1c1.9,2.4,3.5,5.1,4.9,7.9l14.7-14.8l49.5,1.9c5.5,0.6,6.2,5,6.3,6.3l5.3,47.4l-74.3,76.4l-0.4,0.4c-2.2,2.9-4.4,4.2-6.7,4.2c-3,0-5.9-2.2-6.7-3l-48.9-50.5c-2.4-4.6,1.9-8.7,2.4-9.2l0.1-0.1l4.5-4.5c-2.8-1.3-5.5-2.9-7.9-4.8l-2.7,2.7c-3.8,3.4-9.4,11.9-3.9,20.9l0.3,0.4l49.7,51.3c0.6,0.6,5.9,5.7,13.1,5.7h0c3.6,0,8.9-1.3,13.7-7.6l77-79.3L243.4,99.8z"/>
	<path d="M139.9,120.2h-25.8c-2.5,0-4.5-2-4.5-4.5s2-4.5,4.5-4.5h25.8c2.5,0,4.5,2,4.5,4.5S142.4,120.2,139.9,120.2z"/>
	<path d="M139.9,138.8h-25.8c-2.5,0-4.5-2-4.5-4.5s2-4.5,4.5-4.5h25.8c2.5,0,4.5,2,4.5,4.5S142.4,138.8,139.9,138.8z"/>
	<path d="M126.8,165.4c-22.6,0-41-18.4-41-41s18.4-41,41-41c22.6,0,41,18.4,41,41S149.4,165.4,126.8,165.4z M126.8,92.3c-17.7,0-32,14.4-32,32s14.4,32,32,32s32-14.4,32-32S144.5,92.3,126.8,92.3z"/>
</svg>
