<svg version="1.1" class="dibsvg-svg" id="print" viewBox="0 0 250 250" xmlns="http://www.w3.org/2000/svg" xmlns:xlink="http://www.w3.org/1999/xlink">
    <path d="M63,250v-40H35.1c-3,0-12.9-0.7-20.5-7.8C9.2,197,6,189.6,7,180.5v-107c0-1.3,0-13.4,8.6-21.3c4.8-4.6,11.1-6.9,19.1-6.9
            c0.6,0,1.4,0,2.1,0l12.2,0V32.6l-0.2-0.1c0.5-7.1,6.3-9.7,9.4-10.1l0,0l4.8-0.1V0h124v22.1l5.3,0.1l0.1,0c3.1,0.4,9,3,9.6,10.1
            l0,0.1V46h10.8c0.6,0,1.3-0.5,1.9-0.5c7.9,0,14.5,2.1,19.3,6.7c8.8,8.3,9,20.6,9,21.1v107.1c0,9.3-2.6,16.5-8.4,21.9
            c-7.3,7-17.8,7.8-20.8,7.8H187v40H63z M177,239v-57H74v57H177z M34.4,55.2c-5,0-9,1.3-11.8,4c-5.5,5.1-5.6,14-5.6,14.1v80.5
            c8-8.6,21.5-9.8,27.2-9.8c1.2,0,2-0.1,2.3-0.1h159.1c14.2,0,22.4,4.7,27.4,9.5V73.3c0-0.4-0.3-8.9-5.9-14.1c-2.8-2.7-6.9-4-11.9-4
            c-0.6,0-1.2,0-1.8,0.1l-177.1,0C35.6,55.3,35,55.2,34.4,55.2z M177,44V10H74v34H177z"/>
</svg>
