<svg xmlns="http://www.w3.org/2000/svg" class="dibsvg-svg dibsvg-wreath-professional" viewBox="0 0 250 250">
    <path style="opacity:.25" d="M249.7 101.6s-7.5-1.7-17 3.3c-5 2.6-8 8.1-9.7 13.2-.2-7.6-1.4-15.8-3.8-24.5 17.6-6 20.2-18.4 20.2-18.4 1.4-10.3-3.8-16.5-3.8-16.5s-7.7.5-15.1 8c-4.1 4.1-5 10.5-4.9 16.2-1-2.5-2-5-3.2-7.5l-.1-.1c-.3-.6-3.4-6.7-9.4-14.7C217.3 48 213.8 35 213.8 35c-3.4-9.8-11-13.4-11-13.4s-6.7 3.5-10 13.1c-2 5.9.8 12.8 3.9 18.1-5.5-6.3-12.4-13-20.7-18.7-2.4-14.7-13-19.8-13-19.8-10.3-4.2-18.2-1.4-18.2-1.4s-1.7 6.9 4 15.6c3.5 5.3 11.1 8 17.5 9.4 23.6 13.8 37.2 39.3 37.9 40.7 14.2 31.3 13.3 60.1-2.9 85.5-12.2 19.1-28.9 29.2-29.1 29.3-21.1 12.7-43.2 15.1-43.4 15.1l-.4.1-3 .6-3-.6-.4-.1c-.2 0-22.3-2.4-43.4-15.1-.2-.1-16.9-10.2-29.1-29.3-16.2-25.4-17.2-54.2-2.9-85.5.7-1.4 14.3-26.9 37.9-40.7 6.4-1.4 14-4.1 17.5-9.4 5.6-8.7 4-15.6 4-15.6s-8-2.8-18.2 1.4c0 0-10.6 5.1-13 19.8-8.3 5.6-15.2 12.3-20.7 18.7 3.1-5.3 5.9-12.2 3.9-18.1-3.3-9.6-10-13.1-10-13.1S40.4 25.2 37 35c0 0-3.5 12.9 10.9 25.6-5.9 8-9.1 14.2-9.4 14.7l-.1.1c-1.4 2.5-2.4 5-3.4 7.4.1-5.6-.8-12.1-4.9-16.2-7.4-7.5-15.1-8-15.1-8S9.8 65 11.3 75.2c0 0 2.6 12.4 20.2 18.4-2.4 8.7-3.6 16.9-3.8 24.5-1.8-5.2-4.7-10.6-9.7-13.2-9.5-5-17-3.3-17-3.3s-3 7.4 1.7 16.8c0 0 6.6 11.1 25.4 11.9.7 6.7 2.2 12.9 4.1 18.6-2.4-1.9-5.2-3.4-8.2-3.9-10.8-1.9-17.3 1.9-17.3 1.9s-.2 7.9 7.6 15.3c0 0 9.3 7.9 26.1 4.3.5.8.9 1.5 1.4 2.2 2.5 3.8 5.1 7.3 7.7 10.5-1.6-.5-3.2-.7-4.8-.7-11 0-16.5 5-16.5 5s1.5 7.8 10.7 13.7c0 0 11.6 6.5 28-1.2 3.8 2.9 6.4 4.4 6.6 4.6 13.2 8 26.5 12.2 35.7 14.3-15 7.2-20.4 16.8-20.7 17.4-1.1 2-.2 4.5 2 5.5.7.3 1.3.5 2 .5 1.6 0 3.2-.8 4-2.2.3-.5 7.3-12.5 28.7-18 21.4 5.5 28.4 17.4 28.7 18 .8 1.4 2.4 2.2 4 2.2.7 0 1.4-.1 2-.5 2.2-1 3.1-3.5 2-5.5-.3-.5-5.7-10.2-20.7-17.4 9.1-2.2 22.5-6.4 35.7-14.3.3-.2 2.8-1.7 6.6-4.6 16.4 7.7 28 1.2 28 1.2 9.2-5.9 10.7-13.7 10.7-13.7s-5.6-4.9-16.5-5c-1.6 0-3.2.3-4.8.7 2.6-3.1 5.2-6.6 7.7-10.5.5-.7.9-1.5 1.4-2.2 16.7 3.6 26.1-4.3 26.1-4.3 7.8-7.5 7.6-15.3 7.6-15.3s-6.5-3.8-17.3-1.9c-3 .5-5.8 2-8.2 3.9 1.9-5.6 3.4-11.8 4.1-18.6 18.8-.8 25.4-11.9 25.4-11.9 4.9-9.4 2-16.8 2-16.8z"/>
    <path d="M124 82.6c-16.2 0-29.4 13.2-29.4 29.4s13.2 29.4 29.4 29.4 29.4-13.2 29.4-29.4-13.2-29.4-29.4-29.4zm0 52.8c-12.9 0-23.4-10.5-23.4-23.4s10.5-23.4 23.4-23.4 23.4 10.5 23.4 23.4-10.5 23.4-23.4 23.4z"/>
    <path d="M124.7 57.3C89.6 57.3 61 85.9 61 121s28.6 63.7 63.7 63.7 63.7-28.6 63.7-63.7-28.6-63.7-63.7-63.7zM86.3 164c2.9-2.1 11.9-8.4 22.3-11.4l2.1 12.1 14.6-8.4 14.6 8.4 2.3-12.1c9.6 2.7 18 8.3 21.6 10.8-10.3 9.5-24 15.3-39.1 15.3-14.7 0-28.2-5.5-38.4-14.7zm81.7-4.9c-3.8-2.8-15.4-10.8-28.5-13.3l-2-1.8-12.2 11.9-12.2-11.9-1.8 1.8c-14.4 2.8-26.9 12.1-29.3 14-9.3-10.3-15-23.9-15-38.8 0-31.8 25.9-57.7 57.7-57.7s57.7 25.9 57.7 57.7c0 14.6-5.4 27.9-14.4 38.1z"/>
</svg>
