<svg version="1.1" class="dibsvg-svg dibsvg-promo-code" xmlns="http://www.w3.org/2000/svg" xmlns:xlink="http://www.w3.org/1999/xlink" viewBox="0 0 250 250">
<g>
	<circle cx="125.2" cy="125.8" r="122.2" fill="#FCF9F4"/>
	<path fill="#E3DAC4" d="M125.2,250C56.7,250,1,194.3,1,125.8S56.7,1.6,125.2,1.6s124.2,55.7,124.2,124.2S193.7,250,125.2,250z
		 M125.2,5.5C58.9,5.5,5,59.5,5,125.8C5,192.1,58.9,246,125.2,246c66.3,0,120.2-53.9,120.2-120.2C245.5,59.5,191.5,5.5,125.2,5.5z"
		/>
</g>
<g>
	<path fill="#C4A764" d="M146.2,101.7c0,5.5-2.8,7.8-5.3,7.8c-2.2,0-4.5-1.8-4.5-4.9c0-4,3.3-4.5,4.3-8.1c-0.9-2.7-4.4-5.1-10-6.1v28
		c8.9,1.3,18,4.8,18,18.3c0,8.1-5.2,18.2-18,21.1v16h-1.5V158c-1.9,0.3-4,0.6-6.3,0.6c-1,0-2,0-3-0.2v15.4h-1.5v-15.5
		C108,156.8,99,150.5,99,142.7c0-5.4,2.7-8.8,6.2-8.8c3,0,4.6,2.4,4.6,5.5c0,1.8-0.7,3.6-1.9,4.8c-0.6,0.6-1.3,1.1-1.9,2.2
		c0,6.3,6.6,9,12.5,9.9v-30c-8.1-1.3-18.1-5.1-18.1-17.3c0-8,5.3-18,18.1-20.4v-11h1.5v10.8c1.5-0.2,3.1-0.3,4.8-0.3
		c1.6,0,3,0.1,4.5,0.2V77.7h1.5v10.9C140,90.2,146.2,95.3,146.2,101.7z M106.8,102.8c0,8.8,5.1,12.1,11.7,13.7v-26
		C110.2,92.3,106.8,97.7,106.8,102.8z M124.8,89.9c-1.8,0-3.4,0.1-4.8,0.3v26.5c2.8,0.6,6,0.9,9.3,1.3v-28
		C127.8,90,126.3,89.9,124.8,89.9z M129.3,127.9c-2.7-0.7-5.5-0.9-9.3-1.2v30c1,0.1,2.1,0.1,3,0.1c2.4,0,4.5-0.2,6.3-0.6V127.9z
		 M130.7,156c9.2-2.4,11.9-8.6,11.9-13.8c0-7.6-4.5-11.9-11.9-13.9V156z"/>
	<path fill="#C4A764" d="M131.2,174.2h-2.5v-15.6c-1.9,0.3-3.9,0.5-5.8,0.5c-0.8,0-1.7,0-2.5-0.1v15.3H118v-15.6
		c-11.1-1.7-19.4-8.5-19.4-15.9c0-5.5,2.7-9.3,6.7-9.3c3.1,0,5.1,2.4,5.1,6c0,2-0.8,3.9-2.1,5.2c-0.1,0.1-0.3,0.2-0.4,0.4
		c-0.5,0.4-1,0.9-1.4,1.6c0.1,6.4,7.6,8.5,11.5,9.2v-29c-12-2.1-18.1-8.1-18.1-17.7c0-8.6,5.6-18.3,18.1-20.9V77.2h2.5v10.7
		c1.3-0.2,2.8-0.3,4.3-0.3c1.4,0,2.7,0.1,4,0.2V77.2h2.5v11c9.4,1.7,15.5,7,15.5,13.6c0,5.7-2.9,8.3-5.8,8.3c-2.4,0-5-1.9-5-5.4
		c0-2.5,1.1-3.7,2.2-4.9c0.8-0.9,1.6-1.8,2-3.1c-0.9-2.5-4.2-4.5-9-5.5v26.9c8.5,1.3,18,4.8,18,18.7c0,8.6-5.6,18.5-18,21.5V174.2z
		 M129.8,173.2h0.5v-15.9l0.4-0.1c12.1-2.8,17.6-12.4,17.6-20.6c0-13.4-9.4-16.6-17.5-17.8l-0.4-0.1v-29l0.6,0.1
		c5.5,1,9.4,3.4,10.4,6.4l0,0.1l0,0.1c-0.5,1.7-1.4,2.8-2.3,3.7c-1.1,1.2-2,2.2-2,4.3c0,2.9,2.1,4.4,4,4.4c2.4,0,4.8-2.2,4.8-7.3
		c0-6.1-5.9-11.1-15.1-12.7l-0.4-0.1V78.2h-0.5v10.7l-0.5,0c-1.4-0.1-2.9-0.2-4.5-0.2c-1.7,0-3.3,0.1-4.8,0.3l-0.6,0.1V78.2H119
		v10.9l-0.4,0.1c-12.2,2.4-17.7,11.7-17.7,20c0,9.3,5.8,14.8,17.7,16.8l0.4,0.1v31l-0.6-0.1c-3.9-0.6-12.9-2.8-12.9-10.4v-0.1
		l0.1-0.1c0.5-1,1.1-1.6,1.6-2c0.1-0.1,0.3-0.2,0.4-0.4c1.1-1.1,1.8-2.8,1.8-4.5c0-3.1-1.5-5-4.1-5c-3.3,0-5.7,3.4-5.7,8.3
		c0,7,8.2,13.5,19,15l0.4,0.1v15.4h0.5v-15.5l0.6,0.1c1,0.2,1.9,0.2,2.9,0.2c2,0,4.1-0.2,6.2-0.6l0.6-0.1V173.2z M123,157.3
		c-0.9,0-2,0-3.1-0.1l-0.4,0v-31l1.1,0.1c3.5,0.3,6.2,0.5,8.9,1.2l0.4,0.1v29.1l-0.4,0.1C127.3,157.1,125.2,157.3,123,157.3z
		 M120.4,156.2c0.9,0.1,1.8,0.1,2.5,0.1c2,0,4-0.2,5.8-0.5v-27.5c-2.4-0.6-4.9-0.8-8.3-1.1l0,0V156.2z M130.2,156.6v-29l0.6,0.2
		c8.1,2.2,12.3,7.1,12.3,14.4c0,3.4-1.2,11.5-12.3,14.3L130.2,156.6z M131.2,128.9v26.4c9.8-2.8,10.9-10.1,10.9-13.2
		C142.1,135.4,138.6,131.1,131.2,128.9z M129.8,118.7l-0.6-0.1c-0.8-0.1-1.6-0.2-2.4-0.3c-2.5-0.3-4.8-0.6-7-1l-0.4-0.1V89.8
		l0.4-0.1c1.5-0.2,3.1-0.3,4.9-0.3c1.6,0,3.1,0.1,4.5,0.2l0.5,0V118.7z M120.4,116.4c2,0.4,4.2,0.7,6.5,1c0.6,0.1,1.2,0.2,1.8,0.2
		V90.6c-1.3-0.1-2.6-0.2-4-0.2c-1.6,0-3,0.1-4.3,0.3V116.4z M119,117.2l-0.6-0.1c-5.2-1.2-12.1-4-12.1-14.2c0-5,3.2-10.9,12.1-12.7
		L119,90V117.2z M118,91.2c-9.9,2.3-10.7,9.4-10.7,11.6c0,7.1,3.3,11.1,10.7,13.1V91.2z"/>
</g>
</svg>
