<!-- white linen lunches on careers -->
<svg version="1.1" class="dibsvg-icon" id="ramen" viewBox="0 0 420 518" xmlns="http://www.w3.org/2000/svg" xmlns:xlink="http://www.w3.org/1999/xlink">
    <path d="M412.4,120.4l-184.8,10.1c-0.8-5.9-2.1-10.9-3.8-15.1l177.2-30.7c4.2-0.8,6.7-4.6,5.9-8.4
            c-0.8-4.2-4.6-6.7-8.4-5.9l-182.3,31.5c-2.1-1.3-4.6-1.3-7.1,0c-0.8,0.4-1.3,0.8-1.7,1.7l-15.1,2.5c-0.4-0.8-0.8-1.3-0.8-1.3
            c-2.1-3.4-6.3-4.6-10.1-2.9c-2.5,1.3-3.8,4.2-3.8,6.7l-11.3,2.1c-1.3-3.4-2.5-5.5-2.9-5.9c-2.1-3.4-6.3-4.6-10.1-2.9
            c-3.4,2.1-4.6,6.3-2.9,10.1c0,0,0.4,0.4,0.8,1.3l-38.6,6.7c-3.8,0.8-6.7,4.6-5.9,8.4c0.4,3.8,3.8,6.3,7.1,6.3c0.4,0,0.8,0,1.3,0
            l40.7-7.1c0.4,2.1,0.8,4.6,1.3,7.1l-15.1,0.8c-4.2,0.4-7.1,3.8-7.1,7.6c0.4,3.8,3.4,7.1,7.1,7.1h0.4l14.7-0.8
            c-0.4,6.3-2.1,13-4.6,20.2C100.4,171.2,0,178.4,0,207.3c0,0.8,0,1.7,0.4,2.5C0,221.6-3.4,316.5,52.9,376.2
            c8.4,8.8,17.6,16,26.5,22.3v41.2c0,4.2,5,8.4,9.2,8.4h191.1c4.2,0,3.8-4.2,3.8-8.4v-43.7c12.6-8,26.9-18.1,37.4-29.8
            c50.4-56.7,48.7-137.3,47-158.3c0-0.4-0.4-3.4-0.8-4.2c0,0-0.8-3.4-2.1-5.5c-18.1-19.7-92.8-26.5-140.3-28.6
            c2.9-8.8,4.2-16.8,4.2-24.4l184.8-10.1c4.2-0.4,7.1-3.8,7.1-7.6C419.6,123.3,416.2,120,412.4,120.4z M209.2,117.9
            c1.3,3.4,2.5,8,3.4,13.4l-13,0.8c-0.4-4.6-1.3-8.4-2.5-12.2L209.2,117.9z M170.9,124.6l12.2-2.1c0.8,2.9,1.7,6.3,2.1,10.5l-13,0.4
            C171.8,130.5,171.4,127.1,170.9,124.6z M172.6,148.1l13-0.8c-0.4,6.7-1.7,13.9-4.6,21.4c-2.5,0-6.7,0-12.2,0
            C170.9,161.6,172.2,154.8,172.6,148.1z M353.6,207.3c-5.5,7.6-50.8,19.7-129.4,23.1c-4.2-4.6-16.8-21.4-5.9-46.2
            C300.3,186.8,347.8,199.4,353.6,207.3L353.6,207.3z M206.6,230.9c-2.9,0-6.3,0-9.7,0c-2.9-3.4-18.1-20.6-6.3-47.5c4.2,0,8,0,11.8,0
            C196.1,203.1,200.3,219.9,206.6,230.9z M169.3,231.3c-3.4-3.4-18.1-20.6-6.3-47.5c3.8,0,8,0,12.2,0c-6.7,19.7-2.5,36.5,3.8,47.5
            C175.6,231.3,172.6,231.3,169.3,231.3z M147,184.2c-6.3,19.3-2.1,35.3,3.8,46.6C68,227.9,20.2,215.3,14.7,207.3
            C20.2,199.8,66.4,187.2,147,184.2z M270.5,431.2H92v-24.4c25.6,10.9,50,16.8,79.4,16.8c37.8,0,77.7-6.7,98.7-19.7v27.3H270.5z
             M311.2,356.4c-30.7,34.4-76.9,52.1-136.9,52.1c-46.2,0-82.7-14.3-109.6-42.8c-42-44.1-48.7-111.3-49.6-141.1
            C58,246,178.1,246,184.4,246c6.3,0,127.7-0.4,170.1-21.8C354.5,254,349,313.6,311.2,356.4z M208.7,169.1c-4.6,0-8.8-0.4-12.2-0.4
            c2.5-8,3.8-15.1,3.8-22.3l13-0.8C213.4,153.2,212.1,160.7,208.7,169.1z"/>
</svg>