<svg xmlns="http://www.w3.org/2000/svg" class="dibsvg-svg dibsvg-ramen" viewBox="0 0 100 100">
    <path d="M98.2 17l-44 2.4c-.2-1.4-.5-2.6-.9-3.6l42.2-7.3c1-.2 1.6-1.1 1.4-2-.2-1-1.1-1.6-2-1.4l-43.4 7.5c-.5-.3-1.1-.3-1.7 0-.2.1-.3.2-.4.4l-3.6.6c-.1-.2-.2-.3-.2-.3-.5-.8-1.5-1.1-2.4-.7-.6.3-.9 1-.9 1.6l-2.7.5c-.3-.8-.6-1.3-.7-1.4-.5-.8-1.5-1.1-2.4-.7-.8.5-1.1 1.5-.7 2.4 0 0 .1.1.2.3l-9.2 1.6c-.9.2-1.6 1.1-1.4 2 .1.9.9 1.5 1.7 1.5h.3l9.7-1.7c.1.5.2 1.1.3 1.7l-3.6.2c-1 .1-1.7.9-1.7 1.8.1.9.8 1.7 1.7 1.7h.1l3.5-.2c-.1 1.5-.5 3.1-1.1 4.8-12.4.4-36.3 2.1-36.3 9 0 .2 0 .4.1.6-.1 2.8-.9 25.4 12.5 39.6 2 2.1 4.2 3.8 6.3 5.3V93c0 1 1.2 2 2.2 2h45.5c1 0 .9-1 .9-2V82.6c3-1.9 6.4-4.3 8.9-7.1C88.4 62 88 42.8 87.6 37.8c0-.1-.1-.8-.2-1 0 0-.2-.8-.5-1.3-4.3-4.7-22.1-6.3-33.4-6.8.7-2.1 1-4 1-5.8l44-2.4c1-.1 1.7-.9 1.7-1.8-.3-1-1.1-1.8-2-1.7zm-48.4-.6c.3.8.6 1.9.8 3.2l-3.1.2c-.1-1.1-.3-2-.6-2.9l2.9-.5zM40.7 18l2.9-.5c.2.7.4 1.5.5 2.5l-3.1.1c-.1-.7-.2-1.5-.3-2.1zm.4 5.6l3.1-.2c-.1 1.6-.4 3.3-1.1 5.1h-2.9c.5-1.7.8-3.3.9-4.9zm43.1 14.1c-1.3 1.8-12.1 4.7-30.8 5.5-1-1.1-4-5.1-1.4-11 19.5.6 30.8 3.6 32.2 5.5zm-35 5.6h-2.3c-.7-.8-4.3-4.9-1.5-11.3h2.8c-1.5 4.7-.5 8.7 1 11.3zm-8.9.1c-.8-.8-4.3-4.9-1.5-11.3h2.9c-1.6 4.7-.6 8.7.9 11.3h-2.3zM35 32.2c-1.5 4.6-.5 8.4.9 11.1-19.7-.7-31.1-3.7-32.4-5.6 1.3-1.8 12.3-4.8 31.5-5.5zM64.4 91H21.9v-5.8c6.1 2.6 11.9 4 18.9 4 9 0 18.5-1.6 23.5-4.7V91zm9.7-17.8c-7.3 8.2-18.3 12.4-32.6 12.4-11 0-19.7-3.4-26.1-10.2C5.4 64.9 3.8 48.9 3.6 41.8c10.2 5.1 38.8 5.1 40.3 5.1s30.4-.1 40.5-5.2c0 7.1-1.3 21.3-10.3 31.5zM49.7 28.6c-1.1 0-2.1-.1-2.9-.1.6-1.9.9-3.6.9-5.3l3.1-.2c0 1.8-.3 3.6-1.1 5.6z"/>
</svg>
