<svg version="1.1" class="dibsvg-svg dibsvg-repost" xmlns="http://www.w3.org/2000/svg" xmlns:xlink="http://www.w3.org/1999/xlink" viewBox="0 0 250 250">
<path class="st0" d="M130.9,232c-30.6-0.4-61-15.9-90.5-46.3l20.8-20.6c26.6,27.4,52.9,39.9,78.2,37.1c41.3-4.6,68.8-48.5,69.1-49
	l24.8,15.4c-1.4,2.3-34.9,56.5-90.5,62.8C138.9,231.8,134.9,232,130.9,232z"/>
<polygon class="st0" points="104,142.2 1.6,79.8 5,210.2 "/>
<path class="st0" d="M44.1,79.9L19.1,64.7c1.4-2.4,35.3-57.9,91.1-64.2c34.5-3.9,68.6,11.6,101.5,46.1l-21,20.4
	c-26.3-27.6-52.3-40.1-77.3-37.3c-21.4,2.4-39.1,15.8-50.1,26.6C51.2,68.3,44.1,79.8,44.1,79.9z"/>
<polygon class="st0" points="148.1,90.8 250,153.8 247.1,21.3 "/>
</svg>
