<svg xmlns="http://www.w3.org/2000/svg" class="dibssvg-svg dibsvg-reverse"  viewBox="0 0 250 250">
	<g>
		<path d="M128.9,183l-27.8-20.9c-2-1.5-4.8-1.1-6.2,0.9c-1.5,2-1.1,4.8,0.9,6.2l16.7,12.6c-27.8-1.2-53.2-4.2-72.4-8.7 c-24.7-5.8-31.3-12.2-31.3-14.8c0-2.6,6.8-9.2,32.4-15c2.4-0.5,3.9-2.9,3.3-5.3c-0.5-2.4-2.9-3.9-5.3-3.3 C12.9,140.7,0,148.4,0,158.3c0,21.3,63.2,29.9,109.6,32.2l-16,8.7c-2.2,1.2-3,3.9-1.8,6c0.8,1.5,2.3,2.3,3.9,2.3 c0.7,0,1.4-0.2,2.1-0.5l30.6-16.6c1.3-0.7,2.2-2.1,2.3-3.6C130.8,185.3,130.1,183.9,128.9,183z"/>
		<path d="M218.7,136.5c-2.4-0.6-4.8,0.8-5.5,3.1c-0.6,2.4,0.8,4.8,3.1,5.5c19.5,5.3,24.7,11.3,24.7,14c0,7.5-28.4,19.4-79.8,21.4 c-2.5,0.1-4.4,2.2-4.3,4.6c0.1,2.4,2.1,4.3,4.4,4.3c0.1,0,0.1,0,0.2,0c44-1.7,88.4-11.6,88.4-30.2 C250,149.7,239.5,142.1,218.7,136.5z"/>
		<path d="M207.8,140l0.1-0.1l-0.1-0.1V42.5h-157v115.4h157V140z M198.9,149H64.8l28.9-21.2l9.1,9.1l40.8-34.5l55.2,41.8V149z M198.9,133.1l-55.5-42l-40,33.8l-8.8-8.8l-35,25.6V51.4h139.3V133.1z"/>
		<path d="M88.2,101.2c10.7,0,19.3-8.7,19.3-19.3c0-10.7-8.7-19.3-19.3-19.3c-10.7,0-19.3,8.7-19.3,19.3 C68.9,92.6,77.6,101.2,88.2,101.2z M88.2,71.5c5.8,0,10.4,4.7,10.4,10.4c0,5.8-4.7,10.4-10.4,10.4c-5.8,0-10.4-4.7-10.4-10.4 C77.8,76.1,82.5,71.5,88.2,71.5z"/>
	</g>
</svg>
