<svg xmlns="http://www.w3.org/2000/svg" class="dibssvg-svg dibsvg-reverse" viewBox="0 0 250 250">
    <path d="M128.9 183l-27.8-20.9c-2-1.5-4.8-1.1-6.2.9-1.5 2-1.1 4.8.9 6.2l16.7 12.6c-27.8-1.2-53.2-4.2-72.4-8.7-24.7-5.8-31.3-12.2-31.3-14.8 0-2.6 6.8-9.2 32.4-15 2.4-.5 3.9-2.9 3.3-5.3-.5-2.4-2.9-3.9-5.3-3.3-26.3 6-39.2 13.7-39.2 23.6 0 21.3 63.2 29.9 109.6 32.2l-16 8.7c-2.2 1.2-3 3.9-1.8 6 .8 1.5 2.3 2.3 3.9 2.3.7 0 1.4-.2 2.1-.5l30.6-16.6c1.3-.7 2.2-2.1 2.3-3.6.1-1.5-.6-2.9-1.8-3.8z"/>
    <path d="M218.7 136.5c-2.4-.6-4.8.8-5.5 3.1-.6 2.4.8 4.8 3.1 5.5 19.5 5.3 24.7 11.3 24.7 14 0 7.5-28.4 19.4-79.8 21.4-2.5.1-4.4 2.2-4.3 4.6.1 2.4 2.1 4.3 4.4 4.3h.2c44-1.7 88.4-11.6 88.4-30.2.1-9.5-10.4-17.1-31.2-22.7z"/>
    <path d="M207.8 140l.1-.1-.1-.1V42.5h-157v115.4h157V140zm-8.9 9H64.8l28.9-21.2 9.1 9.1 40.8-34.5 55.2 41.8v4.8zm0-15.9l-55.5-42-40 33.8-8.8-8.8-35 25.6V51.4h139.3v81.7z"/>
    <path d="M88.2 101.2c10.7 0 19.3-8.7 19.3-19.3 0-10.7-8.7-19.3-19.3-19.3-10.7 0-19.3 8.7-19.3 19.3 0 10.7 8.7 19.3 19.3 19.3zm0-29.7c5.8 0 10.4 4.7 10.4 10.4 0 5.8-4.7 10.4-10.4 10.4-5.8 0-10.4-4.7-10.4-10.4 0-5.8 4.7-10.4 10.4-10.4z"/>
</svg>
