<svg class="dibsvg-svg dibsvg-saves" version="1.1" xmlns="http://www.w3.org/2000/svg" xmlns:xlink="http://www.w3.org/1999/xlink" viewBox="0 0 250 250">
	<path d="M125,0C56,0,0,56,0,125s56,125,125,125s125-56,125-125S194,0,125,0z M209.9,209.9C187.2,232.5,157.1,245,125,245
		c-32.1,0-62.2-12.5-84.9-35.2C17.5,187.2,5,157.1,5,125s12.5-62.2,35.2-84.9C62.8,17.5,92.9,5,125,5c32.1,0,62.2,12.5,84.9,35.2
		C232.5,62.8,245,92.9,245,125S232.5,187.2,209.9,209.9z"/>
	<path d="M154.1,70.9l-0.2,0c-11.1,0.2-20.7,6.5-28.6,18.6l-0.3,0.5l-0.3-0.5c-9.1-15-20.2-18.4-27.9-18.6c-0.4,0-0.8,0-1.4,0
		c-4,0-14.2,0.8-21.4,8.5c-5.3,5.6-7.7,13.2-7.1,22.8c0.6,9.4,10.4,23,13.4,26.9l44.6,54l1.2-1.4c4.8-5.6,40.9-49,46.3-56.4
		c6.2-8.5,9.8-16.1,10.5-22.7c1-9-0.9-16.1-6-21.9C168.9,71.8,158.3,70.9,154.1,70.9z M175.7,102.1c-0.4,3.2-2.4,8-5.7,13.6
		c-3.1,5.2-8,11.3-8.1,11.4L125,171.6l-38.8-46.9c0,0-2.9-3.8-5.9-8.8c-3.9-6.4-5.7-10.5-6-14.2c-0.6-7.2,1-12.7,5.1-17.3
		c4.9-5.4,12.1-6.2,16.1-6.2c0.3,0,0.6,0,0.8,0l0.2,0c8.5,0.1,16.1,5.3,22,15.1c2.3,3.8,3.9,7.6,4.9,10.1l1.3,3.4l1.5-3.3
		c7.5-16.6,16.8-25.1,27.8-25.2c0,0,0.1,0,0.2,0c3-0.2,10.8,0.2,17.3,7.4C174.9,89.7,176.4,95.3,175.7,102.1z"/>
</svg>
