<svg xmlns="http://www.w3.org/2000/svg" class="dibsvg-svg dibsvg-shipping-world" viewBox="0 0 518 518">
    <path d="M232 183.8c1-2.7 4.4-7.1 7.1-9.4l2-1.7V170l3.4 2.7h3.4l1.3-1.3 2-2c1-2 2.7-3.7 5.1-4.7.7 4 2.4 9.4 5.4 15.9 1.7 3.4 3 7.4 4 12.5-.3-.3-1.3-.7-3-1-1.7-.3-3-.7-3.7-1-15.2-2.6-24.3-4.9-27-7.3zm-69.8 50.6c1.7 3.7 2.4 6.4 2.7 7.4 3.4 7.8 4.7 14.8 4.4 21.6v1.3l.7.7c3.7 3.7 6.4 6.1 7.4 6.7 6.1 6.1 9.1 12.5 9.1 19.6v.7l1.3 1.3c5.1 5.1 15.9 11.5 33 19.2 5.7 1.3 11.5 3.4 17.5 6.4 4.7 9.8 12.5 14.5 23.3 14.5h3.4c1 3 0 7.1-3.4 11.5-4.7 3.7-6.7 9.8-6.1 17.5l1.3 1.3c5.4 8.4 9.8 13.8 13.2 15.9 2.4 1.3 5.1 2.4 8.1 2.7 0 1.3-.3 2.4-1.3 2.7-1.7 3-1.7 5.7 0 7.8l1.3 2h1.3c10.5 0 23.9-6.4 29.3-9.4 2.4-1.7 7.1-4.7 13.5-9.1l7.8-5.7 4.7-4.7c15.9-14.2 24.6-27.7 26.3-40.1l.7-.7-1.3-1.3c-1-.3-2.4-.7-4.7-.7-2.4 0-4 .3-5.1.7-1 0-1.7 0-2.4.3l-1 .3c-3.4-3.4-9.4-6.1-17.9-8.4-6.4-1-10.5-2.4-12.5-3.4v-1.3l-2 1.3h-9.1c-12.5 0-16.9 0-25.6 3-4.4 1.7-8.4 4-11.5 7.4h-7.1c-3 0-4.7-.7-4.7-2-.3-.3-.7-2.7-.7-6.4v-6.1c-1-3-4-4.7-9.8-5.7-2.4 0-3.7-.3-4-1.3 0-.3 0-1 .3-1.7s.3-1.3.3-1.7c1.7-5.7 1.3-9.4-1.3-11.8v-.7h-.7c-.3 0-1 0-1.7-.3-1-.3-1.3-.3-1.7-.3-2.7 0-6.1 1.3-9.8 4.4-1.3 1.3-3.4 2-5.7 2-4.4 0-6.7-2.4-6.7-7.1-1.3-8.1 1.7-16.5 5.4-17.9 2.7.3 6.1.7 9.8.7h6.1c3 0 6.1 1 9.8 2.7 3.4 5.7 8.1 9.1 14.5 9.8h1.3l1.3-.7c2.4-3 3-7.1 2-12.5v-5.4c.3-1.3 2-4 5.1-8.4 1.7-1 3-2.4 4.7-4.7v-2.4c1.3-17.2 3.4-19.6 15.9-26.6l1.3-.7v-3.7c0-1 1.3-3 3.7-6.1h3.4c1.7.3 3.7.7 6.1.7 5.7 0 9.4-1.3 11.8-4l.7-.7-.7-1.3c-3.4-9.1-13.8-17.5-31-25l-9.8-5.7v-11.4c9.1 3 16.2 4.7 21.6 4.7 1.7 0 3.4-.3 4.7-.7h1.3l.7-1.3c3-13.2-4-16.9-16.5-19.6-9.4-3-15.5-5.7-18.5-8.1l-.7.7h-7.8l-.7-.7c-5.1 4-9.1 6.4-16.5 7.8-3.7 1-6.4 1.3-7.4 1.3-2.4.3-12.8 1.7-23.6 4.7-5.4-1.7-8.8-2.7-9.8-2.7-7.4 0-16.9 5.7-28.3 17.2v.7l-1.3.7c-.3 1.7.7 3.4 1.3 4.4.3.3.7 1 1.3 1.3.7.3 1 .7 1.3 1 .3.3.7 1.3.7 3-.3 5.7-1.3 10.1-4.7 18.2-1.7 4-3 6.7-3.4 7.8-5.5 13.7-8.2 24.8-8.2 32.6zm-57.3 31.7c0-83.3 65.8-149.1 149.4-149.1 82.3 0 147.7 65.8 147.7 149.1 0 82.3-65.4 148.4-147.7 148.4-83.7 0-149.4-66.1-149.4-148.4zM0 265.4v-7.1c0-113.6 66.4-191.9 140.6-230C177.4 9.4 216.5 0 257.7 0c52.6 0 100.2 14.5 143 43.5l10.5 7.1 33-44.9 37.1 121.4-126.8 2 32.4-44.9-11.1-7.4c-36.1-23.3-75.5-34.7-118-34.7-68.5 0-133.9 33.7-174.7 90-28 40.1-41.5 81.9-40.1 126.1 0 10.8.7 22.3 2 34.1v2.7c1 1.3 1.3 3.4 1.3 6.1 1 3.7 1.3 6.4 1.3 8.4l1.3 4c.3 1.7.7 3.7 1.7 6.1.7 2.4 1 4 1.3 5.1 11.1 34.1 29 63.1 53.6 87.7C145 453.2 200 475.2 259 475.2c57.7 0 112-21.2 151.4-60.7 5.1-5.1 8.4-9.1 10.8-12.5 5.1-5.4 22.6-28.7 27-35.7 4.4 0 7.8 1 10.5 2.7l19.2 13.2c2.7 1.7 4.7 4.4 5.1 6.4.3 1 .3 1.7 0 2-4.7 7.8-14.5 20.9-29 39.8l-8.4 8.4-12.6 11.8C385.8 494.7 324.1 518 259 518c-70.1 0-134.9-26.3-183.1-74.5-33.4-34.1-55.6-73.9-66.8-119.4l-.7-2.7-.7-2c-2.7-10.8-4-17.2-4.4-18.9 0-1 0-2.7-.3-4.7s-.3-3.7-.3-4.7c-1.3-4.7-2-9.8-2-15.2 0-1 0-3-.3-5.4-.4-2.4-.4-4.1-.4-5.1z"/>
</svg>
