<svg version="1.1" class="dibsvg-svg dibsvg-shopping-cart" viewBox="-220.7 -160.7 500 500" xmlns="http://www.w3.org/2000/svg" xmlns:xlink="http://www.w3.org/1999/xlink">
    <path d="M263.2-67.5H-71.5c-8.9,0-16.1,7.6-16.1,16.9c0,0.1-17.9-92.8-17.9-92.8c-2.1-10.6-8.4-17.4-21.9-17.4h-77.1 c-8.9,0-16.1,7.6-16.1,16.9c0,9.4,7.2,16.9,16.1,16.9h70.4l58.8,307.5c2.3,10.6,11.4,14.6,19.5,14.6c0,0,248.3,0,248.8,0 c8.4,0,17-3.7,19.2-12.8l63.8-219c1.1-3.3,3.3-8.2,3.3-14C279.3-59.9,272.1-67.5,263.2-67.5z M185.4,161.4c-0.1,0-0.2,0-0.3,0 H-47.3L-86.8-45.4c2.1,6.8,8.1,11.8,15.3,11.8h314.1L185.4,161.4z"/>
    <path d="M-22.9,254.6c-23,0-41.6,19-41.6,42.4c0,23.4,18.6,42.4,41.6,42.4s41.6-19,41.6-42.4S0.1,254.6-22.9,254.6z M-22.6,312.5c-8.7,0-15.7-7-15.7-15.5c0-8.6,7-15.5,15.7-15.5s15.7,7,15.7,15.5C-6.9,305.5-13.9,312.5-22.6,312.5z"/>
    <path d="M167.7,254.6c-22.7,0-41,19-41,42.4c0,23.4,18.4,42.4,41,42.4s41-19,41-42.4S190.4,254.6,167.7,254.6z M167.8,312.5c-8.6,0-15.5-7-15.5-15.5c0-8.6,7-15.5,15.5-15.5c8.6,0,15.5,7,15.5,15.5C183.3,305.5,176.4,312.5,167.8,312.5z"/>
</svg>