<svg xmlns="http://www.w3.org/2000/svg" class="dibssvg-svg dibsvg-signature" viewBox="0 0 250 250">
    <path d="M248.7 64L186 1.3c-.9-.9-2.2-1.4-3.5-1.3-1.3.1-2.5.8-3.3 1.8l-57.5 78.4-83 44c-1 .6-1.8 1.5-2.2 2.6L.5 241.6c-.7 1.9-.8 4.7 1.2 6.6 1.2 1.2 2.7 1.7 4.2 1.7.9 0 1.8-.2 2.5-.4l114.8-36c1.1-.4 2.1-1.1 2.6-2.2l44-83 78.4-57.5c1.1-.8 1.7-2 1.8-3.3.1-1.3-.4-2.6-1.3-3.5zM118.6 205.5l-98.7 31 48.7-48.7c5 2.4 11.2 1.5 15.3-2.6 5.2-5.2 5.2-13.8 0-19-5.2-5.2-13.8-5.2-19 0-4.1 4.1-5 10.3-2.6 15.3l-48.7 48.7 31-98.7L124 89.2c.2.2.3.5.5.7l35.6 35.6c.2.2.4.4.7.5l-42.2 79.5zm48.1-86.2c-.1-.1-.1-.2-.2-.3l-35.6-35.6c-.1-.1-.2-.1-.3-.2l52.7-71.9 55.2 55.2-71.8 52.8z"/>
</svg>
