<svg xmlns="http://www.w3.org/2000/svg" class="dibssvg-svg dibsvg-signature"  viewBox="0 0 250 250">
	<path d="M248.7,64L186,1.3c-0.9-0.9-2.2-1.4-3.5-1.3c-1.3,0.1-2.5,0.8-3.3,1.8l-57.5,78.4l-83,44c-1,0.6-1.8,1.5-2.2,2.6l-36,114.8 c-0.7,1.9-0.8,4.7,1.2,6.6c1.2,1.2,2.7,1.7,4.2,1.7c0.9,0,1.8-0.2,2.5-0.4l114.8-36c1.1-0.4,2.1-1.1,2.6-2.2l44-83l78.4-57.5 c1.1-0.8,1.7-2,1.8-3.3C250.1,66.2,249.6,64.9,248.7,64z M118.6,205.5l-98.7,31l48.7-48.7c5,2.4,11.2,1.5,15.3-2.6 c5.2-5.2,5.2-13.8,0-19c-5.2-5.2-13.8-5.2-19,0c-4.1,4.1-5,10.3-2.6,15.3l-48.7,48.7l31-98.7L124,89.2c0.2,0.2,0.3,0.5,0.5,0.7 l35.6,35.6c0.2,0.2,0.4,0.4,0.7,0.5L118.6,205.5z M166.7,119.3c-0.1-0.1-0.1-0.2-0.2-0.3l-35.6-35.6c-0.1-0.1-0.2-0.1-0.3-0.2 l52.7-71.9l55.2,55.2L166.7,119.3z"/>
</svg>
