<svg class="dibsvg-svg dibsvg-star-filled" viewBox="0 0 250 250" version="1.1" xmlns="http://www.w3.org/2000/svg" xmlns:xlink="http://www.w3.org/1999/xlink">
	<path d="M187.4,102.6l-42.1-4.4l-17.2-38.7c-0.7-1.6-2.3-2.7-4.1-2.7c-1.8,0-3.4,1.1-4.1,2.7l-17.2,38.7l-42.1,4.4
		c-1.8,0.2-3.3,1.4-3.8,3.1c-0.6,1.7-0.1,3.6,1.3,4.7l31.5,28.3l-8.9,41.4c-0.4,1.7,0.3,3.5,1.8,4.6c1.4,1,3.4,1.1,4.9,0.3
		l36.7-21.2l36.7,21.2c0.7,0.4,1.5,0.6,2.3,0.6c0.9,0,1.9-0.3,2.6-0.9c1.4-1,2.1-2.8,1.8-4.6l-8.9-41.4l31.5-28.3
		c1.3-1.2,1.8-3.1,1.3-4.7C190.7,104,189.2,102.8,187.4,102.6z M150.5,133.8c-1.2,1.1-1.7,2.7-1.4,4.3l7.3,34l-30.1-17.4
		c-0.7-0.4-1.5-0.6-2.3-0.6s-1.6,0.2-2.3,0.6l-30.1,17.4l7.3-34c0.3-1.6-0.2-3.2-1.4-4.3l-25.9-23.3l34.6-3.6c1.6-0.2,3-1.2,3.7-2.7
		L124,72.5l14.1,31.8c0.7,1.5,2,2.5,3.7,2.7l34.6,3.6L150.5,133.8z"/>
	<path d="M125,0.1C56.1,0.1,0,56.2,0,125.1s56.1,125,125,125s125-56.1,125-125S193.9,0.1,125,0.1z M125,241.1c-64,0-116-52-116-116
		s52-116,116-116s116,52,116,116S189,241.1,125,241.1z"/>
</svg>
