<svg xmlns="http://www.w3.org/2000/svg" class="dibsvg-svg dibsvg-stone-cut-trillion" viewBox="0 0 250 250">
    <path d="M248.5 29.8c-1.3-2.3-3.6-4.3-5.9-4.9C205.6 14.4 166.3 9 125.8 9 64.9 8.9 18.6 21.2 5.9 25c-2 .6-3.7 2-4.7 4-1.5 2.8-1.4 6.2-.7 8.3C35.7 144 102 216.4 121.5 236.1c2.3 2.3 4.5 3.4 6.7 3.4 3 0 4.7-2 5.4-2.8C213.2 143.6 242.3 60 249.3 36.5c.7-2.2.4-4.6-.8-6.7zM153 186l1.3-6.2 24.4-18.5c-6 9.1-12.4 18.6-19.4 28.2L153 186zm1 10.9c-1.5 2-3.1 4.1-4.7 6.1l1.7-7.8 3 1.7zm-61.5-7.7c-6.1-7.9-12.6-16.7-19.3-26.4l23.2 17.6 1.7 5.7-5.6 3.1zm8.3 5.7l2.2 7.3c-1.6-1.9-3.1-3.8-4.8-5.8l2.6-1.5zm-40.5-138c6.4-1.7 13.4-3.4 20.9-4.7 12-2.2 26.1-3.8 41.9-3.8h.7c19.7 0 41.9 2.5 65.3 9.5-9.7 24.8-28.5 64-62.4 106.5-12.4-13.2-44.6-51.6-66.4-107.5zM63 85.6L43.6 62c2.5-.9 5.1-1.8 7.9-2.6C55.2 68.6 59 77.3 63 85.6zm60.9-46.3h-1.1c-15.6 0-29.7-1.1-41.6-2.6-7.1-.9-13.7-1.9-19.7-3 13.2-3.3 36-7.7 63.9-7.7 20.9 0 41.4 2.5 60.9 7.3-22.4 4.4-43.5 6-62.4 6zm71.1 1.5c-.8 2.5-1.7 5.3-2.9 8.6-6.2-1.9-12.3-3.4-18.3-4.7 6.9-1 14-2.3 21.2-3.9zM72.3 44.7c-5.4 1.1-10.5 2.4-15.3 3.7-.8-2.2-1.6-4.4-2.3-6.7 5.5 1.1 11.3 2.1 17.6 3zm125.2 15.9c2.6.9 5.2 1.8 7.8 2.8l-19.1 23.3c4.6-9.8 8.4-18.6 11.3-26.1zm3.1-8.4c2.1-5.8 3.5-10.5 4.5-13.7 8.3-2.1 16.7-4.5 25.2-7.4l-.1-.3c2.7.7 5.3 1.4 8 2.1l-26.9 23.2c-3.5-1.4-7.1-2.7-10.7-3.9zm2.5-22.5c-.9-.9-1.9-1.5-3-1.8-13.6-4.1-27.6-7-42-8.8 18.9 1.4 37.4 4 55.5 7.8-3.6 1-7.1 1.9-10.5 2.8zM48.6 28c-1.5.5-2.6 1.4-3.4 2.5-4.5-1-8.5-2.1-12-3 14.6-3.1 34.3-6.4 57.4-8.1-21.2 2.5-36.5 6.9-42 8.6zm-4 11.6c1.2 3.8 2.5 7.6 3.8 11.3-4.1 1.3-7.9 2.6-11.3 3.9L11.6 32.7c1.3-.4 2.7-.8 4.4-1.2 3.5 1.3 13.5 4.7 28.6 8.1zM27.7 58.5c-3.5 1.5-6.4 2.8-8.6 3.9-2.2-5.5-4.3-11-6.3-16.7l14.9 12.8zm4.7 7.8l6.5 39.2c-5.7-11-11.2-22.6-16.3-34.8 2.3-1.1 5.6-2.7 9.8-4.4zM43 75.5l34.7 42.2 14.4 48.1-33.4-25.2c-2.3-3.7-4.6-7.5-6.8-11.4L43 75.5zm49.6 60.7c12.4 17.9 23.3 30.2 28.7 35.9l.7.7-15.8 8.8-13.6-45.4zm39 36.2c9.5-11.8 17.9-23.3 25.3-34.4l-9.5 32-2.5 11.4-14.2-8c.4-.4.7-.8.9-1zm59.8-31.8L158 165.8l14.4-48.1L207 75.5l-9 54.3c-2.1 3.6-4.2 7.3-6.5 11.1l-.1-.3zm25.9-72.2c3 1.4 6 2.8 9.1 4.3-4.1 9.6-9.1 20.6-15.2 32.5l6.1-36.8zm3.3-8.3l16.1-13.9c-1.8 5.2-4.1 11.3-6.9 18.3-3.1-1.6-6.1-3.1-9.2-4.4zm-92.9 169.6c-2.7-2.7-6.2-6.4-10.4-11l-8.4-28.2 16.9-9.5 17 9.6-6.2 28.5c-2.9 3.5-5.9 7-8.9 10.6z"/>
</svg>
