<svg class="dibsvg-svg dibsvg-stone-cut-radiant" version="1.1" xmlns="http://www.w3.org/2000/svg" xmlns:xlink="http://www.w3.org/1999/xlink" viewBox="0 0 250 250">
    <path d="M197.9-0.5H50.6L6.5,45.7v156.1L52.6,250h146.9l44.6-47.2V46.7L197.9-0.5z M215.4,51.7l-21.1-23l4.6-15.3l32.3,33 L215.4,51.7z M131.5,185.4l-0.1,0.1l-5.5,1.1l-5.6-1.1l0-0.1l-0.1,0.1l-44.2-9L69,124l7-52.2l50-10.2l47.5,9.7l7.2,53.9l2,4.9 l-6.7,46.5l-44.3,9L131.5,185.4z M75.1,62.8L67,36.1L108.3,56L75.1,62.8z M62.2,107.6l-20-44.9L67,71.1L62.2,107.6z M59.6,124.1 L41,169.6V82.2L59.6,124.1z M62.3,141.3l4.8,35.9l-22.5,7.6L62.3,141.3z M75.2,185.5l31.4,6.4l-38,17.9L75.2,185.5z M174.5,186 l6.7,22l-35.5-16.1L174.5,186z M189.4,146.5l15.2,37.2l-19.6-6.4L189.4,146.5z M192,128.9l0.4-2.7l18.6-45v94.3L192,128.9z M188.2,112.8l-5.5-41l25.9-8.5L188.2,112.8z M174.6,62.3L144,56.1l37.8-17.4L174.6,62.3z M129.1,53l-3.1-0.6l-3.1,0.6L81.2,33h91.4 L129.1,53z M65.1,60.9l-20.7-7l13.9-15.3L65.1,60.9z M65.5,187.2L59,211.5l-14.9-17.1L65.5,187.2z M121.4,194.9l4.6,0.9l4.7-1 L175,215H78.9L121.4,194.9z M184,186.3l23.8,7.8l-16.1,17.4L184,186.3z M184.2,61.9l7.1-23.2L206,54.8L184.2,61.9z M186.3,24h-123 L58.6,8.5H191L186.3,24z M55.3,28.6L35.1,50.9l-16-5.4l31.3-32.8L55.3,28.6z M32,59.3V189l-16.5,5.5V53.8L32,59.3z M34.9,197.5 l21.3,24.4l-3.9,14.7l-32.5-34L34.9,197.5z M64.9,224h121.3l5.2,17h-131L64.9,224z M194.8,221.5l22.4-24.2l15,4.9l-32.7,34.6 L194.8,221.5z M220,188.7v-129l15-4.9v138.9L220,188.7z"/>
</svg>
