<svg xmlns="http://www.w3.org/2000/svg" class="dibsvg-svg dibsvg-stone-cut-round" viewBox="0 0 250 250">
    <path d="M124.8.2C56.1.2.2 56.1.2 124.8c0 68.7 55.9 124.7 124.7 124.7 68.7 0 124.7-55.9 124.7-124.7C249.5 56.1 193.6.2 124.8.2zm0 240.4h-3.2l-29-29.5 28.6-16.9 32 17-28 29.4h-.4zm1.3-231.5l27 28.4L126.7 53 94.4 35.9l26.3-26.7c1.4 0 2.8-.1 4.2-.1.3-.1.8 0 1.2 0zm39 195l9.2-30.2.1-.1 31-11.8v42.2h-40.3zM9 124.8v-.4l25.1-22.3v46.6l-25-23c0-.3-.1-.6-.1-.9zm71.1-80.7l-8.6 28.3-.9 2.1L43 85V44.1h37.1zm-27 89.5l13.3 29.1-23.4-8 10.1-21.1zm-10.1.5v-22l5.3 11-5.3 11zm1.2-40L65.3 86l-12.2 26.7-8.9-18.6zm46.8-50l24.9 13.2-34.5 13 8-26.3H91zM71.5 173.8l9.2 30.3H43V164l28.5 9.8zm18 28.8L82 178l29 11.8-21.5 12.8zM78 166.8l-19.7-43.3-.2-.4.2-.4 18.8-41.2 1.8-.7 47.5-17.9.2.1.2.1L168 79.9l19.5 42.8.2.4-.2.4-19.7 43.1-46.7 17.6L78 166.8zm114.7-54.1l-13-28.4 22.8 7.8-9.8 20.6zm9.6 40.9l-22.7 8.6 13.1-28.7 9.6 20.1zm-4.7-30.4l7.9-16.4v32.8l-7.9-16.4zm-21.1-49.4l-1.9-.8-.3-.6-9-29.6h40.1v41l-28.9-10zm-12.6-5.1l-27.4-11.2 20.3-12 7.1 23.2zm0 109l-7.7 25.1-24.5-13 32.2-12.1zm50.4-79.3L240 122l-25.7 22.9V98.4zm3.3-9l14.5-8.1c3.6 8.9 6.2 18.4 7.5 28.3l-22-20.2zm-3.3-8.4V51.4c5.5 6.7 10.2 14 14.1 21.7L214.3 81zm-48.8-47.1l7.2-14.5c8.5 3.9 16.5 8.8 23.8 14.5h-31zm-7.7-4.4L139.2 9.9c8.8 1.1 17.2 3.2 25.3 6.1l-6.7 13.5zm-69.7.1L82 17.3c7.9-3.2 16.3-5.5 24.9-6.8L88.1 29.6zm-7.2 5.6H51.6c6.8-5.6 14.3-10.4 22.3-14.4l7 14.4zM34.1 82.5l-13.7-7.6C24.2 67 28.8 59.7 34.1 53v29.5zm-1.7 9.2L9.8 111.9c1.1-10.1 3.5-19.7 7.1-28.9l15.5 8.7zm-3.1 64.6l-13.5 7.5c-2.9-8.1-4.9-16.6-6-25.4l19.5 17.9zm4.8 7.5v32.8c-5.9-7.5-11-15.7-14.9-24.5l14.9-8.3zM80 213l-7.4 15.1c-8.2-4.2-15.8-9.2-22.7-15.1H80zm7.3 5.3l20.7 21.1c-9.6-1.4-18.7-4-27.4-7.6l6.7-13.5zm71.3.1l7.2 14.7c-8.8 3.3-18 5.6-27.7 6.7l20.5-21.4zm7.2-5.4h34c-9.4 8-20.1 14.5-31.7 19.2l5.8-2.9-8.1-16.3zm48.5-47.7l15.4 8.6c-4.1 8.8-9.3 17-15.4 24.4v-33zm1.1-9.6l24.9-22.2c-.8 11.2-3.3 22-7.1 32.1l-17.8-9.9z"/>
</svg>
