<svg xmlns="http://www.w3.org/2000/svg" class="dibsvg-svg dibsvg-stone-cut-pear" viewBox="0 0 250 250">
    <path d="M215 58.1c-3-13.2-11.2-31.8-32.9-45.7l-.3-.2C180.9 11.8 159 0 127.1 0h-1.9c-1.4 0-34.5.6-58.4 12.6-.4.2-10.4 5.2-19.5 16.6C38.8 39.8 29.5 58 33 85.1c.4 2.5 9.6 62.7 53.4 119 .7 1 10.4 13.9 26.5 31.6 2.9 3.2 6 6.5 9 9.7l3.3 3.5 3.2-3.5c.2-.2 22.6-24.8 35.9-41.7 1.7-2.3 42.9-57.2 51.9-120 .3-1.2 1.9-11.9-1.2-25.6zm-39.9 112.3l-18.4 8.4 5.5-27.9 18.3-18v27.2h.3c-2 3.7-3.9 7.1-5.7 10.3zM68.2 159v-27.8l19.3 19 5.6 28.9-18.6-8.5c-2.2-4-4.3-7.8-6.3-11.6zm9.6-58.5l6.7 34.2-13.9-13.6-1.5-2.2 8.7-18.4zm.6-26.5l-8.7-17.5h13.7l-5 17.5zm25.3-40.4l9.8 5.4-15.4 5 5.6-10.4zm-3.9-11.5l-19-5.7c9.5-3.3 19.6-5.1 27.8-6.2l-8.8 11.9zm-25.5 1.7l21.1 6.4L86 47.6H69.6l4.7-23.8zM62.1 61.2l12.6 25.1-11.3 24-18.8-27.6 17.5-21.5zm-2.8 59v19.9C52.4 124 48 109.8 45.4 99.7l13.9 20.5zm43.6 90.3c-2.1-2.6-3.9-4.8-5.4-6.6l2.1-1.8 3.3 8.4zm1.1-22.7l-5.2-26.5 18.9 18.6-13.7 7.9zm-8.3-42L84.2 86.4l8.9-31.5 31.6-10.1 30.3 8.4 9.8 34.6.4.8-11.3 57.9-28.7 28.2-29.5-28.9zm110-63l-19.7 29-11.4-24.3 12.6-25.2 18.5 20.5zm-35.1-7.3l-5.7-20.2 14.5 2.6-8.8 17.6zm9.5 44.9l-.5.7-14.6 14.3 6.5-33.2 8.6 18.2zm-18.6-74.8l-8.6-16 21.9-7.2 5.5 26.5-18.8-3.3zm-13-23.9l-9-12.1c11.3 1.2 20.8 3.8 27.4 6.1l-18.4 6zm-3.8 11.6l5 9.2-13.9-3.9 8.9-5.3zm6.1 128.7l-5 25.6-13.2-7.6 18.2-18zm-.5 39.7l2.5 2.2c-2 2.4-4.1 4.9-6.2 7.4l3.7-9.6zm39-78.9l14.3-21c-3.6 14.4-8.8 28.2-14.3 40.6v-19.6zM208 72l-17.8-19.6-5.6-27.3C203.5 40.8 207.5 60.3 208 72zM125.2 8.9h2.7l12.3 16.6-15.7 9.5-16.4-9.1 12.4-16.7c2.9-.2 4.7-.3 4.7-.3zm-60 15.2l-5 25.2-19 23.4c.2-27.3 15.4-42.3 24-48.6zm17.9 160.2l12.1 5.5.3 1.7.6 1.6-4.1 3.6c-3.1-4.1-6.1-8.2-8.9-12.4zm42 51.5c-1.7-1.8-3.3-3.6-5-5.4l-13.1-34 18.2-10.5 17.7 10.2-13.4 34.9c-1.7 1.8-3.2 3.4-4.4 4.8zm33.2-39l-4.6-4 .5-1.3.4-1.9 12.4-5.7c-4.1 6.4-7.2 10.9-8.7 12.9z"/>
</svg>
