<svg xmlns="http://www.w3.org/2000/svg" class="dibsvg-svg dibsvg-stone-cut-oval" viewBox="0 0 250 250">
    <path d="M187.6 36.5c-16.6-23.9-38.9-37-62.7-37-10.7 0-21.2 2.7-31.1 8C77.1 16.4 62.9 32 52.7 52.8 42.4 73.6 36.9 98.3 36.9 124c0 33 9 64 25.3 87.4 16.6 23.9 38.9 37.1 62.7 37.1 23.8 0 46.1-13.2 62.7-37.1 16.3-23.4 25.3-54.5 25.3-87.4s-9-64.1-25.3-87.5zM143 196.7l-9.5-6.3 13.8-7.7-4.3 14zM103 183l13.3 7.4-9.2 6.1L103 183zm21.8 12.4l15.1 10-14.9 29.1-15-29.3 14.8-9.8zm0-10.5l-25.6-14.3-14.8-48.7 13.7-43.2 26.7-14.9 25.7 14.3 14.5 45.7-14 46.5-26.2 14.6zM68.2 99.4l6.8 22.4-8.2 25.6-17.5-23.1 18.9-24.9zm7-7.9l11.5-6.4-6.9 21.6-4.6-15.2zm4.4 45.5l8.3 27.2-14.4-8 6.1-19.2zm27.1-85l9.5 6.3-14 7.8 4.5-14.1zm35.7.4l4.2 13.2-13.1-7.3 8.9-5.9zm-17.6.8L110 43.4l14.4-28.6 14.6 29-14.2 9.4zM162 84.5l12.8 7.2-5.1 17-7.7-24.2zm7.9 54.5l5.6 17.6-13.2 7.3 7.6-24.9zm4.6-15.2l7.3-24 18.5 24.5-18 23.9-7.8-24.4zM186 90.5l11.8-10.9c3.1 10.7 5 22.2 5.8 34.2L186 90.5zm-.1-12.1l2.7-22.7c2.3 4.6 4.4 9.4 6.2 14.5l-8.9 8.2zm-9.6 3.8L158 72l-7.4-23.1 30.1-3.5-4.4 36.8zM131.5 8.9c4.8.6 9.5 1.8 14.1 3.6l-2.7 18.9-11.4-22.5zm-24.9 21.2l-2.5-17.6c4.3-1.7 8.7-2.9 13.2-3.5l-10.7 21.1zM90.7 72.6l-17 9.4-4.2-34.9h29.2l-8 25.5zm-26.4 6.5L55.2 70c1.9-5.1 4-10 6.3-14.6l2.8 23.7zm-.9 11.8l-17.1 22.7c.7-11.8 2.7-23.3 5.8-34l11.3 11.3zm.1 67.1l-.1.3v.8l-10.9 11c-3.2-10.9-5.4-22.6-6.2-34.9L63.5 158zm28.1 18.6l8.1 26.6-.1.6-27.2 2.8v-40.8l19.2 10.8zm25.6 62.3c-4.4-.6-8.8-1.8-13-3.5l2.5-17.2 10.5 20.7zm25.9-20l2.4 16.6c-4.1 1.6-8.3 2.8-12.6 3.4l10.2-20zm15.5-42.5l17.9-10v38.4l-26.1-1.2 8.2-27.2zm44.9-41.4c-.8 11.7-2.7 22.9-5.7 33.3l-11.5-10.5 17.2-22.8zm-26.8-98.2l-25.9 3 3.3-23.2c8.3 4.9 15.9 11.7 22.6 20.2zM95.6 16.7l3.1 21.4H72.2c6.8-8.9 14.7-16.2 23.4-21.4zM55.7 179.6l7.7-7.7v24.6c-2.9-5.4-5.5-11-7.7-16.9zm20.9 35.7l21.7-2.2-2.6 18.2c-6.9-4-13.3-9.5-19.1-16zm77.4 16.1l-2.7-18.7 23.3 1c-6.2 7.3-13.1 13.3-20.6 17.7zm31.5-33.4v-28.9l9.3 8.6c-2.6 7.3-5.8 14.1-9.3 20.3z"/>
</svg>
