<svg xmlns="http://www.w3.org/2000/svg" class="dibsvg-svg dibsvg-stone-cut-princess" viewBox="0 0 250 250">
    <path d="M0.5,243.7V6.4V0.7h5.8h236.8h6.2v5.1v238.5l0.2,5.1h-6.3H6.3H0.5V243.7z M20.4,240.5h208.7l-17.7-11.3H38.2L20.4,240.5z M214.5,220.5l16.2,10.3l-11-18.3l-11.9-6.2l6.5,13.8h0.3V220.5z M29.9,212.6l-11,18.3L35,220.5v-0.3h0.3l6.5-13.8L29.9,212.6z M228.5,209.9l11.8,19.6V20.7l-11.8,19.6V209.9z M9.5,21.3v207.6l12-19.8V41.2L9.5,21.3z M65.5,220.2h118L125,202.9L65.5,220.2z M147.7,200.2l54.7,16.2l-10-21.1L147.7,200.2z M57.7,193.7l-10.6,22.4l56.1-16.3L57.7,193.7z M50.4,145l-15.8,54.9l19.9-10.4 L50.4,145z M195,189.6l19.8,10.3l-15.1-52.5L195,189.6z M125,193.5l0.4,0.1l60.9-6.7l7-62.1l-0.1-0.4l0.1-0.4l-6.4-59l-61.6-9 L125,56l-0.3-0.1L64.4,66.2l-6.9,58.2l5.6,60.9l61.5,8.3L125,193.5z M202.6,124.5l16.9,59.1V70.8L202.6,124.5z M30.5,72.5v109.2 l16.4-57.2L30.5,72.5z M32.6,49.2l18,57.1l5.3-44.9L32.6,49.2z M195.5,60.4l0,0.2l4.6,42.1l16.9-53.4L195.5,60.4z M46.8,33.3 l11.7,24.8l46.4-7.9L46.8,33.3z M145.9,49.8l45.8,6.7l11.1-23.5L145.9,49.8z M63.6,28.8L125,46.6l60.3-17.8H63.6z M214.3,29.8 l-6.7,14.1l11.9-6.2l11-18.3L214.3,29.8z M29.9,37.6l11.9,6.2l-6.7-14.1L18.8,19.3L29.9,37.6z M36.3,19.8h176.8l15.9-10.2H20.4 L36.3,19.8z"/>
</svg>
