<svg class="dibsvg-svg dibsvg-stone-cut-round" version="1.1" xmlns="http://www.w3.org/2000/svg" xmlns:xlink="http://www.w3.org/1999/xlink" viewBox="0 0 250 250">
    <path d="M124.8,0.2C56.1,0.2,0.2,56.1,0.2,124.8c0,68.7,55.9,124.7,124.7,124.7c68.7,0,124.7-55.9,124.7-124.7 C249.5,56.1,193.6,0.2,124.8,0.2z M124.8,240.6c-1.1,0-2.1,0-3.2,0l-29-29.5l28.6-16.9l32,17l-28,29.4 C125.1,240.6,124.9,240.6,124.8,240.6z M126.1,9.1l27,28.4L126.7,53L94.4,35.9l26.3-26.7c1.4,0,2.8-0.1,4.2-0.1 C125.2,9,125.7,9.1,126.1,9.1z M165.1,204.1l9.2-30.2l0.1-0.1l31-11.8v42.2H165.1z M9,124.8c0-0.1,0-0.3,0-0.4l25.1-22.3v46.6 l-25-23C9.1,125.4,9,125.1,9,124.8z M80.1,44.1l-8.6,28.3l-0.9,2.1L43,85V44.1H80.1z M53.1,133.6l13.3,29.1l-23.4-8L53.1,133.6z M43,134.1v-22l5.3,11L43,134.1z M44.2,94.1L65.3,86l-12.2,26.7L44.2,94.1z M91,44.1l24.9,13.2l-34.5,13l8-26.3H91z M71.5,173.8 L71.5,173.8l9.2,30.3H43V164L71.5,173.8z M89.5,202.6L82,178l29,11.8L89.5,202.6z M78,166.8l-19.7-43.3l-0.2-0.4l0.2-0.4l18.8-41.2 l1.8-0.7l47.5-17.9l0.2,0.1l0.2,0.1L168,79.9l19.5,42.8l0.2,0.4l-0.2,0.4l-19.7,43.1l-46.7,17.6L78,166.8z M192.7,112.7l-13-28.4 l22.8,7.8L192.7,112.7z M202.3,153.6l-22.7,8.6l13.1-28.7L202.3,153.6z M197.6,123.2l7.9-16.4v32.8L197.6,123.2z M176.5,73.8 l-1.9-0.8l-0.3-0.6l-9-29.6h40.1v41L176.5,73.8z M163.9,68.7l-27.4-11.2l20.3-12L163.9,68.7z M163.9,177.7l-7.7,25.1l-24.5-13 L163.9,177.7z M214.3,98.4L240,122l-25.7,22.9V98.4z M217.6,89.4l14.5-8.1c3.6,8.9,6.2,18.4,7.5,28.3L217.6,89.4z M214.3,81V51.4 c5.5,6.7,10.2,14,14.1,21.7L214.3,81z M165.5,33.9l7.2-14.5c8.5,3.9,16.5,8.8,23.8,14.5H165.5z M157.8,29.5L139.2,9.9 c8.8,1.1,17.2,3.2,25.3,6.1L157.8,29.5z M88.1,29.6L82,17.3c7.9-3.2,16.3-5.5,24.9-6.8L88.1,29.6z M80.9,35.2H51.6 c6.8-5.6,14.3-10.4,22.3-14.4L80.9,35.2z M34.1,82.5l-13.7-7.6C24.2,67,28.8,59.7,34.1,53V82.5z M32.4,91.7L9.8,111.9 c1.1-10.1,3.5-19.7,7.1-28.9L32.4,91.7z M29.3,156.3l-13.5,7.5c-2.9-8.1-4.9-16.6-6-25.4L29.3,156.3z M34.1,163.8v32.8 c-5.9-7.5-11-15.7-14.9-24.5L34.1,163.8z M80,213l-7.4,15.1c-8.2-4.2-15.8-9.2-22.7-15.1H80z M87.3,218.3l20.7,21.1 c-9.6-1.4-18.7-4-27.4-7.6L87.3,218.3z M158.6,218.4l7.2,14.7c-8.8,3.3-18,5.6-27.7,6.7L158.6,218.4z M165.8,213h34 c-9.4,8-20.1,14.5-31.7,19.2l5.8-2.9L165.8,213z M214.3,165.3l15.4,8.6c-4.1,8.8-9.3,17-15.4,24.4V165.3z M215.4,155.7l24.9-22.2 c-0.8,11.2-3.3,22-7.1,32.1L215.4,155.7z"/>
</svg>
