<svg xmlns="http://www.w3.org/2000/svg" class="dibsvg-svg dibsvg-stone-cut-french" viewBox="0 0 250 250">
    <path d="M0-0.5v250h250v-250H0z M217.2,117l-30.3-30.2L241,20.6v3L217.2,117z M95,180l32.8-26.5l0,0l30.1,24.3L125,210.6L95,180z M125,37.9l34,33.9L127.9,97l-34-27.4L125,37.9z M172.5,72.5l41.6-33.3l-33.7,41.2L172.5,72.5z M174.7,87.4l-26.1,31.2l-14.4-15.1 l31.4-25.3L174.7,87.4z M127.4,141l-15.8-15.8l15.8-15.8l15.1,15.8L127.4,141z M121.1,103.1l-15.7,15.7L78.2,85.6l9.4-9.5 L121.1,103.1z M72.5,78.6L37.9,36.3l42.6,34.1L72.5,78.6z M71.9,92l27.1,33.2l-26.2,32.1l-32.5-33.1L71.9,92z M81.7,179.2l-43.8,35 l35.5-43.5L81.7,179.2z M79.1,163.8l26.2-32.1l15.7,15.7l-32.4,26.1L79.1,163.8z M134.1,147l14.4-15l25.2,30l-9.4,9.4L134.1,147z M179.5,168.9l34.6,42.3l-42.7-34.2L179.5,168.9z M180.1,155.6l-25.5-30.3l26.5-31.6l30.5,30.4L180.1,155.6z M166.1,66.1l-34.7-34.6 l94.1-23.1h12.6L166.1,66.1z M125,23.9L66.1,8.5h121.6L125,23.9z M118.7,31.5L86.9,63.9L17.6,8.5h12.8L118.7,31.5z M66.1,85 l-32.9,33.5L9,23.6v-8.4L66.1,85z M25.3,124.1L9,184.4V60L25.3,124.1z M9,218.8l24.2-89l33.9,34.6L9,235.3V218.8z M88,185.7 l30.7,31.3l-88.8,23.2l0.1,0.4H19.5L88,185.7z M125,224.6l64.7,15.9H64.2L125,224.6z M131.4,216.9l33.6-33.5l71.3,57.1H226l0.1-0.4 L131.4,216.9z M185.9,162.5l31.3-31.3l23.7,87.5v11.1L185.9,162.5z M224.7,124.1L241,60v124.4L224.7,124.1z"/>
</svg>
