<svg class="dibsvg-svg dibsvg-stone-cut-asscher" version="1.1" xmlns="http://www.w3.org/2000/svg" xmlns:xlink="http://www.w3.org/1999/xlink" viewBox="0 0 250 250">
    <path d="M219.7-0.5H32.8L1,32.7v184.8l34.9,32h182.8l30.8-32.7V29.6L219.7-0.5z M222.3,45.2l-17.6-18.3l13.2-16.4l21.7,21.9 L222.3,45.2z M179,80.4v89l-11,12.5H86l-12.7-12.4V80.9l11.5-12.8h83.8l9.3,10l-0.3,0.2L179,80.4z M167.1,59.1H83.7l-7.2-9h97.9 L167.1,59.1z M76.2,64.1l-9.3,10.3l-11-8.2l11.8-12.8L76.2,64.1z M64.2,83.7v83.2l-9.2,6.9V76.8L64.2,83.7z M67.1,176l10.1,9.8 l-7.6,9.5l-12.5-11.9L67.1,176z M84.6,190.9h83.7l5.8,7.2H78.8L84.6,190.9z M176.1,186.2l8.9-10l9.7,7.2l-11,12.2L176.1,186.2z M188,167.3V81.8l8.5-6.3v98.1L188,167.3z M185.1,72.8l-9.3-10l8.3-10.4l11.8,12.4L185.1,72.8z M181.6,41.1H69.3L61.2,31h128.6 L181.6,41.1z M62,46.4L48.6,60.9l-12.3-9.1l16.1-17.3L62,46.4z M46,70.2v110.3l-10.8,8V62.1L46,70.2z M49.7,188.9l14.2,13.5 l-9.6,11.9l-17.1-16.1L49.7,188.9z M71.6,207.1h109.7l8.4,10.5H63.2L71.6,207.1z M189.3,202.7l12.6-13.9l11.7,8.7l-15.1,16.6 L189.3,202.7z M205.5,180.3V68.8l9.5-7.1v125.5L205.5,180.3z M203.2,59.3l-13.4-14l9.1-11.4l16,16.7L203.2,59.3z M197,22h-143 L43.1,8.5h164.7L197,22z M46.7,27.4l-17.7,19L12.3,33.9l21.6-22.5L46.7,27.4z M26.2,55.5v139.7l-16.2,12V43.4L26.2,55.5z M29.9,203.6l18.7,17.7l-12.8,15.9l-22.9-21L29.9,203.6z M55.9,226.6h141l11.2,13.9H44.8L55.9,226.6z M204.2,221.2l16.7-18.3 l17.3,12.8l-20.7,22L204.2,221.2z M224,194V55.1l16.5-12.2v163.4L224,194z"/>
</svg>
