<svg xmlns="http://www.w3.org/2000/svg" class="dibsvg-svg dibsvg-stone-cut-old-mine" viewBox="0 0 250 250">
    <path d="M228.9,23.4l-0.7-1.8l-1.8-0.7C192.5,7.3,158.1,0.5,124.2,0.5C90.3,0.5,55.9,7.3,22,20.8l-1.9,0.8l-0.7,2 C7.1,59.7,1.2,93,1.2,125.4c0,32.3,6,65.7,18.2,102.1l0.7,2l2,0.8c33.9,13,68.2,19.6,102.1,19.6s68.3-6.6,102.1-19.6l1.9-0.7l0.7-2 C255.4,152.7,255.4,91.6,228.9,23.4z M239.5,134.1l-32.4,43.5l-0.9-0.4l-24.9-52l24.3-50.4l34.1,43.3 C239.8,123.3,239.8,128.7,239.5,134.1z M173.9,171.9l25.6,12l13.6,28.3L186.6,200L173.9,171.9z M86.4,163c-8.8-27.3-8.8-49.8,0-76.8 c12.7-4.8,25.6-7.3,38.2-7.3c12.7,0,25.6,2.5,38.3,7.3c9.5,25.5,9.5,48.7-0.1,76.7c-12.7,4.6-25.6,7-38.3,7 C111.9,170,99.1,167.6,86.4,163z M64.8,200.2l-31.2,15.6l14.2-29.6L76,174.2L64.8,200.2z M10.2,117.9l32-44.1L67,125.2l-25.5,53.1 l-31.4-46.2C10.1,127.4,10.1,122.7,10.2,117.9z M75.5,77.2l-27.5-12l-15.9-33l29.9,12.9L75.5,77.2z M71.5,136.7 c0.9,8.8,2.8,17.8,5.8,27.2l-23.6,10L71.5,136.7z M71.3,113.4L54.1,77.7l22.5,9.8C73.9,96.4,72.2,104.9,71.3,113.4z M186.6,45.3 l27.9-9.7l-13.1,27.2l-26.6,11.5L186.6,45.3z M178,139.1l15.3,32l-20.5-9.6C175.2,153.8,177,146.3,178,139.1z M178.3,110.7 c-1-8.4-3.1-16.8-6.2-25.4l23.3-10.1L178.3,110.7z M211.8,68.1l19.5-8.4c3.8,14.3,6.3,28.5,7.5,42.8L211.8,68.1z M214,57.3l10.1-21 c1.7,4.9,3.3,9.7,4.7,14.5L214,57.3z M191.1,34.2l5.8-14.1c6,1.7,11.9,3.7,17.9,5.9L191.1,34.2z M181.2,34.7l-33.1-24.1 c13.3,1.3,26.7,3.7,40,7.1L181.2,34.7z M163.9,77c-7.6-2.7-15.3-4.7-23-5.9l32.3-16.9L163.9,77z M85.2,77.1l-9.5-22.8l32.9,16.9 C100.8,72.3,93,74.3,85.2,77.1z M57.1,33.2l-19.8-8.5c4.7-1.7,9.5-3.2,14.3-4.6L57.1,33.2z M60.4,17.7c13.4-3.4,26.8-5.8,40.1-7.1 l-33,24.1L60.4,17.7z M35.4,59.7l-15.5-6.8c1.4-5.2,2.9-10.5,4.6-15.9L35.4,59.7z M34.5,69.1l-23.3,32.1c1.2-12.9,3.4-26,6.5-39.4 L34.5,69.1z M33.5,182.4l-15.7,6.6c-3.1-13.4-5.3-26.5-6.5-39.4L33.5,182.4z M35.3,191.4l-10.8,22.5c-1.7-5.4-3.2-10.7-4.6-16 L35.3,191.4z M59.3,213l-7.6,17.6c-5.7-1.6-11.3-3.4-17-5.3L59.3,213z M68.7,213.9l35.7,26.1c-14.6-1.1-29.2-3.5-43.9-7.1 L68.7,213.9z M86.5,172.6c7.8,2.6,15.6,4.4,23.4,5.4l-33.8,18.6L86.5,172.6z M164.1,172.1l10,22.1L139.3,178 C147.6,176.9,155.8,175,164.1,172.1z M192.3,212.5l24.9,11.5c-5.7,2-11.4,3.9-17.1,5.6L192.3,212.5z M191.3,232.1 c-14.3,3.7-28.7,6.3-43,7.6l33.3-29L191.3,232.1z M212.3,189.9l16.7,7.8c-1.5,5.5-3.2,11-5,16.6L212.3,189.9z M215.4,181.5 l22.8-30.5c-1.4,12.4-3.7,25-6.9,38L215.4,181.5z M131.3,9.6l45.1,32.9l-51.6,27l-52.6-27l44.9-32.8c2.3-0.1,4.7-0.1,7-0.1 C126.6,9.5,129,9.5,131.3,9.6z M120.6,240.8l-45.5-33.3l48.6-26.8l51.3,23.8l-41.5,36.1c-3.1,0.1-6.2,0.2-9.2,0.2 C123,240.8,121.8,240.8,120.6,240.8z"/>
</svg>
