<svg xmlns="http://www.w3.org/2000/svg" class="dibsvg-svg dibsvg-stone-cut-pear" viewBox="0 0 250 250">
    <path d="M215,58.1c-3-13.2-11.2-31.8-32.9-45.7l-0.3-0.2C180.9,11.8,159,0,127.1,0c-0.6,0-1.3,0-1.9,0c-1.4,0-34.5,0.6-58.4,12.6 c-0.4,0.2-10.4,5.2-19.5,16.6C38.8,39.8,29.5,58,33,85.1c0.4,2.5,9.6,62.7,53.4,119c0.7,1,10.4,13.9,26.5,31.6c2.9,3.2,6,6.5,9,9.7 l3.3,3.5l3.2-3.5c0.2-0.2,22.6-24.8,35.9-41.7c1.7-2.3,42.9-57.2,51.9-120C216.5,82.5,218.1,71.8,215,58.1z M175.1,170.4l-18.4,8.4 l5.5-27.9l18.3-18v27.2h0.3C178.8,163.8,176.9,167.2,175.1,170.4z M68.2,159v-27.8l19.3,19l5.6,28.9l-18.6-8.5 C72.3,166.6,70.2,162.8,68.2,159z M77.8,100.5l6.7,34.2l-13.9-13.6l-1.5-2.2L77.8,100.5z M78.4,74l-8.7-17.5h13.7L78.4,74z M103.7,33.6l9.8,5.4L98.1,44L103.7,33.6z M99.8,22.1L99.8,22.1l-19-5.7c9.5-3.3,19.6-5.1,27.8-6.2L99.8,22.1z M74.3,23.8l21.1,6.4 L86,47.6H69.6L74.3,23.8z M62.1,61.2l12.6,25.1l-11.3,24L44.6,82.7L62.1,61.2z M59.3,120.2v19.9c-6.9-16.1-11.3-30.3-13.9-40.4 L59.3,120.2z M102.9,210.5c-2.1-2.6-3.9-4.8-5.4-6.6l2.1-1.8L102.9,210.5z M104,187.8l-5.2-26.5l18.9,18.6L104,187.8z M95.7,145.8 L84.2,86.4l8.9-31.5l31.6-10.1l30.3,8.4l9.8,34.6l0.4,0.8l-11.3,57.9l-28.7,28.2L95.7,145.8z M205.7,82.8l-19.7,29l-11.4-24.3 l12.6-25.2L205.7,82.8z M170.6,75.5l-5.7-20.2l14.5,2.6L170.6,75.5z M180.1,120.4l-0.5,0.7l-14.6,14.3l6.5-33.2L180.1,120.4z M161.5,45.6l-8.6-16l21.9-7.2l5.5,26.5L161.5,45.6z M148.5,21.7l-9-12.1c11.3,1.2,20.8,3.8,27.4,6.1L148.5,21.7z M144.7,33.3l5,9.2 l-13.9-3.9L144.7,33.3z M150.8,162l-5,25.6l-13.2-7.6L150.8,162z M150.3,201.7l2.5,2.2c-2,2.4-4.1,4.9-6.2,7.4L150.3,201.7z M189.3,122.8l14.3-21c-3.6,14.4-8.8,28.2-14.3,40.6V122.8z M208,72l-17.8-19.6l-5.6-27.3C203.5,40.8,207.5,60.3,208,72z M125.2,8.9 c0.6,0,1.2,0,1.8,0c0.3,0,0.6,0,0.9,0l12.3,16.6L124.5,35l-16.4-9.1l12.4-16.7C123.4,9,125.2,8.9,125.2,8.9z M65.2,24.1l-5,25.2 l-19,23.4C41.4,45.4,56.6,30.4,65.2,24.1z M83.1,184.3l12.1,5.5l0.3,1.7l0.6,1.6l-4.1,3.6C88.9,192.6,85.9,188.5,83.1,184.3z M125.1,235.8c-1.7-1.8-3.3-3.6-5-5.4l-13.1-34l18.2-10.5l17.7,10.2l-13.4,34.9C127.8,232.8,126.3,234.4,125.1,235.8z M158.3,196.8 l-4.6-4l0.5-1.3l0.4-1.9l12.4-5.7C162.9,190.3,159.8,194.8,158.3,196.8z"/>
</svg>
