<svg xmlns="http://www.w3.org/2000/svg" class="dibsvg-svg dibsvg-stone-cut-cushion" viewBox="0 0 250 250">
    <path d="M171.2,0.3H78.8C36.5,0.3,1.9,34.1,0.4,76l-1.6,0.8l1.6,3v91.2c0,43.3,35.2,78.5,78.5,78.5h92.3c43.3,0,78.5-35.2,78.5-78.5 V78.8C249.7,35.6,214.4,0.3,171.2,0.3z M217.9,119.5l-25.7-27.9l4.7-31.6l42.2,18.3L217.9,119.5z M98.4,190.5l-31.4-34l-0.6-62.1 l35.1-36.9l46.1,0.3L183,94.9l-0.6,61l-31.9,34.6H98.4z M142.1,199.5l-17.7,19.2l-17.7-19.2H142.1z M65,82.8l-3.8-25.5l27.9,0.2 L65,82.8z M57.5,104l0.4,42.6L38.1,125L57.5,104z M65.5,168.1l20.7,22.4H62.4L65.5,168.1z M110,48.6l14.4-15.1L139,48.8L110,48.6z M184.4,83.4l-24.2-25.4l28,0.2L184.4,83.4z M183.7,167.7l3.1,22.8h-24.1L183.7,167.7z M191.9,104.6l18.8,20.5l-19.3,21L191.9,104.6 z M202.6,52.8l23.7-16.2c7.1,9.3,12,20.4,13.7,32.4L202.6,52.8z M151.5,48.9l-19.9-20.9l42.1-17.8l-0.3-0.8c0.5,0,1.1,0,1.6,0.1 l12.3,39.7L151.5,48.9z M129.5,19.1V9.3h23L129.5,19.1z M119.3,19.5L95.7,9.3h23.6V19.5z M116.9,28.3L97.7,48.5l-36.4-0.3L71.5,9.7 c0.6-0.1,1.3-0.1,1.9-0.2L116.9,28.3z M52.8,45.1l-23-15.4c8.7-8.7,19.7-15.1,32-18.2L52.8,45.1z M57.2,91l-26.2,28.5l-20-38.8 l41.6-21.3L57.2,91z M30.9,130.5l26.7,29.1l-3.9,28.5L9.4,173.7c0-0.5,0-1,0-1.5L30.9,130.5z M47.4,195.5l-24.4,17 c-6.2-8.4-10.6-18.3-12.5-29L47.4,195.5z M94.4,199.5l22.7,24.6L74,239.9l-10.6-40.4H94.4z M119.3,232.9v7.8H98.1L119.3,232.9z M129.5,232.5l21.2,8.1h-21.2V232.5z M175.5,240.5l-43.5-16.7l22.4-24.3h31.8l-10.4,41C175.7,240.5,175.6,240.5,175.5,240.5z M240.6,173.4L195.7,189l-4.1-29.8l26.3-28.7l22.1,42.8l0.6-0.3C240.6,173.1,240.6,173.2,240.6,173.4z M239.6,183.3 c-2,11.2-6.6,21.5-13.3,30.1l-24.5-17.1L239.6,183.3z M225.2,125l15.4-29.9v59.8L225.2,125z M220.3,29.7l-24.5,16.8l-11.1-35.8 C198.5,13.4,210.8,20.2,220.3,29.7z M23.8,36.5l23.4,15.6L9.8,71.3C11.2,58.3,16.2,46.4,23.8,36.5z M23.6,125L9.3,152.6V97.4 L23.6,125z M28.8,219.4l25.8-18l9.9,37.8C50.7,236.3,38.3,229.2,28.8,219.4z M185.4,239.2l9.3-36.8l25.6,17.8 C210.9,229.6,198.9,236.4,185.4,239.2z"/>
</svg>
