<svg class="dibsvg-svg dibsvg-tag-icon" version="1.1" xmlns="http://www.w3.org/2000/svg" xmlns:xlink="http://www.w3.org/1999/xlink" viewBox="0 0 250 250">
	<path class="inner-ring" d="M125,46.1c43.6,0,78.9,35.3,78.9,78.9s-35.3,78.9-78.9,78.9S46.1,168.6,46.1,125S81.4,46.1,125,46.1 M125,32.2
		c-51.2,0-92.8,41.6-92.8,92.8s41.6,92.8,92.8,92.8s92.8-41.6,92.8-92.8S176.2,32.2,125,32.2L125,32.2z"/>
	<circle class="core-circle" cx="125" cy="125" r="78.9"/>
	<path class="outer-ring" d="M125,0C56,0,0,56,0,125c0,69,56,125,125,125c69,0,125-56,125-125C250,56,194,0,125,0z M125,236.1
		c-61.3,0-111.1-49.8-111.1-111.1C13.9,63.7,63.7,13.9,125,13.9c61.3,0,111.1,49.8,111.1,111.1C236.1,186.3,186.3,236.1,125,236.1z"
		/>
</svg>
