<svg class="dibsvg-svg dibsvg-tag-empty" xmlns="http://www.w3.org/2000/svg" xmlns:xlink="http://www.w3.org/1999/xlink" viewBox="0 0 250 250">
	<path d="M136.7,61.5c-12.5-6.9-28.5-2.4-35.4,10.2c-7,12.6-2.4,28.5,10.2,35.4c12.6,7,28.5,2.4,35.4-10.2C153.9,84.3,149.3,68.4,136.7,61.5z M140.8,93.5c-5.1,9.2-16.7,12.5-25.9,7.5c-9.2-5.1-12.5-16.7-7.5-25.9c5.1-9.2,16.7-12.5,25.9-7.5C142.6,72.7,145.9,84.3,140.8,93.5z"/>
	<path d="M213.6,79.4c0-4.1-1.8-8-4.9-10.8L135.2,3.5c-5.4-4.8-13.6-4.8-19.1,0l-73.4,65c-3.1,2.8-4.9,6.7-4.8,10.8l0,156.6c0,8,6.4,14.4,14.4,14.4l146.8,0c8,0,14.4-6.4,14.4-14.4L213.6,79.4z M204.1,240.1c-1.2,1.4-3,2.2-4.9,2.2l-146.8,0c-1.7,0-3.4-0.6-4.6-1.9c-1.3-1.2-1.9-2.9-2-4.6l0-156.7c0-1.6,0.6-3.2,1.6-4.3c0.2-0.2,0.3-0.4,0.5-0.6l73.4-65c2.4-2.2,6.1-2.2,8.6,0l73.4,64.9c1.5,1.4,2.3,3.1,2.3,4.9l0.1,156.6C205.8,237.4,205.2,239,204.1,240.1z"/>
</svg>
