<svg version="1.1" class="dibsvg-svg dibsvg-upload-failed" viewBox="0 0 250 250" xmlns="http://www.w3.org/2000/svg" xmlns:xlink="http://www.w3.org/1999/xlink">
	<path d="M124.5,249.3c-68.8,0-124.8-56-124.8-124.8S55.7-0.3,124.5-0.3s124.8,56,124.8,124.8S193.3,249.3,124.5,249.3z M124.5,9.7C61.2,9.7,9.7,61.2,9.7,124.5c0,63.3,51.5,114.8,114.8,114.8c63.3,0,114.8-51.5,114.8-114.8C239.3,61.2,187.8,9.7,124.5,9.7z"/>
	<path d="M125.1,197.2c-6.2,0-11.1-4.9-11.1-11.1c0-6.2,4.9-11.3,11.1-11.3s11.3,5.1,11.3,11.3C136.5,192.3,131.4,197.2,125.1,197.2z M126.7,155.5h-3.1c-1.4-34-8.4-77.7-8.4-84.7c0-6.2,4.1-11.9,10.1-11.9c6.1,0,10.1,5.7,10.1,11.9C135.5,77.6,128.8,121.1,126.7,155.5z"/>
</svg>
