<svg version="1.1" class="dibsvg-svg dibsvg-video" viewBox="0 0 45 34" xmlns="http://www.w3.org/2000/svg">
    <g>
        <path d="M0,0 L45.003131,0 L45.003131,33.75 L0,33.75 L0,0 Z M0.75,33 L44.253131,33 L44.253131,0.75 L0.75,0.75 L0.75,33 Z M32.375,10.9790132 L32.375,24.0212845 L27.0365789,20.855179 L27.0365789,22.1032548 C27.0365789,23.3557236 26.0438367,24.375 24.8142105,24.375 L15.8473684,24.375 C14.6177422,24.375 13.625,23.3557236 13.625,22.1032548 L13.625,12.8967452 C13.625,11.6442764 14.6177422,10.625 15.8473684,10.625 L24.8151978,10.6250013 C26.0425799,10.6282326 27.0318461,11.6465512 27.0318421,12.8967452 L27.0318421,14.1451187 L32.375,10.9790132 Z M26.2818421,15.461316 L26.2818421,12.896744 C26.2818448,12.0556451 25.6226873,11.3771297 24.8142105,11.375 L15.8473684,11.375 C15.0364478,11.375 14.375,12.0541271 14.375,12.8967452 L14.375,22.1032548 C14.375,22.9458729 15.0364478,23.625 15.8473684,23.625 L24.8142105,23.625 C25.6251311,23.625 26.2865789,22.9458729 26.2865789,22.1032548 L26.2865789,19.5383862 L31.625,22.7044917 L31.625,12.2952105 L26.2818421,15.461316 Z"></path>
    </g>
</svg>
