<svg xmlns="http://www.w3.org/2000/svg" class="dibsvg-svg dibsvg-yoga" viewBox="0 50 420 420">
    <path d="M418.7 181.7l-2.1.8 2.1-.8c-.4-.8-.4-1.3-.8-1.7-.8-2.1-2.1-3.8-4.2-4.6-5-2.5-13 0-22.3 3.4l-2.1.8c-7.1 2.5-15.1 5.5-20.6 3.4-1.3-.4-2.1-.8-3.4-1.3-7.6-2.9-17.2-7.1-25.2-2.5-6.7 3.8-8.4 13-8.8 19.3-8 1.3-26 4.6-35.7 6.3-4.2.8-7.1 1.3-10.1 2.1-5.5 1.3-9.7 2.5-19.7 2.9 8.4-7.1 19.7-16.8 26.5-23.9 12.6-12.6 21.8-27.7 26.9-43.7 4.6-15.1 4.6-26.9.4-37.4-3.4-8.4-13.4-19.3-23.5-23.5-11.3-4.6-39.1-3.4-48.3 2.1-3.8 2.1-22.7 13.4-33.2 26.5-5 6.3-19.7 17.6-33.6 28.6-9.7 7.6-19.7 15.5-27.3 21.8-4.2 3.8-8.4 7.6-12.6 11.3l-.4.4c-12.6 10.9-23.1 20.2-30.2 29-3.4 6.3-7.1 11.3-8.4 13-4.2-1.3-16.4-6.3-20.2-10.1-2.9-2.9-8.8-6.3-15.1-8.8-.4-10.5-9.2-18.5-20.2-18.5s-20.2 8.8-20.2 19.7v1.7c-4.6 2.1-8.8 5-12.2 8.8C5 216.6-2.5 233.4.4 242.6c.4 2.1.8 3.8 1.3 5.5.8 4.6 2.1 10.1 8.4 12.6 1.3.4 2.1 2.1 2.9 4.2 1.7 2.5 3.4 6.3 8 7.6 2.1.4 3.8.4 4.6.4h1.3s0 .4.4.8c.4 1.7.8 3.4.8 5.5.8 5 1.7 11.8 8 12.6 3.8.4 6.3-1.3 8-2.5 3.8 2.5 7.6 4.2 13.4 5.9 7.6 1.7 10.1 2.1 13.9-2.1 2.1-2.1 3.4-5 4.6-8 .4-1.3 1.3-2.9 2.1-4.6 1.3-2.1 2.1-3.8 14.7-5.5 11.8-1.7 27.7-7.1 30.2-8.4 6.7 6.7 13.9 12.6 13.9 12.6 3.8 2.9 13 7.6 22.3 11.8 5.5 2.5 10.5 5 12.6 6.3 5 3.4 15.5 11.8 20.2 16 1.3 1.3 2.5 2.5 4.6 4.2l.4.4c5 4.6 13.4 12.2 15.1 16 2.1 4.6 2.9 21.4 3.4 31.5 0 2.5 0 4.6.4 6.3.8 15.1.8 30.7.4 34.9h-10.9c-8.4 0-13.4 0-21.8 5.9-4.6 3.4-13 5-18.9 6.3-2.5.4-4.6.8-6.3 1.7l-.8.4c-4.2 1.3-8.8 2.5-9.7 6.7-.8 4.2 2.9 7.6 4.6 8.8 2.9 2.5 9.7 3.4 23.1 3.4 10.1 0 23.1-.4 43.3-1.7 3.8-.4 6.7-.4 7.6-.4 5.9 0 8-4.2 9.7-7.6.8-2.1 2.5-5 5-8.8 8.4-12.2 12.6-107.9 12.6-108.8-.4-4.2-6.3-9.7-26.5-25.6l-3.4-2.5c-1.7-1.3-5.5-3.8-11.3-7.6 5.9-1.7 12.2-3.8 17.6-5 11.3-2.9 48.3-14.7 61.3-19.3 13.9-5 48.3-16.4 60.1-19.7 13.4-3.8 23.5-12.2 30.2-17.6 3.8-2.9 8.4-5.5 14.3-8.4 4.6-2.5 9.2-5 14.3-8 8.3-6.2 11.7-9.9 8.3-17.1zM159.2 429.5l1.3-.4c1.3-.4 3.4-.8 5-1.3h.4c6.7-1.3 16-3.4 22.3-8 5.9-4.2 8.4-4.2 16.8-4.2h6.3c5.9 0 11.3.4 13.4-5.5 1.7-5.5.4-38.6.4-39.1l-.4-6.3c-.8-16.4-1.3-29.4-4.2-34.9-2.5-5.5-10.9-13-17.2-18.9l-.4-.4c-1.7-1.7-3.4-2.9-4.2-3.8-5-5-15.5-13.9-21.4-17.2-2.5-1.7-8-4.2-14.3-7.1-7.1-3.4-17.2-8.4-20.2-10.5-9.7-7.6-21-19.3-21.4-22.3-.4-1.3-.8-2.1-2.1-2.9-.8-.8-2.1-.8-3.4-.8-2.5.4-4.2 2.9-3.8 5.5.4 2.1 1.7 4.6 4.2 7.6-5.5 1.7-16.4 5.5-24.8 6.7-12.2 1.7-18.1 3.8-21.4 10.5-.8 2.1-1.7 3.8-2.5 5.5-.8 2.1-1.7 3.8-2.1 4.6l-.4.4c-.4 0-2.5-.4-5-.8-5.5-1.3-8.4-2.9-12.6-5.9-3.8-2.5-7.1 0-8.4 1.3-.4 0-.4.4-.8.8-.4-1.3-.8-3.4-.8-4.6-.4-2.1-.8-4.2-1.3-6.7-2.1-7.1-7.1-7.6-10.5-7.6-.8 0-2.1 0-2.5-.4-.4-.4-1.3-1.7-1.7-2.5-.8-1.3-1.7-3.4-3.4-5.5 2.9-2.1 7.1-4.6 11.3-4.2 8.4 1.7 17.2.8 17.6.8h3l-.8-2.9c-1.3-3.8-2.1-9.2-.8-10.1l.8-.4c2.9-2.5 4.2-3.8 9.2-.4 8 5.5 18.9 3.4 23.9 0 3.4-2.1 10.5-10.1 15.1-15.5 2.1.8 3.8.8 4.6.8 2.5 0 6.3-1.3 15.1-17.2 3.4-3.8 8-8.8 15.1-15.1 5 2.9 16 10.5 22.3 21 5 8.8 6.7 23.1 7.6 31.9-3.8-5-5.5-12.2-5.5-12.2-.4-2.5-2.9-4.2-5.5-3.8-1.3.4-2.1.8-2.9 2.1-.8.8-.8 2.1-.8 3.4.4 1.3 2.5 13 10.5 20.2 4.2 3.8 18.9 12.6 32.8 21.4l.8.4c10.9 6.7 21.4 13.4 25.2 16l3.4 2.5 1.3-1.7-1.3 1.7c17.2 13.4 22.3 18.1 23.1 19.7.4 8-5 94.1-10.9 102.1-2.9 4.2-4.6 8-5.9 10.1-.4.4-.8 1.7-1.3 2.1-1.3 0-4.2 0-8.4.4-41.6 3.3-54.2 2.5-57.5 1.6-.4 0 0 0 0 0zm251.1-243.6s0 .4 0 0c0 .8-1.3 1.7-5 4.2-4.6 2.9-9.2 5-13.4 7.6-5.9 2.9-11.8 5.9-16 9.7-5.9 5-15.1 12.6-26.9 16-12.2 3.4-46.6 15.1-60.9 19.7-13.9 5-50 16.4-60.9 18.9-9.2 2.5-21.8 6.3-25.6 7.6l-5.5-3.4c-8.8-5.5-18.5-11.3-24.8-15.5l20.6-38.2c6.7-12.6 18.1-30.2 26-41.6 5.9-8 20.2-23.5 29.8-33.6l4.2-4.6c4.2.8 12.2 3.8 20.6 15.1 9.7 12.6 14.7 23.5 16.8 28.6-.8 1.3-2.1 2.1-2.9 2.9-10.5 10.5-30.7 27.3-36.1 31.5-6.7 1.3-10.9 3.8-15.1 5.9-1.7.8-2.9 1.7-5 2.5-10.9 4.6-19.3 21-19.7 21.8-.4 1.3-.8 2.5-.4 3.4.4 1.3 1.3 2.1 2.1 2.5 2.1 1.3 5 .4 6.3-2.1 2.5-5 9.2-15.1 15.1-17.6 2.1-.8 3.8-1.7 5.9-2.9 5.9-2.9 10.1-5 23.5-5.5 13.4-.4 18.9-1.7 25.6-3.4 2.5-.8 5.5-1.3 9.2-2.1 12.6-2.1 39.1-6.7 39.5-7.1 2.1-.4 3.8-2.5 3.8-4.6 0-5 .8-13 4.2-15.1 3.8-2.5 10.9.4 16.8 2.9 1.3.4 2.5.8 3.4 1.3 8.4 3.4 18.5-.4 26.9-3.4l2.5.4c9.7-3.4 13-3.8 14.7-3.8-.1.8.3 1.6.7 2zm-199.5-20.6c-4.6 6.7-10.5 15.1-16 23.9-2.9-5.5-7.6-12.2-11.3-16-4.2-4.2-10.9-9.7-15.1-13 5.5-4.6 12.2-9.7 18.1-14.3 15.1-11.8 29-22.7 34.9-29.8v-.4c2.9 3.8 7.1 9.7 9.2 13.9 1.7 3.4 2.9 6.3 3.8 8.4-8.9 9.7-18.9 20.6-23.6 27.3z"/>
</svg>
