<svg version="1.1" class="dibsvg-svg dibsvg-yoga" viewBox="0 50 420 420" xmlns="http://www.w3.org/2000/svg" xmlns:xlink="http://www.w3.org/1999/xlink">
    <path d="M418.7,181.7l-2.1,0.8l0,0L418.7,181.7c-0.4-0.8-0.4-1.3-0.8-1.7c-0.8-2.1-2.1-3.8-4.2-4.6
            c-5-2.5-13,0-22.3,3.4l-2.1,0.8c-7.1,2.5-15.1,5.5-20.6,3.4c-1.3-0.4-2.1-0.8-3.4-1.3c-7.6-2.9-17.2-7.1-25.2-2.5
            c-6.7,3.8-8.4,13-8.8,19.3c-8,1.3-26,4.6-35.7,6.3c-4.2,0.8-7.1,1.3-10.1,2.1c-5.5,1.3-9.7,2.5-19.7,2.9
            c8.4-7.1,19.7-16.8,26.5-23.9c12.6-12.6,21.8-27.7,26.9-43.7c4.6-15.1,4.6-26.9,0.4-37.4c-3.4-8.4-13.4-19.3-23.5-23.5
            c-11.3-4.6-39.1-3.4-48.3,2.1c-3.8,2.1-22.7,13.4-33.2,26.5c-5,6.3-19.7,17.6-33.6,28.6c-9.7,7.6-19.7,15.5-27.3,21.8
            c-4.2,3.8-8.4,7.6-12.6,11.3l-0.4,0.4c-12.6,10.9-23.1,20.2-30.2,29c-3.4,6.3-7.1,11.3-8.4,13c-4.2-1.3-16.4-6.3-20.2-10.1
            c-2.9-2.9-8.8-6.3-15.1-8.8c-0.4-10.5-9.2-18.5-20.2-18.5s-20.2,8.8-20.2,19.7c0,0.4,0,1.3,0,1.7c-4.6,2.1-8.8,5-12.2,8.8
            C5,216.6-2.5,233.4,0.4,242.6c0.4,2.1,0.8,3.8,1.3,5.5c0.8,4.6,2.1,10.1,8.4,12.6c1.3,0.4,2.1,2.1,2.9,4.2c1.7,2.5,3.4,6.3,8,7.6
            c2.1,0.4,3.8,0.4,4.6,0.4c0.8,0,1.3,0,1.3,0s0,0.4,0.4,0.8c0.4,1.7,0.8,3.4,0.8,5.5c0.8,5,1.7,11.8,8,12.6c3.8,0.4,6.3-1.3,8-2.5
            c3.8,2.5,7.6,4.2,13.4,5.9c7.6,1.7,10.1,2.1,13.9-2.1c2.1-2.1,3.4-5,4.6-8c0.4-1.3,1.3-2.9,2.1-4.6c1.3-2.1,2.1-3.8,14.7-5.5
            c11.8-1.7,27.7-7.1,30.2-8.4c6.7,6.7,13.9,12.6,13.9,12.6c3.8,2.9,13,7.6,22.3,11.8c5.5,2.5,10.5,5,12.6,6.3
            c5,3.4,15.5,11.8,20.2,16c1.3,1.3,2.5,2.5,4.6,4.2l0.4,0.4c5,4.6,13.4,12.2,15.1,16c2.1,4.6,2.9,21.4,3.4,31.5c0,2.5,0,4.6,0.4,6.3
            c0.8,15.1,0.8,30.7,0.4,34.9c-1.3,0-3.4,0-4.6,0c-1.7,0-3.4,0-5.5,0h-0.8c-8.4,0-13.4,0-21.8,5.9c-4.6,3.4-13,5-18.9,6.3
            c-2.5,0.4-4.6,0.8-6.3,1.7l-0.8,0.4c-4.2,1.3-8.8,2.5-9.7,6.7c-0.8,4.2,2.9,7.6,4.6,8.8c2.9,2.5,9.7,3.4,23.1,3.4
            c10.1,0,23.1-0.4,43.3-1.7c3.8-0.4,6.7-0.4,7.6-0.4c5.9,0,8-4.2,9.7-7.6c0.8-2.1,2.5-5,5-8.8c8.4-12.2,12.6-107.9,12.6-108.8
            c-0.4-4.2-6.3-9.7-26.5-25.6l-3.4-2.5c-1.7-1.3-5.5-3.8-11.3-7.6c5.9-1.7,12.2-3.8,17.6-5c11.3-2.9,48.3-14.7,61.3-19.3
            c13.9-5,48.3-16.4,60.1-19.7c13.4-3.8,23.5-12.2,30.2-17.6c3.8-2.9,8.4-5.5,14.3-8.4c4.6-2.5,9.2-5,14.3-8
            C418.7,192.6,422.1,188.9,418.7,181.7z M159.2,429.5l1.3-0.4c1.3-0.4,3.4-0.8,5-1.3h0.4c6.7-1.3,16-3.4,22.3-8
            c5.9-4.2,8.4-4.2,16.8-4.2h0.8c1.7,0,3.4,0,5.5,0c5.9,0,11.3,0.4,13.4-5.5c1.7-5.5,0.4-38.6,0.4-39.1l-0.4-6.3
            c-0.8-16.4-1.3-29.4-4.2-34.9c-2.5-5.5-10.9-13-17.2-18.9l-0.4-0.4c-1.7-1.7-3.4-2.9-4.2-3.8c-5-5-15.5-13.9-21.4-17.2
            c-2.5-1.7-8-4.2-14.3-7.1c-7.1-3.4-17.2-8.4-20.2-10.5c-9.7-7.6-21-19.3-21.4-22.3c-0.4-1.3-0.8-2.1-2.1-2.9
            c-0.8-0.8-2.1-0.8-3.4-0.8c-2.5,0.4-4.2,2.9-3.8,5.5c0.4,2.1,1.7,4.6,4.2,7.6c-5.5,1.7-16.4,5.5-24.8,6.7
            c-12.2,1.7-18.1,3.8-21.4,10.5c-0.8,2.1-1.7,3.8-2.5,5.5c-0.8,2.1-1.7,3.8-2.1,4.6l-0.4,0.4c-0.4,0-2.5-0.4-5-0.8
            c-5.5-1.3-8.4-2.9-12.6-5.9c-3.8-2.5-7.1,0-8.4,1.3c-0.4,0-0.4,0.4-0.8,0.8c-0.4-1.3-0.8-3.4-0.8-4.6c-0.4-2.1-0.8-4.2-1.3-6.7
            c-2.1-7.1-7.1-7.6-10.5-7.6c-0.8,0-2.1,0-2.5-0.4c-0.4-0.4-1.3-1.7-1.7-2.5c-0.8-1.3-1.7-3.4-3.4-5.5c2.9-2.1,7.1-4.6,11.3-4.2
            c8.4,1.7,17.2,0.8,17.6,0.8H50l-0.8-2.9c-1.3-3.8-2.1-9.2-0.8-10.1l0.8-0.4c2.9-2.5,4.2-3.8,9.2-0.4c8,5.5,18.9,3.4,23.9,0
            c3.4-2.1,10.5-10.1,15.1-15.5c2.1,0.8,3.8,0.8,4.6,0.8c2.5,0,6.3-1.3,15.1-17.2c3.4-3.8,8-8.8,15.1-15.1c5,2.9,16,10.5,22.3,21
            c5,8.8,6.7,23.1,7.6,31.9c-3.8-5-5.5-12.2-5.5-12.2c-0.4-2.5-2.9-4.2-5.5-3.8c-1.3,0.4-2.1,0.8-2.9,2.1c-0.8,0.8-0.8,2.1-0.8,3.4
            c0.4,1.3,2.5,13,10.5,20.2c4.2,3.8,18.9,12.6,32.8,21.4l0.8,0.4c10.9,6.7,21.4,13.4,25.2,16l3.4,2.5l1.3-1.7l0,0l-1.3,1.7
            c17.2,13.4,22.3,18.1,23.1,19.7c0.4,8-5,94.1-10.9,102.1c-2.9,4.2-4.6,8-5.9,10.1c-0.4,0.4-0.8,1.7-1.3,2.1c-1.3,0-4.2,0-8.4,0.4
            C175.1,431.2,162.5,430.4,159.2,429.5C158.8,429.5,159.2,429.5,159.2,429.5z M410.3,185.9C410.3,185.9,410.3,186.3,410.3,185.9
            c0,0.8-1.3,1.7-5,4.2l0,0c-4.6,2.9-9.2,5-13.4,7.6c-5.9,2.9-11.8,5.9-16,9.7c-5.9,5-15.1,12.6-26.9,16
            c-12.2,3.4-46.6,15.1-60.9,19.7c-13.9,5-50,16.4-60.9,18.9c-9.2,2.5-21.8,6.3-25.6,7.6l-5.5-3.4c-8.8-5.5-18.5-11.3-24.8-15.5
            l20.6-38.2c6.7-12.6,18.1-30.2,26-41.6c5.9-8,20.2-23.5,29.8-33.6l4.2-4.6c4.2,0.8,12.2,3.8,20.6,15.1c9.7,12.6,14.7,23.5,16.8,28.6
            c-0.8,1.3-2.1,2.1-2.9,2.9c-10.5,10.5-30.7,27.3-36.1,31.5c-6.7,1.3-10.9,3.8-15.1,5.9c-1.7,0.8-2.9,1.7-5,2.5
            c-10.9,4.6-19.3,21-19.7,21.8c-0.4,1.3-0.8,2.5-0.4,3.4c0.4,1.3,1.3,2.1,2.1,2.5c2.1,1.3,5,0.4,6.3-2.1c2.5-5,9.2-15.1,15.1-17.6
            c2.1-0.8,3.8-1.7,5.9-2.9c5.9-2.9,10.1-5,23.5-5.5c13.4-0.4,18.9-1.7,25.6-3.4c2.5-0.8,5.5-1.3,9.2-2.1c12.6-2.1,39.1-6.7,39.5-7.1
            c2.1-0.4,3.8-2.5,3.8-4.6c0-5,0.8-13,4.2-15.1c3.8-2.5,10.9,0.4,16.8,2.9c1.3,0.4,2.5,0.8,3.4,1.3c8.4,3.4,18.5-0.4,26.9-3.4
            l2.5,0.4c9.7-3.4,13-3.8,14.7-3.8C409.5,184.7,409.9,185.5,410.3,185.9z M210.8,165.3c-4.6,6.7-10.5,15.1-16,23.9
            c-2.9-5.5-7.6-12.2-11.3-16c-4.2-4.2-10.9-9.7-15.1-13c5.5-4.6,12.2-9.7,18.1-14.3l0,0c15.1-11.8,29-22.7,34.9-29.8c0,0,0,0,0-0.4
            c2.9,3.8,7.1,9.7,9.2,13.9c1.7,3.4,2.9,6.3,3.8,8.4C225.5,147.7,215.5,158.6,210.8,165.3z"/>
</svg>