<svg version="1.1" class="dibsvg-svg dibsvg-zoom-in" xmlns="http://www.w3.org/2000/svg" xmlns:xlink="http://www.w3.org/1999/xlink" viewBox="0 0 250 250">
	<polygon points="97.7,59.7 87.7,59.7 87.7,90.7 57.8,90.7 57.8,100.7 87.7,100.7 87.7,129.5 97.7,129.5 97.7,100.7 127.8,100.7 
		127.8,90.7 97.7,90.7 	"/>
	<path d="M154.7,163.2l-0.9,0.8c-16.9,14.4-38.3,22.3-60.5,22.3c-51.4,0-93.2-41.7-93.2-93c0-51.3,41.8-93.1,93.1-93.1
		s93.2,41.7,93.2,93c0,23.4-8.7,45.6-24.5,62.8l-0.9,0.9l89.1,87l-6.2,6.3L154.7,163.2z M93.3,9.2C46.8,9.2,9,46.8,9,93.3
		c0,46.3,37.8,84.1,84.3,84.1s84.3-37.8,84.3-84.1C177.6,46.8,139.8,9.2,93.3,9.2z"/>
</svg>
