<svg xmlns="http://www.w3.org/2000/svg" class="dibsvg-svg dibsvg-zoom-out" viewBox="0 0 250 250">
    <path fill="#FFFFFF" fill-opacity="0.3" d="M93.3,9 C46.8,9 9,46.7 9,93.1 C9,139.4 46.8,177.2 93.3,177.2 C139.8,177.2 177.6,139.4 177.6,93.1 C177.6,46.7 139.8,9 93.3,9 Z"/>
    <rect width="70" height="10" x="57.8" y="90.6"/>
    <path d="M154.7,163.1l-0.9,0.8c-16.9,14.4-38.3,22.3-60.5,22.3c-51.4,0-93.2-41.7-93.2-93c0-51.3,41.8-93.1,93.1-93.1 s93.2,41.7,93.2,93c0,23.4-8.7,45.6-24.5,62.8l-0.9,0.9l89.1,87l-6.2,6.3L154.7,163.1z M93.3,9C46.8,9,9,46.7,9,93.1 c0,46.3,37.8,84.1,84.3,84.1s84.3-37.8,84.3-84.1C177.6,46.7,139.8,9,93.3,9z"/>
</svg>
